<svg width="145" height="38" viewBox="0 0 145 38" fill="none" xmlns="http://www.w3.org/2000/svg">
<g filter="url(#filter0_dd_5903_120909)">
<g clip-path="url(#clip0_5903_120909)">
<g clip-path="url(#clip1_5903_120909)">
<path d="M35 18C35 9.16344 27.8366 2 19 2C10.1634 2 3 9.16344 3 18C3 26.8366 10.1634 34 19 34C27.8366 34 35 26.8366 35 18Z" fill="white"/>
<path d="M35 18C35 9.16344 27.8366 2 19 2C10.1634 2 3 9.16344 3 18C3 26.8366 10.1634 34 19 34C27.8366 34 35 26.8366 35 18Z" fill="url(#paint0_linear_5903_120909)"/>
<path d="M20.1838 25.5423H11.9531L15.5973 20.3815H20.2698L23.0055 16.2793H26.361L20.1839 25.5423H20.1838Z" fill="#25274C"/>
<path d="M18.1815 10.3984H26.0486L19.8716 19.6614H11.6406L18.1815 10.3984Z" fill="#25274C"/>
</g>
</g>
</g>
<g clip-path="url(#clip2_5903_120909)">
<path d="M53.2391 10.6387C54.9935 10.6387 56.3898 11.2112 57.4281 12.3563C58.4843 13.4834 59.0123 15.04 59.0123 17.026V25.7749H54.4475V17.6432C54.4475 16.6413 54.1879 15.863 53.6688 15.3084C53.1496 14.7537 52.4515 14.4764 51.5743 14.4764C50.6971 14.4764 49.999 14.7537 49.4798 15.3084C48.9607 15.863 48.7011 16.6413 48.7011 17.6432V25.7749H44.1094L44.1094 10.7997H48.7011V12.7857C49.1665 12.1237 49.7931 11.6048 50.5808 11.2291C51.3684 10.8355 52.2545 10.6387 53.2391 10.6387Z" fill="#25274C"/>
<path d="M75.6522 17.9659C75.6522 18.3961 75.6254 18.8444 75.5716 19.3105H65.1691C65.2408 20.2427 65.5364 20.9598 66.0562 21.4617C66.5937 21.9458 67.2478 22.1878 68.0184 22.1878C69.1652 22.1878 69.9627 21.7038 70.4106 20.7357H75.3028C75.0518 21.7217 74.5949 22.6091 73.9318 23.3979C73.2868 24.1866 72.4714 24.8052 71.4858 25.2533C70.5002 25.7015 69.3982 25.9255 68.1796 25.9255C66.7102 25.9255 65.402 25.6119 64.2552 24.9844C63.1084 24.357 62.2124 23.4606 61.5673 22.2953C60.9221 21.13 60.5996 19.7675 60.5996 18.2079C60.5996 16.6482 60.9131 15.2858 61.5403 14.1205C62.1854 12.9552 63.0814 12.0589 64.2284 11.4314C65.3752 10.804 66.6923 10.4902 68.1796 10.4902C69.6312 10.4902 70.9213 10.795 72.0503 11.4045C73.1793 12.0141 74.0573 12.8835 74.6845 14.0129C75.3296 15.1424 75.6522 16.46 75.6522 17.9659ZM70.9483 16.7558C70.9483 15.967 70.6795 15.3396 70.1418 14.8734C69.6043 14.4073 68.9323 14.1743 68.1258 14.1743C67.3553 14.1743 66.7013 14.3984 66.1636 14.8466C65.644 15.2947 65.3214 15.9312 65.1959 16.7558H70.9483Z" fill="#25274C"/>
<path d="M98.725 10.7891L94.6692 25.7758H89.5927L87.229 16.0532L84.7848 25.7758H79.7351L75.6523 10.7891H80.2454L82.3673 21.5053L84.8922 10.7891H89.7538L92.3055 21.4516L94.4005 10.7891H98.725Z" fill="#25274C"/>
<path d="M109.527 22.0002V25.8939H107.183C105.512 25.8939 104.209 25.4912 103.275 24.6855C102.341 23.862 101.874 22.5283 101.874 20.6843V14.723H100.041V10.9098H101.874V7.25781H106.482V10.9098H109.5V14.723H106.482V20.7381C106.482 21.1856 106.59 21.5079 106.806 21.7048C107.021 21.9018 107.38 22.0002 107.883 22.0002H109.527Z" fill="#25274C"/>
<path d="M115.907 13.4147C116.443 12.5917 117.114 11.9476 117.918 11.4824C118.722 10.9993 119.616 10.7578 120.599 10.7578V15.6154H119.339C118.195 15.6154 117.337 15.8658 116.765 16.3668C116.193 16.8499 115.907 17.7087 115.907 18.9431V25.8941H111.322V10.9188H115.907V13.4147Z" fill="#25274C"/>
<path d="M121.377 18.1661C121.377 16.6274 121.664 15.2765 122.237 14.1135C122.828 12.9505 123.626 12.0558 124.629 11.4296C125.632 10.8034 126.752 10.4902 127.989 10.4902C129.046 10.4902 129.969 10.705 130.757 11.1344C131.563 11.5638 132.182 12.1274 132.612 12.8252V10.705H137.208V25.681H132.612V23.5607C132.164 24.2585 131.536 24.8221 130.73 25.2515C129.942 25.681 129.019 25.8957 127.962 25.8957C126.743 25.8957 125.632 25.5826 124.629 24.9564C123.626 24.3122 122.828 23.4086 122.237 22.2457C121.664 21.0647 121.377 19.7048 121.377 18.1661ZM132.612 18.193C132.612 17.0478 132.289 16.1443 131.644 15.4822C131.017 14.8202 130.246 14.4892 129.333 14.4892C128.419 14.4892 127.639 14.8202 126.994 15.4822C126.367 16.1264 126.054 17.021 126.054 18.1661C126.054 19.3112 126.367 20.2238 126.994 20.9037C127.639 21.5657 128.419 21.8967 129.333 21.8967C130.246 21.8967 131.017 21.5657 131.644 20.9037C132.289 20.2417 132.612 19.3381 132.612 18.193Z" fill="#25274C"/>
<path d="M143.612 6.03125V25.8938H139.004V6.03125L143.612 6.03125Z" fill="#25274C"/>
</g>
<defs>
<filter id="filter0_dd_5903_120909" x="0" y="0" width="38" height="38" filterUnits="userSpaceOnUse" color-interpolation-filters="sRGB">
<feFlood flood-opacity="0" result="BackgroundImageFix"/>
<feColorMatrix in="SourceAlpha" type="matrix" values="0 0 0 0 0 0 0 0 0 0 0 0 0 0 0 0 0 0 127 0" result="hardAlpha"/>
<feOffset dy="1"/>
<feGaussianBlur stdDeviation="1"/>
<feColorMatrix type="matrix" values="0 0 0 0 0.0627451 0 0 0 0 0.0941176 0 0 0 0 0.156863 0 0 0 0.06 0"/>
<feBlend mode="normal" in2="BackgroundImageFix" result="effect1_dropShadow_5903_120909"/>
<feColorMatrix in="SourceAlpha" type="matrix" values="0 0 0 0 0 0 0 0 0 0 0 0 0 0 0 0 0 0 127 0" result="hardAlpha"/>
<feOffset dy="1"/>
<feGaussianBlur stdDeviation="1.5"/>
<feColorMatrix type="matrix" values="0 0 0 0 0.0627451 0 0 0 0 0.0941176 0 0 0 0 0.156863 0 0 0 0.1 0"/>
<feBlend mode="normal" in2="effect1_dropShadow_5903_120909" result="effect2_dropShadow_5903_120909"/>
<feBlend mode="normal" in="SourceGraphic" in2="effect2_dropShadow_5903_120909" result="shape"/>
</filter>
<linearGradient id="paint0_linear_5903_120909" x1="19" y1="2" x2="19" y2="30.928" gradientUnits="userSpaceOnUse">
<stop stop-color="#E1DFF3"/>
<stop offset="1" stop-color="#DBDDEF" stop-opacity="0"/>
</linearGradient>
<clipPath id="clip0_5903_120909">
<rect width="32" height="32" fill="white" transform="translate(3 2)"/>
</clipPath>
<clipPath id="clip1_5903_120909">
<rect width="32" height="32" fill="white" transform="translate(3 2)"/>
</clipPath>
<clipPath id="clip2_5903_120909">
<rect width="99.6875" height="20" fill="white" transform="translate(44 6)"/>
</clipPath>
</defs>
</svg>
