<svg width="162" height="102" viewBox="0 0 162 102" fill="none" xmlns="http://www.w3.org/2000/svg">
<path d="M37.5796 102C29.7366 102 23.005 99.9905 17.3847 95.9716C11.7962 91.9206 7.4937 86.0851 4.47717 78.4652C1.49239 70.8132 0 61.6019 0 50.8312C0.0317529 40.0605 1.54002 30.8974 4.5248 23.3418C7.54133 15.7541 11.8439 9.9669 17.4324 5.98015C23.0526 1.99338 29.7684 0 37.5796 0C45.3909 0 52.1066 1.99338 57.7269 5.98015C63.3471 9.9669 67.6497 15.7541 70.6344 23.3418C73.651 30.9296 75.1592 40.0927 75.1592 50.8312C75.1592 61.634 73.651 70.8615 70.6344 78.5135C67.6497 86.1333 63.3471 91.9527 57.7269 95.9716C52.1384 99.9905 45.4226 102 37.5796 102ZM37.5796 86.905C43.6762 86.905 48.4868 83.8667 52.0113 77.7901C55.5677 71.6813 57.3458 62.695 57.3458 50.8312C57.3458 42.9863 56.5361 36.3953 54.9167 31.0582C53.2973 25.721 51.0111 21.7021 48.0581 19.0014C45.1051 16.2686 41.6122 14.9021 37.5796 14.9021C31.5148 14.9021 26.7201 17.9565 23.1955 24.0652C19.671 30.1418 17.8928 39.0638 17.861 50.8312C17.8293 58.7083 18.6072 65.3314 20.1949 70.7007C21.8143 76.07 24.1005 80.121 27.0535 82.8539C30.0065 85.5546 33.5152 86.905 37.5796 86.905Z" fill="#E8E8E8"/>
<path d="M125.992 101.469C119.133 101.469 113.037 100.28 107.702 97.9007C102.399 95.5215 98.2079 92.2099 95.1279 87.966C92.0479 83.722 90.4126 78.8189 90.2221 73.2567H108.131C108.289 75.9253 109.163 78.2563 110.75 80.2496C112.338 82.2109 114.45 83.7381 117.085 84.8312C119.721 85.9243 122.674 86.4709 125.944 86.4709C129.437 86.4709 132.533 85.86 135.232 84.6383C137.931 83.3844 140.042 81.6482 141.567 79.4298C143.091 77.2113 143.837 74.6553 143.805 71.7617C143.837 68.7716 143.075 66.1352 141.519 63.8525C139.963 61.5697 137.709 59.7853 134.756 58.4993C131.834 57.2132 128.31 56.5702 124.182 56.5702H115.561V42.7773H124.182C127.579 42.7773 130.548 42.1825 133.089 40.9929C135.661 39.8033 137.677 38.1314 139.137 35.9773C140.598 33.791 141.313 31.2671 141.281 28.4057C141.313 25.6085 140.693 23.1811 139.423 21.1234C138.185 19.0336 136.423 17.4099 134.136 16.2525C131.882 15.095 129.231 14.5163 126.182 14.5163C123.197 14.5163 120.435 15.0629 117.895 16.156C115.355 17.2492 113.306 18.8085 111.751 20.834C110.195 22.8274 109.369 25.2066 109.274 27.9716H92.2701C92.3971 22.4416 93.9689 17.5868 96.9854 13.4071C100.034 9.19527 104.098 5.91584 109.179 3.5688C114.259 1.1896 119.959 0 126.278 0C132.787 0 138.439 1.23783 143.234 3.71347C148.06 6.15697 151.791 9.45248 154.427 13.6C157.062 17.7475 158.38 22.3291 158.38 27.3447C158.412 32.9069 156.792 37.5688 153.522 41.3305C150.283 45.0922 146.028 47.5518 140.757 48.7092V49.4808C147.616 50.4454 152.871 53.0175 156.522 57.1972C160.206 61.3447 162.031 66.505 162 72.678C162 78.208 160.444 83.1593 157.332 87.5319C154.252 91.8723 149.997 95.2804 144.567 97.756C139.169 100.232 132.977 101.469 125.992 101.469Z" fill="#E8E8E8"/>
</svg>
