<svg width="165" height="102" viewBox="0 0 165 102" fill="none" xmlns="http://www.w3.org/2000/svg">
<path d="M37.5579 102C29.7194 102 22.9917 99.9905 17.3747 95.9716C11.7894 91.9206 7.48936 86.0851 4.47458 78.4652C1.49153 70.8132 0 61.6019 0 50.8312C0.0317346 40.0605 1.53913 30.8974 4.52218 23.3418C7.53696 15.7541 11.837 9.9669 17.4223 5.98015C23.0393 1.99338 29.7512 0 37.5579 0C45.3646 0 52.0765 1.99338 57.6935 5.98015C63.3105 9.9669 67.6105 15.7541 70.5936 23.3418C73.6084 30.9296 75.1158 40.0927 75.1158 50.8312C75.1158 61.634 73.6084 70.8615 70.5936 78.5135C67.6105 86.1333 63.3105 91.9527 57.6935 95.9716C52.1082 99.9905 45.3963 102 37.5579 102ZM37.5579 86.905C43.6509 86.905 48.4587 83.8667 51.9813 77.7901C55.5355 71.6813 57.3127 62.695 57.3127 50.8312C57.3127 42.9863 56.5034 36.3953 54.885 31.0582C53.2665 25.721 50.9816 21.7021 48.0303 19.0014C45.079 16.2686 41.5882 14.9021 37.5579 14.9021C31.4966 14.9021 26.7047 17.9565 23.1821 24.0652C19.6596 30.1418 17.8824 39.0638 17.8507 50.8312C17.819 58.7083 18.5965 65.3314 20.1832 70.7007C21.8017 76.07 24.0865 80.121 27.0379 82.8539C29.9892 85.5546 33.4959 86.905 37.5579 86.905Z" fill="#E8E8E8"/>
<path d="M89.1702 81.7929V67.566L130.536 1.35036H142.246V21.6057H135.106L107.259 66.3121V67.0837H165V81.7929H89.1702ZM135.677 100.119V77.4525L135.868 71.0865V1.35036H152.528V100.119H135.677Z" fill="#E8E8E8"/>
</svg>
