<svg width="400" height="400" viewBox="0 0 400 400" fill="none" xmlns="http://www.w3.org/2000/svg">
<g clip-path="url(#clip0_617_6688)">
<path d="M359.136 319.368H332.64V319.568H359.136V319.368Z" fill="#EBEBEB"/>
<path d="M264.192 321.536H257.24V321.736H264.192V321.536Z" fill="#EBEBEB"/>
<path d="M331.84 311.936H316.488V312.136H331.84V311.936Z" fill="#EBEBEB"/>
<path d="M75.7361 313.28H41.1841V313.48H75.7361V313.28Z" fill="#EBEBEB"/>
<path d="M87.928 313.28H82.864V313.48H87.928V313.28Z" fill="#EBEBEB"/>
<path d="M179.336 316.656H104.392V316.856H179.336V316.656Z" fill="#EBEBEB"/>
<path d="M188.8 270.808H34.3522C33.1407 270.808 31.9788 270.327 31.1221 269.47C30.2654 268.613 29.7842 267.452 29.7842 266.24V49.096C29.7863 47.8859 30.2685 46.7261 31.1249 45.8711C31.9814 45.0162 33.1421 44.536 34.3522 44.536H188.8C190.01 44.536 191.171 45.0162 192.027 45.8711C192.884 46.7261 193.366 47.8859 193.368 49.096V266.24C193.368 267.452 192.887 268.613 192.03 269.47C191.174 270.327 190.012 270.808 188.8 270.808ZM34.3522 44.736C33.1951 44.736 32.0853 45.1951 31.2664 46.0125C30.4474 46.83 29.9863 47.9389 29.9842 49.096V266.24C29.9863 267.398 30.4472 268.508 31.2659 269.326C32.0846 270.145 33.1944 270.606 34.3522 270.608H188.8C189.958 270.606 191.068 270.145 191.886 269.326C192.705 268.508 193.166 267.398 193.168 266.24V49.096C193.166 47.9389 192.705 46.83 191.886 46.0125C191.067 45.1951 189.957 44.736 188.8 44.736H34.3522Z" fill="#EBEBEB"/>
<path d="M361.864 270.808H207.384C206.174 270.806 205.014 270.324 204.159 269.467C203.304 268.611 202.824 267.45 202.824 266.24V49.096C202.826 47.8873 203.307 46.7286 204.162 45.8739C205.017 45.0192 206.175 44.5381 207.384 44.536H361.864C363.074 44.536 364.235 45.0162 365.091 45.8711C365.948 46.7261 366.43 47.8859 366.432 49.096V266.24C366.432 267.452 365.951 268.613 365.094 269.47C364.237 270.327 363.075 270.808 361.864 270.808ZM207.384 44.736C206.228 44.736 205.119 45.1954 204.301 46.013C203.483 46.8307 203.024 47.9397 203.024 49.096V266.24C203.024 267.397 203.483 268.507 204.301 269.326C205.118 270.145 206.227 270.606 207.384 270.608H361.864C363.022 270.606 364.132 270.145 364.95 269.326C365.769 268.508 366.23 267.398 366.232 266.24V49.096C366.23 47.9389 365.769 46.83 364.95 46.0125C364.131 45.1951 363.021 44.736 361.864 44.736H207.384Z" fill="#EBEBEB"/>
<path d="M399.216 306.488H-0.783936V306.688H399.216V306.488Z" fill="#EBEBEB"/>
<path d="M57.9841 301.752H125.848L125.848 211.448H57.9841L57.9841 301.752Z" fill="#F0F0F0"/>
<path d="M45.0401 301.752H57.9841L57.9841 211.448H45.0401L45.0401 301.752Z" fill="#E6E6E6"/>
<path d="M62.3839 240.088H121.096V218.16H62.3839V240.088Z" fill="#FAFAFA"/>
<path d="M99.4001 218.152L99.1441 221.08C99.1004 221.545 98.8854 221.977 98.5409 222.292C98.1963 222.607 97.7469 222.782 97.2801 222.784H86.2081C85.7413 222.782 85.2919 222.607 84.9474 222.292C84.6029 221.977 84.3878 221.545 84.3441 221.08L84.0881 218.152H99.4001Z" fill="#EBEBEB"/>
<path d="M62.3839 264.408H121.096V242.48H62.3839V264.408Z" fill="#FAFAFA"/>
<path d="M99.4001 242.48L99.1441 245.4C99.1022 245.865 98.8877 246.298 98.5428 246.614C98.1978 246.929 97.7475 247.104 97.2801 247.104H86.2081C85.7408 247.104 85.2904 246.929 84.9455 246.614C84.6006 246.298 84.3861 245.865 84.3441 245.4L84.0881 242.48H99.4001Z" fill="#EBEBEB"/>
<path d="M62.3839 288.736H121.096V266.808H62.3839V288.736Z" fill="#FAFAFA"/>
<path d="M99.4001 266.808L99.1441 269.728C99.1022 270.194 98.8877 270.626 98.5428 270.942C98.1978 271.257 97.7475 271.432 97.2801 271.432H86.2081C85.7408 271.432 85.2904 271.257 84.9455 270.942C84.6006 270.626 84.3861 270.194 84.3441 269.728L84.0881 266.808H99.4001Z" fill="#EBEBEB"/>
<path d="M62.3921 306.264H120.384L121.096 301.752H62.3921V306.264Z" fill="#E6E6E6"/>
<path d="M50.264 306.264H62.392V301.752H49.552L50.264 306.264Z" fill="#E0E0E0"/>
<path d="M89.6481 211.552H112.824L110.256 182.16H87.0801L89.6481 211.552Z" fill="#FAFAFA"/>
<path d="M89.6481 211.552H88.5441L85.9761 182.16H87.0801L89.6481 211.552Z" fill="#EBEBEB"/>
<path d="M91.7521 208.552H110.2L108.152 185.16H89.7041L91.7521 208.552Z" fill="#F0F0F0"/>
<path d="M93.1041 206.624H108.512L106.8 187.08H91.3921L93.1041 206.624Z" fill="#E6E6E6"/>
<path d="M83.136 211.552L84.728 193.36H61.664L60.072 211.552H83.136Z" fill="#F0F0F0"/>
<path d="M83.136 211.552L84.728 193.36H85.976L84.384 211.552H83.136Z" fill="#E0E0E0"/>
<path d="M80.952 209.696L82.216 195.216H63.848L62.584 209.696H80.952Z" fill="#EBEBEB"/>
<path d="M79.544 208.504L80.6 196.408H65.256L64.2 208.504H79.544Z" fill="#F5F5F5"/>
<path d="M184.856 226.168H190.312V305.44C190.312 305.692 190.212 305.935 190.033 306.113C189.855 306.292 189.613 306.392 189.36 306.392H185.8C185.548 306.392 185.306 306.292 185.127 306.113C184.948 305.935 184.848 305.692 184.848 305.44V226.168H184.856Z" fill="#F0F0F0"/>
<path d="M343.464 219.032H330.928V217.92C330.927 217.403 331.032 216.892 331.235 216.417C331.438 215.942 331.736 215.513 332.11 215.157C332.485 214.801 332.927 214.525 333.412 214.345C333.896 214.165 334.412 214.086 334.928 214.112L339.84 214.376C340.814 214.429 341.731 214.854 342.402 215.562C343.073 216.27 343.447 217.208 343.448 218.184L343.464 219.032Z" fill="#F0F0F0"/>
<path d="M309.6 193.112C309.575 192.637 309.369 192.189 309.024 191.861C308.678 191.534 308.22 191.351 307.744 191.352H295.088C294.613 191.353 294.157 191.537 293.814 191.864C293.47 192.191 293.265 192.638 293.24 193.112L296.248 219.512H315.2L309.6 193.112Z" fill="#E0E0E0"/>
<path d="M344 152.512H339.28L334 202.4H338.72C339.114 202.403 339.496 202.26 339.791 201.998C340.086 201.737 340.275 201.376 340.32 200.984L345.328 153.944C345.356 153.758 345.342 153.569 345.287 153.389C345.232 153.21 345.137 153.045 345.009 152.908C344.882 152.77 344.725 152.663 344.55 152.595C344.375 152.526 344.187 152.498 344 152.512Z" fill="#E0E0E0"/>
<path d="M336.728 202.4H265.96C265.78 202.404 265.601 202.369 265.435 202.297C265.27 202.225 265.122 202.118 265.002 201.983C264.881 201.849 264.792 201.69 264.739 201.517C264.686 201.345 264.672 201.163 264.696 200.984L269.696 153.944C269.741 153.552 269.93 153.191 270.225 152.93C270.52 152.668 270.902 152.525 271.296 152.528H342.064C342.244 152.524 342.423 152.559 342.589 152.631C342.754 152.703 342.902 152.81 343.022 152.945C343.143 153.079 343.232 153.238 343.285 153.411C343.338 153.583 343.352 153.765 343.328 153.944L338.328 200.984C338.283 201.376 338.094 201.737 337.799 201.998C337.504 202.26 337.122 202.403 336.728 202.4Z" fill="#EBEBEB"/>
<path d="M335.408 197.784H268.672C268.515 197.787 268.358 197.755 268.214 197.692C268.07 197.628 267.941 197.535 267.836 197.417C267.731 197.299 267.653 197.16 267.607 197.01C267.561 196.859 267.547 196.7 267.568 196.544L271.936 155.504C271.975 155.167 272.135 154.855 272.387 154.627C272.638 154.398 272.964 154.27 273.304 154.264H340C340.158 154.26 340.315 154.291 340.46 154.354C340.605 154.416 340.734 154.51 340.839 154.628C340.945 154.746 341.023 154.886 341.068 155.037C341.114 155.188 341.126 155.348 341.104 155.504L336.8 196.544C336.759 196.885 336.595 197.199 336.339 197.427C336.082 197.656 335.751 197.783 335.408 197.784Z" fill="#E0E0E0"/>
<path d="M316.128 217.472H292.352C291.928 217.472 291.584 217.816 291.584 218.24V218.752C291.584 219.176 291.928 219.52 292.352 219.52H316.128C316.552 219.52 316.896 219.176 316.896 218.752V218.24C316.896 217.816 316.552 217.472 316.128 217.472Z" fill="#E0E0E0"/>
<path d="M268.424 197.784L288.256 180.544C290.144 178.944 292.552 178.944 293.64 180.544L305.136 197.784H268.424Z" fill="#EBEBEB"/>
<path d="M288.256 180.544L268.424 197.784H287.44C285.544 196.824 281.08 196.312 281.608 194.112C282.304 191.256 291.144 192.256 291.8 189.544C292.456 186.832 286.152 187.688 286.944 184.4C287.36 182.68 288.992 180.808 290.456 179.408C289.64 179.597 288.883 179.988 288.256 180.544Z" fill="#F5F5F5"/>
<path d="M297.6 197.784L306.4 189.088C307.2 188.288 308.296 188.288 308.8 189.088L313.888 197.784H297.6Z" fill="#EBEBEB"/>
<path d="M306.4 189.088L297.6 197.784H306.024C305.184 197.296 303.208 197.04 303.44 195.928C303.744 194.488 307.664 194.992 307.96 193.624C308.256 192.256 305.456 192.688 305.808 191.032C306.112 190.078 306.644 189.213 307.36 188.512C306.994 188.613 306.662 188.813 306.4 189.088Z" fill="#FAFAFA"/>
<path d="M312.648 197.784L324.96 189.088C326.136 188.288 327.632 188.288 328.304 189.088L335.44 197.784H312.648Z" fill="#EBEBEB"/>
<path d="M324.96 189.088L312.648 197.784H324.456C323.28 197.296 320.504 197.04 320.832 195.928C321.264 194.488 326.752 194.992 327.16 193.624C327.568 192.256 323.656 192.688 324.144 191.032C324.634 190.012 325.388 189.142 326.328 188.512C325.835 188.601 325.368 188.797 324.96 189.088Z" fill="#FAFAFA"/>
<path d="M324.923 177.016C328.543 173.76 329.344 168.748 326.711 165.821C324.078 162.894 319.01 163.161 315.39 166.417C311.77 169.673 310.969 174.685 313.602 177.612C316.234 180.539 321.303 180.272 324.923 177.016Z" fill="#F0F0F0"/>
<path opacity="0.8" d="M324.923 177.016C328.543 173.76 329.344 168.748 326.711 165.821C324.078 162.894 319.01 163.161 315.39 166.417C311.77 169.673 310.969 174.685 313.602 177.612C316.234 180.539 321.303 180.272 324.923 177.016Z" fill="white"/>
<path d="M353.712 219.032H306.432V226.168H353.712V219.032Z" fill="#E6E6E6"/>
<path d="M218.656 226.168H224.112V305.44C224.112 305.692 224.012 305.935 223.833 306.113C223.655 306.292 223.412 306.392 223.16 306.392H219.6C219.347 306.392 219.105 306.292 218.927 306.113C218.748 305.935 218.648 305.692 218.648 305.44V226.168H218.656Z" fill="#E6E6E6"/>
<path d="M345.104 226.168H350.56V305.44C350.561 305.566 350.537 305.692 350.489 305.809C350.441 305.926 350.371 306.032 350.281 306.121C350.192 306.211 350.086 306.281 349.969 306.329C349.852 306.377 349.727 306.401 349.6 306.4H346.04C345.788 306.4 345.546 306.3 345.367 306.121C345.188 305.943 345.088 305.7 345.088 305.448V226.168H345.104Z" fill="#E6E6E6"/>
<path d="M319.912 219.032H181.704V226.168H319.912V219.032Z" fill="#F5F5F5"/>
<path d="M311.312 226.168H316.8V305.44C316.8 305.692 316.7 305.935 316.522 306.113C316.343 306.292 316.101 306.392 315.848 306.392H312.288C312.036 306.392 311.794 306.292 311.615 306.113C311.437 305.935 311.336 305.692 311.336 305.44V226.168H311.312Z" fill="#F0F0F0"/>
<path d="M272.928 217.368H271.2C271.111 217.368 271.025 217.333 270.962 217.27C270.899 217.207 270.864 217.121 270.864 217.032V215.2C270.864 215.111 270.899 215.025 270.962 214.962C271.025 214.899 271.111 214.864 271.2 214.864H272.464C272.538 214.865 272.61 214.889 272.669 214.934C272.728 214.978 272.771 215.041 272.792 215.112L273.288 216.984C273.295 217.034 273.291 217.085 273.276 217.133C273.261 217.182 273.235 217.226 273.201 217.263C273.166 217.3 273.124 217.329 273.076 217.347C273.029 217.365 272.978 217.372 272.928 217.368Z" fill="#F5F5F5"/>
<path d="M275.368 217.368H273.6C273.556 217.368 273.512 217.359 273.472 217.342C273.431 217.326 273.394 217.301 273.363 217.27C273.331 217.238 273.307 217.201 273.29 217.161C273.273 217.12 273.264 217.076 273.264 217.032V215.2C273.264 215.156 273.273 215.112 273.29 215.071C273.307 215.031 273.331 214.994 273.363 214.962C273.394 214.931 273.431 214.906 273.472 214.89C273.512 214.873 273.556 214.864 273.6 214.864H274.864C274.938 214.865 275.01 214.889 275.069 214.934C275.128 214.978 275.171 215.041 275.192 215.112L275.688 216.984C275.695 217.031 275.692 217.078 275.679 217.124C275.666 217.169 275.644 217.211 275.614 217.247C275.584 217.284 275.546 217.313 275.504 217.334C275.461 217.355 275.415 217.366 275.368 217.368Z" fill="#F5F5F5"/>
<path d="M277.808 217.368H276.04C275.951 217.368 275.866 217.333 275.803 217.27C275.74 217.207 275.704 217.121 275.704 217.032V215.2C275.704 215.111 275.74 215.025 275.803 214.962C275.866 214.899 275.951 214.864 276.04 214.864H277.312C277.386 214.865 277.458 214.889 277.517 214.934C277.576 214.978 277.619 215.041 277.64 215.112L278.136 216.984C278.143 217.031 278.14 217.08 278.126 217.125C278.113 217.171 278.09 217.214 278.059 217.25C278.028 217.287 277.99 217.316 277.946 217.336C277.903 217.357 277.856 217.367 277.808 217.368Z" fill="#F5F5F5"/>
<path d="M280.248 217.368H278.48C278.391 217.368 278.305 217.333 278.242 217.27C278.179 217.207 278.144 217.121 278.144 217.032V215.2C278.144 215.111 278.179 215.025 278.242 214.962C278.305 214.899 278.391 214.864 278.48 214.864H279.752C279.825 214.864 279.897 214.888 279.955 214.933C280.013 214.978 280.054 215.041 280.072 215.112L280.576 216.984C280.583 217.031 280.58 217.08 280.566 217.125C280.553 217.171 280.53 217.214 280.499 217.25C280.468 217.287 280.43 217.316 280.386 217.336C280.343 217.357 280.296 217.367 280.248 217.368Z" fill="#F5F5F5"/>
<path d="M282.688 217.368H280.92C280.831 217.368 280.746 217.333 280.683 217.27C280.62 217.207 280.584 217.121 280.584 217.032V215.2C280.584 215.111 280.62 215.025 280.683 214.962C280.746 214.899 280.831 214.864 280.92 214.864H282.192C282.265 214.865 282.336 214.89 282.394 214.934C282.452 214.979 282.493 215.042 282.512 215.112L283.008 216.984C283.015 217.031 283.012 217.078 282.999 217.124C282.986 217.169 282.964 217.211 282.934 217.247C282.904 217.284 282.866 217.313 282.824 217.334C282.782 217.355 282.735 217.366 282.688 217.368Z" fill="#F5F5F5"/>
<path d="M285.128 217.368H283.36C283.271 217.368 283.186 217.333 283.123 217.27C283.06 217.207 283.024 217.121 283.024 217.032V215.2C283.024 215.111 283.06 215.025 283.123 214.962C283.186 214.899 283.271 214.864 283.36 214.864H284.624C284.699 214.863 284.771 214.887 284.831 214.932C284.89 214.977 284.933 215.04 284.952 215.112L285.448 216.984C285.455 217.031 285.452 217.078 285.439 217.124C285.426 217.169 285.404 217.211 285.374 217.247C285.344 217.284 285.306 217.313 285.264 217.334C285.222 217.355 285.175 217.366 285.128 217.368Z" fill="#F5F5F5"/>
<path d="M287.568 217.368H285.8C285.711 217.368 285.626 217.333 285.563 217.27C285.5 217.207 285.464 217.121 285.464 217.032V215.2C285.464 215.111 285.5 215.025 285.563 214.962C285.626 214.899 285.711 214.864 285.8 214.864H287.064C287.138 214.865 287.21 214.889 287.269 214.934C287.328 214.978 287.371 215.041 287.392 215.112L287.888 216.984C287.895 217.031 287.892 217.078 287.879 217.124C287.866 217.169 287.844 217.211 287.814 217.247C287.784 217.284 287.746 217.313 287.704 217.334C287.661 217.355 287.615 217.366 287.568 217.368Z" fill="#F5F5F5"/>
<path d="M290 217.368H288.24C288.151 217.368 288.065 217.333 288.002 217.27C287.939 217.207 287.904 217.121 287.904 217.032V215.2C287.904 215.111 287.939 215.025 288.002 214.962C288.065 214.899 288.151 214.864 288.24 214.864H289.504C289.578 214.865 289.65 214.889 289.709 214.934C289.768 214.978 289.811 215.041 289.832 215.112L290.328 216.984C290.335 217.031 290.332 217.08 290.318 217.125C290.305 217.171 290.282 217.214 290.251 217.25C290.22 217.287 290.182 217.316 290.138 217.336C290.095 217.357 290.048 217.367 290 217.368Z" fill="#F5F5F5"/>
<path d="M292.44 217.368H290.68C290.591 217.368 290.505 217.333 290.442 217.27C290.379 217.207 290.344 217.121 290.344 217.032V215.2C290.344 215.111 290.379 215.025 290.442 214.962C290.505 214.899 290.591 214.864 290.68 214.864H291.944C292.018 214.865 292.09 214.889 292.149 214.934C292.208 214.978 292.251 215.041 292.272 215.112L292.768 216.984C292.775 217.031 292.771 217.08 292.758 217.125C292.745 217.171 292.722 217.214 292.691 217.25C292.66 217.287 292.621 217.316 292.578 217.336C292.535 217.357 292.488 217.367 292.44 217.368Z" fill="#F5F5F5"/>
<path d="M294.88 217.368H293.112C293.068 217.368 293.024 217.359 292.984 217.342C292.943 217.326 292.906 217.301 292.875 217.27C292.843 217.238 292.819 217.201 292.802 217.161C292.785 217.12 292.776 217.076 292.776 217.032V215.2C292.776 215.156 292.785 215.112 292.802 215.071C292.819 215.031 292.843 214.994 292.875 214.962C292.906 214.931 292.943 214.906 292.984 214.89C293.024 214.873 293.068 214.864 293.112 214.864H294.4C294.474 214.865 294.546 214.889 294.605 214.934C294.664 214.978 294.707 215.041 294.728 215.112L295.224 216.984C295.231 217.033 295.227 217.082 295.213 217.129C295.199 217.176 295.175 217.22 295.142 217.256C295.109 217.293 295.069 217.322 295.023 217.341C294.978 217.361 294.929 217.37 294.88 217.368Z" fill="#F5F5F5"/>
<path d="M297.32 217.368H295.552C295.463 217.368 295.377 217.333 295.314 217.27C295.251 217.207 295.216 217.121 295.216 217.032V215.2C295.216 215.111 295.251 215.025 295.314 214.962C295.377 214.899 295.463 214.864 295.552 214.864H296.8C296.873 214.864 296.945 214.888 297.003 214.933C297.061 214.978 297.102 215.041 297.12 215.112L297.624 216.984C297.631 217.029 297.628 217.076 297.616 217.12C297.604 217.164 297.584 217.206 297.555 217.242C297.527 217.278 297.491 217.308 297.451 217.329C297.41 217.351 297.366 217.364 297.32 217.368Z" fill="#F5F5F5"/>
<path d="M299.76 217.368H297.992C297.903 217.368 297.817 217.333 297.754 217.27C297.691 217.207 297.656 217.121 297.656 217.032V215.2C297.656 215.111 297.691 215.025 297.754 214.962C297.817 214.899 297.903 214.864 297.992 214.864H299.264C299.337 214.865 299.408 214.89 299.466 214.934C299.523 214.979 299.565 215.042 299.584 215.112L300.08 216.984C300.087 217.031 300.084 217.078 300.071 217.124C300.058 217.169 300.036 217.211 300.006 217.247C299.975 217.284 299.938 217.313 299.896 217.334C299.853 217.355 299.807 217.366 299.76 217.368Z" fill="#F5F5F5"/>
<path d="M302.2 217.368H300.432C300.388 217.368 300.344 217.359 300.304 217.342C300.263 217.326 300.226 217.301 300.195 217.27C300.163 217.238 300.139 217.201 300.122 217.161C300.105 217.12 300.096 217.076 300.096 217.032V215.2C300.096 215.156 300.105 215.112 300.122 215.071C300.139 215.031 300.163 214.994 300.195 214.962C300.226 214.931 300.263 214.907 300.304 214.89C300.344 214.873 300.388 214.864 300.432 214.864H301.696C301.771 214.863 301.843 214.887 301.903 214.932C301.962 214.977 302.005 215.04 302.024 215.112L302.52 216.984C302.527 217.031 302.524 217.078 302.511 217.124C302.498 217.169 302.476 217.211 302.446 217.247C302.416 217.284 302.378 217.313 302.336 217.334C302.294 217.355 302.247 217.366 302.2 217.368Z" fill="#F5F5F5"/>
<path d="M304.632 217.368H302.872C302.783 217.368 302.698 217.333 302.635 217.27C302.572 217.207 302.536 217.121 302.536 217.032V215.2C302.536 215.111 302.572 215.025 302.635 214.962C302.698 214.899 302.783 214.864 302.872 214.864H304.136C304.21 214.865 304.282 214.889 304.341 214.934C304.4 214.978 304.443 215.041 304.464 215.112L304.96 216.984C304.967 217.031 304.964 217.08 304.95 217.125C304.937 217.171 304.914 217.214 304.883 217.25C304.852 217.287 304.814 217.316 304.77 217.336C304.727 217.357 304.68 217.367 304.632 217.368Z" fill="#F5F5F5"/>
<path d="M307.072 217.368H305.312C305.223 217.368 305.137 217.333 305.074 217.27C305.011 217.207 304.976 217.121 304.976 217.032V215.2C304.976 215.111 305.011 215.025 305.074 214.962C305.137 214.899 305.223 214.864 305.312 214.864H306.576C306.65 214.865 306.722 214.889 306.781 214.934C306.84 214.978 306.883 215.041 306.904 215.112L307.4 216.984C307.407 217.031 307.404 217.08 307.39 217.125C307.377 217.171 307.354 217.214 307.323 217.25C307.292 217.287 307.254 217.316 307.21 217.336C307.167 217.357 307.12 217.367 307.072 217.368Z" fill="#F5F5F5"/>
<path d="M308.848 216.096H269.392V219.032H308.848V216.096Z" fill="#EBEBEB"/>
<path d="M196.144 338.968C281.81 338.968 351.256 334.913 351.256 329.912C351.256 324.91 281.81 320.856 196.144 320.856C110.478 320.856 41.032 324.91 41.032 329.912C41.032 334.913 110.478 338.968 196.144 338.968Z" fill="#E7E7E7"/>
<path d="M58.248 228.816H281.112L269.472 62.392H46.616L58.248 228.816Z" fill="#007BFF"/>
<g opacity="0.6">
<path d="M58.248 228.816H281.112L269.472 62.392H46.616L58.248 228.816Z" fill="white"/>
</g>
<path d="M232.912 83.1999C233.022 83.1982 233.129 83.1679 233.224 83.1119L236.792 80.8479C236.875 80.7963 236.943 80.7245 236.991 80.6391C237.039 80.5537 237.064 80.4577 237.064 80.3599C237.064 80.2631 237.04 80.1678 236.993 80.0826C236.947 79.9974 236.881 79.925 236.8 79.8719L233.048 77.4159C232.919 77.3321 232.763 77.3027 232.613 77.3342C232.463 77.3657 232.332 77.4556 232.248 77.5839C232.164 77.7123 232.135 77.8687 232.166 78.0187C232.198 78.1687 232.287 78.3001 232.416 78.3839L235.416 80.3519L232.6 82.1279C232.495 82.1965 232.416 82.2968 232.373 82.414C232.329 82.5313 232.325 82.6592 232.36 82.7792C232.395 82.8991 232.467 83.0047 232.567 83.0805C232.666 83.1562 232.787 83.1981 232.912 83.1999Z" fill="#263238"/>
<path d="M230.968 80.9439H236.488C236.641 80.9439 236.787 80.8832 236.895 80.7752C237.003 80.6672 237.064 80.5207 237.064 80.3679C237.064 80.2144 237.003 80.0671 236.896 79.9578C236.788 79.8485 236.641 79.786 236.488 79.7839H230.968C230.814 79.786 230.668 79.8485 230.56 79.9578C230.452 80.0671 230.392 80.2144 230.392 80.3679C230.392 80.5207 230.453 80.6672 230.561 80.7752C230.669 80.8832 230.815 80.9439 230.968 80.9439Z" fill="#263238"/>
<path d="M222.24 83.2C222.337 83.1999 222.432 83.1757 222.517 83.1296C222.603 83.0836 222.675 83.017 222.728 82.936C222.81 82.8072 222.839 82.6513 222.807 82.5017C222.776 82.3521 222.687 82.2208 222.56 82.136L219.56 80.176L222.4 78.4C222.529 78.3164 222.619 78.1857 222.652 78.036C222.685 77.8864 222.658 77.7298 222.576 77.6C222.535 77.5356 222.482 77.4799 222.42 77.4361C222.358 77.3923 222.287 77.3614 222.213 77.345C222.138 77.3286 222.062 77.3272 221.987 77.3407C221.912 77.3543 221.84 77.3826 221.776 77.424L218.2 79.688C218.12 79.7403 218.054 79.8114 218.008 79.8951C217.962 79.9788 217.937 80.0725 217.936 80.168C217.935 80.2651 217.958 80.361 218.004 80.4464C218.051 80.5319 218.118 80.604 218.2 80.656L221.952 83.112C222.038 83.1667 222.138 83.1971 222.24 83.2Z" fill="#263238"/>
<path d="M218.488 80.7519H224C224.153 80.7519 224.301 80.6915 224.41 80.5837C224.519 80.4759 224.582 80.3294 224.584 80.1759C224.584 80.0992 224.569 80.0233 224.539 79.9524C224.51 79.8816 224.467 79.8172 224.413 79.763C224.359 79.7087 224.294 79.6657 224.223 79.6364C224.152 79.607 224.077 79.5919 224 79.5919H218.488C218.334 79.594 218.188 79.6565 218.08 79.7658C217.972 79.8751 217.912 80.0224 217.912 80.1759C217.912 80.3287 217.973 80.4752 218.081 80.5832C218.189 80.6912 218.335 80.7519 218.488 80.7519Z" fill="#263238"/>
<path d="M208.496 84.3919C208.97 84.3978 209.44 84.304 209.875 84.1166C210.311 83.9291 210.702 83.6523 211.024 83.3039C211.348 82.9562 211.597 82.5447 211.754 82.0958C211.911 81.6468 211.973 81.1701 211.936 80.6959C211.853 79.7208 211.411 78.8111 210.696 78.1431C209.98 77.475 209.042 77.0962 208.064 77.0799C207.589 77.0761 207.119 77.1712 206.684 77.3591C206.248 77.547 205.856 77.8237 205.533 78.1714C205.21 78.5191 204.963 78.9303 204.808 79.3788C204.653 79.8272 204.593 80.303 204.632 80.7759C204.642 80.9287 204.713 81.071 204.829 81.1715C204.944 81.272 205.095 81.3226 205.248 81.3119C205.401 81.3013 205.543 81.2305 205.643 81.115C205.744 80.9994 205.794 80.8487 205.784 80.6959C205.756 80.3813 205.794 80.0642 205.896 79.7653C205.999 79.4664 206.163 79.1923 206.378 78.9608C206.593 78.7293 206.854 78.5455 207.144 78.4213C207.435 78.2971 207.748 78.2353 208.064 78.2399C208.75 78.2496 209.409 78.5148 209.91 78.9837C210.412 79.4527 210.72 80.0917 210.776 80.7759C210.806 81.0911 210.77 81.4092 210.669 81.7093C210.567 82.0093 210.403 82.2844 210.188 82.5165C209.973 82.7486 209.71 82.9324 209.419 83.0557C209.127 83.179 208.812 83.2391 208.496 83.2319C208.343 83.2319 208.197 83.2926 208.089 83.4007C207.981 83.5087 207.92 83.6552 207.92 83.8079C207.92 83.9615 207.98 84.1088 208.088 84.2181C208.196 84.3274 208.342 84.3898 208.496 84.3919Z" fill="#263238"/>
<path d="M205.216 81.3759H205.376L207.24 80.8319C207.313 80.8104 207.381 80.7747 207.44 80.7268C207.5 80.679 207.549 80.62 207.585 80.5531C207.622 80.4863 207.644 80.4129 207.652 80.3372C207.661 80.2615 207.654 80.1849 207.632 80.1119C207.611 80.0389 207.575 79.9709 207.527 79.9116C207.479 79.8524 207.42 79.8032 207.353 79.7668C207.286 79.7304 207.213 79.7075 207.137 79.6995C207.062 79.6914 206.985 79.6984 206.912 79.7199L205.472 80.1439L204.8 79.0239C204.72 78.8924 204.592 78.7978 204.443 78.7611C204.293 78.7243 204.136 78.7484 204.004 78.8279C203.872 78.9075 203.778 79.0361 203.741 79.1853C203.704 79.3346 203.728 79.4924 203.808 79.6239L204.72 81.1039C204.772 81.1887 204.845 81.2583 204.932 81.3061C205.019 81.3538 205.117 81.3779 205.216 81.3759Z" fill="#263238"/>
<path d="M110.2 82.072C109.908 81.8009 109.672 81.4748 109.506 81.1124C109.34 80.75 109.247 80.3584 109.232 79.96C109.214 79.6036 109.267 79.2471 109.39 78.9118C109.512 78.5764 109.701 78.2691 109.944 78.008C110.188 77.7459 110.483 77.5352 110.81 77.3883C111.137 77.2413 111.49 77.161 111.848 77.152C112.244 77.1359 112.64 77.1982 113.012 77.3355C113.384 77.4728 113.725 77.6823 114.016 77.952C114.608 78.4988 114.96 79.2585 114.992 80.064C115.007 80.4208 114.951 80.777 114.827 81.112C114.704 81.4471 114.515 81.7543 114.272 82.016C114.029 82.2782 113.736 82.4891 113.411 82.6361C113.085 82.7832 112.733 82.8634 112.376 82.872H112.272C111.506 82.8723 110.767 82.5871 110.2 82.072ZM111.888 78.304C111.683 78.307 111.481 78.3512 111.294 78.4339C111.106 78.5165 110.937 78.6361 110.797 78.7853C110.657 78.9346 110.548 79.1105 110.477 79.3027C110.406 79.4949 110.374 79.6994 110.384 79.904C110.407 80.4019 110.625 80.8707 110.992 81.208C111.352 81.5503 111.832 81.7371 112.328 81.728C112.533 81.725 112.735 81.6809 112.922 81.5982C113.11 81.5155 113.279 81.396 113.419 81.2467C113.559 81.0975 113.668 80.9215 113.739 80.7293C113.81 80.5372 113.842 80.3327 113.832 80.128C113.809 79.6302 113.591 79.1614 113.224 78.824C112.882 78.495 112.427 78.309 111.952 78.304H111.888Z" fill="#263238"/>
<path d="M108.592 84.392C108.672 84.3913 108.751 84.3738 108.824 84.3408C108.897 84.3077 108.962 84.2598 109.016 84.2L111.024 82.04C111.13 81.9276 111.187 81.7776 111.183 81.6231C111.178 81.4685 111.112 81.3221 111 81.216C110.887 81.1099 110.737 81.0529 110.583 81.0574C110.428 81.0619 110.282 81.1276 110.176 81.24L108.168 83.4C108.064 83.5074 108.006 83.6508 108.006 83.8C108.006 83.9493 108.064 84.0927 108.168 84.2C108.222 84.259 108.287 84.3065 108.36 84.3395C108.433 84.3725 108.512 84.3903 108.592 84.392Z" fill="#263238"/>
<path d="M47.264 71.752H270.128L269.472 62.392H46.616L47.264 71.752Z" fill="#007BFF"/>
<path opacity="0.4" d="M47.264 71.752H270.128L269.472 62.392H46.616L47.264 71.752Z" fill="black"/>
<path d="M68.8479 67.0719C68.9131 67.8271 69.2559 68.5312 69.81 69.0483C70.364 69.5655 71.0901 69.8589 71.8479 69.8719C72.2079 69.8767 72.5649 69.8059 72.8959 69.6641C73.2268 69.5224 73.5244 69.3128 73.7694 69.049C74.0144 68.7852 74.2013 68.4729 74.3182 68.1324C74.4351 67.7919 74.4793 67.4306 74.4479 67.0719C74.3864 66.3169 74.0458 65.6118 73.4927 65.0941C72.9395 64.5765 72.2134 64.2834 71.4559 64.2719C71.0956 64.2673 70.7383 64.3381 70.407 64.4798C70.0757 64.6215 69.7776 64.8309 69.532 65.0945C69.2864 65.3582 69.0987 65.6704 68.9809 66.0109C68.8631 66.3514 68.8178 66.7129 68.8479 67.0719Z" fill="white"/>
<path d="M60.2639 67.0719C60.3291 67.8271 60.6719 68.5312 61.226 69.0483C61.78 69.5655 62.5061 69.8589 63.2639 69.8719C63.6239 69.8767 63.9809 69.8059 64.3119 69.6641C64.6428 69.5224 64.9404 69.3128 65.1854 69.049C65.4304 68.7852 65.6173 68.4729 65.7342 68.1324C65.8511 67.7919 65.8953 67.4306 65.8639 67.0719C65.8024 66.3169 65.4618 65.6118 64.9087 65.0941C64.3555 64.5765 63.6294 64.2834 62.8719 64.2719C62.5116 64.2673 62.1543 64.3381 61.823 64.4798C61.4917 64.6215 61.1936 64.8309 60.948 65.0945C60.7024 65.3582 60.5147 65.6704 60.3969 66.0109C60.2791 66.3514 60.2338 66.7129 60.2639 67.0719Z" fill="white"/>
<path d="M51.68 67.0719C51.7434 67.8277 52.0856 68.5329 52.6401 69.0504C53.1945 69.5679 53.9216 69.8607 54.68 69.8719C55.04 69.8767 55.397 69.8059 55.7279 69.6641C56.0589 69.5224 56.3564 69.3128 56.6014 69.049C56.8464 68.7852 57.0334 68.4729 57.1502 68.1324C57.2671 67.7919 57.3113 67.4306 57.28 67.0719C57.2184 66.3169 56.8779 65.6118 56.3247 65.0941C55.7716 64.5765 55.0455 64.2834 54.288 64.2719C53.9276 64.2673 53.5704 64.3381 53.239 64.4798C52.9077 64.6215 52.6097 64.8309 52.3641 65.0945C52.1185 65.3582 51.9307 65.6704 51.8129 66.0109C51.6951 66.3514 51.6498 66.7129 51.68 67.0719Z" fill="white"/>
<path d="M260.128 77.7839L253.04 77.6719C252.961 77.6709 252.883 77.6543 252.811 77.6232C252.739 77.5921 252.673 77.547 252.618 77.4906C252.563 77.4341 252.52 77.3674 252.491 77.2942C252.461 77.221 252.447 77.1427 252.448 77.0639C252.456 76.9068 252.523 76.7584 252.636 76.6487C252.749 76.5389 252.899 76.4758 253.056 76.4719L260.144 76.5839C260.303 76.5839 260.456 76.6471 260.568 76.7597C260.681 76.8722 260.744 77.0248 260.744 77.1839C260.744 77.3431 260.681 77.4957 260.568 77.6082C260.456 77.7207 260.303 77.7839 260.144 77.7839H260.128Z" fill="#263238"/>
<path d="M260.408 80.968L253.328 80.856C253.249 80.855 253.171 80.8384 253.099 80.8073C253.026 80.7762 252.961 80.7311 252.906 80.6746C252.851 80.6182 252.808 80.5514 252.778 80.4782C252.749 80.405 252.735 80.3268 252.736 80.248C252.744 80.0908 252.811 79.9425 252.924 79.8327C253.037 79.723 253.187 79.6598 253.344 79.656L260.432 79.768C260.511 79.769 260.588 79.7856 260.661 79.8167C260.733 79.8478 260.799 79.8929 260.854 79.9494C260.909 80.0058 260.952 80.0726 260.981 80.1458C261.01 80.219 261.025 80.2972 261.024 80.376C261.02 80.5359 260.953 80.6876 260.837 80.7984C260.722 80.9092 260.568 80.9702 260.408 80.968Z" fill="#263238"/>
<path d="M260.68 84.152L253.6 84.04C253.521 84.0389 253.443 84.0224 253.371 83.9912C253.299 83.9601 253.233 83.915 253.178 83.8586C253.123 83.8021 253.08 83.7354 253.051 83.6622C253.022 83.589 253.007 83.5108 253.008 83.432C253.016 83.2748 253.083 83.1265 253.196 83.0167C253.309 82.9069 253.459 82.8438 253.616 82.84L260.704 82.952C260.863 82.952 261.016 83.0152 261.128 83.1277C261.241 83.2402 261.304 83.3928 261.304 83.552C261.304 83.7111 261.241 83.8637 261.128 83.9762C261.016 84.0887 260.863 84.152 260.704 84.152H260.68Z" fill="#263238"/>
<path d="M124.992 83.808H192.912C193.366 83.8154 193.817 83.7272 194.235 83.5492C194.653 83.3712 195.028 83.1072 195.338 82.7745C195.647 82.4419 195.883 82.0479 196.03 81.6181C196.177 81.1884 196.232 80.7325 196.192 80.28C196.113 79.3282 195.682 78.4399 194.984 77.7878C194.286 77.1358 193.371 76.7666 192.416 76.752H124.496C124.042 76.7458 123.592 76.8349 123.175 77.0133C122.757 77.1918 122.382 77.4557 122.073 77.7882C121.764 78.1206 121.528 78.5141 121.38 78.9433C121.233 79.3724 121.177 79.8278 121.216 80.28C121.295 81.2318 121.726 82.1201 122.424 82.7722C123.122 83.4242 124.037 83.7934 124.992 83.808Z" fill="white"/>
<g opacity="0.5">
<path d="M162.04 94.2159H165.304L164.992 89.6639H161.72L162.04 94.2159Z" fill="black"/>
<path d="M160.448 94.184L163.896 97.408L166.896 94.184H160.448Z" fill="black"/>
<path d="M157.144 99.68H170.96L170.576 94.184H168.84L169.104 97.944H158.76L158.496 94.152H156.76L157.144 99.68Z" fill="black"/>
<g opacity="0.5">
<path d="M162.04 94.2159H165.304L164.992 89.6639H161.72L162.04 94.2159Z" fill="black"/>
<path d="M160.448 94.184L163.896 97.408L166.896 94.184H160.448Z" fill="black"/>
<path d="M157.144 99.68H170.96L170.576 94.184H168.84L169.104 97.944H158.76L158.496 94.152H156.76L157.144 99.68Z" fill="black"/>
</g>
</g>
<path opacity="0.1" d="M235.016 62.392L280.544 229.064H269.824L224.656 62.392H235.016Z" fill="white"/>
<path opacity="0.1" d="M85.632 62.392L131.152 229.064H120.44L75.272 62.392H85.632Z" fill="white"/>
<path opacity="0.1" d="M218.48 62.392L264.008 229.064H238.888L193.712 62.392H218.48Z" fill="white"/>
<path d="M132.624 129.064H199.44C200.395 129.078 201.343 128.891 202.221 128.516C203.1 128.14 203.89 127.585 204.541 126.885C205.191 126.186 205.688 125.357 205.999 124.454C206.309 123.55 206.427 122.592 206.344 121.64L205.848 114.552C205.683 112.549 204.778 110.678 203.31 109.306C201.841 107.933 199.914 107.157 197.904 107.128H131.088C130.133 107.114 129.185 107.301 128.307 107.676C127.428 108.052 126.638 108.607 125.987 109.307C125.337 110.006 124.84 110.835 124.529 111.738C124.219 112.642 124.101 113.6 124.184 114.552L124.68 121.64C124.847 123.643 125.752 125.512 127.22 126.884C128.688 128.256 130.615 129.033 132.624 129.064Z" fill="#007BFF"/>
<path d="M146.984 117.984C146.937 117.652 146.965 117.314 147.067 116.995C147.169 116.676 147.342 116.385 147.573 116.142C147.804 115.9 148.087 115.712 148.401 115.595C148.714 115.478 149.05 115.433 149.384 115.464C149.758 115.454 150.13 115.519 150.478 115.657C150.826 115.794 151.142 116.001 151.408 116.264L150.88 116.824C150.703 116.641 150.49 116.495 150.255 116.396C150.02 116.297 149.767 116.247 149.512 116.248C149.286 116.226 149.058 116.257 148.846 116.338C148.633 116.418 148.442 116.547 148.288 116.713C148.133 116.88 148.019 117.079 147.953 117.297C147.888 117.514 147.874 117.744 147.912 117.968C147.954 118.447 148.177 118.891 148.535 119.212C148.893 119.533 149.359 119.706 149.84 119.696C150.079 119.704 150.317 119.655 150.534 119.554C150.751 119.452 150.941 119.301 151.088 119.112L151.736 119.672C151.512 119.943 151.227 120.157 150.904 120.296C150.582 120.435 150.231 120.495 149.88 120.472C149.174 120.491 148.487 120.247 147.952 119.787C147.416 119.327 147.071 118.684 146.984 117.984Z" fill="white"/>
<path d="M152.056 115.24H152.928L153.472 120.44H152.6L152.056 115.24Z" fill="white"/>
<path d="M153.992 115.552C153.985 115.483 153.993 115.414 154.015 115.349C154.038 115.283 154.074 115.224 154.122 115.174C154.17 115.125 154.229 115.086 154.293 115.062C154.358 115.037 154.427 115.027 154.496 115.032C154.641 115.026 154.784 115.075 154.896 115.168C155.008 115.261 155.082 115.392 155.104 115.536C155.115 115.606 155.11 115.679 155.089 115.747C155.068 115.815 155.032 115.878 154.984 115.93C154.935 115.983 154.876 116.023 154.809 116.049C154.743 116.075 154.671 116.086 154.6 116.08C154.451 116.083 154.306 116.031 154.194 115.933C154.082 115.835 154.01 115.7 153.992 115.552ZM154.224 116.696H155.104L155.496 120.44H154.624L154.224 116.696Z" fill="white"/>
<path d="M156.136 118.568C156.1 118.316 156.121 118.059 156.198 117.817C156.276 117.574 156.407 117.353 156.583 117.169C156.759 116.984 156.974 116.843 157.212 116.754C157.451 116.665 157.707 116.632 157.96 116.656C158.292 116.639 158.623 116.71 158.92 116.862C159.216 117.013 159.467 117.24 159.648 117.52L159.016 117.912C158.905 117.754 158.758 117.625 158.587 117.535C158.415 117.446 158.225 117.4 158.032 117.4C157.883 117.39 157.733 117.416 157.596 117.474C157.458 117.531 157.335 117.62 157.238 117.734C157.14 117.847 157.07 117.981 157.033 118.126C156.996 118.27 156.993 118.422 157.024 118.568C157.04 118.888 157.181 119.188 157.415 119.406C157.65 119.624 157.96 119.743 158.28 119.736C158.46 119.743 158.638 119.698 158.793 119.606C158.948 119.513 159.073 119.378 159.152 119.216L159.864 119.608C159.736 119.893 159.522 120.13 159.252 120.288C158.983 120.446 158.671 120.516 158.36 120.488C157.815 120.507 157.284 120.32 156.871 119.964C156.459 119.608 156.196 119.109 156.136 118.568Z" fill="white"/>
<path d="M162.032 118.832L161.448 119.448L161.552 120.44H160.672L160.128 115.24H161L161.336 118.376L162.936 116.696H164L162.608 118.296L164.544 120.472H163.48L162.032 118.832Z" fill="white"/>
<path d="M170.976 115.536L171.496 120.44H170.584L170.36 118.336H167.832L168.048 120.44H167.144L166.624 115.536H167.536L167.752 117.56H170.28L170.064 115.536H170.976Z" fill="white"/>
<path d="M176.056 118.848H173.128C173.215 119.121 173.39 119.358 173.626 119.52C173.862 119.682 174.146 119.761 174.432 119.744C174.614 119.754 174.795 119.722 174.963 119.652C175.131 119.581 175.28 119.473 175.4 119.336L175.928 119.88C175.754 120.089 175.532 120.253 175.282 120.359C175.031 120.465 174.759 120.509 174.488 120.488C173.936 120.522 173.392 120.341 172.97 119.983C172.548 119.625 172.281 119.118 172.224 118.568C172.184 118.324 172.199 118.073 172.269 117.836C172.339 117.598 172.461 117.38 172.627 117.196C172.794 117.012 172.999 116.868 173.228 116.775C173.457 116.681 173.705 116.641 173.952 116.656C174.482 116.649 174.995 116.846 175.383 117.206C175.772 117.567 176.007 118.063 176.04 118.592C176.05 118.677 176.055 118.762 176.056 118.848ZM173.056 118.264H175.2C175.143 118.002 174.997 117.769 174.787 117.602C174.577 117.436 174.316 117.348 174.048 117.352C173.922 117.341 173.794 117.356 173.674 117.397C173.554 117.438 173.444 117.503 173.351 117.589C173.257 117.675 173.183 117.779 173.132 117.895C173.081 118.012 173.055 118.137 173.056 118.264Z" fill="white"/>
<path d="M178.84 116.656L178.928 117.456H178.728C178.064 117.456 177.68 117.848 177.76 118.616L177.952 120.432H177.08L176.688 116.688H177.488L177.544 117.232C177.682 117.022 177.878 116.856 178.107 116.754C178.337 116.652 178.591 116.618 178.84 116.656Z" fill="white"/>
<path d="M183.28 118.848H180.352C180.438 119.122 180.613 119.359 180.849 119.522C181.086 119.684 181.37 119.762 181.656 119.744C181.838 119.754 182.019 119.722 182.187 119.652C182.355 119.581 182.504 119.473 182.624 119.336L183.152 119.88C182.978 120.089 182.756 120.253 182.506 120.359C182.255 120.465 181.983 120.509 181.712 120.488C181.16 120.522 180.616 120.341 180.194 119.983C179.772 119.625 179.505 119.118 179.448 118.568C179.408 118.324 179.423 118.073 179.493 117.836C179.563 117.598 179.686 117.38 179.852 117.196C180.018 117.012 180.223 116.868 180.452 116.775C180.682 116.681 180.929 116.641 181.176 116.656C181.706 116.649 182.219 116.846 182.607 117.206C182.996 117.567 183.231 118.063 183.264 118.592C183.274 118.677 183.279 118.762 183.28 118.848ZM180.28 118.264H182.4C182.343 118.002 182.197 117.769 181.987 117.602C181.777 117.436 181.516 117.348 181.248 117.352C181.124 117.344 180.999 117.362 180.882 117.405C180.765 117.447 180.657 117.513 180.567 117.598C180.476 117.684 180.404 117.787 180.354 117.902C180.305 118.016 180.28 118.139 180.28 118.264Z" fill="white"/>
<path d="M208.728 137.112L201.6 133.6C201.6 133.6 199.72 131.432 201.696 130.504C202.08 130.342 202.496 130.271 202.912 130.294C203.328 130.318 203.733 130.436 204.096 130.64L206.744 132.072L194.928 120.256C194.617 119.934 194.443 119.504 194.443 119.056C194.443 118.608 194.617 118.178 194.928 117.856C195.252 117.533 195.691 117.352 196.148 117.352C196.605 117.352 197.044 117.533 197.368 117.856L205.6 126.056L201.84 122.296L203.088 121.056C203.231 120.912 203.401 120.797 203.588 120.719C203.776 120.64 203.977 120.6 204.18 120.6C204.383 120.6 204.584 120.64 204.772 120.719C204.959 120.797 205.129 120.912 205.272 121.056L208.472 124.256L205.12 120.904L206.568 119.456C206.859 119.168 207.251 119.007 207.66 119.007C208.069 119.007 208.461 119.168 208.752 119.456L211.52 122.224L208.88 119.584L209.72 118.744C210.011 118.456 210.403 118.295 210.812 118.295C211.221 118.295 211.613 118.456 211.904 118.744L218.568 125.416C218.874 125.731 219.142 126.08 219.368 126.456L220.48 128.312C220.922 129.052 221.157 129.898 221.16 130.76L214.4 137.488L211.4 137.656C210.477 137.706 209.558 137.519 208.728 137.112Z" fill="white"/>
<path d="M192.384 116.04C192.278 116.04 192.173 116.018 192.076 115.977C191.978 115.936 191.89 115.876 191.816 115.8L189.376 113.36C189.245 113.207 189.176 113.01 189.184 112.809C189.192 112.607 189.275 112.416 189.418 112.274C189.56 112.132 189.751 112.048 189.952 112.04C190.154 112.032 190.351 112.101 190.504 112.232L192.952 114.672C193.101 114.822 193.184 115.025 193.184 115.236C193.184 115.447 193.101 115.65 192.952 115.8C192.878 115.876 192.789 115.936 192.692 115.977C192.594 116.018 192.49 116.04 192.384 116.04Z" fill="white"/>
<path d="M190.736 120H187.288C187.076 120 186.872 119.916 186.722 119.766C186.572 119.616 186.488 119.412 186.488 119.2C186.488 118.988 186.572 118.784 186.722 118.634C186.872 118.484 187.076 118.4 187.288 118.4H190.736C190.948 118.4 191.152 118.484 191.302 118.634C191.452 118.784 191.536 118.988 191.536 119.2C191.536 119.412 191.452 119.616 191.302 119.766C191.152 119.916 190.948 120 190.736 120Z" fill="white"/>
<path d="M200.296 116.04C200.139 116.039 199.985 115.992 199.854 115.905C199.724 115.817 199.622 115.693 199.561 115.548C199.5 115.403 199.484 115.243 199.514 115.089C199.543 114.935 199.618 114.792 199.728 114.68L202.176 112.232C202.25 112.157 202.339 112.097 202.436 112.057C202.534 112.016 202.638 111.995 202.744 111.995C202.85 111.995 202.954 112.016 203.052 112.057C203.149 112.097 203.238 112.157 203.312 112.232C203.461 112.382 203.545 112.585 203.545 112.796C203.545 113.007 203.461 113.21 203.312 113.36L200.864 115.808C200.789 115.882 200.701 115.941 200.603 115.981C200.506 116.02 200.401 116.041 200.296 116.04Z" fill="white"/>
<path d="M189.944 126.4C189.785 126.401 189.63 126.354 189.497 126.267C189.365 126.179 189.261 126.053 189.201 125.907C189.14 125.76 189.124 125.598 189.155 125.443C189.186 125.287 189.263 125.144 189.376 125.032L191.776 122.632C191.926 122.483 192.129 122.399 192.34 122.399C192.551 122.399 192.754 122.483 192.904 122.632C193.053 122.782 193.137 122.985 193.137 123.196C193.137 123.407 193.053 123.61 192.904 123.76L190.504 126.2C190.35 126.336 190.149 126.408 189.944 126.4Z" fill="white"/>
<path d="M196.336 114.4C196.124 114.4 195.92 114.316 195.77 114.166C195.62 114.016 195.536 113.812 195.536 113.6V110.144C195.536 109.932 195.62 109.728 195.77 109.578C195.92 109.428 196.124 109.344 196.336 109.344C196.548 109.344 196.752 109.428 196.902 109.578C197.052 109.728 197.136 109.932 197.136 110.144V113.6C197.136 113.812 197.052 114.016 196.902 114.166C196.752 114.316 196.548 114.4 196.336 114.4Z" fill="white"/>
<path d="M138.528 201.656H208.52L203.08 139.528H133.088L138.528 201.656Z" fill="#007BFF"/>
<path opacity="0.9" d="M138.528 201.656H208.52L203.08 139.528H133.088L138.528 201.656Z" fill="white"/>
<path d="M139.264 179.616H203.84L200.592 142.496H136.016L139.264 179.616Z" fill="#007BFF"/>
<path d="M183.592 186.24H200.456L200.104 182.208H183.232L183.592 186.24Z" fill="#007BFF"/>
<path d="M163.744 186.24H180.608L180.256 182.208H163.384L163.744 186.24Z" fill="#007BFF"/>
<path d="M143.888 186.24H160.76L160.408 182.208H143.536L143.888 186.24Z" fill="#007BFF"/>
<path opacity="0.5" d="M183.592 186.24H200.456L200.104 182.208H183.232L183.592 186.24Z" fill="white"/>
<path opacity="0.5" d="M163.744 186.24H180.608L180.256 182.208H163.384L163.744 186.24Z" fill="white"/>
<path opacity="0.5" d="M143.536 182.208L143.888 186.24H160.76L160.408 182.208" fill="white"/>
<path d="M193.232 192.032H195.832L195.632 189.72H193.032L193.232 192.032Z" fill="#007BFF"/>
<path d="M182.072 192.032H191.72L191.52 189.72H181.872L182.072 192.032Z" fill="#007BFF"/>
<path d="M170.712 192.032H180.36L180.16 189.72H170.512L170.712 192.032Z" fill="#007BFF"/>
<path d="M149.544 192.032H154.368L154.168 189.72H149.336L149.544 192.032Z" fill="#007BFF"/>
<path d="M155.776 192.032H168.944L168.744 189.72H155.576L155.776 192.032Z" fill="#007BFF"/>
<path d="M161.832 195.96H152.176L151.976 193.656H161.632L161.832 195.96Z" fill="#007BFF"/>
<path d="M173.192 195.96H163.536L163.336 193.656H172.992L173.192 195.96Z" fill="#007BFF"/>
<path d="M194.36 195.96H189.536L189.336 193.656H194.16L194.36 195.96Z" fill="#007BFF"/>
<path d="M188.12 195.96H174.952L174.752 193.656H187.92L188.12 195.96Z" fill="#007BFF"/>
<g opacity="0.6">
<path d="M193.232 192.032H195.832L195.632 189.72H193.032L193.232 192.032Z" fill="white"/>
<path d="M182.072 192.032H191.72L191.52 189.72H181.872L182.072 192.032Z" fill="white"/>
<path d="M170.712 192.032H180.36L180.16 189.72H170.512L170.712 192.032Z" fill="white"/>
<path d="M149.544 192.032H154.368L154.168 189.72H149.336L149.544 192.032Z" fill="white"/>
<path d="M155.776 192.032H168.944L168.744 189.72H155.576L155.776 192.032Z" fill="white"/>
</g>
<g opacity="0.6">
<path d="M161.832 195.96H152.176L151.976 193.656H161.632L161.832 195.96Z" fill="white"/>
<path d="M173.192 195.96H163.536L163.336 193.656H172.992L173.192 195.96Z" fill="white"/>
<path d="M194.36 195.96H189.536L189.336 193.656H194.16L194.36 195.96Z" fill="white"/>
<path d="M188.12 195.96H174.952L174.752 193.656H187.92L188.12 195.96Z" fill="white"/>
</g>
<path d="M203.848 179.696L180.872 159.312L171.6 179.696H203.848Z" fill="white"/>
<path d="M181.184 179.696L151.32 153.2L139.272 179.696H181.184Z" fill="white"/>
<path d="M164.288 153.472C164.415 154.802 165.027 156.039 166.006 156.947C166.985 157.856 168.264 158.373 169.6 158.4C170.226 158.411 170.846 158.288 171.421 158.04C171.995 157.792 172.51 157.425 172.932 156.962C173.353 156.5 173.672 155.953 173.865 155.358C174.059 154.763 174.124 154.134 174.056 153.512C173.923 152.188 173.308 150.959 172.329 150.058C171.35 149.157 170.074 148.647 168.744 148.624C168.122 148.614 167.505 148.736 166.934 148.981C166.362 149.227 165.849 149.591 165.428 150.048C165.008 150.506 164.688 151.048 164.492 151.638C164.295 152.228 164.226 152.853 164.288 153.472Z" fill="white"/>
<path d="M334.952 306.544L334.28 306.624C334.24 306.288 330.184 272.36 338.552 244.64C346.864 217.088 341.136 199.536 341.08 199.36L341.72 199.144C341.776 199.32 347.568 217.08 339.192 244.84C330.872 272.416 334.912 306.208 334.952 306.544Z" fill="#007BFF"/>
<path d="M342.272 203.136C340.824 201.411 338.861 200.194 336.672 199.664L336.824 199.008C339.165 199.568 341.265 200.863 342.816 202.704L342.272 203.136Z" fill="#007BFF"/>
<path d="M345.137 205.946L343.208 207.036L343.539 207.621L345.468 206.531L345.137 205.946Z" fill="#007BFF"/>
<path d="M341.544 221.6C339.865 217.778 336.759 214.763 332.888 213.2L333.144 212.576C337.176 214.208 340.413 217.348 342.168 221.328L341.544 221.6Z" fill="#007BFF"/>
<path d="M339.744 242.776H339.072C339.048 241.412 338.723 240.07 338.12 238.846C337.517 237.622 336.651 236.546 335.584 235.696L336 235.2C337.143 236.11 338.07 237.261 338.718 238.57C339.365 239.88 339.715 241.316 339.744 242.776Z" fill="#007BFF"/>
<path d="M338.24 248.2L337.616 247.952C337.96 247.093 338.478 246.314 339.135 245.663C339.793 245.012 340.578 244.503 341.44 244.168L341.68 244.8C340.904 245.1 340.198 245.557 339.606 246.142C339.015 246.727 338.549 247.428 338.24 248.2Z" fill="#007BFF"/>
<path d="M333.88 282.576L333.36 282.152C334.16 281.16 334.8 277.4 335.128 275.384C335.208 274.896 335.28 274.488 335.336 274.192L336 274.312C335.944 274.608 335.872 275.016 335.792 275.488C335.296 278.504 334.744 281.536 333.88 282.576Z" fill="#007BFF"/>
<path d="M333.488 293.376C333.024 292.057 332.155 290.918 331.006 290.12C329.857 289.323 328.486 288.909 327.088 288.936V288.264C328.637 288.226 330.159 288.68 331.434 289.561C332.709 290.442 333.672 291.705 334.184 293.168L333.488 293.376Z" fill="#007BFF"/>
<path d="M338.633 300.432L333.889 305.74L334.39 306.188L339.134 300.879L338.633 300.432Z" fill="#007BFF"/>
<path d="M341.984 265.8C343.064 269.28 335.584 275.904 335.584 275.904C335.584 275.904 325.6 274.656 324.56 271.2C323.52 267.744 326 262.024 330.816 260.536C335.632 259.048 340.912 262.32 341.984 265.8Z" fill="#007BFF"/>
<path d="M350.304 223.568C349.36 227.264 342.256 229.888 342.256 229.888C342.256 229.888 337.304 224.16 338.256 220.464C339.208 216.768 343.136 212.696 346.464 213.56C349.792 214.424 351.256 219.872 350.304 223.568Z" fill="#007BFF"/>
<path d="M321.816 278.792C326.272 280.528 329.016 288.392 329.016 288.392C329.016 288.392 321.664 292.392 317.208 290.616C312.752 288.84 308 284 309.296 280.744C310.592 277.488 317.352 277.056 321.816 278.792Z" fill="#007BFF"/>
<path d="M331.592 235.408C332.493 236.165 333.526 236.748 334.64 237.128C335.202 237.307 335.804 237.327 336.377 237.186C336.95 237.045 337.473 236.748 337.888 236.328C338.84 235.232 338.584 233.528 337.984 232.2C336.792 229.576 332.384 225.12 329.024 226.4C324.152 228.28 329.416 233.792 331.592 235.408Z" fill="#007BFF"/>
<path d="M341.6 242.096C340.96 242.896 340.28 243.888 340.632 244.84C340.832 245.247 341.161 245.576 341.567 245.776C341.974 245.975 342.436 246.035 342.88 245.944C343.758 245.736 344.578 245.334 345.28 244.768C347 243.568 350.528 241.064 348.272 238.72C346.016 236.376 342.904 240.424 341.6 242.096Z" fill="#007BFF"/>
<path d="M327.2 208.744C326.829 208.764 326.475 208.901 326.187 209.135C325.9 209.37 325.694 209.689 325.6 210.048C325.448 210.896 326.16 211.648 326.84 212.176C328.552 213.488 333.688 217.04 334.84 213.616C335.88 210.4 329.44 208.488 327.2 208.744Z" fill="#007BFF"/>
<path d="M336.632 197.472C335.576 197.568 334.52 197.184 333.432 197.256C332.344 197.328 331.192 198.176 331.432 199.216C331.672 200.256 332.84 200.488 333.832 200.552C335.509 200.658 337.193 200.543 338.84 200.208C339.231 200.173 339.595 199.99 339.856 199.696C340.288 199.064 339.6 198.216 338.872 197.992C338.117 197.896 337.374 197.719 336.656 197.464L336.632 197.472Z" fill="#007BFF"/>
<path d="M346.984 204.8C348.048 204.8 349.072 204.376 350.136 204.368C351.2 204.36 352.432 205.168 352.264 206.192C352.096 207.216 350.944 207.568 349.968 207.688C348.303 207.912 346.616 207.912 344.952 207.688C344.559 207.682 344.184 207.524 343.904 207.248C343.432 206.648 344.064 205.752 344.776 205.48C345.524 205.337 346.254 205.112 346.952 204.808L346.984 204.8Z" fill="#007BFF"/>
<path d="M345.936 283.112C346.173 282.859 346.494 282.699 346.84 282.664C347.067 282.689 347.28 282.789 347.443 282.948C347.607 283.108 347.713 283.318 347.744 283.544C347.793 284 347.732 284.46 347.568 284.888C346.848 287.288 338.768 304.76 336.896 301.624C335.792 299.776 338.496 293.624 339.296 291.896C340.838 288.516 343.105 285.517 345.936 283.112Z" fill="#007BFF"/>
<path d="M341.096 198.136C341.736 196.696 342.432 195.184 343.712 194.256C344.992 193.328 347.032 193.256 347.96 194.536C349 195.96 347.96 198.128 346.36 198.888C344.76 199.648 342.904 199.416 341.152 199.176C341.152 198.912 341.152 198.656 341.112 198.376L341.096 198.136Z" fill="#007BFF"/>
<g opacity="0.6">
<path d="M334.952 306.544L334.28 306.624C334.24 306.288 330.184 272.36 338.552 244.64C346.864 217.088 341.136 199.536 341.08 199.36L341.72 199.144C341.776 199.32 347.568 217.08 339.192 244.84C330.872 272.416 334.912 306.208 334.952 306.544Z" fill="white"/>
<path d="M342.272 203.136C340.824 201.411 338.861 200.194 336.672 199.664L336.824 199.008C339.165 199.568 341.265 200.863 342.816 202.704L342.272 203.136Z" fill="white"/>
<path d="M345.137 205.946L343.208 207.036L343.539 207.621L345.468 206.531L345.137 205.946Z" fill="white"/>
<path d="M341.544 221.6C339.865 217.778 336.759 214.763 332.888 213.2L333.144 212.576C337.176 214.208 340.413 217.348 342.168 221.328L341.544 221.6Z" fill="white"/>
<path d="M339.744 242.776H339.072C339.048 241.412 338.723 240.07 338.12 238.846C337.517 237.622 336.651 236.546 335.584 235.696L336 235.2C337.143 236.11 338.07 237.261 338.718 238.57C339.365 239.88 339.715 241.316 339.744 242.776Z" fill="white"/>
<path d="M338.24 248.2L337.616 247.952C337.96 247.093 338.478 246.314 339.135 245.663C339.793 245.012 340.578 244.503 341.44 244.168L341.68 244.8C340.904 245.1 340.198 245.557 339.606 246.142C339.015 246.727 338.549 247.428 338.24 248.2Z" fill="white"/>
<path d="M333.88 282.576L333.36 282.152C334.16 281.16 334.8 277.4 335.128 275.384C335.208 274.896 335.28 274.488 335.336 274.192L336 274.312C335.944 274.608 335.872 275.016 335.792 275.488C335.296 278.504 334.744 281.536 333.88 282.576Z" fill="white"/>
<path d="M333.488 293.376C333.024 292.057 332.155 290.918 331.006 290.12C329.857 289.323 328.486 288.909 327.088 288.936V288.264C328.637 288.226 330.159 288.68 331.434 289.561C332.709 290.442 333.672 291.705 334.184 293.168L333.488 293.376Z" fill="white"/>
<path d="M338.633 300.432L333.889 305.74L334.39 306.188L339.134 300.879L338.633 300.432Z" fill="white"/>
<path d="M341.984 265.8C343.064 269.28 335.584 275.904 335.584 275.904C335.584 275.904 325.6 274.656 324.56 271.2C323.52 267.744 326 262.024 330.816 260.536C335.632 259.048 340.912 262.32 341.984 265.8Z" fill="white"/>
<path d="M350.304 223.568C349.36 227.264 342.256 229.888 342.256 229.888C342.256 229.888 337.304 224.16 338.256 220.464C339.208 216.768 343.136 212.696 346.464 213.56C349.792 214.424 351.256 219.872 350.304 223.568Z" fill="white"/>
<path d="M321.816 278.792C326.272 280.528 329.016 288.392 329.016 288.392C329.016 288.392 321.664 292.392 317.208 290.616C312.752 288.84 308 284 309.296 280.744C310.592 277.488 317.352 277.056 321.816 278.792Z" fill="white"/>
<path d="M331.592 235.408C332.493 236.165 333.526 236.748 334.64 237.128C335.202 237.307 335.804 237.327 336.377 237.186C336.95 237.045 337.473 236.748 337.888 236.328C338.84 235.232 338.584 233.528 337.984 232.2C336.792 229.576 332.384 225.12 329.024 226.4C324.152 228.28 329.416 233.792 331.592 235.408Z" fill="white"/>
<path d="M341.6 242.096C340.96 242.896 340.28 243.888 340.632 244.84C340.832 245.247 341.161 245.576 341.567 245.776C341.974 245.975 342.436 246.035 342.88 245.944C343.758 245.736 344.578 245.334 345.28 244.768C347 243.568 350.528 241.064 348.272 238.72C346.016 236.376 342.904 240.424 341.6 242.096Z" fill="white"/>
<path d="M327.2 208.744C326.829 208.764 326.475 208.901 326.187 209.135C325.9 209.37 325.694 209.689 325.6 210.048C325.448 210.896 326.16 211.648 326.84 212.176C328.552 213.488 333.688 217.04 334.84 213.616C335.88 210.4 329.44 208.488 327.2 208.744Z" fill="white"/>
<path d="M336.632 197.472C335.576 197.568 334.52 197.184 333.432 197.256C332.344 197.328 331.192 198.176 331.432 199.216C331.672 200.256 332.84 200.488 333.832 200.552C335.509 200.658 337.193 200.543 338.84 200.208C339.231 200.173 339.595 199.99 339.856 199.696C340.288 199.064 339.6 198.216 338.872 197.992C338.117 197.896 337.374 197.719 336.656 197.464L336.632 197.472Z" fill="white"/>
<path d="M346.984 204.8C348.048 204.8 349.072 204.376 350.136 204.368C351.2 204.36 352.432 205.168 352.264 206.192C352.096 207.216 350.944 207.568 349.968 207.688C348.303 207.912 346.616 207.912 344.952 207.688C344.559 207.682 344.184 207.524 343.904 207.248C343.432 206.648 344.064 205.752 344.776 205.48C345.524 205.337 346.254 205.112 346.952 204.808L346.984 204.8Z" fill="white"/>
<path d="M345.936 283.112C346.173 282.859 346.494 282.699 346.84 282.664C347.067 282.689 347.28 282.789 347.443 282.948C347.607 283.108 347.713 283.318 347.744 283.544C347.793 284 347.732 284.46 347.568 284.888C346.848 287.288 338.768 304.76 336.896 301.624C335.792 299.776 338.496 293.624 339.296 291.896C340.838 288.516 343.105 285.517 345.936 283.112Z" fill="white"/>
<path d="M341.096 198.136C341.736 196.696 342.432 195.184 343.712 194.256C344.992 193.328 347.032 193.256 347.96 194.536C349 195.96 347.96 198.128 346.36 198.888C344.76 199.648 342.904 199.416 341.152 199.176C341.152 198.912 341.152 198.656 341.112 198.376L341.096 198.136Z" fill="white"/>
</g>
<path d="M346.576 329.448C338.079 331.448 329.233 331.448 320.736 329.448L316.736 299.792H350.608L346.576 329.448Z" fill="#263238"/>
<g opacity="0.8">
<path d="M346.576 329.448C338.079 331.448 329.233 331.448 320.736 329.448L316.736 299.792H350.608L346.576 329.448Z" fill="white"/>
</g>
<path d="M253.504 159.944C251.752 165.472 253.672 178.992 248.168 182.504C245.826 183.943 243.915 185.988 242.638 188.422C241.361 190.857 240.765 193.591 240.912 196.336C244.496 191.384 250.456 188.56 256.488 187.536C262.52 186.512 268.696 187.12 274.768 187.832C277.632 188.168 291.008 192.416 290.28 195.208C294.584 188.808 289.68 160.008 287.736 152.504C287.152 150.256 288.288 147.088 286.072 146.408C280.944 144.808 269.84 141.696 258.608 148.92C254.096 151.832 254.632 156.408 253.504 159.944Z" fill="#007BFF"/>
<g opacity="0.5">
<path d="M253.504 159.944C251.752 165.472 253.672 178.992 248.168 182.504C245.826 183.943 243.915 185.988 242.638 188.422C241.361 190.857 240.765 193.591 240.912 196.336C244.496 191.384 250.456 188.56 256.488 187.536C262.52 186.512 268.696 187.12 274.768 187.832C277.632 188.168 291.008 192.416 290.28 195.208C294.584 188.808 289.68 160.008 287.736 152.504C287.152 150.256 288.288 147.088 286.072 146.408C280.944 144.808 269.84 141.696 258.608 148.92C254.096 151.832 254.632 156.408 253.504 159.944Z" fill="black"/>
</g>
<path d="M226.456 150.952L223.496 143.432L219.864 149.072C219.864 149.072 221.776 152.896 224.104 153.072L226.456 150.952Z" fill="#DD8C6A"/>
<path d="M218.4 141.76L217.264 143.032C216.933 143.408 216.746 143.888 216.734 144.388C216.722 144.889 216.887 145.377 217.2 145.768L219.84 149.064L223.472 143.464L221.424 141.6C221.217 141.407 220.974 141.258 220.708 141.162C220.443 141.065 220.16 141.023 219.878 141.038C219.596 141.053 219.32 141.124 219.066 141.249C218.812 141.373 218.585 141.547 218.4 141.76Z" fill="#DD8C6A"/>
<path d="M220.8 148.192L219.864 147.632C219.392 147.352 218.961 147.008 218.584 146.608L218.44 145.952C218.555 145.788 218.72 145.665 218.91 145.602C219.1 145.539 219.306 145.538 219.496 145.6L220.296 145.872L224.296 146.424V148.104L223.024 149.84H222.616C222.162 149.844 221.723 149.676 221.386 149.371C221.05 149.066 220.84 148.645 220.8 148.192Z" fill="#DD8C6A"/>
<path d="M251.904 153.184C251.904 153.184 244.352 158.896 238.576 164.192C238.576 164.192 227.824 153.064 226.28 150.28L223.264 152.904C224.445 156.869 226.03 160.702 227.992 164.344C228.951 165.974 230.124 167.467 231.48 168.784C232.299 169.567 233.239 170.213 234.264 170.696C235.561 171.311 237.017 171.513 238.432 171.272C238.797 171.208 239.155 171.114 239.504 170.992L240.184 170.744L241.416 170.272C242.216 169.968 243.016 169.592 243.816 169.248C245.43 168.511 247.003 167.689 248.528 166.784C250.064 165.863 251.546 164.856 252.968 163.768C253.704 163.2 254.368 162.616 255.056 161.984C255.392 161.68 255.736 161.344 256.064 161.008L256.56 160.48C256.744 160.28 256.872 160.128 257.128 159.832L251.904 153.184Z" fill="#007BFF"/>
<path d="M259.288 148.856C256.56 148.184 237.272 165.344 237.272 165.344L240.184 170.744C240.184 170.744 257.696 163.44 263.072 155.544C262.624 151.792 263.272 149.848 259.288 148.856Z" fill="#007BFF"/>
<path opacity="0.2" d="M258.856 154.792L256.552 161.752C247.056 168.336 243.848 169.248 243.848 169.248L258.856 154.792Z" fill="black"/>
<path d="M261.288 325.272L254.712 325.512L253.592 310.224L260.168 309.992L261.288 325.272Z" fill="#DD8C6A"/>
<path d="M252.04 326.352C252.071 326.348 252.1 326.334 252.123 326.312C252.146 326.291 252.162 326.263 252.168 326.232C252.171 326.199 252.165 326.167 252.151 326.137C252.137 326.108 252.115 326.082 252.088 326.064C251.8 325.904 249.208 324.464 248.384 324.896C248.308 324.936 248.244 324.994 248.196 325.065C248.149 325.137 248.12 325.219 248.112 325.304C248.084 325.447 248.092 325.596 248.135 325.735C248.178 325.875 248.256 326.002 248.36 326.104C248.826 326.433 249.391 326.594 249.96 326.56C250.658 326.555 251.355 326.485 252.04 326.352ZM248.84 325.128C249.798 325.302 250.718 325.64 251.56 326.128C250.088 326.32 249.008 326.224 248.616 325.856C248.552 325.789 248.504 325.707 248.477 325.619C248.449 325.53 248.442 325.436 248.456 325.344C248.459 325.309 248.471 325.275 248.49 325.245C248.51 325.216 248.537 325.192 248.568 325.176C248.661 325.135 248.764 325.121 248.864 325.136L248.84 325.128Z" fill="#007BFF"/>
<path d="M252.136 326.32C252.154 326.301 252.167 326.278 252.174 326.253C252.181 326.228 252.182 326.201 252.176 326.176C252.176 326.104 252.08 324.312 251.272 323.6C251.155 323.497 251.017 323.42 250.869 323.373C250.72 323.327 250.563 323.311 250.408 323.328C250.275 323.319 250.142 323.357 250.033 323.434C249.924 323.511 249.845 323.623 249.808 323.752C249.664 324.496 251.168 325.968 251.944 326.344H252C252.047 326.351 252.095 326.343 252.136 326.32ZM250.536 323.64C250.738 323.625 250.939 323.688 251.096 323.816C251.574 324.402 251.855 325.125 251.896 325.88C251.096 325.384 250.088 324.232 250.184 323.784C250.184 323.784 250.184 323.64 250.488 323.616H250.584L250.536 323.64Z" fill="#007BFF"/>
<path d="M255.2 322.896L261.104 323.512C261.232 323.52 261.351 323.575 261.44 323.667C261.529 323.759 261.58 323.881 261.584 324.008L262.48 332.32C262.48 332.461 262.452 332.6 262.398 332.729C262.344 332.859 262.265 332.976 262.166 333.075C262.066 333.174 261.948 333.252 261.818 333.305C261.688 333.358 261.549 333.385 261.408 333.384H261.28C258.72 333.088 257.496 332.824 254.248 332.512C252.256 332.32 246.072 332.656 243.416 331.864C240.76 331.072 241.4 328.408 242.616 328.496C246.4 328.808 250.928 326.616 253.296 323.864C253.6 323.632 254.792 322.84 255.2 322.896Z" fill="#263238"/>
<path opacity="0.2" d="M253.592 310.224L254.168 318.104L260.744 317.872L260.176 310L253.592 310.224Z" fill="black"/>
<path d="M254.632 156.408C250.496 162.52 254.728 168.168 257.352 187.384L281.976 188.984C282.216 178.728 282.776 170.464 288.376 150.584C288.623 149.717 288.517 148.788 288.081 147.999C287.645 147.211 286.914 146.627 286.048 146.376C285.813 146.31 285.572 146.267 285.328 146.248C283.288 146.128 280.728 146.04 278.128 146.136C274.007 146.216 269.896 146.577 265.824 147.216C263.611 147.612 261.426 148.146 259.28 148.816C258 149.216 256.256 152.56 254.632 156.408Z" fill="white"/>
<path d="M256.36 188.608C256.36 188.608 239.256 221.464 242.288 267.72C241.784 278.752 253.176 313.376 253.176 313.376H262.072C262.072 313.376 262.592 263.144 264 250.104C266.288 228.752 275.104 189.408 275.104 189.408L256.36 188.608Z" fill="#007BFF"/>
<path d="M263.688 315.824L251.152 315.784L250.248 311.96L264.288 311.544L263.688 315.824Z" fill="#007BFF"/>
<path opacity="0.4" d="M263.688 315.824L251.152 315.784L250.248 311.96L264.288 311.544L263.688 315.824Z" fill="white"/>
<path opacity="0.2" d="M263.072 266.296C260.176 265.048 252.272 258.776 254.544 243.392L263.344 206.312L263.072 266.296Z" fill="black"/>
<path d="M281.28 256.576C273.888 234.392 291.56 205.544 282.264 189.856L266.896 189.6C266.896 189.6 247.192 258.28 269.552 267.624L281.28 256.576Z" fill="#007BFF"/>
<path d="M316.216 177.232C317.168 178.832 322.536 178.136 322.536 178.136L324.08 171.632L317.4 173.832L316.216 177.232Z" fill="#DD8C6A"/>
<path d="M324.072 171.576L322.536 178.136L326.536 179.176C326.745 179.207 326.957 179.161 327.134 179.046C327.311 178.931 327.44 178.755 327.496 178.552L329.304 173.752C329.335 173.64 329.321 173.52 329.266 173.417C329.211 173.315 329.119 173.237 329.008 173.2L324.072 171.576Z" fill="#DD8C6A"/>
<path d="M317.4 173.824L316.224 177.232C316.224 177.232 307.608 177.872 301.024 176.968H300.968C298.656 176.736 292.8 175.68 290.32 171.224C286.792 164.88 282.568 156.824 282.496 154.216C282.36 148.616 284.808 145.056 287.296 146.776C292.32 150.296 296.632 162.896 299.08 168.008L304.936 169.864L317.4 173.824Z" fill="#007BFF"/>
<path d="M316.248 300.808L311.216 305.072L299.6 294.928L304.168 289.488L316.248 300.808Z" fill="#DD8C6A"/>
<path d="M309.16 302.72L312.48 297.792C312.549 297.684 312.657 297.605 312.781 297.571C312.905 297.537 313.037 297.55 313.152 297.608L320.912 300.72C321.036 300.786 321.145 300.876 321.234 300.985C321.323 301.094 321.39 301.219 321.43 301.354C321.47 301.489 321.483 301.63 321.468 301.769C321.454 301.909 321.411 302.045 321.344 302.168L321.28 302.272C319.816 304.4 319 305.352 317.2 308.072C316.096 309.744 313.488 315.36 311.544 317.336C309.6 319.312 307.544 317.48 308.176 316.488C310.224 313.288 310.416 308.272 309.104 304.888C308.986 304.168 309.005 303.433 309.16 302.72Z" fill="#263238"/>
<path opacity="0.2" d="M300.872 286.24L296.016 291.912L303.584 298.4L308.448 293.496L300.872 286.24Z" fill="black"/>
<path d="M262.44 260.232C263.52 273.104 299.432 297.896 299.432 297.896L306.2 290.96C306.2 290.96 280.824 261.416 281.28 256.56L262.44 260.232Z" fill="#007BFF"/>
<path d="M307.48 289.624L298.76 298.744L295.064 296.856L305.448 286.016L307.48 289.624Z" fill="#007BFF"/>
<path opacity="0.4" d="M307.48 289.624L298.76 298.744L295.064 296.856L305.448 286.016L307.48 289.624Z" fill="white"/>
<path d="M309.376 304.648C309.39 304.622 309.397 304.593 309.397 304.564C309.397 304.535 309.39 304.506 309.376 304.48C309.357 304.454 309.331 304.435 309.301 304.425C309.271 304.415 309.238 304.415 309.208 304.424C308.976 304.496 306.656 305.16 306.424 305.968C306.394 306.059 306.389 306.156 306.41 306.249C306.431 306.342 306.477 306.428 306.544 306.496C306.637 306.617 306.759 306.713 306.899 306.774C307.039 306.836 307.192 306.861 307.344 306.848L307.416 306.808C308.152 306.664 308.944 305.4 309.376 304.648ZM308.888 304.832C308.312 305.864 307.704 306.432 307.288 306.52C307.188 306.527 307.088 306.508 306.998 306.466C306.907 306.424 306.828 306.36 306.768 306.28C306.738 306.25 306.715 306.214 306.703 306.173C306.69 306.133 306.688 306.09 306.696 306.048C306.824 305.608 308 305.104 308.912 304.824L308.888 304.832Z" fill="#007BFF"/>
<path d="M309.28 304.736C309.306 304.728 309.33 304.713 309.349 304.693C309.369 304.674 309.383 304.65 309.392 304.624C309.392 304.596 309.385 304.569 309.371 304.545C309.357 304.521 309.337 304.501 309.312 304.488C309.248 304.44 307.816 303.184 306.864 303.312C306.744 303.319 306.627 303.353 306.522 303.411C306.416 303.469 306.326 303.55 306.256 303.648C306.18 303.745 306.139 303.865 306.139 303.988C306.139 304.111 306.18 304.231 306.256 304.328C306.688 304.864 308.232 304.952 309.04 304.784C309.121 304.776 309.202 304.76 309.28 304.736ZM306.88 303.592H306.928C307.665 303.677 308.355 303.997 308.896 304.504C308.096 304.64 306.8 304.504 306.496 304.128C306.456 304.064 306.416 303.976 306.496 303.816C306.532 303.758 306.579 303.707 306.636 303.669C306.692 303.63 306.757 303.604 306.824 303.592H306.88Z" fill="#007BFF"/>
<path d="M282.144 187.744L282.672 190.144C282.752 190.336 282.528 190.512 282.216 190.488L256.8 188.888C256.56 188.888 256.368 188.736 256.36 188.592L256.272 186.192C256.272 186.032 256.488 185.896 256.752 185.92L281.72 187.52C281.804 187.518 281.887 187.538 281.961 187.577C282.035 187.617 282.098 187.674 282.144 187.744Z" fill="#263238"/>
<path d="M277.104 190.4L277.84 190.448C277.984 190.448 278.104 190.392 278.096 190.296L277.96 187.16C277.96 187.072 277.832 186.992 277.68 186.984L276.944 186.928C276.808 186.928 276.688 186.992 276.696 187.088L276.832 190.216C276.84 190.336 276.96 190.4 277.104 190.4Z" fill="#007BFF"/>
<path d="M258.752 189.28L259.496 189.328C259.632 189.328 259.752 189.272 259.744 189.176L259.608 186.048C259.608 185.952 259.48 185.872 259.344 185.864L258.608 185.816C258.464 185.816 258.344 185.872 258.352 185.96L258.488 189.096C258.488 189.192 258.608 189.272 258.752 189.28Z" fill="#007BFF"/>
<path d="M267.2 189.792L267.936 189.84C268.08 189.84 268.2 189.776 268.192 189.688L268 186.56C268 186.464 267.88 186.384 267.736 186.376L267 186.328C266.864 186.328 266.744 186.384 266.752 186.472L266.888 189.6C266.896 189.696 267.008 189.784 267.2 189.792Z" fill="#007BFF"/>
<path d="M277.832 132.696C276.8 136.656 275.576 143.856 278.16 146.216C278.16 146.216 276.816 150.264 269.464 150.904C261.344 151.616 265.856 147.296 265.856 147.296C270.336 145.832 270.432 142.664 269.856 139.696L277.832 132.696Z" fill="#DD8C6A"/>
<path d="M278.136 146.176C274.239 146.183 270.349 146.48 266.496 147.064L262.32 148C261.216 149.912 261.12 154.4 265.688 155.464C265.688 155.464 275.04 157.36 279.952 149.136C280.128 148.826 280.217 148.475 280.211 148.119C280.206 147.763 280.105 147.415 279.92 147.111C279.735 146.807 279.472 146.557 279.158 146.389C278.845 146.22 278.492 146.139 278.136 146.152V146.176Z" fill="#DD8C6A"/>
<path opacity="0.2" d="M274.584 135.56L269.864 139.696C270.007 140.391 270.088 141.098 270.104 141.808C271.808 141.424 274.616 139.744 274.904 137.992C274.963 137.168 274.854 136.341 274.584 135.56Z" fill="black"/>
<path d="M273.336 115.2C272.76 116.57 271.709 117.686 270.376 118.344C269.576 118.704 267.176 119.752 266.44 120.576C265.176 121.952 264.424 115.912 267.664 114.312C270.904 112.712 274.952 111.712 273.336 115.2Z" fill="#263238"/>
<path d="M270.144 140.168C269.741 140.454 269.277 140.642 268.789 140.718C268.301 140.795 267.802 140.757 267.331 140.608C266.859 140.46 266.429 140.204 266.073 139.861C265.718 139.518 265.446 139.097 265.28 138.632C264.677 138.734 264.058 138.678 263.483 138.469C262.908 138.26 262.397 137.905 262 137.44C261.578 136.933 261.285 136.331 261.146 135.686C261.007 135.041 261.025 134.372 261.2 133.736C261.752 132.338 262.707 131.135 263.944 130.28C265.057 133.874 267.086 137.116 269.832 139.688L270.144 140.168Z" fill="#263238"/>
<path d="M283.064 127.936C280.704 134.04 279.864 136.68 275.648 138.88C269.384 142.192 262.36 137.96 262.848 131.272C263.28 125.256 267.064 116.272 273.976 115.72C275.495 115.589 277.022 115.849 278.412 116.475C279.802 117.101 281.009 118.073 281.917 119.298C282.825 120.523 283.404 121.96 283.599 123.472C283.794 124.984 283.599 126.521 283.032 127.936H283.064Z" fill="#DD8C6A"/>
<path d="M268.256 126.032C267.489 127.086 266.579 128.029 265.552 128.832C265.768 129.083 266.036 129.284 266.337 129.422C266.638 129.56 266.965 129.632 267.296 129.632L268.256 126.032Z" fill="#DE5753"/>
<path d="M283.432 133.216C282.645 134.213 281.494 134.858 280.232 135.008C278.56 135.2 278.016 133.648 278.68 132.208C279.296 130.92 280.904 129.264 282.472 129.744C282.741 129.83 282.99 129.969 283.205 130.151C283.42 130.334 283.597 130.557 283.726 130.809C283.854 131.06 283.932 131.334 283.954 131.615C283.977 131.897 283.943 132.18 283.856 132.448C283.767 132.73 283.623 132.991 283.432 133.216Z" fill="#DD8C6A"/>
<path d="M275.44 124.92C275.375 124.924 275.31 124.907 275.255 124.871C275.2 124.834 275.158 124.782 275.136 124.72C274.616 123.336 272.824 122.888 272.808 122.88C272.764 122.875 272.722 122.86 272.684 122.837C272.646 122.814 272.613 122.783 272.588 122.747C272.563 122.71 272.546 122.669 272.539 122.625C272.531 122.581 272.532 122.537 272.543 122.494C272.554 122.451 272.574 122.411 272.602 122.376C272.629 122.341 272.664 122.313 272.703 122.293C272.743 122.272 272.786 122.261 272.83 122.259C272.875 122.257 272.919 122.264 272.96 122.28C273.056 122.28 275.096 122.848 275.728 124.512C275.744 124.55 275.751 124.591 275.751 124.633C275.75 124.674 275.742 124.715 275.725 124.753C275.709 124.791 275.685 124.825 275.656 124.854C275.626 124.883 275.591 124.905 275.552 124.92H275.44Z" fill="#263238"/>
<path d="M266.032 121.6C265.979 121.599 265.926 121.585 265.88 121.558C265.834 121.532 265.795 121.494 265.768 121.448C265.747 121.413 265.733 121.374 265.727 121.334C265.721 121.293 265.723 121.252 265.734 121.212C265.744 121.173 265.763 121.135 265.788 121.103C265.813 121.071 265.844 121.044 265.88 121.024C266.308 120.77 266.79 120.622 267.287 120.591C267.783 120.561 268.28 120.649 268.736 120.848C268.773 120.866 268.806 120.891 268.832 120.922C268.859 120.952 268.88 120.988 268.892 121.027C268.905 121.066 268.91 121.107 268.906 121.148C268.903 121.188 268.891 121.228 268.872 121.264C268.834 121.339 268.769 121.396 268.689 121.423C268.61 121.449 268.524 121.444 268.448 121.408C268.088 121.25 267.695 121.182 267.303 121.212C266.911 121.241 266.532 121.366 266.2 121.576C266.146 121.595 266.089 121.604 266.032 121.6Z" fill="#263238"/>
<path d="M266.176 124.128C265.824 124.04 265.432 124.416 265.304 124.928C265.176 125.44 265.36 125.984 265.704 126.064C266.048 126.144 266.448 125.776 266.576 125.264C266.704 124.752 266.528 124.216 266.176 124.128Z" fill="#263238"/>
<path d="M265.12 123.52L266.328 124.208C265.544 124.696 265.12 123.52 265.12 123.52Z" fill="#263238"/>
<path d="M272.264 125.776C271.912 125.688 271.52 126.064 271.392 126.576C271.264 127.088 271.448 127.632 271.792 127.712C272.136 127.792 272.536 127.424 272.664 126.912C272.792 126.4 272.616 125.864 272.264 125.776Z" fill="#263238"/>
<path d="M271.2 125.168L272.408 125.856C271.632 126.344 271.2 125.168 271.2 125.168Z" fill="#263238"/>
<path d="M266.48 132C266.578 132.949 266.604 133.903 266.56 134.856L267.056 134.96C269.296 135.4 270.48 134.864 271.112 134.16C271.412 133.798 271.623 133.37 271.728 132.912C271.796 132.651 271.825 132.382 271.816 132.112C270.488 132.584 268.368 132.336 267.248 132.112C266.776 132.096 266.48 132 266.48 132Z" fill="#263238"/>
<path d="M267.248 132.16L267.288 133.008C269.4 133.416 270.944 133.424 271.728 132.912C271.796 132.651 271.825 132.382 271.816 132.112C270.488 132.592 268.368 132.344 267.248 132.16Z" fill="white"/>
<path d="M267.056 134.984C269.296 135.424 270.48 134.888 271.112 134.184C270.258 134.032 269.383 134.032 268.528 134.184C267.965 134.289 267.45 134.569 267.056 134.984Z" fill="#DE5753"/>
<path d="M273.904 113.152C275.328 111.84 277.608 111.888 279.344 112.744C281.023 113.717 282.487 115.021 283.648 116.576C285.824 119.12 288.032 121.768 289.072 124.952C290.112 128.136 289.72 132.016 287.248 134.272C286.52 134.936 285.648 135.432 284.952 136.128C284.58 136.449 284.295 136.858 284.122 137.318C283.948 137.778 283.893 138.273 283.96 138.76C284.184 139.72 285.44 140.36 286.216 139.784C285.65 140.425 284.873 140.841 284.026 140.957C283.178 141.073 282.318 140.881 281.6 140.416C281.074 140.927 280.41 141.274 279.691 141.416C278.971 141.558 278.225 141.488 277.544 141.216C276.2 140.656 273.216 138.744 273.848 135.856C275.448 135.592 279.8 132.024 280.088 129.92C280.376 127.816 280.032 123.6 279.12 121.68C278.88 122.48 277.832 122.36 277.128 121.96C276.472 121.478 275.969 120.817 275.68 120.056C275.313 119.342 274.813 118.704 274.208 118.176C272.224 116.376 270.952 118.536 270.376 118.328C270.816 116.28 272.368 114.568 273.904 113.152Z" fill="#263238"/>
<path opacity="0.2" d="M274.952 192.224C275.495 194.624 275.819 197.069 275.92 199.528C276.044 201.709 275.966 203.897 275.688 206.064C277.166 201.519 276.904 196.587 274.952 192.224Z" fill="black"/>
<path opacity="0.2" d="M260.752 191.368C259.008 195.843 257.262 200.309 255.512 204.768C256.05 199.918 257.858 195.296 260.752 191.368Z" fill="black"/>
<path d="M281.92 154.52C281.92 154.52 288.16 167.168 289.6 181C290.904 193.608 290.28 195.216 290.28 195.216C290.28 195.216 292.808 192.816 292.216 179.688C291.75 170.482 290.248 161.357 287.736 152.488C285.76 153.053 283.818 153.731 281.92 154.52Z" fill="#007BFF"/>
<path d="M282.048 154.928L278.136 146.176L277.104 144.496C280.136 144.917 283.134 145.559 286.072 146.416C285.106 148.199 284.323 150.075 283.736 152.016C283.424 152.92 283.104 154.992 282.048 154.928Z" fill="#007BFF"/>
<path d="M255.248 154.992C255.248 154.992 262.448 147.2 269.552 144.728C269.552 144.728 264.752 145.08 258.608 148.928C258.608 148.928 255.704 152.064 255.248 154.992Z" fill="#007BFF"/>
</g>
<defs>
<clipPath id="clip0_617_6688">
<rect width="400" height="400" fill="white"/>
</clipPath>
</defs>
</svg>
