<svg width="400" height="400" viewBox="0 0 400 400" fill="none" xmlns="http://www.w3.org/2000/svg">
<path d="M400 305.92H0V306.12H400V305.92Z" fill="#EBEBEB"/>
<path d="M359.92 318.792H333.424V318.992H359.92V318.792Z" fill="#EBEBEB"/>
<path d="M264.976 320.968H258.024V321.168H264.976V320.968Z" fill="#EBEBEB"/>
<path d="M332.624 311.368H317.272V311.568H332.624V311.368Z" fill="#EBEBEB"/>
<path d="M76.52 312.712H41.968V312.912H76.52V312.712Z" fill="#EBEBEB"/>
<path d="M88.712 312.712H83.6479V312.912H88.712V312.712Z" fill="#EBEBEB"/>
<path d="M180.12 316.088H105.176V316.288H180.12V316.088Z" fill="#EBEBEB"/>
<path d="M189.6 270.24H35.1281C33.918 270.238 32.7582 269.756 31.9032 268.899C31.0483 268.043 30.5681 266.882 30.5681 265.672V48.528C30.5786 47.3248 31.0635 46.1744 31.9173 45.3266C32.7711 44.4788 33.9249 44.0021 35.1281 44H189.6C190.812 44 191.974 44.4813 192.83 45.3379C193.687 46.1946 194.168 47.3565 194.168 48.568V265.672C194.168 266.884 193.687 268.045 192.83 268.902C191.974 269.759 190.812 270.24 189.6 270.24ZM35.1281 44.16C33.971 44.1621 32.8621 44.6233 32.0446 45.4422C31.2272 46.2611 30.7681 47.3709 30.7681 48.528V265.672C30.7681 266.829 31.2272 267.939 32.0446 268.758C32.8621 269.577 33.971 270.038 35.1281 270.04H189.6C190.758 270.038 191.868 269.577 192.686 268.758C193.505 267.94 193.966 266.83 193.968 265.672V48.528C193.966 47.3702 193.505 46.2604 192.686 45.4417C191.868 44.623 190.758 44.1621 189.6 44.16H35.1281Z" fill="#EBEBEB"/>
<path d="M362.648 270.24H208.168C206.957 270.238 205.797 269.756 204.94 268.9C204.084 268.044 203.602 266.883 203.6 265.672V48.528C203.613 47.3241 204.099 46.1737 204.954 45.3261C205.809 44.4785 206.964 44.002 208.168 44H362.648C363.85 44.0042 365.002 44.4818 365.854 45.3294C366.706 46.177 367.19 47.3262 367.2 48.528V265.672C367.2 266.881 366.721 268.04 365.868 268.896C365.015 269.753 363.857 270.236 362.648 270.24ZM208.168 44.16C207.01 44.1621 205.9 44.623 205.082 45.4417C204.263 46.2604 203.802 47.3702 203.8 48.528V265.672C203.802 266.83 204.263 267.94 205.082 268.758C205.9 269.577 207.01 270.038 208.168 270.04H362.648C363.806 270.038 364.916 269.577 365.734 268.758C366.553 267.94 367.014 266.83 367.016 265.672V48.528C367.014 47.3702 366.553 46.2604 365.734 45.4417C364.916 44.623 363.806 44.1621 362.648 44.16H208.168Z" fill="#EBEBEB"/>
<path d="M180.072 91.208L188.336 90L180.072 88.792L182.112 85.56L178.88 87.6L177.672 79.344L176.464 87.6L173.232 85.56L175.28 88.792L167.016 90L175.28 91.208L173.232 94.44L176.464 92.392L177.672 100.656L178.88 92.392L182.112 94.44L180.072 91.208Z" fill="#F5F5F5"/>
<path d="M263.144 113.264L271.4 112.056L263.144 110.848L265.184 107.616L261.952 109.656L260.744 101.392L259.536 109.656L256.304 107.616L258.352 110.848L250.088 112.056L258.352 113.264L256.304 116.496L259.536 114.448L260.744 122.712L261.952 114.448L265.184 116.496L263.144 113.264Z" fill="#F5F5F5"/>
<path d="M146.96 149.104L155.224 147.896L146.96 146.68L149.008 143.456L145.776 145.496L144.568 137.232L143.36 145.496L140.128 143.456L142.176 146.68L133.912 147.896L142.176 149.104L140.128 152.336L143.36 150.288L144.568 158.552L145.776 150.288L149.008 152.336L146.96 149.104Z" fill="#F5F5F5"/>
<path d="M77.1119 149.104L85.3679 147.896L77.1119 146.68L79.1519 143.456L75.9199 145.496L74.7119 137.232L73.5039 145.496L70.2719 143.456L72.3199 146.68L64.0559 147.896L72.3199 149.104L70.2719 152.336L73.5039 150.288L74.7119 158.552L75.9199 150.288L79.1519 152.336L77.1119 149.104Z" fill="#F5F5F5"/>
<path d="M116.68 198.296L124.944 197.088L116.68 195.872L118.728 192.648L115.496 194.688L114.288 186.424L113.072 194.688L109.848 192.648L111.888 195.872L103.624 197.088L111.888 198.296L109.848 201.528L113.072 199.48L114.288 207.744L115.496 199.48L118.728 201.528L116.68 198.296Z" fill="#F5F5F5"/>
<path d="M279.008 171.808L287.272 170.6L279.008 169.392L281.056 166.16L277.824 168.208L276.616 159.944L275.408 168.208L272.176 166.16L274.216 169.392L265.96 170.6L274.216 171.808L272.176 175.04L275.408 173L276.616 181.264L277.824 173L281.056 175.04L279.008 171.808Z" fill="#F5F5F5"/>
<path d="M337.296 245.032L345.552 243.816L337.296 242.608L339.336 239.384L336.104 241.424L334.896 233.16L333.688 241.424L330.456 239.384L332.504 242.608L324.24 243.816L332.504 245.032L330.456 248.256L333.688 246.216L334.896 254.48L336.104 246.216L339.336 248.256L337.296 245.032Z" fill="#F5F5F5"/>
<path d="M268.352 242.488L276.616 241.28L268.352 240.064L270.4 236.84L267.168 238.88L265.96 230.616L264.744 238.88L261.52 236.84L263.56 240.064L255.296 241.28L263.56 242.488L261.52 245.72L264.744 243.672L265.96 251.936L267.168 243.672L270.4 245.72L268.352 242.488Z" fill="#F5F5F5"/>
<path d="M116.68 259.704L124.944 258.488L116.68 257.28L118.728 254.048L115.496 256.096L114.288 247.832L113.072 256.096L109.848 254.048L111.888 257.28L103.624 258.488L111.888 259.704L109.848 262.928L113.072 260.888L114.288 269.152L115.496 260.888L118.728 262.928L116.68 259.704Z" fill="#F5F5F5"/>
<path d="M206.472 222.144L214.736 220.936L206.472 219.728L208.52 216.496L205.288 218.536L204.08 210.28L202.872 218.536L199.64 216.496L201.68 219.728L193.416 220.936L201.68 222.144L199.64 225.376L202.872 223.328L204.08 231.592L205.288 223.328L208.52 225.376L206.472 222.144Z" fill="#F5F5F5"/>
<path d="M159.592 311.128L167.856 309.92L159.592 308.712L161.632 305.48L158.4 307.52L157.192 299.264L155.984 307.52L152.752 305.48L154.8 308.712L146.536 309.92L154.8 311.128L152.752 314.36L155.984 312.312L157.192 320.576L158.4 312.312L161.632 314.36L159.592 311.128Z" fill="#F5F5F5"/>
<path d="M251.52 305.736L259.784 304.528L251.52 303.32L253.56 300.088L250.336 302.136L249.12 293.872L247.912 302.136L244.68 300.088L246.728 303.32L238.464 304.528L246.728 305.736L244.68 308.968L247.912 306.92L249.12 315.184L250.336 306.92L253.56 308.968L251.52 305.736Z" fill="#F5F5F5"/>
<path d="M252.56 156.568C247.648 149.296 245.544 137.888 241.04 133.368C244.527 130.691 248.227 128.305 252.104 126.232C254.864 134.176 256.504 146.504 263.624 149.432C260.137 152.109 256.437 154.495 252.56 156.568Z" fill="#EBEBEB"/>
<path d="M260.88 150.792C260.192 150.336 260.368 149.44 261.208 148.88C256.28 144.92 254.512 135.704 252.28 128.808C252.098 128.89 251.901 128.933 251.701 128.932C251.502 128.932 251.304 128.888 251.123 128.805C250.942 128.721 250.78 128.6 250.65 128.449C250.52 128.297 250.424 128.12 250.368 127.928C248.029 129.224 245.759 130.642 243.568 132.176C243.738 132.579 243.75 133.032 243.602 133.444C243.454 133.856 243.156 134.197 242.768 134.4C246.104 139.112 248.136 147.808 251.784 154.304C252.194 154.152 252.642 154.137 253.061 154.263C253.48 154.388 253.846 154.647 254.104 155C256.435 153.717 258.697 152.312 260.88 150.792ZM248.88 142.72C248.152 140.776 248.824 138.664 250.312 137.976C251.8 137.288 253.512 138.432 254.192 140.424C254.872 142.416 254.344 144.48 252.864 145.136C251.384 145.792 249.6 144.68 248.904 142.72H248.88Z" fill="#E0E0E0"/>
<path d="M140.84 132.704C133.808 136.496 123.144 136.968 118.696 140.744C116.464 136.961 114.518 133.017 112.872 128.944C120.384 127.344 131.864 127.456 135.016 120.904C137.254 124.684 139.201 128.629 140.84 132.704Z" fill="#EBEBEB"/>
<path d="M136.088 123.768C135.624 124.384 134.8 124.088 134.344 123.184C130.344 127.448 121.744 127.904 115.224 129.128C115.295 129.303 115.326 129.492 115.316 129.68C115.306 129.869 115.254 130.053 115.165 130.219C115.075 130.386 114.951 130.53 114.799 130.643C114.648 130.756 114.473 130.834 114.288 130.872C115.24 133.144 116.368 135.536 117.744 138.072C118.36 137.76 119.264 138.248 119.744 139.16C124.312 136.56 132.464 135.776 138.712 133.112C138.589 132.713 138.601 132.285 138.746 131.893C138.89 131.501 139.159 131.168 139.512 130.944C138.568 128.68 137.456 126.296 136.096 123.744L136.088 123.768ZM127.832 134.4C126.99 134.628 126.094 134.544 125.308 134.165C124.522 133.786 123.899 133.137 123.552 132.336C123.016 130.736 124.192 129.288 126.072 128.888C127.952 128.488 129.824 129.296 130.328 130.832C130.832 132.368 129.68 133.936 127.832 134.4Z" fill="#E0E0E0"/>
<path d="M210.632 122.064C204.656 116.744 200.56 106.864 195.488 104.008C198.277 100.614 201.318 97.4339 204.584 94.4961C208.656 101.008 212.488 111.832 219.72 112.544C216.934 115.941 213.896 119.123 210.632 122.064Z" fill="#EBEBEB"/>
<path d="M217.392 114.528C216.664 114.304 216.656 113.432 217.352 112.696C212 110.4 208.6 102.472 205.216 96.8C205.076 96.9276 204.909 97.0226 204.728 97.078C204.547 97.1334 204.355 97.1478 204.168 97.1203C203.98 97.0927 203.801 97.0238 203.643 96.9186C203.486 96.8134 203.353 96.6745 203.256 96.512C201.448 98.192 199.584 100.064 197.656 102.24C198.16 102.712 198.008 103.728 197.312 104.488C201.312 107.896 204.848 115.288 209.496 120.24C209.829 119.989 210.235 119.853 210.652 119.853C211.069 119.853 211.475 119.989 211.808 120.24C213.608 118.576 215.464 116.712 217.408 114.56L217.392 114.528ZM204.592 110.4C204.089 109.686 203.861 108.815 203.949 107.946C204.037 107.078 204.436 106.27 205.072 105.672C206.352 104.64 208.144 105.232 209.176 106.864C210.208 108.496 210.072 110.528 208.8 111.528C207.528 112.528 205.656 112 204.616 110.4H204.592Z" fill="#E0E0E0"/>
<path d="M229.384 205.496C226.656 197.984 227.744 187.368 224.664 182.416C228.732 180.768 232.917 179.425 237.184 178.4C237.672 186.064 235.88 197.408 241.904 201.488C237.837 203.136 233.652 204.476 229.384 205.496Z" fill="#EBEBEB"/>
<path d="M238.912 202.096C238.376 201.544 238.792 200.784 239.712 200.496C236.08 195.92 236.888 187.336 236.632 180.712C236.447 180.758 236.255 180.763 236.068 180.726C235.881 180.689 235.705 180.611 235.552 180.498C235.399 180.385 235.273 180.239 235.183 180.072C235.093 179.904 235.042 179.718 235.032 179.528C232.632 180.144 230.112 180.904 227.376 181.888C227.592 182.544 226.976 183.368 226 183.704C227.904 188.608 227.488 196.792 229.2 203.352C229.612 203.294 230.032 203.37 230.398 203.569C230.764 203.768 231.056 204.079 231.232 204.456C233.632 203.848 236.136 203.096 238.864 202.12L238.912 202.096ZM229.648 192.384C229.542 191.518 229.753 190.643 230.243 189.92C230.733 189.198 231.468 188.678 232.312 188.456C233.912 188.152 235.224 189.528 235.352 191.448C235.48 193.368 234.4 195.096 232.808 195.376C231.216 195.656 229.792 194.28 229.648 192.384Z" fill="#E0E0E0"/>
<path d="M335.648 174.888C329.672 169.568 325.576 159.688 320.504 156.832C323.295 153.439 326.335 150.26 329.6 147.32C333.68 153.832 337.512 164.656 344.744 165.368C341.955 168.765 338.914 171.947 335.648 174.888Z" fill="#EBEBEB"/>
<path d="M342.4 167.36C341.664 167.128 341.664 166.256 342.36 165.52C336.992 163.2 333.6 155.296 330.232 149.6C330.092 149.728 329.925 149.823 329.744 149.878C329.563 149.933 329.371 149.948 329.184 149.92C328.996 149.893 328.817 149.824 328.66 149.719C328.502 149.613 328.37 149.475 328.272 149.312C326.464 150.992 324.6 152.864 322.672 155.04C323.176 155.512 323.024 156.528 322.328 157.288C326.328 160.696 329.864 168.088 334.512 173.04C334.846 172.79 335.251 172.655 335.668 172.655C336.085 172.655 336.491 172.79 336.824 173.04C338.624 171.376 340.48 169.512 342.424 167.36H342.4ZM329.6 163.2C329.096 162.488 328.867 161.618 328.955 160.75C329.043 159.882 329.443 159.076 330.08 158.48C331.352 157.44 333.152 158.032 334.176 159.664C335.2 161.296 335.08 163.328 333.808 164.328C332.536 165.328 330.672 164.8 329.6 163.2Z" fill="#E0E0E0"/>
<path d="M330.912 162.696L330.568 162.96L330.368 162.648L330.704 162.384C330.494 162.038 330.373 161.645 330.352 161.24L330.768 161.168C330.779 161.504 330.87 161.833 331.032 162.128L331.632 161.664C331.448 161.168 331.264 160.616 331.688 160.288C331.992 160.048 332.448 160.136 332.872 160.712L333.216 160.448L333.416 160.768L333.08 161.024C333.245 161.313 333.354 161.631 333.4 161.96L332.992 162.032C332.952 161.77 332.871 161.517 332.752 161.28L332.144 161.752C332.336 162.248 332.536 162.8 332.144 163.12C331.752 163.44 331.344 163.272 330.912 162.696ZM332 161.376L332.544 160.968C332.336 160.712 332.152 160.68 332.016 160.784C331.88 160.888 331.912 161.112 332 161.376ZM331.76 162.64C331.912 162.528 331.872 162.304 331.76 162.032L331.224 162.448C331.456 162.704 331.632 162.744 331.76 162.64Z" fill="#E0E0E0"/>
<path d="M193.936 159.112C188.568 166.032 183.664 173.44 181.496 181.352C177.88 179.856 174.168 178.352 170.544 176.6C173.384 168.368 178.288 161.144 182.984 154.36C186.6 155.856 190.312 157.36 193.936 159.112Z" fill="#EBEBEB"/>
<path d="M184.664 155.736C184.395 156.098 184.015 156.363 183.583 156.492C183.15 156.62 182.687 156.605 182.264 156.448C178.392 162.104 174.52 168.072 171.912 174.688C172.306 174.899 172.612 175.244 172.775 175.66C172.937 176.077 172.946 176.538 172.8 176.96C175.064 178 177.352 178.968 179.616 179.912C179.673 179.715 179.771 179.533 179.904 179.377C180.037 179.221 180.202 179.096 180.388 179.009C180.574 178.923 180.776 178.877 180.981 178.876C181.186 178.874 181.389 178.916 181.576 179C183.776 172.56 187.64 166.48 191.928 160.728C191.741 160.645 191.577 160.52 191.447 160.362C191.318 160.204 191.228 160.018 191.183 159.819C191.139 159.62 191.142 159.413 191.192 159.215C191.242 159.017 191.338 158.834 191.472 158.68C189.2 157.64 186.92 156.672 184.656 155.728L184.664 155.736ZM184 168.8C183.574 169.588 182.873 170.191 182.03 170.495C181.188 170.798 180.263 170.782 179.432 170.448C179.045 170.262 178.702 169.997 178.424 169.669C178.147 169.342 177.942 168.959 177.822 168.547C177.703 168.135 177.672 167.702 177.732 167.277C177.791 166.851 177.94 166.444 178.168 166.08C178.625 165.293 179.352 164.698 180.213 164.404C181.074 164.11 182.013 164.137 182.856 164.48C183.242 164.661 183.584 164.924 183.857 165.251C184.131 165.578 184.329 165.961 184.438 166.373C184.547 166.785 184.564 167.216 184.489 167.635C184.413 168.054 184.246 168.452 184 168.8Z" fill="#E0E0E0"/>
<path d="M182.776 167.872L183.208 168.072L183.024 168.392L182.592 168.192C182.383 168.533 182.084 168.81 181.728 168.992L181.432 168.632C181.731 168.483 181.987 168.26 182.176 167.984L181.376 167.624C181.024 168.008 180.616 168.424 180.08 168.168C179.688 167.984 179.504 167.528 179.8 166.888L179.368 166.688L179.552 166.368L179.984 166.568C180.162 166.289 180.403 166.056 180.688 165.888L180.984 166.224C180.757 166.364 180.559 166.546 180.4 166.76L181.2 167.12C181.56 166.736 182 166.32 182.52 166.576C182.912 166.776 183.08 167.2 182.776 167.872ZM180.936 167.424L180.248 167.104C180.128 167.4 180.2 167.584 180.368 167.664C180.536 167.744 180.736 167.624 180.936 167.424ZM182.256 167.112C182.064 167.024 181.872 167.152 181.672 167.36L182.36 167.672C182.48 167.368 182.4 167.2 182.256 167.112Z" fill="#E0E0E0"/>
<path d="M330.344 200.136C324.968 207.056 320.072 214.464 317.904 222.376C314.288 220.88 310.576 219.376 306.952 217.624C309.792 209.392 314.696 202.168 319.384 195.384C323.008 196.88 326.72 198.4 330.344 200.136Z" fill="#EBEBEB"/>
<path d="M321.072 196.752C320.804 197.116 320.425 197.384 319.992 197.514C319.559 197.644 319.096 197.629 318.672 197.472C314.8 203.12 310.928 209.096 308.32 215.712C308.716 215.919 309.024 216.262 309.189 216.677C309.353 217.093 309.363 217.554 309.216 217.976C311.48 219.024 313.768 219.984 316.032 220.936C316.087 220.738 316.185 220.555 316.318 220.398C316.451 220.242 316.616 220.116 316.802 220.029C316.988 219.943 317.191 219.897 317.396 219.896C317.602 219.896 317.805 219.939 317.992 220.024C320.192 213.624 324.056 207.504 328.344 201.752C328.157 201.669 327.993 201.544 327.863 201.386C327.734 201.228 327.643 201.042 327.599 200.843C327.555 200.644 327.558 200.437 327.608 200.239C327.658 200.041 327.754 199.858 327.888 199.704C325.624 198.672 323.344 197.704 321.08 196.76L321.072 196.752ZM320.368 209.84C319.941 210.627 319.24 211.231 318.398 211.534C317.556 211.838 316.631 211.822 315.8 211.488C315.412 211.303 315.067 211.038 314.789 210.711C314.511 210.384 314.306 210.001 314.186 209.588C314.067 209.175 314.036 208.742 314.096 208.317C314.157 207.891 314.306 207.483 314.536 207.12C315.004 206.351 315.731 205.776 316.587 205.497C317.442 205.218 318.369 205.255 319.2 205.6C319.576 205.78 319.909 206.038 320.177 206.358C320.444 206.678 320.64 207.052 320.751 207.454C320.862 207.856 320.885 208.277 320.819 208.688C320.753 209.1 320.599 209.493 320.368 209.84Z" fill="#E0E0E0"/>
<path d="M319.2 208.896L319.632 209.096C319.568 209.2 319.504 209.304 319.448 209.416L319.016 209.216C318.8 209.554 318.499 209.83 318.144 210.016L317.856 209.656C318.154 209.505 318.409 209.282 318.6 209.008L317.8 208.648C317.448 209.032 317.04 209.448 316.504 209.192C316.112 209.008 315.928 208.552 316.224 207.912L315.792 207.712C315.848 207.6 315.912 207.496 315.976 207.392L316.408 207.592C316.586 207.311 316.827 207.075 317.112 206.904L317.4 207.248C317.177 207.391 316.982 207.572 316.824 207.784L317.624 208.144C317.984 207.76 318.424 207.344 318.944 207.6C319.32 207.8 319.48 208.248 319.2 208.896ZM317.36 208.448L316.672 208.128C316.552 208.424 316.624 208.608 316.792 208.688C316.96 208.768 317.144 208.648 317.344 208.448H317.36ZM318.68 208.136C318.488 208.048 318.296 208.176 318.096 208.376L318.776 208.696C318.888 208.392 318.832 208.208 318.664 208.136H318.68Z" fill="#E0E0E0"/>
<path d="M295.856 106.928C295.432 98.2 287.624 92.192 287.2 83.464L298.4 79.344C298.832 88.072 306.632 94.08 307.064 102.8L295.856 106.928Z" fill="#EBEBEB"/>
<path d="M304.872 102.92C304.826 102.464 304.925 102.005 305.157 101.61C305.388 101.214 305.74 100.903 306.16 100.72C304.808 93.9281 299.4 88.6401 298.064 81.8481C297.878 81.9298 297.675 81.9653 297.473 81.9516C297.27 81.9378 297.074 81.8752 296.901 81.769C296.728 81.6628 296.583 81.5163 296.479 81.342C296.375 81.1677 296.315 80.9707 296.304 80.7681L289.344 83.3361C289.391 83.7911 289.292 84.2493 289.062 84.6446C288.832 85.04 288.483 85.3521 288.064 85.5361C289.4 92.3281 294.808 97.6241 296.16 104.416C296.345 104.334 296.546 104.298 296.748 104.312C296.95 104.325 297.145 104.387 297.317 104.492C297.49 104.598 297.634 104.744 297.737 104.917C297.841 105.09 297.901 105.286 297.912 105.488L304.864 102.92H304.872ZM294.112 94.1201C293.895 93.7618 293.761 93.3591 293.721 92.942C293.682 92.5249 293.736 92.1042 293.882 91.7113C294.027 91.3183 294.259 90.9632 294.561 90.6725C294.863 90.3817 295.226 90.1628 295.624 90.0321C296.495 89.7468 297.437 89.7692 298.293 90.0953C299.149 90.4215 299.868 91.0318 300.328 91.8241C300.547 92.1815 300.682 92.5838 300.723 93.0009C300.764 93.4179 300.711 93.8389 300.566 94.2322C300.421 94.6256 300.189 94.981 299.888 95.2719C299.586 95.5629 299.222 95.7817 298.824 95.9121C297.949 96.1966 297.002 96.1705 296.144 95.8382C295.285 95.506 294.568 94.8878 294.112 94.0881V94.1201Z" fill="#E0E0E0"/>
<path d="M295.744 93.864L295.28 94.032L295.104 93.72L295.56 93.544C295.378 93.2182 295.311 92.8408 295.368 92.472H295.88C295.828 92.776 295.87 93.0886 296 93.368L296.8 93.064C296.672 92.592 296.568 92.072 297.136 91.864C297.392 91.7912 297.665 91.8087 297.91 91.9136C298.155 92.0185 298.356 92.2044 298.48 92.44L298.944 92.272L299.128 92.592L298.664 92.76C298.805 93.0312 298.871 93.3349 298.856 93.64H298.4C298.412 93.3961 298.368 93.1525 298.272 92.928L297.472 93.24C297.6 93.712 297.72 94.232 297.144 94.44C296.88 94.5293 296.593 94.5202 296.336 94.4143C296.079 94.3084 295.868 94.113 295.744 93.864ZM297.344 92.896L298.072 92.624C297.872 92.368 297.664 92.304 297.48 92.368C297.296 92.432 297.272 92.648 297.328 92.896H297.344ZM296.792 93.968C296.992 93.896 296.992 93.688 296.936 93.432L296.208 93.696C296.392 93.968 296.6 94.032 296.8 93.968H296.792Z" fill="#E0E0E0"/>
<path d="M69.144 210.304C68.712 201.6 60.912 195.568 60.48 186.84L71.68 182.72C72.112 191.448 79.912 197.448 80.344 206.176L69.144 210.304Z" fill="#EBEBEB"/>
<path d="M78.16 206.296C78.1129 205.841 78.2115 205.383 78.4415 204.988C78.6716 204.592 79.0212 204.28 79.44 204.096C78.096 197.304 72.688 192.016 71.344 185.216C71.159 185.3 70.9563 185.337 70.7537 185.324C70.551 185.312 70.3545 185.25 70.1811 185.145C70.0077 185.039 69.8627 184.893 69.7586 184.718C69.6546 184.544 69.5946 184.347 69.584 184.144L62.624 186.712C62.6711 187.167 62.5725 187.625 62.3425 188.021C62.1124 188.416 61.7628 188.728 61.344 188.912C62.688 195.704 68.096 201 69.44 207.792C69.625 207.708 69.8277 207.671 70.0303 207.684C70.233 207.696 70.4295 207.758 70.6029 207.864C70.7763 207.969 70.9213 208.115 71.0254 208.29C71.1294 208.464 71.1894 208.661 71.2 208.864L78.16 206.296ZM67.392 197.496C67.1748 197.138 67.0413 196.735 67.0014 196.318C66.9616 195.901 67.0163 195.48 67.1617 195.087C67.307 194.694 67.5392 194.339 67.8409 194.048C68.1425 193.758 68.5059 193.539 68.904 193.408C69.7737 193.125 70.7141 193.148 71.5686 193.474C72.4231 193.8 73.1401 194.409 73.6 195.2C73.8189 195.557 73.954 195.96 73.9951 196.377C74.0363 196.794 73.9826 197.215 73.8379 197.608C73.6932 198.002 73.4613 198.357 73.1596 198.648C72.8579 198.939 72.4943 199.158 72.096 199.288C71.2217 199.571 70.2768 199.543 69.4202 199.211C68.5635 198.879 67.8473 198.262 67.392 197.464V197.496Z" fill="#E0E0E0"/>
<path d="M69.024 197.24L68.56 197.408L68.384 197.088L68.84 196.92C68.6644 196.592 68.5998 196.216 68.656 195.848H69.168C69.1114 196.152 69.1534 196.466 69.288 196.744L70.088 196.44C69.952 195.968 69.848 195.448 70.424 195.24C70.6801 195.166 70.954 195.182 71.1991 195.287C71.4442 195.393 71.6453 195.579 71.768 195.816L72.232 195.648L72.408 195.968L71.952 196.136C72.0962 196.406 72.1601 196.711 72.136 197.016H71.632C71.6443 196.772 71.6005 196.529 71.504 196.304L70.704 196.616C70.84 197.08 70.952 197.608 70.384 197.816C70.1257 197.893 69.8487 197.878 69.6005 197.772C69.3523 197.667 69.1485 197.479 69.024 197.24ZM70.624 196.272L71.36 196C71.3021 195.897 71.2119 195.817 71.1035 195.77C70.995 195.724 70.8743 195.715 70.76 195.744C70.552 195.816 70.552 196 70.608 196.272H70.624ZM70.072 197.344C70.28 197.272 70.28 197.064 70.216 196.8L69.488 197.072C69.68 197.344 69.88 197.408 70.056 197.344H70.072Z" fill="#E0E0E0"/>
<path d="M97.72 106.752C94.672 115.168 84.12 115 80.648 122.136C77.4 119.28 74.248 116.536 71.104 114.088C74.144 105.672 84.704 105.84 88.176 98.7041C91.416 101.6 94.616 104.28 97.72 106.752Z" fill="#EBEBEB"/>
<path d="M89.7281 100.84C89.3201 101.592 88.3121 101.584 87.5761 100.928C83.7841 105.872 76.0881 106.688 72.6001 112.464C72.9405 112.766 73.1748 113.169 73.2685 113.614C73.3621 114.059 73.3101 114.523 73.1201 114.936C75.0774 116.536 77.0668 118.227 79.0881 120.008C79.4961 119.264 80.5041 119.264 81.2321 119.92C85.0241 114.976 92.7201 114.16 96.2161 108.384C95.8753 108.084 95.6405 107.683 95.5468 107.238C95.453 106.794 95.5054 106.332 95.6961 105.92C93.7281 104.32 91.7361 102.629 89.7201 100.848L89.7281 100.84ZM86.8881 112.84C85.3521 113.64 82.8881 113.192 81.4081 111.824C79.9281 110.456 79.8081 108.624 81.4081 107.824C83.0081 107.024 85.4081 107.472 86.8961 108.848C88.3841 110.224 88.4161 112.048 86.8881 112.856V112.84Z" fill="#E0E0E0"/>
<path d="M85.8879 111.52C86.0319 111.648 86.1679 111.768 86.2959 111.896L85.9999 112.056L85.5919 111.688C85.2175 111.853 84.8071 111.919 84.3999 111.88L84.1919 111.456C84.534 111.495 84.8806 111.449 85.1999 111.32L84.4719 110.656C84.2094 110.764 83.9228 110.8 83.6416 110.761C83.3604 110.721 83.0948 110.608 82.8719 110.432C82.7739 110.369 82.6949 110.28 82.6431 110.175C82.5913 110.071 82.5687 109.954 82.5777 109.838C82.5867 109.721 82.627 109.61 82.6943 109.514C82.7616 109.419 82.8533 109.344 82.9599 109.296L82.5439 108.92L82.8399 108.76L83.2479 109.128C83.5525 108.994 83.8835 108.931 84.2159 108.944L84.4319 109.36C84.1598 109.355 83.889 109.399 83.6319 109.488L84.3759 110.168C84.6366 110.053 84.924 110.012 85.2064 110.05C85.4888 110.088 85.7552 110.204 85.9759 110.384C86.0717 110.449 86.1486 110.538 86.1987 110.642C86.2489 110.747 86.2707 110.862 86.2617 110.978C86.2528 111.093 86.2135 111.204 86.1479 111.299C86.0822 111.394 85.9925 111.471 85.8879 111.52ZM83.9999 110.256L83.3439 109.656C83.3009 109.683 83.2654 109.72 83.2408 109.764C83.2162 109.808 83.2032 109.857 83.2032 109.908C83.2032 109.959 83.2162 110.008 83.2408 110.052C83.2654 110.096 83.3009 110.134 83.3439 110.16C83.4401 110.222 83.5484 110.263 83.6615 110.279C83.7747 110.296 83.8901 110.288 83.9999 110.256ZM85.5199 110.664C85.4179 110.595 85.3013 110.55 85.1792 110.534C85.0571 110.517 84.9328 110.529 84.8159 110.568L85.4639 111.16C85.7199 110.984 85.7119 110.808 85.5519 110.664H85.5199Z" fill="#E0E0E0"/>
<path d="M105.92 225.776C102.88 234.192 92.32 234.024 88.848 241.16C85.648 238.304 82.448 235.56 79.304 233.112C82.352 224.696 92.904 224.864 96.376 217.728C99.624 220.584 102.816 223.304 105.92 225.776Z" fill="#EBEBEB"/>
<path d="M97.9281 219.864C97.5201 220.608 96.5201 220.608 95.7841 219.952C91.9921 224.896 84.296 225.712 80.8 231.488C81.1429 231.788 81.3795 232.191 81.4747 232.636C81.5699 233.082 81.5184 233.546 81.3281 233.96C83.2881 235.56 85.2801 237.272 87.2961 239.032C87.6961 238.288 88.7041 238.288 89.4401 238.944C93.2241 234 100.928 233.176 104.416 227.408C104.075 227.108 103.84 226.706 103.747 226.262C103.653 225.818 103.705 225.356 103.896 224.944C101.939 223.344 99.9494 221.653 97.9281 219.872V219.864ZM95.088 231.864C93.56 232.664 91.088 232.216 89.616 230.848C88.144 229.48 88.016 227.648 89.616 226.848C91.216 226.048 93.6161 226.496 95.0961 227.872C96.5761 229.248 96.616 231.072 95.088 231.88V231.864Z" fill="#E0E0E0"/>
<path d="M94.096 230.544L94.5039 230.92C94.3999 230.968 94.304 231.024 94.208 231.08L93.8 230.704C93.4238 230.873 93.0105 230.941 92.6 230.904C92.536 230.76 92.464 230.624 92.4 230.48C92.742 230.519 93.0884 230.472 93.408 230.344L92.6719 229.68C92.4087 229.787 92.1217 229.822 91.8405 229.781C91.5593 229.74 91.294 229.625 91.0719 229.448C90.976 229.384 90.8988 229.296 90.8483 229.192C90.7979 229.088 90.776 228.973 90.785 228.858C90.7939 228.743 90.8334 228.633 90.8993 228.538C90.9653 228.443 91.0552 228.368 91.1599 228.32L90.752 227.944L91.0479 227.784L91.456 228.152C91.7584 228.019 92.0858 227.954 92.4159 227.96C92.4879 228.104 92.568 228.24 92.64 228.376C92.3673 228.373 92.0963 228.419 91.84 228.512L92.576 229.184C92.8385 229.076 93.1251 229.04 93.4063 229.079C93.6875 229.119 93.9531 229.232 94.176 229.408C94.272 229.472 94.3494 229.561 94.4002 229.665C94.451 229.768 94.4735 229.884 94.4654 229.999C94.4573 230.114 94.4188 230.226 94.3539 230.321C94.2891 230.417 94.2001 230.494 94.096 230.544ZM92.232 229.272L91.584 228.68C91.36 228.856 91.384 229.032 91.584 229.184C91.6797 229.243 91.7869 229.282 91.8985 229.297C92.0102 229.312 92.1238 229.304 92.232 229.272ZM93.752 229.688C93.6516 229.615 93.5348 229.568 93.412 229.552C93.2892 229.535 93.1641 229.549 93.0479 229.592L93.696 230.184C93.92 230.008 93.912 229.832 93.752 229.688Z" fill="#E0E0E0"/>
<path d="M250.288 142.56L249.888 142.728C249.848 142.6 249.8 142.472 249.752 142.336L250.144 142.168C250.004 141.754 249.963 141.313 250.024 140.88L250.456 140.936C250.402 141.292 250.427 141.655 250.528 142L251.224 141.696C251.136 141.128 251.064 140.504 251.56 140.296C251.92 140.136 252.36 140.36 252.664 141.096L253.056 140.92L253.2 141.312L252.808 141.48C252.919 141.823 252.962 142.184 252.936 142.544L252.512 142.496C252.528 142.21 252.499 141.924 252.424 141.648L251.72 141.952C251.808 142.52 251.896 143.152 251.408 143.36C251.048 143.504 250.608 143.28 250.288 142.56ZM251.656 141.52L252.28 141.248C252.12 140.928 251.944 140.832 251.792 140.904C251.64 140.976 251.616 141.216 251.656 141.52ZM251.152 142.752C251.328 142.68 251.336 142.432 251.288 142.12L250.672 142.392C250.832 142.72 251.008 142.816 251.152 142.752Z" fill="#E0E0E0"/>
<path d="M127.768 132.984C127.816 133.112 127.856 133.256 127.904 133.392L127.536 133.472C127.488 133.336 127.448 133.2 127.408 133.064C127.009 133.145 126.596 133.123 126.208 133C126.208 132.864 126.264 132.728 126.288 132.584C126.607 132.692 126.947 132.722 127.28 132.672C127.2 132.432 127.12 132.184 127.048 131.944C126.512 131.944 125.936 131.944 125.768 131.424C125.656 131.048 125.888 130.624 126.568 130.456C126.528 130.32 126.48 130.184 126.44 130.04L126.808 129.96C126.808 130.096 126.896 130.232 126.936 130.368C127.261 130.304 127.595 130.304 127.92 130.368C127.92 130.504 127.92 130.64 127.856 130.776C127.591 130.731 127.321 130.731 127.056 130.776C127.128 131.024 127.208 131.264 127.288 131.512C127.816 131.512 128.408 131.512 128.56 132.008C128.696 132.368 128.456 132.8 127.768 132.984ZM126.904 131.504C126.84 131.288 126.768 131.064 126.704 130.856C126.392 130.96 126.296 131.12 126.352 131.28C126.408 131.44 126.624 131.496 126.904 131.504ZM128.016 132.16C127.96 131.976 127.728 131.944 127.44 131.936C127.512 132.152 127.576 132.368 127.648 132.584C128 132.472 128.064 132.312 128 132.16H128.016Z" fill="#E0E0E0"/>
<path d="M205.896 109.872L205.552 110.136L205.352 109.824L205.688 109.56C205.478 109.213 205.357 108.82 205.336 108.416L205.752 108.344C205.763 108.68 205.854 109.009 206.016 109.304L206.624 108.84C206.432 108.344 206.248 107.792 206.672 107.464C207.096 107.136 207.472 107.312 207.856 107.888L208.2 107.624L208.4 107.944L208.064 108.2C208.229 108.489 208.338 108.806 208.384 109.136L207.976 109.208C207.936 108.946 207.855 108.692 207.736 108.456L207.128 108.928C207.32 109.424 207.52 109.976 207.128 110.296C206.736 110.616 206.328 110.448 205.896 109.872ZM206.984 108.552L207.528 108.144C207.32 107.888 207.136 107.856 207 107.952C206.864 108.048 206.896 108.288 206.984 108.552ZM206.752 109.816C206.896 109.704 206.856 109.48 206.752 109.208L206.216 109.616C206.44 109.88 206.616 109.92 206.752 109.816Z" fill="#E0E0E0"/>
<path d="M231.016 192.528L230.592 192.6C230.592 192.472 230.592 192.344 230.592 192.224L231.016 192.152C230.998 191.746 231.081 191.342 231.256 190.976L231.656 191.12C231.503 191.417 231.424 191.746 231.424 192.08L232.184 191.96C232.248 191.432 232.352 190.864 232.88 190.776C233.264 190.712 233.616 191 233.72 191.712L234.144 191.648V192.024L233.728 192.088C233.739 192.421 233.685 192.752 233.568 193.064L233.168 192.936C233.265 192.68 233.316 192.409 233.32 192.136L232.56 192.264C232.488 192.792 232.408 193.368 231.88 193.456C231.488 193.528 231.128 193.24 231.016 192.528ZM232.616 191.888L233.288 191.776C233.224 191.456 233.08 191.344 232.912 191.368C232.744 191.392 232.656 191.608 232.608 191.888H232.616ZM231.816 192.888C232 192.888 232.072 192.64 232.12 192.352L231.448 192.456C231.496 192.8 231.632 192.912 231.792 192.888H231.816Z" fill="#E0E0E0"/>
<path d="M200 342.048C285.666 342.048 355.112 337.994 355.112 332.992C355.112 327.991 285.666 323.936 200 323.936C114.334 323.936 44.8879 327.991 44.8879 332.992C44.8879 337.994 114.334 342.048 200 342.048Z" fill="#F5F5F5"/>
<path d="M137.536 99.5281C129.88 95.2401 122.872 85.9921 116.84 84.0001C118.747 80.0418 120.981 76.25 123.52 72.6641C129.552 78.5121 136.56 88.7921 144.216 88.1841C142.304 92.1422 140.07 95.9363 137.536 99.5281Z" fill="#007BFF"/>
<path opacity="0.5" d="M137.536 99.5281C129.88 95.2401 122.872 85.9921 116.84 84.0001C118.747 80.0418 120.981 76.25 123.52 72.6641C129.552 78.5121 136.56 88.7921 144.216 88.1841C142.304 92.1422 140.07 95.9363 137.536 99.5281Z" fill="white"/>
<path opacity="0.2" d="M142.4 90.6321C141.6 90.5361 141.336 89.6561 141.832 88.7761C135.656 87.4481 129.928 79.9761 124.84 74.8481C124.715 75.0047 124.558 75.1324 124.379 75.2223C124.201 75.3123 124.004 75.3624 123.804 75.3693C123.604 75.3761 123.405 75.3395 123.221 75.262C123.036 75.1844 122.871 75.0678 122.736 74.9201C121.23 77.1326 119.839 79.421 118.568 81.7761C118.901 82.0595 119.116 82.4578 119.169 82.892C119.222 83.3261 119.111 83.7645 118.856 84.1201C123.952 86.8401 129.672 93.7201 135.856 97.8561C136.153 97.5309 136.55 97.313 136.984 97.2364C137.418 97.1597 137.865 97.2285 138.256 97.4321C139.758 95.2351 141.146 92.9628 142.416 90.6241L142.4 90.6321ZM128.048 88.8001C126.528 87.3841 126.176 85.2001 127.2 83.9201C128.224 82.6401 130.248 82.8961 131.768 84.3601C133.288 85.8241 133.72 87.9121 132.696 89.1601C131.672 90.4081 129.6 90.2321 128.048 88.8001Z" fill="black"/>
<g opacity="0.2">
<path d="M129.208 88.0001L128.936 88.3281L128.632 88.0481C128.728 87.9361 128.816 87.8241 128.912 87.7201C128.599 87.4114 128.363 87.0331 128.224 86.6161L128.64 86.4721C128.746 86.8179 128.93 87.1351 129.176 87.4001L129.664 86.8081C129.328 86.3441 128.984 85.8161 129.328 85.4081C129.672 85.0001 130.072 85.1121 130.672 85.6161C130.768 85.5121 130.856 85.4001 130.952 85.2881L131.248 85.5761L130.976 85.9041C131.228 86.1569 131.429 86.4556 131.568 86.7841L131.168 86.9441C131.056 86.6785 130.902 86.4327 130.712 86.2161L130.216 86.8081C130.552 87.2721 130.912 87.8001 130.568 88.2081C130.224 88.6161 129.824 88.5281 129.208 88.0001ZM130.008 86.4561L130.44 85.9361C130.16 85.7201 129.96 85.7201 129.856 85.8481C129.752 85.9761 129.8 86.2321 129.968 86.4881L130.008 86.4561ZM130.12 87.7841C130.24 87.6401 130.12 87.4241 129.952 87.1601L129.52 87.6801C129.776 87.9361 129.968 87.9441 130.08 87.8161L130.12 87.7841Z" fill="black"/>
</g>
<path d="M203.2 133.384C196.16 137.176 185.504 137.656 181.056 141.424C178.824 137.635 176.882 133.682 175.248 129.6C182.76 128 194.24 128.104 197.392 121.552C199.623 125.344 201.564 129.3 203.2 133.384Z" fill="#007BFF"/>
<path opacity="0.5" d="M203.2 133.384C196.16 137.176 185.504 137.656 181.056 141.424C178.824 137.635 176.882 133.682 175.248 129.6C182.76 128 194.24 128.104 197.392 121.552C199.623 125.344 201.564 129.3 203.2 133.384Z" fill="white"/>
<path opacity="0.2" d="M198.456 124.456C197.992 125.064 197.176 124.768 196.72 123.872C192.72 128.128 184.112 128.592 177.6 129.808C177.671 129.984 177.702 130.174 177.691 130.363C177.68 130.553 177.628 130.738 177.538 130.905C177.448 131.072 177.322 131.217 177.17 131.331C177.017 131.444 176.842 131.522 176.656 131.56C177.616 133.832 178.736 136.216 180.112 138.76C180.736 138.448 181.64 138.936 182.112 139.856C186.688 137.256 194.84 136.472 201.08 133.808C200.962 133.408 200.976 132.98 201.12 132.588C201.264 132.196 201.531 131.861 201.88 131.632C200.928 129.368 199.816 126.992 198.456 124.432V124.456ZM190.2 135.04C189.359 135.272 188.462 135.191 187.676 134.811C186.89 134.432 186.269 133.779 185.928 132.976C185.392 131.424 186.56 129.936 188.448 129.528C190.336 129.12 192.192 129.944 192.696 131.48C193.2 133.016 192.056 134.616 190.2 135.04Z" fill="black"/>
<g opacity="0.2">
<path d="M190.144 133.664C190.192 133.8 190.232 133.936 190.272 134.072L189.904 134.16C189.904 134.024 189.816 133.888 189.776 133.752C189.377 133.828 188.965 133.806 188.576 133.688C188.576 133.544 188.632 133.408 188.664 133.272C188.98 133.381 189.318 133.409 189.648 133.352C189.576 133.112 189.496 132.872 189.416 132.624C188.888 132.624 188.304 132.624 188.144 132.104C188.024 131.736 188.256 131.344 188.944 131.136C188.896 131 188.856 130.864 188.808 130.728L189.184 130.648C189.184 130.784 189.264 130.92 189.312 131.056C189.636 130.988 189.971 130.988 190.296 131.056L190.224 131.464C189.959 131.419 189.689 131.419 189.424 131.464C189.504 131.704 189.584 131.952 189.656 132.2C190.192 132.2 190.776 132.2 190.936 132.696C191.072 133.048 190.832 133.448 190.144 133.664ZM189.28 132.184C189.208 131.968 189.144 131.752 189.072 131.536C188.768 131.648 188.672 131.808 188.72 131.968C188.768 132.128 189 132.176 189.28 132.184ZM190.384 132.84C190.328 132.664 190.104 132.624 189.816 132.624C189.88 132.84 189.952 133.056 190.016 133.264C190.336 133.152 190.4 133 190.4 132.84H190.384Z" fill="black"/>
</g>
<path d="M260.744 82.976C252.44 85.776 244.272 89.24 238.088 94.64C235.896 91.392 233.64 88.088 231.584 84.624C238.504 79.336 246.576 76 254.24 72.96C256.432 76.208 258.688 79.512 260.744 82.976Z" fill="#007BFF"/>
<path opacity="0.5" d="M260.744 82.976C252.44 85.776 244.272 89.24 238.088 94.64C235.896 91.392 233.64 88.088 231.584 84.624C238.504 79.336 246.576 76 254.24 72.96C256.432 76.208 258.688 79.512 260.744 82.976Z" fill="white"/>
<path opacity="0.2" d="M254.88 75.032C254.455 75.1883 253.991 75.2017 253.558 75.0704C253.125 74.939 252.747 74.6699 252.48 74.304C246.128 76.872 239.6 79.712 233.776 83.784C233.993 84.1781 234.062 84.6371 233.969 85.0774C233.877 85.5178 233.63 85.9104 233.272 86.184C234.584 88.304 235.952 90.368 237.32 92.408C237.476 92.2743 237.659 92.1759 237.856 92.1195C238.053 92.0631 238.261 92.0501 238.464 92.0812C238.666 92.1124 238.86 92.187 239.032 92.3C239.203 92.413 239.348 92.5617 239.456 92.736C244.848 88.576 251.456 85.648 258.176 83.224C258.066 83.0514 257.998 82.8553 257.978 82.6516C257.958 82.4479 257.986 82.2424 258.06 82.0515C258.134 81.8607 258.252 81.69 258.404 81.5531C258.556 81.4163 258.739 81.3173 258.936 81.264C257.624 79.152 256.248 77.088 254.888 75.048L254.88 75.032ZM247.072 85.552C246.281 85.9731 245.363 86.0885 244.493 85.876C243.622 85.6636 242.86 85.1382 242.352 84.4C242.131 84.0318 241.991 83.621 241.941 83.1947C241.89 82.7684 241.93 82.3362 242.059 81.9266C242.187 81.517 242.401 81.1392 242.686 80.8182C242.971 80.4971 243.321 80.2401 243.712 80.064C244.532 79.6597 245.472 79.5675 246.355 79.8044C247.238 80.0414 248.005 80.5914 248.512 81.352C248.727 81.7153 248.86 82.1209 248.903 82.5407C248.946 82.9605 248.897 83.3846 248.76 83.7838C248.623 84.183 248.401 84.5477 248.11 84.853C247.819 85.1582 247.465 85.3967 247.072 85.552Z" fill="black"/>
<g opacity="0.2">
<path d="M246.608 84.112L246.856 84.52L246.52 84.68L246.272 84.28C245.905 84.451 245.499 84.5201 245.096 84.48C245.096 84.328 245.096 84.168 245.056 84.016C245.387 84.0585 245.723 84.0144 246.032 83.888C245.888 83.64 245.736 83.4 245.584 83.16C245.072 83.288 244.512 83.4 244.208 82.896C243.976 82.528 244.08 82.048 244.68 81.68L244.424 81.264L244.76 81.104L245.008 81.504C245.311 81.3739 245.639 81.3138 245.968 81.328C245.968 81.472 246.008 81.624 246.032 81.776C245.76 81.7658 245.489 81.8065 245.232 81.896L245.68 82.632C246.192 82.512 246.768 82.4 247.08 82.904C247.32 83.272 247.2 83.736 246.608 84.112ZM245.32 82.72L244.92 82.072C244.656 82.256 244.616 82.448 244.712 82.608C244.808 82.768 245.04 82.776 245.32 82.72ZM246.592 83.184C246.48 83.008 246.248 83.016 245.968 83.072L246.36 83.712C246.632 83.528 246.688 83.344 246.592 83.2V83.184Z" fill="black"/>
</g>
<path d="M114.544 168.264C108.496 161.96 98.664 162.552 92.616 156.264C94.52 152.787 96.4266 149.307 98.336 145.824C104.384 152.128 114.216 151.544 120.264 157.824C118.36 161.307 116.453 164.787 114.544 168.264Z" fill="#007BFF"/>
<path opacity="0.5" d="M114.544 168.264C108.496 161.96 98.664 162.552 92.616 156.264C94.52 152.787 96.4266 149.307 98.336 145.824C104.384 152.128 114.216 151.544 120.264 157.824C118.36 161.307 116.453 164.787 114.544 168.264Z" fill="white"/>
<path opacity="0.2" d="M118.72 159.328C118.383 159.016 118.155 158.605 118.069 158.155C117.983 157.704 118.043 157.238 118.24 156.824C112.768 152.584 105.216 152.144 99.7439 147.896C99.6581 148.08 99.5288 148.24 99.3672 148.363C99.2056 148.485 99.0166 148.567 98.8164 148.6C98.6163 148.633 98.4111 148.617 98.2186 148.553C98.0262 148.488 97.8522 148.378 97.7119 148.232L94.1519 154.744C94.4852 155.056 94.7106 155.466 94.7954 155.915C94.8803 156.364 94.8202 156.828 94.6239 157.24C100.096 161.488 107.648 161.928 113.12 166.176C113.205 165.992 113.333 165.831 113.495 165.707C113.656 165.584 113.845 165.502 114.045 165.468C114.245 165.434 114.451 165.449 114.644 165.513C114.836 165.576 115.011 165.686 115.152 165.832L118.712 159.328H118.72ZM104.8 159.728C104.401 159.599 104.037 159.382 103.733 159.094C103.43 158.805 103.195 158.451 103.047 158.059C102.898 157.667 102.84 157.247 102.876 156.83C102.913 156.412 103.042 156.008 103.256 155.648C103.727 154.859 104.457 154.256 105.321 153.941C106.185 153.626 107.131 153.619 108 153.92C108.399 154.046 108.764 154.26 109.069 154.547C109.373 154.834 109.609 155.186 109.758 155.577C109.907 155.968 109.966 156.387 109.93 156.804C109.895 157.221 109.765 157.624 109.552 157.984C109.082 158.778 108.353 159.385 107.487 159.703C106.621 160.021 105.672 160.03 104.8 159.728Z" fill="black"/>
<g opacity="0.2">
<path d="M105.88 158.488C105.808 158.632 105.728 158.776 105.648 158.92L105.304 158.792L105.536 158.368C105.186 158.236 104.889 157.995 104.688 157.68L105.088 157.36C105.25 157.622 105.487 157.828 105.768 157.952C105.904 157.696 106.048 157.44 106.192 157.152C105.784 156.88 105.392 156.56 105.656 156.024C105.8 155.8 106.019 155.633 106.273 155.553C106.527 155.473 106.801 155.484 107.048 155.584L107.288 155.144L107.632 155.272L107.392 155.696C107.678 155.806 107.928 155.995 108.112 156.24L107.728 156.56C107.576 156.372 107.385 156.219 107.168 156.112L106.744 156.912C107.152 157.184 107.544 157.504 107.288 158.04C107.141 158.266 106.92 158.433 106.664 158.515C106.407 158.597 106.13 158.587 105.88 158.488ZM106.44 156.72L106.816 156.032C106.496 155.968 106.296 156.032 106.208 156.232C106.12 156.432 106.24 156.56 106.44 156.72ZM106.736 157.888C106.84 157.696 106.736 157.544 106.488 157.384L106.112 158.064C106.44 158.136 106.64 158.048 106.736 157.888Z" fill="black"/>
</g>
<path d="M312.424 136.192C306.712 143.088 296.872 139.392 291.16 144.904C289.072 141.12 286.984 137.48 284.896 134.104C290.608 127.208 300.448 130.904 306.16 125.392C308.248 129.176 310.336 132.8 312.424 136.192Z" fill="#007BFF"/>
<path opacity="0.5" d="M312.424 136.192C306.712 143.088 296.872 139.392 291.16 144.904C289.072 141.12 286.984 137.48 284.896 134.104C290.608 127.208 300.448 130.904 306.16 125.392C308.248 129.176 310.336 132.8 312.424 136.192Z" fill="white"/>
<path opacity="0.2" d="M306.896 127.928C306.264 128.496 305.296 128.152 304.848 127.28C299.608 130.656 292.088 128.824 286.856 133.08C287.074 133.479 287.158 133.938 287.096 134.389C287.034 134.839 286.829 135.258 286.512 135.584C287.808 137.768 289.112 140.04 290.416 142.376C291.048 141.808 292.016 142.152 292.464 143.016C297.696 139.64 305.216 141.472 310.456 137.224C310.236 136.827 310.151 136.369 310.213 135.919C310.275 135.469 310.481 135.051 310.8 134.728C309.496 132.552 308.192 130.272 306.896 127.936V127.928ZM300.168 138.28C298.456 138.512 296.32 137.272 295.368 135.472C294.416 133.672 294.984 131.92 296.688 131.68C298.392 131.44 300.544 132.696 301.488 134.496C302.432 136.296 301.88 138.04 300.168 138.28Z" fill="black"/>
<g opacity="0.2">
<path d="M299.68 136.688L299.936 137.176L299.608 137.224L299.344 136.736C298.934 136.77 298.523 136.696 298.152 136.52L298.104 136.048C298.411 136.201 298.752 136.276 299.096 136.264L298.64 135.392C298.36 135.401 298.082 135.336 297.835 135.204C297.588 135.072 297.38 134.878 297.232 134.64C297.163 134.547 297.12 134.438 297.108 134.324C297.095 134.209 297.114 134.093 297.161 133.988C297.208 133.883 297.283 133.792 297.377 133.725C297.471 133.658 297.581 133.618 297.696 133.608L297.432 133.112L297.768 133.064L298.024 133.552C298.356 133.528 298.689 133.578 299 133.696C299 133.856 299.04 134.008 299.064 134.16C298.808 134.064 298.537 134.018 298.264 134.024L298.736 134.904C299.015 134.894 299.292 134.958 299.539 135.088C299.786 135.219 299.995 135.412 300.144 135.648C300.212 135.741 300.254 135.851 300.267 135.966C300.279 136.081 300.261 136.197 300.213 136.303C300.166 136.408 300.092 136.499 299.998 136.567C299.905 136.635 299.795 136.676 299.68 136.688ZM298.4 134.864L297.984 134.064C297.72 134.16 297.68 134.336 297.784 134.528C297.851 134.63 297.942 134.715 298.05 134.773C298.157 134.832 298.277 134.863 298.4 134.864ZM299.696 135.76C299.623 135.66 299.528 135.579 299.418 135.522C299.309 135.465 299.187 135.434 299.064 135.432L299.472 136.232C299.704 136.12 299.752 135.952 299.656 135.76H299.696Z" fill="black"/>
</g>
<path d="M277.6 190.016C254.762 234.06 224.469 273.815 188.064 307.52L132.136 264.896C168.567 231.199 198.882 191.442 221.736 147.392L277.6 190.016Z" fill="#007BFF"/>
<path opacity="0.2" d="M277.6 190.016C275.723 193.648 273.787 197.248 271.792 200.816C249.713 240.596 221.451 276.613 188.064 307.52L132.136 264.896C168.567 231.199 198.882 191.442 221.736 147.392L277.6 190.016Z" fill="white"/>
<path opacity="0.2" d="M230.48 158.776C229.947 159.853 229.179 160.797 228.231 161.536C227.284 162.276 226.182 162.792 225.008 163.047C223.833 163.303 222.616 163.29 221.448 163.01C220.279 162.731 219.188 162.191 218.256 161.432C198.427 196.912 173.662 229.399 144.704 257.92C145.689 258.612 146.504 259.518 147.088 260.57C147.671 261.622 148.009 262.793 148.074 263.995C148.14 265.197 147.932 266.397 147.466 267.507C147 268.616 146.288 269.606 145.384 270.4L180.24 296.968C182.2 295.183 184.711 294.122 187.357 293.962C190.003 293.802 192.624 294.552 194.784 296.088C223.745 267.569 248.509 235.082 268.336 199.6C264.136 196.4 262.848 190.048 265.336 185.344L265.376 185.272L230.512 158.704L230.48 158.776ZM224.08 243.2C217.496 251.816 204.816 253.2 196.232 246.656C187.648 240.112 186.368 228.096 192.96 219.456C199.552 210.816 211.496 208.896 220.096 215.456C228.696 222.016 230.712 234.584 224.112 243.2H224.08Z" fill="black"/>
<g opacity="0.2">
<path d="M218.096 236L220.408 237.76L219.112 239.456L216.8 237.688C215.128 239.624 212.944 241.064 211.2 241.416L209.84 238.912C211.674 238.416 213.327 237.402 214.6 235.992L210.472 232.848C208.168 234.72 205.504 236.592 202.64 234.4C200.536 232.8 199.904 229.896 202.064 226.44L199.736 224.664C200.168 224.104 200.6 223.536 201.024 222.968L203.312 224.712C204.498 223.278 206.017 222.154 207.736 221.44L209.184 223.888C207.809 224.467 206.569 225.325 205.544 226.408L209.704 229.608C212.008 227.728 214.6 225.744 217.464 227.928C219.56 229.504 220.232 232.464 218.096 236ZM208 230.952L204.328 228.152C203.432 229.792 203.688 230.976 204.6 231.664C205.512 232.352 206.712 231.88 208 230.952ZM215.68 230.72C214.672 229.92 213.512 230.504 212.216 231.52L215.864 234.304C216.8 232.576 216.552 231.4 215.664 230.72H215.68Z" fill="black"/>
</g>
<path opacity="0.2" d="M271.816 200.8C249.731 240.587 221.461 276.61 188.064 307.52C188.064 307.52 164.368 271.368 154.536 264.648C154.536 264.648 230.872 236.32 271.816 200.8Z" fill="black"/>
<path d="M331.008 248.856C293.804 281.685 251.196 307.823 205.072 326.112L168.272 266.176C214.394 247.889 257 221.751 294.2 188.92C306.477 208.904 318.747 228.883 331.008 248.856Z" fill="#007BFF"/>
<path opacity="0.3" d="M331.008 248.856C293.804 281.685 251.196 307.823 205.072 326.112L189.176 300.208C182.243 288.875 175.285 277.533 168.304 266.184C214.426 247.897 257.032 221.759 294.232 188.928C306.488 208.907 318.747 228.883 331.008 248.856Z" fill="white"/>
<path opacity="0.2" d="M298.312 202.704C297.433 203.525 296.378 204.136 295.228 204.491C294.078 204.845 292.863 204.934 291.674 204.751C290.485 204.567 289.352 204.117 288.363 203.432C287.373 202.748 286.551 201.848 285.96 200.8C254.659 226.731 219.837 248.09 182.536 264.24C183.206 265.24 183.639 266.379 183.804 267.571C183.969 268.763 183.861 269.977 183.488 271.121C183.115 272.265 182.487 273.31 181.651 274.176C180.816 275.042 179.794 275.707 178.664 276.12L201.6 313.448C204.072 312.491 206.797 312.409 209.322 313.215C211.847 314.021 214.02 315.668 215.48 317.88C252.784 301.736 287.607 280.376 318.904 254.44C316.136 249.944 317.232 243.552 321.248 240.04L321.312 239.984L298.4 202.648L298.312 202.704ZM261.912 279.136C252.656 284.8 240.312 281.536 234.712 272.312C229.112 263.088 232.216 251.44 241.472 245.784C250.728 240.128 262.568 242.584 268.224 251.84C273.88 261.096 271.2 273.488 261.912 279.136Z" fill="black"/>
<g opacity="0.2">
<path d="M258.904 270.232L260.424 272.712L258.6 273.824C258.104 273.024 257.6 272.224 257.096 271.376C254.84 272.568 252.296 273.128 250.512 272.824C250.392 271.88 250.272 270.936 250.144 269.992C252.032 270.19 253.937 269.84 255.632 268.984C254.731 267.512 253.829 266.04 252.928 264.568C250.096 265.48 246.944 266.256 245.056 263.184C243.672 260.928 244.128 257.992 247.392 255.552L245.864 253.056L247.68 251.936L249.184 254.392C250.808 253.483 252.628 252.983 254.488 252.936C254.648 253.872 254.8 254.808 254.96 255.736C253.467 255.787 252 256.141 250.648 256.776L253.384 261.24C256.216 260.32 259.344 259.408 261.224 262.472C262.608 264.728 262.16 267.728 258.904 270.232ZM251.288 261.896C250.483 260.584 249.683 259.272 248.888 257.96C247.456 259.168 247.288 260.36 247.872 261.336C248.456 262.312 249.768 262.304 251.288 261.896ZM258.528 264.456C257.864 263.368 256.584 263.472 255.024 263.912L257.424 267.824C258.896 266.584 259.112 265.4 258.528 264.456Z" fill="black"/>
</g>
<path opacity="0.2" d="M331.008 248.856C293.804 281.685 251.195 307.823 205.072 326.112L189.176 300.208L186.4 260.072C186.4 260.072 274.64 266.44 331.008 248.856Z" fill="black"/>
<path d="M341.68 326.536C293.386 337.915 243.486 340.846 194.192 335.2C192.827 311.803 191.456 288.403 190.08 265C239.385 270.658 289.297 267.726 337.6 256.336C338.949 279.739 340.309 303.139 341.68 326.536Z" fill="#007BFF"/>
<path opacity="0.4" d="M341.68 326.536C293.386 337.915 243.486 340.846 194.192 335.2C192.827 311.803 191.456 288.403 190.08 265C239.385 270.658 289.297 267.726 337.6 256.336C338.949 279.739 340.309 303.139 341.68 326.536Z" fill="white"/>
<path opacity="0.2" d="M334.656 270.4C333.492 270.697 332.275 270.729 331.098 270.491C329.92 270.254 328.81 269.754 327.852 269.03C326.893 268.305 326.111 267.374 325.562 266.305C325.012 265.236 324.711 264.057 324.68 262.856C284.845 270.936 244.065 273.32 203.56 269.936C203.677 271.134 203.521 272.343 203.103 273.471C202.685 274.6 202.017 275.619 201.148 276.451C200.279 277.284 199.232 277.908 198.087 278.278C196.942 278.647 195.728 278.752 194.536 278.584C195.395 293.171 196.248 307.758 197.096 322.344C199.727 322.664 202.17 323.877 204.016 325.78C205.862 327.682 207 330.16 207.24 332.8C247.745 336.184 288.525 333.8 328.36 325.72C328.048 320.448 332.032 315.32 337.224 314.152H337.304L334.736 270.4H334.656ZM266.48 320.6C255.648 321.216 246.336 312.504 245.68 301.728C245.024 290.952 253.336 282.152 264.168 281.536C275 280.92 284.256 288.736 284.888 299.512C285.52 310.288 277.304 320 266.48 320.6Z" fill="black"/>
<g opacity="0.2">
<path d="M268 311.328L268.168 314.224L266.04 314.352L265.872 311.48C263.571 311.545 261.304 310.906 259.376 309.648C259.72 308.76 260.056 307.872 260.392 306.984C261.965 308.046 263.807 308.637 265.704 308.688C265.608 306.96 265.507 305.235 265.4 303.512C262.48 302.976 259.328 302.176 259.12 298.576C258.968 295.936 260.76 293.568 264.784 292.976L264.616 290.056L266.744 289.928L266.912 292.8C268.773 292.757 270.615 293.177 272.272 294.024L271.36 296.712C270.022 296.05 268.563 295.669 267.072 295.592L267.384 300.824C270.304 301.344 273.496 302.016 273.712 305.624C273.896 308.224 272.088 310.664 268 311.328ZM265.224 300.376C265.128 298.846 265.037 297.312 264.952 295.776C263.12 296.16 262.4 297.128 262.464 298.272C262.528 299.416 263.72 300 265.256 300.376H265.224ZM270.4 306.056C270.328 304.792 269.152 304.272 267.568 303.928L267.832 308.512C269.744 308.104 270.496 307.2 270.4 306.056Z" fill="black"/>
</g>
<path d="M226.752 326.608C226.96 329.003 227.208 331.437 227.496 333.912H59.2561C64.5201 289.44 59.2561 270.16 59.2561 270.16C115.48 265.928 227.496 270.16 227.496 270.16C227.496 270.16 224.112 291.584 226.392 322.264C226.499 323.688 226.619 325.136 226.752 326.608Z" fill="#007BFF"/>
<path opacity="0.2" d="M227.496 270.16C220.128 273.6 184.088 274.088 163.352 272.8C142.616 271.512 115.48 275.44 115.48 275.44C99.7681 270.016 59.2561 270.16 59.2561 270.16C115.48 265.928 227.496 270.16 227.496 270.16Z" fill="white"/>
<path opacity="0.2" d="M59.2561 333.912C64.5201 289.44 59.2561 270.16 59.2561 270.16C59.2561 270.16 92.6081 269.432 115.48 275.44C115.48 275.44 116.28 282.224 115.48 285.712C115.48 285.712 142.992 281.248 167.48 281.84C167.48 281.84 129.576 286.2 115.48 289.44C115.48 289.44 92.8081 285.904 78.4641 285.712C78.4641 285.712 108.288 289.592 115.48 291.912C115.48 291.912 124.008 290.36 128.472 290.36C128.472 290.36 117.792 292.304 115.48 294.04V306.328C115.48 306.328 91.6721 306.8 79.7281 305.096C85.4001 305.984 108.528 309.544 115.48 309.544C115.48 309.544 141.752 308.576 157.008 309.544C157.008 309.544 122.248 311.544 115.48 313.16H85.6401L115.48 315.664V318.152H128.28L115.48 320.36C115.48 320.36 78.4641 318.008 67.8161 320.36C67.8161 320.36 111.504 322.344 115.432 323.888L115.48 327.568C115.48 327.568 164.472 321.096 207.8 326.664C207.8 326.664 144.528 324.152 115.48 331.192C115.48 331.192 206.368 329.216 227.48 333.912H59.2561Z" fill="black"/>
<path d="M60.2401 275.44L55.8 276.992C55.8 276.992 82.5441 277.912 99.8 280.552C99.784 280.552 73.2001 275.824 60.2401 275.44Z" fill="#007BFF"/>
<path opacity="0.2" d="M119.376 280.552L126.144 281.84C126.144 281.84 157.656 278.416 194.904 278C194.904 278 141.104 275.392 119.376 280.552Z" fill="white"/>
<path opacity="0.2" d="M140.728 287.792C140.728 287.792 159.624 282.64 176.192 282.896C192.76 283.152 224.296 280.552 224.296 280.552L225.536 282.896C225.536 282.896 200.808 284.344 180.4 284.176C167.095 284.201 153.818 285.411 140.728 287.792Z" fill="white"/>
<path opacity="0.2" d="M121.976 295.496C121.976 295.496 144.504 290.696 166.592 291.136C188.68 291.576 216.496 293.304 216.496 293.304C216.496 293.304 156.128 293.304 140.728 296.504L121.976 295.496Z" fill="white"/>
<path d="M160.944 288.52C160.944 288.52 180.344 286.92 197.088 287.792C213.832 288.664 231.416 289.448 231.416 289.448L225.536 291.112C225.536 291.112 185.224 287.072 160.944 288.52Z" fill="#007BFF"/>
<path opacity="0.2" d="M160.944 288.52C160.944 288.52 180.344 286.92 197.088 287.792C213.832 288.664 231.416 289.448 231.416 289.448L225.536 291.112C225.536 291.112 185.224 287.072 160.944 288.52Z" fill="black"/>
<path opacity="0.2" d="M122.704 299.568C122.704 299.568 156.304 299.152 172.488 298.344C188.672 297.536 210.376 302.024 210.376 302.024C210.376 302.024 183.6 301.456 175.312 302.768L122.704 299.568Z" fill="black"/>
<path opacity="0.2" d="M119.376 304.656L140.728 302.768L186.216 304.656L140.144 306.544L119.376 304.656Z" fill="white"/>
<path opacity="0.2" d="M135.344 314.68C135.344 314.68 166.392 311.784 178.488 311.632C190.584 311.48 223.136 309.304 223.136 309.304L219.52 314.104C219.52 314.104 158.312 312.8 135.344 314.68Z" fill="white"/>
<path d="M214.072 298.344L225.536 299.424L228.656 298.344C223.805 297.891 218.923 297.891 214.072 298.344Z" fill="#007BFF"/>
<path d="M226.984 274.144L231.416 274.856L226.656 277.344L198.656 276.752C198.656 276.752 219.648 276.472 226.984 274.144Z" fill="#007BFF"/>
<path opacity="0.2" d="M214.072 298.344L225.536 299.424L228.656 298.344C223.805 297.891 218.923 297.891 214.072 298.344Z" fill="white"/>
<path opacity="0.2" d="M226.984 274.144L231.416 274.856L226.656 277.344L198.656 276.752C198.656 276.752 219.648 276.472 226.984 274.144Z" fill="black"/>
<path opacity="0.2" d="M226.752 326.608C219.232 326.12 166.536 319.496 166.536 319.496C170.048 319.088 216.048 321.808 226.392 322.264C226.499 323.688 226.619 325.136 226.752 326.608Z" fill="black"/>
<path d="M147.408 318.592C147.408 318.592 196.68 318.464 210.776 319.48C224.872 320.496 226.136 318.592 226.136 318.592L233.16 321.976C233.16 321.976 233.52 325.336 215.032 322.992C196.544 320.648 147.408 318.592 147.408 318.592Z" fill="#007BFF"/>
<path d="M107.152 293.816C107.152 293.816 78.2962 289.24 61.4722 290.408C64.0008 290.983 66.3563 292.151 68.3442 293.816H107.152Z" fill="#007BFF"/>
<path d="M61.44 306.328C62.096 306.256 83.04 309.016 91.04 309.304L58.48 310.616L61.44 306.328Z" fill="#007BFF"/>
<path d="M60.256 324.424L91.8881 325.544L55.8 328.216L60.256 324.424Z" fill="#007BFF"/>
<path d="M117.888 268C117.888 268 162.816 275.68 188.872 244.936L237.96 257.536C237.96 257.536 228.928 276.272 161.088 273.784C93.248 271.296 117.888 268 117.888 268Z" fill="#007BFF"/>
<path opacity="0.5" d="M117.888 268C117.888 268 162.816 275.68 188.872 244.936L237.96 257.536C237.96 257.536 228.928 276.272 161.088 273.784C93.248 271.296 117.888 268 117.888 268Z" fill="white"/>
<path opacity="0.2" d="M143.544 269.656C143.544 269.656 171.008 268.208 186.536 250.64C187.961 251.081 189.486 251.083 190.913 250.647C192.339 250.21 193.602 249.355 194.536 248.192L230.368 257.688C230.368 257.688 226.512 259.04 227.864 263.504C227.832 263.504 180.8 282.56 143.544 269.656Z" fill="black"/>
<path d="M184.536 180.552L185.376 176.096C185.376 176.096 183.64 174.448 183.84 172.896C184.04 171.344 191.768 168.896 193.136 168.76C194.504 168.624 193.984 174.224 193.568 175.24C193.152 176.256 188.512 177.48 188.512 177.48L187.928 182.176L184.536 180.552Z" fill="#EBB376"/>
<path d="M95.4401 202.456L92.3761 199.112C92.3761 199.112 92.9761 196.8 92.0001 195.616C91.0241 194.432 83.1441 196.376 81.9281 197.008C80.7121 197.64 84.0881 202.096 84.9841 202.736C85.8801 203.376 90.4561 201.936 90.4561 201.936L93.4321 205.624L95.4401 202.456Z" fill="#EBB376"/>
<path d="M156.376 195.272C164.992 194.792 172.8 196.592 176.808 195.272C180.816 193.952 184.704 177.28 184.704 177.28L188.92 178.704C188.92 178.704 187.32 196.056 180.392 200.704C173.464 205.352 157.408 205.312 157.408 205.312L156.376 195.272Z" fill="#007BFF"/>
<path opacity="0.7" d="M188.92 178.704C188.92 178.704 187.32 196.056 180.392 200.704C176.392 203.344 169.536 204.472 164.328 204.96C160.384 205.32 157.408 205.312 157.408 205.312L156.928 200.624L156.376 195.272C164.992 194.792 172.8 196.592 176.808 195.272C180.816 193.952 184.704 177.28 184.704 177.28L188.92 178.704Z" fill="white"/>
<path opacity="0.2" d="M164.328 204.96C160.384 205.32 157.408 205.312 157.408 205.312L156.928 200.624C159.61 201.666 162.108 203.13 164.328 204.96Z" fill="black"/>
<path d="M211.456 330.04L217.032 328.512L216.032 314.896L210.464 316.432L211.456 330.04Z" fill="#B97964"/>
<path d="M217.376 327.768L210.896 328.216C210.787 328.22 210.684 328.267 210.61 328.346C210.535 328.426 210.494 328.531 210.496 328.64L210.536 333.784C210.555 334.053 210.678 334.304 210.881 334.482C211.083 334.66 211.347 334.751 211.616 334.736C213.872 334.544 214.944 334.336 217.792 334.12C220.333 334.033 222.865 333.766 225.368 333.32C227.768 332.768 227.128 330.448 226.072 330.472C223.344 330.325 220.701 329.473 218.4 328C218.093 327.813 217.734 327.732 217.376 327.768Z" fill="#263238"/>
<path d="M219.488 328.608C218.969 328.632 218.448 328.6 217.936 328.512C217.91 328.509 217.886 328.498 217.866 328.481C217.846 328.464 217.831 328.441 217.824 328.416C217.82 328.391 217.822 328.365 217.829 328.34C217.836 328.315 217.848 328.292 217.864 328.272C218.04 328.128 219.6 326.904 220.328 327.128C220.41 327.154 220.484 327.201 220.543 327.264C220.602 327.327 220.643 327.404 220.664 327.488C220.72 327.612 220.739 327.75 220.719 327.885C220.699 328.019 220.641 328.145 220.552 328.248C220.253 328.493 219.875 328.621 219.488 328.608ZM220.248 327.408C219.864 327.288 218.936 327.84 218.296 328.312C219.344 328.44 220.096 328.36 220.352 328.072C220.404 328.003 220.436 327.922 220.448 327.836C220.459 327.751 220.448 327.664 220.416 327.584C220.403 327.544 220.381 327.507 220.352 327.477C220.323 327.446 220.287 327.423 220.248 327.408Z" fill="#263238"/>
<path d="M217.96 328.512C217.951 328.516 217.942 328.518 217.932 328.518C217.922 328.518 217.913 328.516 217.904 328.512C217.885 328.502 217.868 328.489 217.854 328.472C217.841 328.456 217.83 328.436 217.824 328.416C217.824 328.36 217.576 326.696 218.112 326.088C218.183 326.012 218.27 325.952 218.367 325.914C218.464 325.875 218.568 325.858 218.672 325.864C218.787 325.86 218.9 325.894 218.994 325.961C219.088 326.027 219.157 326.122 219.192 326.232C219.36 326.856 218.584 328.12 218.04 328.496C218.029 328.504 218.016 328.51 218.002 328.513C217.988 328.516 217.974 328.515 217.96 328.512ZM218.6 326.16C218.546 326.162 218.493 326.176 218.444 326.201C218.396 326.226 218.354 326.261 218.32 326.304C218.039 326.877 217.952 327.525 218.072 328.152C218.571 327.673 218.876 327.026 218.928 326.336C218.928 326.256 218.856 326.168 218.664 326.16H218.6Z" fill="#263238"/>
<path opacity="0.2" d="M210.464 316.432L216.04 314.904L216.608 322.688L211 323.936L210.464 316.432Z" fill="black"/>
<path d="M204.16 329.84L198.888 332.248L197.552 326.584L195.752 318.968L201 316.56L202.808 324.168L204.16 329.84Z" fill="#B97964"/>
<path opacity="0.2" d="M202.808 324.168L197.552 326.584L195.752 318.968L201 316.56L202.808 324.168Z" fill="black"/>
<path d="M204.376 329.056L198.056 330.536C197.95 330.556 197.857 330.616 197.795 330.705C197.734 330.793 197.71 330.902 197.728 331.008L198.592 336.088C198.618 336.22 198.67 336.346 198.745 336.459C198.82 336.571 198.916 336.667 199.029 336.741C199.141 336.816 199.267 336.867 199.4 336.892C199.532 336.917 199.668 336.916 199.8 336.888C202 336.336 203 335.96 205.8 335.288C208.297 334.814 210.757 334.162 213.16 333.336C215.408 332.416 214.44 330.224 213.408 330.416C210.96 330.856 207.296 330.056 205.408 329.184C205.088 329.028 204.725 328.983 204.376 329.056Z" fill="#263238"/>
<path d="M206.6 329.552C206.089 329.656 205.569 329.704 205.048 329.696C205.022 329.7 204.995 329.695 204.972 329.682C204.949 329.669 204.93 329.649 204.92 329.624C204.908 329.602 204.902 329.577 204.902 329.552C204.902 329.527 204.908 329.502 204.92 329.48C205.072 329.312 206.408 327.88 207.168 327.952C207.252 327.967 207.332 328.002 207.399 328.055C207.466 328.108 207.518 328.177 207.552 328.256C207.631 328.374 207.673 328.514 207.673 328.656C207.673 328.798 207.631 328.938 207.552 329.056C207.301 329.326 206.965 329.501 206.6 329.552ZM207.16 328.248C206.752 328.184 205.928 328.88 205.368 329.448C206.424 329.408 207.16 329.208 207.36 328.888C207.405 328.813 207.429 328.727 207.429 328.64C207.429 328.553 207.405 328.467 207.36 328.392C207.346 328.353 207.321 328.32 207.288 328.294C207.256 328.269 207.217 328.253 207.176 328.248H207.16Z" fill="#263238"/>
<path d="M205.072 329.696C205.065 329.7 205.056 329.701 205.048 329.701C205.04 329.701 205.032 329.7 205.024 329.696C205.003 329.689 204.983 329.678 204.966 329.663C204.95 329.648 204.937 329.629 204.928 329.608C204.928 329.56 204.4 327.944 204.84 327.264C204.897 327.177 204.973 327.105 205.061 327.051C205.15 326.997 205.249 326.963 205.352 326.952C205.467 326.928 205.586 326.944 205.69 326.996C205.795 327.048 205.878 327.134 205.928 327.24C206.192 327.824 205.632 329.2 205.128 329.64C205.125 329.654 205.118 329.666 205.109 329.676C205.099 329.686 205.086 329.693 205.072 329.696ZM205.328 327.296C205.223 327.323 205.131 327.389 205.072 327.48C204.889 328.093 204.906 328.749 205.12 329.352C205.537 328.8 205.739 328.114 205.688 327.424C205.688 327.344 205.584 327.264 205.392 327.288L205.328 327.296Z" fill="#263238"/>
<path d="M165.096 252.52L163.392 233.704L131.976 234.44C131.976 234.44 128.256 260.656 130.96 265.472C135.76 274.072 167.456 269.192 174.864 269.92C177.888 271.52 194.064 325.176 194.064 325.176L203.128 321.52C203.128 321.52 193.384 276.248 191.128 267.72C188.08 255.864 175.504 256.072 165.096 252.52Z" fill="#263238"/>
<path d="M217.16 320.592L209.16 321.328C209.16 321.328 199.36 271.416 198.6 271.2C197.24 270.808 193.264 270.36 191.128 269.8C176.296 265.944 139.768 258.848 139.768 258.848L153.24 245.872C153.24 245.872 214.312 253.2 215.64 267.536C216.32 274.4 217.16 320.592 217.16 320.592Z" fill="#263238"/>
<path opacity="0.2" d="M196.448 271.24C195.08 270.848 193.248 270.368 191.128 269.808C191.72 270.12 190.008 262.352 188.296 260.344C184.896 256.344 171.248 254.168 166.36 253.384C162.264 252.728 148.536 251.52 148.536 251.52C148.536 251.52 172.776 249.424 191.04 254.44C200.072 256.92 198.464 265.736 196.448 271.24Z" fill="black"/>
<path d="M127.784 199.84C127.784 199.84 139.376 193.688 156.376 195.272C156.376 195.272 162.272 210.264 163.392 233.672L131.784 235.864C131.784 235.864 132.352 215.8 127.784 199.84Z" fill="#007BFF"/>
<path opacity="0.7" d="M131.784 235.896C131.865 230.433 131.662 224.97 131.176 219.528C130.896 216.328 130.496 212.96 129.92 209.528C129.391 206.261 128.678 203.027 127.784 199.84C127.784 199.84 139.376 193.688 156.376 195.272C156.376 195.272 162.272 210.264 163.392 233.672L131.784 235.896Z" fill="white"/>
<path opacity="0.2" d="M131.2 219.528C130.92 216.328 130.52 212.96 129.944 209.528C130.505 208.958 131.181 208.513 131.928 208.224L131.968 207.872C131.944 208.256 133.6 214.168 131.2 219.528Z" fill="black"/>
<path d="M136.544 197.664C139.44 200.296 146.528 199.32 146.528 199.32C146.528 199.32 150.952 198.112 150.024 196.728C147.416 196.296 146.16 195.08 145.632 193.528C145.352 192.56 145.262 191.546 145.368 190.544C145.368 190 145.496 189.44 145.592 188.888L136.8 182.4C137.976 186.68 139.384 194.56 136.544 197.664Z" fill="#EBB376"/>
<path opacity="0.2" d="M138.848 186.52C139.2 191.776 143.52 193.232 145.632 193.528C145.352 192.56 145.262 191.546 145.368 190.544L138.848 186.52Z" fill="black"/>
<path d="M144.408 164.368C147.664 165.248 150.376 172.76 147.936 177.728C145.496 182.696 138.144 168.8 138.144 168.8C138.144 168.8 142.304 163.808 144.408 164.368Z" fill="#263238"/>
<path d="M151.2 181.6C151.216 181.904 151.216 182.208 151.2 182.512C151.144 184.68 150.269 186.747 148.752 188.296C147.396 189.709 145.562 190.564 143.608 190.696C142.218 190.765 140.836 190.455 139.608 189.8C135.72 187.824 134.672 184.4 132.408 178.752C131.844 177.438 131.629 176 131.784 174.579C131.939 173.157 132.459 171.799 133.292 170.637C134.126 169.475 135.245 168.548 136.543 167.946C137.84 167.344 139.27 167.087 140.696 167.2C147.096 167.672 150.704 176 151.2 181.6Z" fill="#EBB376"/>
<path d="M141.696 177.432C141.816 177.904 142.216 178.232 142.496 178.096C142.776 177.96 142.928 177.528 142.776 177.064C142.624 176.6 142.24 176.264 141.976 176.4C141.712 176.536 141.544 176.952 141.696 177.432Z" fill="#263238"/>
<path d="M147 175.688C147.12 176.16 147.528 176.448 147.8 176.352C148.072 176.256 148.232 175.784 148.08 175.312C147.928 174.84 147.552 174.552 147.28 174.648C147.008 174.744 146.856 175.24 147 175.688Z" fill="#263238"/>
<path d="M145.392 176.472C146.424 177.722 147.621 178.826 148.952 179.752C148.705 180.089 148.388 180.367 148.021 180.568C147.655 180.768 147.249 180.886 146.832 180.912L145.392 176.472Z" fill="#D58745"/>
<path d="M148.224 172.8C148.185 172.837 148.138 172.865 148.087 172.88C148.035 172.895 147.981 172.898 147.928 172.888C147.578 172.792 147.21 172.78 146.855 172.852C146.499 172.925 146.165 173.079 145.88 173.304C145.825 173.357 145.751 173.386 145.674 173.385C145.598 173.383 145.525 173.351 145.472 173.296C145.419 173.241 145.39 173.167 145.392 173.09C145.393 173.014 145.425 172.941 145.48 172.888C145.835 172.596 146.255 172.393 146.705 172.296C147.154 172.199 147.62 172.21 148.064 172.328C148.102 172.336 148.137 172.351 148.169 172.372C148.2 172.394 148.227 172.421 148.248 172.453C148.269 172.485 148.283 172.521 148.29 172.559C148.297 172.596 148.296 172.635 148.288 172.672C148.272 172.717 148.25 172.76 148.224 172.8Z" fill="#263238"/>
<path d="M139.944 175.656C139.89 175.676 139.83 175.676 139.776 175.656C139.711 175.618 139.663 175.555 139.643 175.481C139.624 175.408 139.634 175.33 139.672 175.264C139.905 174.866 140.23 174.529 140.62 174.281C141.009 174.033 141.452 173.882 141.912 173.84C141.95 173.839 141.988 173.845 142.023 173.859C142.058 173.872 142.091 173.893 142.118 173.919C142.146 173.945 142.168 173.976 142.183 174.01C142.199 174.045 142.207 174.082 142.208 174.12C142.208 174.196 142.179 174.269 142.127 174.324C142.075 174.379 142.004 174.412 141.928 174.416C141.566 174.46 141.219 174.587 140.915 174.789C140.611 174.99 140.358 175.26 140.176 175.576C140.145 175.605 140.109 175.627 140.069 175.64C140.029 175.654 139.986 175.659 139.944 175.656Z" fill="#263238"/>
<path d="M134.28 170.112L135.536 172.512C135.196 172.88 135.007 173.363 135.007 173.864C135.007 174.365 135.196 174.848 135.536 175.216C137.136 177.008 137.2 180.72 136.08 182.64C136.08 182.64 135.688 181.752 135 182.256C134.312 182.76 136.344 187.424 138.704 189.112C138.704 189.112 135.656 187.936 132.472 183.448C129.528 179.304 127.912 175.52 128.176 173.376L134.28 170.112Z" fill="#263238"/>
<path d="M131.456 184.248C132.521 185.343 133.977 185.97 135.504 185.992C137.536 185.992 138.016 184.064 137.008 182.424C136.104 180.976 133.952 179.176 132.136 179.968C130.32 180.76 130.16 182.888 131.456 184.248Z" fill="#EBB376"/>
<path d="M147.456 182.92C147.087 183.726 146.777 184.557 146.528 185.408L146.064 185.352C143.968 185.072 143.08 184.248 142.744 183.416C142.588 183.009 142.53 182.57 142.576 182.136C142.592 181.887 142.646 181.641 142.736 181.408C143.952 182.16 145.317 182.64 146.736 182.816C147.2 182.896 147.456 182.92 147.456 182.92Z" fill="#263238"/>
<path d="M146.744 182.816L146.448 183.544C144.472 183.272 143.112 182.816 142.576 182.136C142.592 181.887 142.646 181.641 142.736 181.408C143.955 182.161 145.322 182.641 146.744 182.816Z" fill="white"/>
<path d="M146.064 185.352C143.968 185.072 143.08 184.248 142.744 183.416C143.542 183.549 144.311 183.819 145.016 184.216C145.475 184.477 145.841 184.874 146.064 185.352Z" fill="#DE5753"/>
<path d="M139.632 170.528C139.632 170.528 139.072 166.704 141.488 167.448C143.904 168.192 144.072 166.736 143.352 163.784C142.632 160.832 135.704 159.784 131.784 164.624C127.864 169.464 126.496 173.52 128.392 175.664C130.288 177.808 137.512 171.48 137.512 171.48C137.709 170.399 138.168 169.383 138.848 168.52C138.893 169.255 139.167 169.957 139.632 170.528Z" fill="#263238"/>
<path d="M143.368 199.016L147.2 202.4C147.2 202.4 149.304 216.64 154.472 222.864H157.672L158.304 220.656C153.497 215.289 150.046 208.847 148.24 201.872V197.336L143.368 199.016Z" fill="#263238"/>
<path d="M137.52 194.584L145.392 197.536L146.064 193.528L150.152 195.008L151.2 200.072L145.632 198.696L142.872 202.392L134.848 197.2L137.52 194.584Z" fill="#007BFF"/>
<path opacity="0.5" d="M137.52 194.584L145.392 197.536L146.064 193.528L150.152 195.008L151.2 200.072L145.632 198.696L142.872 202.392L134.848 197.2L137.52 194.584Z" fill="white"/>
<path d="M131.336 235.368L163.76 232.288L163.832 236.224L131.352 238.88L131.336 235.368Z" fill="black"/>
<path d="M156.896 233.096C156.75 232.964 156.577 232.864 156.39 232.804C156.202 232.743 156.004 232.723 155.808 232.744L152.936 233.04C152.581 233.076 152.253 233.244 152.016 233.511C151.779 233.777 151.65 234.123 151.656 234.48V236.32C151.665 236.698 151.822 237.058 152.095 237.32C152.368 237.583 152.734 237.726 153.112 237.72H153.232L156.104 237.416C156.458 237.38 156.786 237.212 157.022 236.945C157.258 236.678 157.384 236.332 157.376 235.976V234.144C157.375 233.945 157.332 233.749 157.249 233.568C157.166 233.388 157.046 233.227 156.896 233.096ZM156.056 236.68L153.192 236.984C153.094 236.998 152.994 236.99 152.899 236.962C152.804 236.935 152.716 236.887 152.64 236.823C152.565 236.759 152.503 236.679 152.461 236.59C152.418 236.5 152.395 236.403 152.392 236.304V234.472C152.389 234.298 152.452 234.129 152.567 233.999C152.683 233.868 152.843 233.786 153.016 233.768L155.88 233.472H155.944C156.126 233.472 156.301 233.543 156.431 233.67C156.561 233.797 156.636 233.97 156.64 234.152V234.4H156.528L155.728 234.472C155.664 234.478 155.602 234.496 155.545 234.526C155.488 234.556 155.437 234.597 155.396 234.646C155.355 234.695 155.324 234.752 155.304 234.814C155.285 234.875 155.278 234.94 155.284 235.004C155.29 235.068 155.308 235.13 155.338 235.187C155.368 235.244 155.409 235.295 155.458 235.336C155.508 235.377 155.565 235.408 155.626 235.428C155.688 235.447 155.752 235.454 155.816 235.448L156.616 235.368H156.656V236C156.656 236.167 156.594 236.328 156.484 236.453C156.374 236.578 156.222 236.659 156.056 236.68Z" fill="white"/>
<path d="M127.784 199.84C122.376 203.04 114.568 213.576 111.824 213.36C109.08 213.144 94.2801 200 94.2801 200L90.9041 203.656C90.9041 203.656 104.576 219.984 110.944 221.216C117.312 222.448 131.336 210.64 131.336 210.64C132.129 208.605 132.129 206.347 131.336 204.312C130.617 202.505 129.381 200.95 127.784 199.84Z" fill="#007BFF"/>
<path opacity="0.7" d="M127.784 199.84C122.376 203.04 114.568 213.576 111.824 213.36C109.08 213.144 94.2801 200 94.2801 200L90.9041 203.656C90.9041 203.656 104.576 219.984 110.944 221.216C117.312 222.448 131.336 210.64 131.336 210.64C132.129 208.605 132.129 206.347 131.336 204.312C130.617 202.505 129.381 200.95 127.784 199.84Z" fill="white"/>
<path d="M177.288 274.208C177.288 274.208 69.9201 274.952 63.2561 259.872L111.072 256.4C120.562 260.381 130.274 263.808 140.16 266.664C151.2 269.888 164.288 272.944 177.288 274.208Z" fill="#007BFF"/>
<path opacity="0.2" d="M177.288 274.208C177.288 274.208 173.92 274.208 168.32 274.208C145.352 272.608 118.536 261.2 118.536 261.2C108.856 263.328 102.2 259.512 102.2 259.512L76.1041 261.008C76.2447 261.651 76.2385 262.317 76.0862 262.957C75.9338 263.596 75.6392 264.194 75.2241 264.704C88.7521 268.504 103.336 270.816 115.224 272.216C90.1121 270.336 66.2801 266.752 63.2241 259.896L111.04 256.424C111.04 256.424 144.44 271.008 177.288 274.208Z" fill="white"/>
<path opacity="0.2" d="M177.288 274.208C177.288 274.208 69.9201 274.952 63.2561 259.872C63.2561 259.872 99.5361 275.544 140.16 266.664C151.2 269.888 164.288 272.944 177.288 274.208Z" fill="black"/>
</svg>
