<svg width="77" height="32" viewBox="0 0 77 32" fill="none" xmlns="http://www.w3.org/2000/svg">
<path d="M30.9634 23.9853C33.1611 27.5748 36.613 29.9976 40.7784 30.7193C43.1355 31.1275 45.429 31.09 47.6589 30.6068C53.2831 29.3896 57.7008 24.8564 58.6953 19.1776C59.272 15.8806 59.0101 12.2806 57.5513 9.22656" stroke="#E9483A" stroke-width="2"/>
<path d="M57.5513 9.22668C56.4159 6.57033 54.0698 4.26957 51.589 2.85881C49.7047 1.82713 47.6017 1.22502 45.2799 1.05249C34.9454 0.285569 27.8857 8.01581 28.9713 18.1268C29.1996 20.2483 29.8636 22.2012 30.9634 23.9855" stroke="#E9483A" stroke-width="2"/>
<path d="M51.5888 2.85877L50.9187 2.63364C50.9156 2.63269 50.9126 2.63117 50.91 2.62921C50.9074 2.62726 50.9052 2.62494 50.9039 2.62249C50.9025 2.62005 50.9018 2.61755 50.902 2.61526C50.9022 2.61297 50.9032 2.61096 50.905 2.60944L50.9187 2.59682C50.9364 2.58069 50.9226 2.56946 50.8774 2.56315C50.5137 2.5095 50.2954 2.29278 49.8787 2.2507C49.7352 2.23667 49.5942 2.1995 49.4557 2.13919C48.7973 1.85199 48.1072 1.76677 47.3757 1.56584C47.1035 1.4915 46.8325 1.44976 46.5625 1.44065C45.5659 1.40803 44.492 1.24287 43.5039 1.3365C42.1427 1.4659 40.6945 1.5185 39.3947 1.99296C38.9929 2.14024 38.273 2.31277 37.7451 2.55684C37.5338 2.65433 37.3228 2.75252 37.1122 2.85141L36.3669 3.27958L35.7732 3.53101C35.7504 3.54129 35.7318 3.55867 35.7202 3.58045C35.6827 3.6541 35.6233 3.68846 35.5421 3.68355C35.5193 3.68219 35.4967 3.68809 35.4774 3.70038L34.9113 4.07385C34.898 4.08272 34.8868 4.09439 34.8785 4.10803C34.8703 4.12166 34.8652 4.13693 34.8635 4.15275C34.8586 4.21447 34.8211 4.24954 34.7512 4.25796C34.7284 4.26067 34.7069 4.27061 34.6897 4.28636C34.5476 4.42312 34.3038 4.63212 33.9582 4.91336C33.2945 5.452 32.6814 6.10741 32.1188 6.87959C31.8233 7.10893 31.6106 7.40174 31.4806 7.75802C31.4742 7.77486 31.4643 7.78923 31.4509 7.80116C31.3604 7.88111 31.3053 7.9793 31.2855 8.09572L31.0925 8.30928C31.08 8.32308 31.0713 8.34011 31.0671 8.35873C31.03 8.53652 30.8349 8.68591 30.8285 8.8153C30.8282 8.82898 30.8252 8.84236 30.8198 8.85464C30.8143 8.86693 30.8065 8.87788 30.7967 8.88684C30.6787 8.99906 30.6208 9.13863 30.6229 9.30555C30.49 9.4402 30.4154 9.60221 30.3992 9.79158C30.3978 9.81016 30.3912 9.82833 30.3801 9.84418C30.2083 10.0861 30.2327 10.387 30.0398 10.5974C30.0227 10.6164 30.0133 10.6411 30.0133 10.6669C30.0119 10.7945 30.003 10.8776 29.9868 10.9162C29.8277 11.2844 29.72 11.6677 29.6634 12.066C29.6629 12.0713 29.6606 12.0762 29.657 12.0801C29.6534 12.0841 29.6486 12.0869 29.6433 12.0881L29.6136 12.0966C29.5992 12.1007 29.5867 12.1095 29.5779 12.1215C29.569 12.1335 29.5645 12.148 29.5648 12.1628C29.5744 12.5773 29.3496 12.8572 29.3496 13.2264C29.3496 13.4642 29.3514 13.7016 29.3549 13.9386" stroke="#E9483A" stroke-width="2"/>
<path d="M29.3551 13.9385C29.1621 15.3966 29.2141 16.5759 29.2904 18.298C29.2989 18.499 29.4282 18.6989 29.3317 18.9724C29.3255 18.9896 29.324 19.0085 29.3275 19.0271C29.3812 19.2999 29.4409 19.5724 29.5067 19.8445C29.5438 20.0002 29.5279 20.2253 29.6551 20.4168C29.6694 20.4377 29.6751 20.4637 29.671 20.4894C29.6512 20.6262 29.6936 20.7359 29.7982 20.8187C29.8108 20.8286 29.8209 20.8412 29.8279 20.8556C29.8349 20.8699 29.8385 20.8858 29.8385 20.9018C29.8364 21.148 29.9053 21.371 30.0452 21.5709C30.0583 21.5893 30.065 21.6115 30.0643 21.634C30.0601 21.8374 30.1293 22.0131 30.2721 22.1611C30.2905 22.18 30.3011 22.2052 30.3018 22.2315C30.3039 22.3101 30.3304 22.4041 30.3813 22.5135C30.5552 22.8859 31.0227 23.596 30.9633 23.9853" stroke="#E9483A" stroke-width="2"/>
<path d="M32.0076 7.27229C31.8825 7.38731 31.768 7.516 31.6641 7.65838C31.5634 7.79514 31.5708 7.94768 31.4139 8.07182C31.3998 8.08304 31.3892 8.09672 31.3821 8.11285L31.2538 8.41162C31.2456 8.43085 31.2319 8.44698 31.2146 8.45791C31.1701 8.48737 31.1468 8.52735 31.1446 8.57784C31.1437 8.59728 31.1374 8.61607 31.1266 8.63219C31.1158 8.64832 31.1008 8.66117 31.0832 8.66937C31.0058 8.70409 30.8192 9.06703 30.7397 9.1554L30.623 9.30584M31.2857 8.09602L32.1189 6.87988" stroke="#E9483A" stroke-width="2"/>
<path d="M31.2329 8.70084C31.3601 8.31861 31.5103 8.02194 31.6835 7.81083C31.8425 7.61656 31.9506 7.43702 32.0079 7.2722C32.6468 6.35414 33.3896 5.52865 34.2364 4.79575C34.2968 4.74314 34.3286 4.76944 34.3996 4.70527C34.9986 4.16033 35.7121 3.79107 36.3673 3.27979" stroke="#E9483A" stroke-width="2"/>
<path d="M57.5512 9.22676L57.5237 9.23307C57.502 9.23798 57.4793 9.23595 57.4588 9.22726C57.4382 9.21858 57.4209 9.20368 57.4092 9.18468C57.2205 8.87468 57.0406 8.55978 56.8696 8.23997C56.6914 7.90648 56.4402 7.62453 56.2345 7.29736C56.0532 7.01015 55.7998 6.7745 55.5751 6.46205C55.356 6.15837 54.945 5.70811 54.3421 5.11126C54.1205 4.89139 53.7993 4.72622 53.5502 4.49793C53.5324 4.48164 53.5095 4.47198 53.4855 4.47058C53.3583 4.46287 53.2745 4.39519 53.2342 4.26754C53.228 4.24636 53.215 4.22786 53.1971 4.21494L52.2748 3.52587C52.2712 3.52376 52.2366 3.51324 52.1709 3.49431C52.1313 3.48309 52.1052 3.45678 52.0924 3.41541C52.0881 3.40061 52.0806 3.38691 52.0703 3.37528C52.0601 3.36364 52.0474 3.35436 52.0331 3.34808C51.3397 3.05561 50.6492 2.75684 49.9615 2.45176C49.935 2.44018 49.8947 2.44439 49.8661 2.44649C49.8454 2.44856 49.8247 2.44453 49.8067 2.43492C49.565 2.30447 49.3084 2.21891 49.037 2.17823C49.0304 2.17725 49.0241 2.17474 49.0186 2.17091C49.0131 2.16708 49.0085 2.16203 49.0052 2.15614L48.9914 2.13089C48.9875 2.12371 48.9819 2.11751 48.9751 2.11277C48.9683 2.10803 48.9605 2.10487 48.9522 2.10354C48.7331 2.07057 48.5179 2.02358 48.3066 1.96257C47.8963 1.84369 47.4828 1.80371 47.0291 1.68589C46.6018 1.57542 46.1152 1.65432 45.654 1.56596C45.4894 1.53439 45.3473 1.51581 45.2278 1.5102C43.6595 1.43726 42.1049 1.55053 40.5642 1.85C40.4444 1.87314 40.3765 1.94573 40.2599 1.99097C40.0935 2.0562 39.9344 1.96677 39.769 2.12984" stroke="#E9483A" stroke-width="2"/>
<path d="M39.7691 2.12953C39.4298 2.1127 39.1818 2.14846 39.0248 2.23683C38.8202 2.35256 38.6495 2.35571 38.5022 2.41357C38.0908 2.57769 37.6795 2.74777 37.2681 2.9238C37.2321 2.93993 37.2296 2.93608 37.2607 2.91223C37.3717 2.82877 37.4986 2.77582 37.6413 2.75337C37.6464 2.75247 37.6512 2.75034 37.6551 2.7472C37.659 2.74406 37.6619 2.74002 37.6636 2.73549L37.6731 2.70919C37.6823 2.68324 37.6731 2.67483 37.6456 2.68394L37.1123 2.85121" stroke="#E9483A" stroke-width="2"/>
<path d="M29.355 13.9388L29.567 13.1361C29.5705 13.1221 29.5769 13.1095 29.5861 13.0982C29.7017 12.952 29.672 12.5123 29.7324 12.3429C29.9367 11.7706 30.1081 11.1913 30.2466 10.605C30.3335 10.3293 30.4731 10.0863 30.6654 9.8759C30.6767 9.86328 30.6848 9.84855 30.6897 9.83172L30.8117 9.36357C30.8171 9.34108 30.8302 9.32105 30.8488 9.30676C31.0481 9.15001 31.0343 8.89016 31.2325 8.7008C31.5018 8.28069 31.7796 7.86654 32.0658 7.45836C32.2365 7.21534 32.4273 6.88396 32.6829 6.63042C33.0953 6.22119 33.3402 5.7867 33.8109 5.39956C33.9466 5.28875 34.3194 4.96402 34.9293 4.42539C34.9319 4.42318 34.9345 4.42136 34.9369 4.42008C34.9393 4.41881 34.9414 4.4181 34.9431 4.41802H34.9739C34.9953 4.41735 35.0163 4.41041 35.0343 4.39804C35.2591 4.23953 35.4926 4.09506 35.7351 3.9646C35.9418 3.85309 36.069 3.66478 36.297 3.55853C36.3775 3.52135 36.4722 3.46455 36.5811 3.3881C36.7412 3.27764 36.9596 3.29342 37.073 3.14613C37.0867 3.12713 37.107 3.11367 37.1303 3.10826C37.3055 3.06127 37.4529 2.9701 37.5723 2.83474C37.5829 2.82211 37.5964 2.81264 37.6126 2.80633C38.3159 2.52719 39.0347 2.30171 39.769 2.12988" stroke="#E9483A" stroke-width="2"/>
<path d="M30.2472 10.605C30.2443 10.3791 30.3164 10.148 30.4634 9.91168C30.5836 9.71881 30.6758 9.46667 30.7401 9.15527" stroke="#E9483A" stroke-width="2"/>
<path d="M1.55859 10.1491L2.15123 10.1754C2.17901 10.1769 2.20625 10.1674 2.22707 10.1491C2.2479 10.1308 2.26063 10.1051 2.26254 10.0776C2.55621 5.98946 4.77726 3.4583 8.99673 3.10377C9.43564 3.0673 9.87561 3.0375 10.3166 3.01435C10.331 3.01349 10.3453 3.01554 10.3588 3.02039C10.3722 3.02524 10.3846 3.03277 10.395 3.04253C10.4054 3.05229 10.4137 3.06407 10.4194 3.07713C10.4251 3.0902 10.428 3.10428 10.428 3.1185L10.4311 3.68133" stroke="#E9483A" stroke-width="2"/>
<path d="M10.4311 3.68115C10.4254 10.6476 10.4243 17.6141 10.4279 24.5806C10.4279 25.6221 10.4321 27.0612 9.88826 27.9228C9.21717 28.9854 7.53362 29.0254 6.39182 29.0685C6.36426 29.0696 6.33821 29.0813 6.31921 29.1011C6.30021 29.121 6.28975 29.1474 6.29005 29.1747L6.29959 30.0374C6.29993 30.0563 6.30521 30.0747 6.31489 30.0908C6.32457 30.1068 6.33831 30.12 6.35471 30.1289C6.39076 30.1479 6.43175 30.15 6.47769 30.1352" stroke="#E9483A" stroke-width="2"/>
<path d="M6.47803 30.1352L21.3246 30.1331C21.351 30.1332 21.3765 30.1234 21.3961 30.1057C21.4157 30.088 21.428 30.0637 21.4306 30.0374L21.4487 29.8501" stroke="#E9483A" stroke-width="2"/>
<path d="M21.4484 29.8504L21.4156 29.1561C21.4142 29.1287 21.4021 29.103 21.3819 29.0843C21.3617 29.0657 21.335 29.0556 21.3074 29.0562C20.2769 29.074 18.7439 28.9604 17.9849 28.2461" stroke="#E9483A" stroke-width="2"/>
<path d="M17.9851 28.2458C17.4359 27.5831 17.2143 26.5142 17.2143 25.7147C17.2115 18.1878 17.2112 10.6613 17.2133 3.13519C17.2133 3.10747 17.2244 3.08087 17.2443 3.06117C17.2641 3.04147 17.2911 3.03027 17.3193 3.02999C18.9159 3.02157 20.3365 3.27161 21.5812 3.78008C21.9946 3.94911 22.4731 4.27698 23.0166 4.76372" stroke="#E9483A" stroke-width="2"/>
<path d="M23.0166 4.76367C24.4765 6.23334 25.067 8.00073 25.3755 10.0511C25.3794 10.0756 25.3919 10.0979 25.4106 10.1142C25.4294 10.1306 25.4534 10.1399 25.4783 10.1405L25.7995 10.1469" stroke="#E9483A" stroke-width="2"/>
<path d="M25.7993 10.1475L26.5107 10.1685C26.525 10.169 26.5392 10.1665 26.5525 10.1613C26.5658 10.1562 26.5779 10.1484 26.5881 10.1385C26.5983 10.1286 26.6064 10.1167 26.6118 10.1036C26.6173 10.0905 26.62 10.0764 26.6199 10.0623L26.587 2.33203" stroke="#E9483A" stroke-width="2"/>
<path d="M26.5872 2.33207L26.5713 1.73242C26.5704 1.70507 26.5589 1.67911 26.5391 1.66006C26.5193 1.64101 26.4928 1.63036 26.4653 1.63037H1.14526C1.11732 1.63037 1.09052 1.64142 1.07067 1.66112C1.05081 1.68082 1.03952 1.70758 1.03924 1.73557L1.00002 10.0265C0.99964 10.048 1.00608 10.069 1.01843 10.0868C1.03078 10.1045 1.04843 10.118 1.06893 10.1254C1.18554 10.1682 1.34881 10.1763 1.55872 10.1496" stroke="#E9483A" stroke-width="2"/>
<path d="M26.587 2.33209C26.0365 2.30193 25.5951 2.2872 25.2629 2.2879C17.5258 2.30403 9.78833 2.30263 2.05051 2.28369C1.77557 2.28299 1.63669 2.42046 1.63386 2.69609L1.55859 10.1496M25.7993 10.1475C25.7499 8.9286 25.3947 7.8075 24.7339 6.78423C24.7228 6.76632 24.7169 6.74593 24.7169 6.72532C24.719 6.62713 24.6777 6.56997 24.5929 6.55384C24.577 6.55058 24.5621 6.54378 24.5493 6.53394C24.5364 6.5241 24.526 6.51148 24.5187 6.49703C24.1985 5.86021 23.7896 5.28581 23.292 4.77382C23.2809 4.7624 23.2671 4.75371 23.2519 4.74842C23.2366 4.74313 23.2202 4.74138 23.204 4.74331L23.0164 4.76435M17.9848 28.2465C17.8979 28.4772 17.9728 28.6182 18.2096 28.6694C18.2284 28.6735 18.2459 28.6826 18.2605 28.6957C18.611 29.0225 18.9973 29.2378 19.4192 29.3416C19.9479 29.4714 20.5543 29.5583 21.2385 29.6025C21.2612 29.6039 21.2828 29.6128 21.3 29.6278C21.3756 29.6916 21.4251 29.7659 21.4484 29.8508M6.47777 30.1359C6.53361 30.0314 6.55234 29.9213 6.53396 29.8056C6.53052 29.7843 6.53385 29.7623 6.5435 29.7425C6.65588 29.5166 6.80148 29.396 6.98029 29.3806C7.79167 29.3139 8.45463 29.2157 8.96917 29.086C9.14869 29.0404 9.38723 28.9285 9.68478 28.7504L9.65828 28.8514" stroke="#E9483A" stroke-width="2"/>
<path d="M9.65843 28.851C9.29373 29.0242 8.91773 29.1568 8.53041 29.2486C7.68793 29.4492 7.695 29.4846 8.55162 29.3549C8.6025 29.3472 8.6541 29.3384 8.7064 29.3286C8.88946 29.2956 9.03541 29.235 9.14425 29.1466C9.15697 29.1354 9.17182 29.128 9.18878 29.1245C9.37466 29.0845 9.53121 28.9933 9.65843 28.851ZM9.65843 28.851C10.3136 28.569 10.5776 27.7158 10.6105 27.092C10.6797 26.5534 10.7059 26.0137 10.6889 25.4729C10.6614 24.5745 10.6476 24.1211 10.6476 24.1127C10.6659 17.6203 10.667 11.1276 10.6507 4.63453C10.65 4.36662 10.6617 4.0966 10.6857 3.82447C10.6873 3.80401 10.683 3.78353 10.6732 3.76544C10.6635 3.74735 10.6487 3.73243 10.6306 3.72243C10.5698 3.68947 10.5034 3.67579 10.4313 3.6814" stroke="#E9483A" stroke-width="2"/>
<path d="M10.6106 27.092C10.5844 26.8704 10.595 26.6621 10.6424 26.4671C10.6516 26.4293 10.6509 26.4289 10.6403 26.4661C10.5463 26.7985 10.4901 27.1138 10.4717 27.4119C10.4516 27.7327 10.2088 28.3692 9.92784 28.5438C9.90788 28.5561 9.89259 28.5746 9.88437 28.5964C9.85186 28.6862 9.78542 28.7374 9.68506 28.75" stroke="#E9483A" stroke-width="2"/>
<path d="M61.7651 2.73047C63.154 2.8241 64.4664 3.08395 64.9022 4.57992" stroke="#E9483A" stroke-width="2"/>
<path d="M64.9023 4.57959C65.0105 5.76767 65.0635 6.95856 65.0614 8.15225" stroke="#E9483A" stroke-width="2"/>
<path d="M65.0615 8.15283L65.0678 21.0664" stroke="#E9483A" stroke-width="2"/>
<path d="M65.0676 21.0664C65.0153 22.1451 65.0086 23.2227 65.0475 24.2993C65.0708 26.5401 65.2224 28.6536 62.5274 28.9797C62.0991 29.0316 61.6687 29.0635 61.2362 29.0754C61.2082 29.0763 61.1818 29.088 61.1625 29.1081C61.1432 29.1282 61.1328 29.155 61.1333 29.1827L61.1545 30.0275C61.1551 30.0549 61.1663 30.0809 61.1859 30.1002C61.2055 30.1194 61.2319 30.1303 61.2595 30.1306L61.7122 30.1359" stroke="#E9483A" stroke-width="2"/>
<path d="M61.7124 30.1351L75.8794 30.1393C75.9068 30.1393 75.9332 30.1288 75.9529 30.11C75.9727 30.0912 75.9844 30.0655 75.9854 30.0383L75.9992 29.688" stroke="#E9483A" stroke-width="2"/>
<path d="M75.9991 29.6884L75.9801 29.1782C75.979 29.1506 75.9672 29.1245 75.9472 29.1054C75.9272 29.0864 75.9006 29.0759 75.873 29.0762C74.9959 29.086 74.1813 28.959 73.4293 28.6953C73.0908 28.5768 72.7911 28.3657 72.5303 28.062" stroke="#E9483A" stroke-width="2"/>
<path d="M72.5302 28.0619C72.0054 27.2813 71.997 26.4145 71.997 25.5108C71.9948 18.9813 71.9966 12.4521 72.0023 5.92324C72.0044 3.20798 73.4208 2.73562 75.8931 2.70827C75.907 2.70813 75.9208 2.70528 75.9336 2.69986C75.9464 2.69445 75.958 2.68658 75.9677 2.67672C75.9775 2.66685 75.9852 2.65518 75.9904 2.64236C75.9956 2.62954 75.9982 2.61583 75.998 2.60202L75.9938 2.23486" stroke="#E9483A" stroke-width="2"/>
<path d="M75.9938 2.23528L75.9747 1.73137C75.9736 1.7042 75.9619 1.67851 75.9422 1.65968C75.9224 1.64085 75.8961 1.63035 75.8687 1.63037H61.2384C61.2243 1.63037 61.2103 1.63316 61.1973 1.63858C61.1843 1.64399 61.1725 1.65193 61.1626 1.66192C61.1528 1.67192 61.145 1.68376 61.1398 1.69677C61.1346 1.70978 61.1321 1.72369 61.1323 1.73768L61.1504 2.57614C61.1508 2.60194 61.1607 2.62671 61.1783 2.64572C61.1959 2.66473 61.2199 2.67666 61.2458 2.67923L61.7653 2.73078" stroke="#E9483A" stroke-width="2"/>
<path d="M75.9938 2.23512C71.3047 2.18042 66.5944 2.19514 61.9052 2.23828C61.8825 2.23826 61.8605 2.24566 61.8427 2.25932C61.6709 2.38766 61.6451 2.54477 61.7653 2.73062M72.5302 28.0622C72.4652 28.2628 72.5168 28.4202 72.685 28.5346C72.8518 28.6489 73.0112 28.772 73.1632 28.9038C73.1773 28.9157 73.1936 28.9238 73.2119 28.928C73.3533 28.9568 73.4635 29.0318 73.5427 29.1531C73.5504 29.1651 73.5606 29.1754 73.5726 29.1834C73.5847 29.1913 73.5983 29.1968 73.6127 29.1994C73.8841 29.2478 74.077 29.3825 74.3389 29.4183C74.8951 29.4961 75.4485 29.5862 75.9991 29.6886M61.7123 30.1357C61.6748 30.046 61.6692 29.9537 61.6953 29.859C61.7001 29.841 61.7099 29.8246 61.7235 29.8116C61.7372 29.7986 61.7542 29.7896 61.7727 29.7854C62.1169 29.7027 62.4646 29.6458 62.8159 29.615C63.2792 29.574 63.6439 29.3993 64.0637 29.2468C64.4041 29.1226 64.6776 28.7492 64.9394 28.5051C64.9566 28.4888 64.9678 28.4673 64.9712 28.4441C64.9967 28.2807 65.0801 28.1534 65.2214 28.0622C65.7293 27.1953 65.5278 25.6415 65.5289 24.6484C65.5296 24.4997 65.4466 24.2381 65.2798 23.8636C65.108 23.4754 65.1366 22.8147 65.1525 22.3739C65.1674 21.937 65.1391 21.5011 65.0677 21.0663M65.0614 8.15273C65.1812 8.02859 65.2745 7.93917 65.2766 7.75191C65.2815 6.97763 65.279 6.20369 65.2691 5.4301C65.266 5.18709 65.1653 4.92093 65.1377 4.66318C65.1357 4.64411 65.1286 4.62596 65.117 4.61074C65.1054 4.59552 65.0898 4.58381 65.072 4.57692C65.0083 4.55167 64.9518 4.55272 64.9023 4.58007" stroke="#E9483A" stroke-width="2"/>
<path d="M64.469 28.7194C63.7389 29.2104 62.9289 29.4351 62.0391 29.3938C62.0122 29.3924 61.9871 29.3959 61.9638 29.4043C61.7588 29.4779 61.7676 29.5116 61.9903 29.5053C62.6836 29.4863 64.0629 29.3128 64.469 28.7194ZM64.469 28.7194C64.7227 28.523 64.9277 28.2849 65.0839 28.0051C65.0923 27.9897 65.0969 27.9732 65.0976 27.9556C65.0998 27.821 65.1453 27.7028 65.2344 27.6011C65.2482 27.5847 65.2567 27.5649 65.2588 27.5443L65.2991 27.1898C65.3012 27.1736 65.2994 27.1579 65.2938 27.1424C65.274 27.0884 65.2863 27.0499 65.3309 27.0267C65.3443 27.0198 65.3556 27.0092 65.3635 26.9962C65.3713 26.9832 65.3754 26.9683 65.3754 26.9531C65.3888 23.642 65.4044 23.6269 65.422 26.9078C65.422 26.924 65.421 26.9394 65.4189 26.9541C65.3567 27.3258 65.2909 27.6951 65.2217 28.0619M64.469 28.7194C64.5191 28.6247 64.5905 28.5469 64.6831 28.4859C64.6975 28.4765 64.7093 28.4638 64.7176 28.449C64.7259 28.4342 64.7305 28.4176 64.7308 28.4007C64.7336 28.313 64.775 28.2421 64.8549 28.1881C64.8715 28.1772 64.8844 28.1618 64.892 28.144C65.1429 27.599 65.2694 27.2227 65.2715 27.0151C65.28 26.2482 65.2238 25.4297 65.3001 24.6712C65.3185 24.4889 65.2344 24.3648 65.0478 24.2988" stroke="#E9483A" stroke-width="2"/>
<path d="M39.7184 28.036C39.6877 28.1833 39.6951 28.2737 39.8181 28.3768C40.0873 28.6009 40.3683 28.8629 40.6842 29.0165C40.9228 29.1332 41.1634 29.3236 41.3691 29.4173C42.7622 30.0516 44.1817 30.1495 45.6395 29.9201C46.601 29.7686 47.4523 29.5193 48.1202 28.7724C48.5471 28.5066 48.8977 28.1647 49.1719 27.7467C49.7275 27.1617 49.9936 26.5484 50.3964 25.7184C50.5236 25.4561 50.624 25.2078 50.6975 24.9735C50.7675 24.7484 50.9626 24.4107 50.9477 24.0646C50.9732 23.9804 51.0043 23.9033 51.041 23.8331C51.305 23.3303 51.2075 22.6728 51.3506 22.1973C51.5117 21.6597 51.5541 20.9664 51.6071 20.5687C51.6601 20.1669 51.6905 19.7629 51.6983 19.3568C51.7796 18.1743 51.8068 16.7695 51.7799 15.1424C51.7665 14.3282 51.704 13.6289 51.5923 13.0447C51.57 12.08 51.2827 10.7776 51.1025 9.89284C51.0505 9.63825 50.8883 9.23007 50.8735 8.8566C50.8732 8.84179 50.8697 8.82726 50.8633 8.81401C50.8569 8.80075 50.8477 8.78909 50.8364 8.77981C50.7466 8.70546 50.7159 8.60903 50.7442 8.4905C50.749 8.46792 50.7464 8.44433 50.7367 8.42317C50.5487 8.01499 50.3968 7.59453 50.2809 7.1618C50.2586 7.07659 50.2024 7.02609 50.1367 6.97665C50.1256 6.96799 50.1163 6.95721 50.1094 6.94493C50.1025 6.93266 50.0981 6.91912 50.0964 6.90511C50.0766 6.73468 49.9833 6.63334 49.8165 6.60107" stroke="#E9483A" stroke-width="2"/>
<path d="M49.8165 6.601C48.4764 3.76897 46.0412 1.88059 42.7335 2.4834C36.8888 3.54699 36.4806 11.5308 36.4446 15.9377C36.4106 19.887 36.7404 25.005 39.7184 28.0359" stroke="#E9483A" stroke-width="2"/>
<path d="M49.8164 6.60107C51.3282 9.96859 51.4618 13.7432 51.3981 17.358C51.254 22.1646 50.1779 30.08 43.3907 29.5688C42.5277 29.5042 41.7527 29.3015 41.0657 28.9607C40.5774 28.7089 40.1282 28.4007 39.7183 28.036" stroke="#E9483A" stroke-width="2"/>
<path d="M50.8741 23.8497C50.8974 24.0454 50.8798 24.2327 50.8211 24.4115C50.8027 24.4676 50.8147 24.4753 50.8571 24.4346C50.8889 24.4052 50.8996 24.1496 50.9473 24.0643M49.1715 27.7464C48.881 27.9295 48.6336 28.1574 48.4294 28.4302C47.436 29.2645 46.1012 29.9588 44.935 29.9357C44.7622 29.9325 43.2409 29.922 43.2133 29.8599C43.2089 29.85 43.2016 29.8416 43.1924 29.8358C43.1831 29.8299 43.1723 29.827 43.1614 29.8273C42.6059 29.8452 42.2634 29.5664 41.8033 29.5622C41.7767 29.5622 41.751 29.552 41.7312 29.5338C41.5849 29.3984 41.4181 29.303 41.2308 29.2476C41.208 29.241 41.1881 29.2269 41.1744 29.2076C41.1608 29.1883 41.1541 29.1649 41.1555 29.1414C41.1591 29.0734 41.129 29.013 41.0654 28.9604M51.5918 13.0444C51.613 14.2837 51.6353 15.523 51.6586 16.7623C51.6692 17.3388 51.6077 17.9952 51.6141 18.6159" stroke="#E9483A" stroke-width="2"/>
<path d="M51.6145 18.6157C51.5869 19.2497 51.5247 19.8817 51.4279 20.5115C51.4208 20.5613 51.4339 20.5672 51.4671 20.5293C51.4958 20.4967 51.4523 20.6535 51.4587 20.7376C51.4785 21.0175 51.4431 21.2847 51.3526 21.5393C51.2728 21.7637 51.2244 21.9415 51.2074 22.0727C51.1297 22.6709 51.0187 23.2632 50.8745 23.8495" stroke="#E9483A" stroke-width="2"/>
<path d="M50.8744 23.8499L50.6348 24.5316C50.5733 24.7063 50.5451 24.701 50.55 24.5159C50.5543 24.3784 50.6073 24.2588 50.7091 24.1571C50.7229 24.1427 50.7325 24.1245 50.7366 24.1045C50.7833 23.8867 50.7949 23.7458 50.8893 23.5143C50.9847 23.2787 50.9338 23.0546 51.0038 22.8189C51.1405 22.3582 51.1246 21.91 51.2413 21.4429C51.2914 21.2395 51.3247 21.033 51.3409 20.8233C51.3558 20.6318 51.2572 20.4466 51.3133 20.2173C51.372 19.9802 51.3851 19.7418 51.3526 19.5019C51.3498 19.4834 51.3523 19.4641 51.36 19.4462C51.4222 19.3003 51.4307 19.1523 51.3854 19.0022C51.3773 18.9759 51.38 18.9475 51.3929 18.9233C51.4706 18.7725 51.5112 18.6074 51.5148 18.4278C51.5151 18.4123 51.5119 18.3969 51.5055 18.3828C51.4991 18.3686 51.4896 18.3559 51.4777 18.3458C51.3547 18.2416 51.4013 17.541 51.3982 17.3579M48.1201 28.7723L48.4297 28.4304M51.6982 19.3567L51.7067 18.5604C51.7081 18.4271 51.6855 18.4233 51.6388 18.5488L51.6144 18.6161" stroke="#E9483A" stroke-width="2"/>
<path d="M50.1597 25.8266C50.1455 25.8981 50.1165 25.9612 50.0727 26.0159C50.057 26.0349 50.0487 26.0592 50.0494 26.0843C50.0522 26.1972 50.1112 26.1261 50.2264 25.8708C50.2347 25.8516 50.2373 25.8307 50.2339 25.8108C50.2148 25.6965 50.2434 25.5965 50.3197 25.511C50.3342 25.4953 50.3431 25.475 50.3452 25.4531L50.3759 25.1764C50.378 25.1559 50.3861 25.1365 50.3992 25.1207C50.4586 25.0505 50.501 24.9727 50.5265 24.8871C50.5547 24.796 50.5417 24.79 50.4872 24.8692L50.412 24.9787C50.4056 24.9878 50.401 24.9972 50.3982 25.0071C50.2763 25.3984 50.0621 25.7098 49.9147 26.0833C49.9105 26.0945 49.9063 26.1054 49.902 26.1159C49.7593 26.4666 49.7801 26.4767 49.9646 26.1464C50.019 26.0489 50.0731 25.943 50.1268 25.8287C50.1649 25.7487 50.1759 25.748 50.1597 25.8266Z" stroke="#E9483A" stroke-width="2"/>
<path d="M51.589 2.85881L50.9189 2.63368C50.9158 2.63273 50.9128 2.63121 50.9102 2.62925C50.9076 2.6273 50.9054 2.62498 50.9041 2.62253C50.9027 2.62008 50.902 2.61759 50.9022 2.6153C50.9024 2.61301 50.9034 2.611 50.9052 2.60948L50.9189 2.59686C50.9366 2.58073 50.9228 2.5695 50.8776 2.56319C50.5139 2.50954 50.2956 2.29282 49.8789 2.25074C49.7354 2.23671 49.5944 2.19954 49.4559 2.13923C48.7975 1.85203 48.1074 1.76681 47.3759 1.56588C47.1037 1.49153 46.8327 1.4498 46.5627 1.44069C45.5661 1.40807 44.4922 1.24291 43.5041 1.33654C42.1429 1.46594 40.6947 1.51854 39.3949 1.993C38.9931 2.14028 38.2732 2.31281 37.7453 2.55688C37.534 2.65437 37.323 2.75256 37.1124 2.85144L36.3671 3.27962L35.7734 3.53105C35.7506 3.54133 35.732 3.55871 35.7204 3.58049C35.6829 3.65413 35.6235 3.6885 35.5423 3.68359C35.5195 3.68223 35.4969 3.68812 35.4776 3.70042L34.9115 4.07389C34.8982 4.08276 34.887 4.09443 34.8787 4.10807C34.8705 4.1217 34.8654 4.13697 34.8637 4.15279C34.8588 4.21451 34.8213 4.24958 34.7514 4.25799C34.7286 4.26071 34.7071 4.27065 34.6899 4.2864C34.5478 4.42316 34.304 4.63216 33.9584 4.9134C33.2947 5.45204 32.6816 6.10744 32.119 6.87963C31.8235 7.10897 31.6108 7.40178 31.4808 7.75806C31.4744 7.7749 31.4645 7.78927 31.4511 7.8012C31.3606 7.88115 31.3055 7.97934 31.2857 8.09576L31.0927 8.30932C31.0802 8.32312 31.0715 8.34015 31.0673 8.35877C31.0302 8.53656 30.8351 8.68595 30.8287 8.81534C30.8284 8.82902 30.8254 8.84239 30.82 8.85468C30.8145 8.86697 30.8067 8.87792 30.7969 8.88688C30.6789 8.9991 30.621 9.13866 30.6231 9.30558C30.4902 9.44024 30.4156 9.60225 30.3994 9.79162C30.398 9.8102 30.3914 9.82837 30.3803 9.84422C30.2086 10.0862 30.2329 10.3871 30.04 10.5975C30.0229 10.6164 30.0135 10.6411 30.0135 10.6669C30.0121 10.7945 30.0032 10.8777 29.987 10.9162C29.8279 11.2844 29.7202 11.6677 29.6636 12.0661C29.6631 12.0713 29.6608 12.0762 29.6572 12.0802C29.6536 12.0841 29.6488 12.0869 29.6435 12.0882L29.6138 12.0966C29.5994 12.1008 29.5869 12.1095 29.5781 12.1215C29.5692 12.1335 29.5647 12.148 29.565 12.1629C29.5746 12.5774 29.3498 12.8572 29.3498 13.2265C29.3498 13.4642 29.3516 13.7016 29.3551 13.9387C29.1622 15.3968 29.2141 16.5761 29.2904 18.2982C29.2989 18.4992 29.4283 18.6991 29.3318 18.9726C29.3255 18.9898 29.3241 19.0087 29.3276 19.0273C29.3813 19.3001 29.441 19.5726 29.5067 19.8447C29.5438 20.0004 29.5279 20.2255 29.6551 20.417C29.6694 20.4379 29.6751 20.4639 29.671 20.4896C29.6513 20.6264 29.6937 20.7361 29.7983 20.8189C29.8108 20.8288 29.821 20.8414 29.828 20.8558C29.835 20.8701 29.8386 20.886 29.8385 20.902C29.8364 21.1482 29.9053 21.3712 30.0453 21.5711C30.0584 21.5895 30.0651 21.6117 30.0644 21.6342C30.0601 21.8376 30.1294 22.0133 30.2722 22.1613C30.2906 22.1802 30.3012 22.2054 30.3018 22.2317C30.304 22.3103 30.3305 22.4043 30.3814 22.5137C30.5552 22.8861 31.0228 23.5962 30.9634 23.9855C29.8636 22.2012 29.1996 20.2483 28.9713 18.1268C27.8857 8.01581 34.9454 0.285569 45.2799 1.05249C47.6017 1.22502 49.7047 1.82713 51.589 2.85881Z" fill="#E9483A"/>
<path d="M51.5889 2.85877C54.0697 4.26953 56.4158 6.57029 57.5513 9.22664L57.5237 9.23296C57.5021 9.23786 57.4793 9.23583 57.4588 9.22715C57.4383 9.21846 57.4209 9.20357 57.4092 9.18456C57.2205 8.87457 57.0406 8.55966 56.8696 8.23985C56.6915 7.90636 56.4402 7.62442 56.2346 7.29724C56.0533 7.01004 55.7999 6.77438 55.5751 6.46194C55.356 6.15825 54.945 5.70799 54.3422 5.11114C54.1206 4.89127 53.7994 4.7261 53.5502 4.49782C53.5324 4.48152 53.5096 4.47186 53.4855 4.47046C53.3583 4.46275 53.2746 4.39507 53.2343 4.26742C53.2281 4.24624 53.215 4.22774 53.1972 4.21482L52.2748 3.52575C52.2713 3.52365 52.2367 3.51313 52.1709 3.49419C52.1314 3.48297 52.1052 3.45667 52.0925 3.41529C52.0882 3.40049 52.0806 3.38679 52.0704 3.37516C52.0601 3.36353 52.0474 3.35424 52.0331 3.34796C51.3398 3.0555 50.6492 2.75672 49.9615 2.45164C49.935 2.44007 49.8948 2.44427 49.8661 2.44638C49.8454 2.44844 49.8248 2.44441 49.8068 2.43481C49.565 2.30435 49.3085 2.21879 49.0371 2.17811C49.0305 2.17713 49.0242 2.17463 49.0187 2.1708C49.0132 2.16697 49.0086 2.16191 49.0053 2.15602L48.9915 2.13077C48.9875 2.12359 48.9819 2.1174 48.9752 2.11266C48.9684 2.10792 48.9605 2.10476 48.9523 2.10342C48.7332 2.07046 48.5179 2.02347 48.3066 1.96245C47.8963 1.84357 47.4829 1.80359 47.0291 1.68577C46.6019 1.57531 46.1153 1.65421 45.6541 1.56584C45.4894 1.53428 45.3473 1.51569 45.2279 1.51008C43.6595 1.43714 42.105 1.55041 40.5642 1.84988C40.4444 1.87303 40.3766 1.94562 40.2599 1.99085C40.0935 2.05608 39.9345 1.96666 39.7691 2.12972C39.4298 2.11289 39.1818 2.14866 39.0248 2.23703C38.8202 2.35275 38.6495 2.3559 38.5022 2.41377C38.0908 2.57788 37.6795 2.74796 37.2681 2.924C37.2321 2.94013 37.2296 2.93627 37.2607 2.91242C37.3717 2.82896 37.4986 2.77601 37.6413 2.75357C37.6464 2.75266 37.6512 2.75053 37.6551 2.74739C37.659 2.74425 37.6619 2.74021 37.6636 2.73568L37.6731 2.70938C37.6823 2.68343 37.6731 2.67502 37.6456 2.68413L37.1123 2.85141C37.3229 2.75252 37.5339 2.65433 37.7452 2.55684C38.2732 2.31277 38.993 2.14024 39.3948 1.99296C40.6946 1.5185 42.1428 1.4659 43.5041 1.3365C44.4921 1.24287 45.5661 1.40803 46.5626 1.44065C46.8326 1.44976 47.1037 1.4915 47.3758 1.56584C48.1073 1.76677 48.7975 1.85199 49.4558 2.13919C49.5944 2.1995 49.7354 2.23667 49.8788 2.2507C50.2955 2.29278 50.5139 2.5095 50.8775 2.56315C50.9228 2.56946 50.9365 2.58069 50.9189 2.59682L50.9051 2.60944C50.9034 2.61096 50.9024 2.61297 50.9022 2.61526C50.902 2.61755 50.9026 2.62005 50.904 2.62249C50.9054 2.62494 50.9075 2.62726 50.9101 2.62921C50.9127 2.63117 50.9157 2.63269 50.9189 2.63364L51.5889 2.85877Z" fill="#E9483A"/>
<path d="M57.5513 9.22676C59.0101 12.2808 59.2719 15.8808 58.6952 19.1778C57.7008 24.8566 53.2831 29.3898 47.6589 30.607C45.429 31.0902 43.1355 31.1277 40.7784 30.7195C36.613 29.9978 33.1611 27.575 30.9633 23.9855C31.0227 23.5963 30.5552 22.8862 30.3813 22.5138C30.3304 22.4044 30.3039 22.3104 30.3018 22.2318C30.3011 22.2055 30.2905 22.1803 30.2721 22.1613C30.1293 22.0134 30.0601 21.8377 30.0643 21.6343C30.065 21.6117 30.0583 21.5896 30.0452 21.5712C29.9053 21.3713 29.8364 21.1482 29.8385 20.9021C29.8385 20.886 29.8349 20.8702 29.8279 20.8558C29.8209 20.8414 29.8108 20.8288 29.7982 20.819C29.6936 20.7362 29.6512 20.6264 29.671 20.4897C29.6751 20.464 29.6694 20.438 29.6551 20.4171C29.5279 20.2256 29.5438 20.0005 29.5067 19.8448C29.4409 19.5727 29.3812 19.3002 29.3275 19.0274C29.324 19.0087 29.3255 18.9899 29.3317 18.9727C29.4282 18.6991 29.2989 18.4993 29.2904 18.2983C29.2141 16.5762 29.1621 15.3969 29.3551 13.9388L29.5671 13.1361C29.5706 13.122 29.577 13.1094 29.5862 13.0982C29.7017 12.952 29.672 12.5122 29.7325 12.3428C29.9367 11.7705 30.1081 11.1912 30.2467 10.6049C30.3336 10.3293 30.4732 10.0863 30.6654 9.87586C30.6767 9.86323 30.6849 9.8485 30.6898 9.83167L30.8117 9.36352C30.8172 9.34103 30.8303 9.321 30.8488 9.30671C31.0481 9.14996 31.0344 8.89011 31.2326 8.70075C31.5019 8.28064 31.7797 7.8665 32.0659 7.45832C32.2366 7.2153 32.4274 6.88391 32.6829 6.63038C33.0953 6.22114 33.3402 5.78666 33.8109 5.39951C33.9466 5.2887 34.3195 4.96398 34.9294 4.42534C34.932 4.42313 34.9346 4.42131 34.937 4.42004C34.9394 4.41876 34.9415 4.41806 34.9432 4.41798H34.9739C34.9954 4.41731 35.0164 4.41037 35.0344 4.39799C35.2591 4.23949 35.4927 4.09501 35.7351 3.96456C35.9419 3.85305 36.0691 3.66473 36.297 3.55848C36.3776 3.52131 36.4723 3.4645 36.5812 3.38805C36.7412 3.27759 36.9596 3.29337 37.0731 3.14609C37.0867 3.12708 37.1071 3.11362 37.1303 3.10822C37.3056 3.06123 37.453 2.97005 37.5724 2.83469C37.583 2.82207 37.5964 2.8126 37.6127 2.80629C38.3159 2.52715 39.0347 2.30167 39.7691 2.12984C39.9345 1.96677 40.0935 2.0562 40.2599 1.99097C40.3766 1.94573 40.4444 1.87314 40.5642 1.85C42.105 1.55053 43.6596 1.43726 45.2279 1.5102C45.3473 1.51581 45.4894 1.53439 45.6541 1.56596C46.1153 1.65432 46.6019 1.57542 47.0291 1.68589C47.4829 1.80371 47.8963 1.84369 48.3066 1.96257C48.5179 2.02358 48.7332 2.07057 48.9523 2.10354C48.9605 2.10487 48.9684 2.10803 48.9752 2.11277C48.9819 2.11751 48.9875 2.12371 48.9915 2.13089L49.0053 2.15614C49.0086 2.16203 49.0132 2.16708 49.0187 2.17091C49.0242 2.17474 49.0305 2.17725 49.0371 2.17823C49.3085 2.21891 49.565 2.30447 49.8068 2.43492C49.8248 2.44453 49.8454 2.44856 49.8661 2.44649C49.8948 2.44439 49.935 2.44018 49.9615 2.45176C50.6492 2.75684 51.3398 3.05561 52.0331 3.34808C52.0474 3.35436 52.0601 3.36364 52.0704 3.37528C52.0806 3.38691 52.0882 3.40061 52.0925 3.41541C52.1052 3.45678 52.1314 3.48309 52.1709 3.49431C52.2367 3.51324 52.2713 3.52376 52.2748 3.52587L53.1972 4.21494C53.215 4.22786 53.2281 4.24636 53.2343 4.26754C53.2746 4.39519 53.3583 4.46287 53.4855 4.47058C53.5096 4.47198 53.5324 4.48164 53.5502 4.49793C53.7994 4.72622 54.1206 4.89139 54.3422 5.11126C54.945 5.70811 55.356 6.15837 55.5751 6.46205C55.7999 6.7745 56.0533 7.01016 56.2346 7.29736C56.4402 7.62453 56.6915 7.90648 56.8696 8.23997C57.0406 8.55978 57.2205 8.87468 57.4092 9.18468C57.4209 9.20368 57.4383 9.21858 57.4588 9.22726C57.4793 9.23595 57.5021 9.23798 57.5237 9.23307L57.5513 9.22676ZM39.7182 28.0358C39.6875 28.1831 39.6949 28.2736 39.8179 28.3767C40.0871 28.6007 40.3681 28.8627 40.684 29.0163C40.9226 29.1331 41.1632 29.3235 41.3689 29.4171C42.7619 30.0515 44.1815 30.1493 45.6392 29.92C46.6008 29.7685 47.4521 29.5192 48.12 28.7722C48.5469 28.5064 48.8975 28.1645 49.1717 27.7465C49.7272 27.1616 49.9933 26.5483 50.3962 25.7182C50.5234 25.4559 50.6238 25.2076 50.6973 24.9734C50.7673 24.7483 50.9623 24.4106 50.9475 24.0644C50.9729 23.9803 51.004 23.9031 51.0408 23.833C51.3048 23.3301 51.2072 22.6726 51.3504 22.1971C51.5115 21.6595 51.5539 20.9662 51.6069 20.5686C51.6599 20.1667 51.6903 19.7627 51.6981 19.3567C51.7794 18.1742 51.8066 16.7694 51.7797 15.1423C51.7663 14.328 51.7038 13.6288 51.5921 13.0445C51.5698 12.0798 51.2825 10.7774 51.1023 9.89269C51.0503 9.6381 50.8881 9.22992 50.8733 8.85645C50.873 8.84164 50.8695 8.82711 50.8631 8.81385C50.8567 8.8006 50.8475 8.78893 50.8362 8.77965C50.7464 8.70531 50.7157 8.60887 50.7439 8.49035C50.7488 8.46776 50.7462 8.44418 50.7365 8.42302C50.5485 8.01483 50.3966 7.59438 50.2807 7.16165C50.2584 7.07643 50.2022 7.02594 50.1365 6.97649C50.1254 6.96783 50.1161 6.95706 50.1092 6.94478C50.1023 6.9325 50.0978 6.91897 50.0962 6.90495C50.0764 6.73453 49.9831 6.63318 49.8163 6.60092C48.4762 3.76888 46.041 1.88051 42.7333 2.48332C36.8886 3.54691 36.4804 11.5307 36.4444 15.9376C36.4105 19.8869 36.7402 25.0049 39.7182 28.0358Z" fill="#E9483A"/>
<path d="M26.5872 2.33207C26.0366 2.30191 25.5952 2.28718 25.263 2.28788C17.5259 2.30401 9.78846 2.30261 2.05064 2.28368C1.77571 2.28297 1.63682 2.42044 1.634 2.69607L1.55872 10.1496C1.34881 10.1763 1.18554 10.1682 1.06893 10.1254C1.04843 10.118 1.03078 10.1045 1.01843 10.0868C1.00608 10.069 0.99964 10.048 1.00002 10.0265L1.03924 1.73557C1.03952 1.70758 1.05081 1.68082 1.07067 1.66112C1.09052 1.64142 1.11732 1.63037 1.14526 1.63037H26.4653C26.4928 1.63036 26.5193 1.64101 26.5391 1.66006C26.5589 1.67911 26.5704 1.70507 26.5713 1.73242L26.5872 2.33207ZM75.9942 2.23528C71.3051 2.18058 66.5947 2.19531 61.9056 2.23844C61.8829 2.23842 61.8609 2.24582 61.8431 2.25948C61.6713 2.38782 61.6455 2.54493 61.7657 2.73078L61.2462 2.67923C61.2203 2.67666 61.1963 2.66473 61.1787 2.64572C61.1611 2.62671 61.1512 2.60194 61.1508 2.57614L61.1328 1.73768C61.1325 1.72369 61.135 1.70978 61.1402 1.69677C61.1454 1.68376 61.1532 1.67192 61.1631 1.66192C61.1729 1.65193 61.1847 1.64399 61.1977 1.63858C61.2107 1.63316 61.2247 1.63037 61.2388 1.63037H75.8691C75.8965 1.63035 75.9228 1.64085 75.9426 1.65968C75.9624 1.67851 75.974 1.7042 75.9751 1.73137L75.9942 2.23528ZM39.7693 2.13008C39.035 2.30191 38.3162 2.52739 37.6129 2.80653C37.5967 2.81284 37.5832 2.82231 37.5726 2.83493C37.4532 2.97029 37.3058 3.06147 37.1305 3.10846C37.1073 3.11386 37.087 3.12733 37.0733 3.14633C36.9599 3.29361 36.7415 3.27783 36.5814 3.3883C36.4725 3.46474 36.3778 3.52155 36.2973 3.55872C36.0693 3.66498 35.9421 3.85329 35.7354 3.9648C35.4929 4.09525 35.2593 4.23973 35.0346 4.39823C35.0166 4.41061 34.9956 4.41755 34.9742 4.41822H34.9434C34.9417 4.4183 34.9396 4.419 34.9372 4.42028C34.9348 4.42156 34.9322 4.42337 34.9296 4.42559C34.3197 4.96422 33.9469 5.28894 33.8112 5.39976C33.3404 5.7869 33.0955 6.22138 32.6831 6.63062C32.4276 6.88416 32.2368 7.21554 32.0661 7.45856C31.7799 7.86674 31.5021 8.28089 31.2328 8.70099C31.3601 8.31876 31.5102 8.02209 31.6834 7.81098C31.8424 7.61671 31.9506 7.43717 32.0078 7.27235C32.6467 6.35429 33.3896 5.5288 34.2363 4.7959C34.2967 4.7433 34.3285 4.7696 34.3996 4.70542C34.9986 4.16048 35.712 3.79122 36.3672 3.27994L37.1125 2.85177L37.6458 2.68449C37.6734 2.67538 37.6825 2.68379 37.6734 2.70974L37.6638 2.73604C37.6621 2.74057 37.6592 2.74461 37.6553 2.74775C37.6514 2.75089 37.6467 2.75302 37.6415 2.75393C37.4988 2.77637 37.3719 2.82932 37.2609 2.91278C37.2298 2.93663 37.2323 2.94049 37.2684 2.92436C37.6797 2.74832 38.0911 2.57824 38.5024 2.41413C38.6498 2.35626 38.8205 2.35311 39.0251 2.23739C39.182 2.14902 39.4301 2.11325 39.7693 2.13008Z" fill="#E9483A"/>
<path d="M75.9941 2.23512L75.9983 2.60228C75.9985 2.61609 75.9958 2.6298 75.9906 2.64262C75.9855 2.65543 75.9777 2.66711 75.968 2.67697C75.9583 2.68684 75.9466 2.69471 75.9338 2.70012C75.921 2.70553 75.9073 2.70839 75.8933 2.70853C73.421 2.73588 72.0046 3.20824 72.0025 5.9235C71.9969 12.4523 71.9951 18.9815 71.9972 25.511C71.9972 26.4147 72.0057 27.2816 72.5305 28.0622C72.4655 28.2628 72.5171 28.4202 72.6853 28.5346C72.8521 28.6489 73.0115 28.772 73.1634 28.9038C73.1776 28.9157 73.1938 28.9238 73.2122 28.928C73.3535 28.9568 73.4638 29.0318 73.543 29.1531C73.5507 29.1651 73.5608 29.1754 73.5729 29.1834C73.5849 29.1913 73.5985 29.1968 73.6129 29.1994C73.8843 29.2478 74.0773 29.3825 74.3391 29.4183C74.8954 29.4961 75.4488 29.5862 75.9994 29.6886L75.9856 30.0389C75.9845 30.0661 75.9728 30.0918 75.9531 30.1106C75.9333 30.1295 75.907 30.14 75.8796 30.1399L61.7125 30.1357C61.6751 30.046 61.6694 29.9537 61.6956 29.859C61.7004 29.841 61.7101 29.8246 61.7238 29.8116C61.7374 29.7986 61.7544 29.7896 61.773 29.7854C62.1172 29.7026 62.4649 29.6458 62.8162 29.615C63.2795 29.5739 63.6442 29.3993 64.064 29.2468C64.4043 29.1226 64.6778 28.7492 64.9397 28.5051C64.9569 28.4888 64.9681 28.4673 64.9715 28.4441C64.9969 28.2807 65.0803 28.1534 65.2217 28.0622C65.7295 27.1953 65.5281 25.6415 65.5291 24.6484C65.5299 24.4997 65.4468 24.2381 65.28 23.8636C65.1083 23.4754 65.1369 22.8147 65.1528 22.3739C65.1676 21.937 65.1394 21.5011 65.068 21.0663L65.0616 8.15273C65.1814 8.02859 65.2747 7.93917 65.2768 7.75191C65.2818 6.97762 65.2793 6.20369 65.2694 5.4301C65.2662 5.18709 65.1655 4.92093 65.1379 4.66318C65.136 4.64411 65.1288 4.62596 65.1172 4.61074C65.1056 4.59552 65.09 4.58381 65.0722 4.57692C65.0086 4.55167 64.9521 4.55272 64.9026 4.58007C64.4669 3.0841 63.1544 2.82425 61.7655 2.73062C61.6454 2.54477 61.6712 2.38766 61.8429 2.25932C61.8608 2.24566 61.8828 2.23826 61.9055 2.23828C66.5946 2.19514 71.3049 2.18042 75.9941 2.23512ZM26.587 2.33191L26.6199 10.0621C26.6201 10.0763 26.6173 10.0904 26.6119 10.1035C26.6064 10.1166 26.5983 10.1284 26.5881 10.1384C26.5779 10.1483 26.5658 10.1561 26.5525 10.1612C26.5392 10.1664 26.525 10.1688 26.5107 10.1684L25.7993 10.1474C25.7499 8.92842 25.3947 7.80732 24.7339 6.78405C24.7228 6.76615 24.7169 6.74575 24.7169 6.72514C24.719 6.62695 24.6777 6.56979 24.5929 6.55366C24.577 6.5504 24.5621 6.5436 24.5493 6.53376C24.5364 6.52392 24.526 6.5113 24.5187 6.49685C24.1985 5.86003 23.7896 5.28563 23.292 4.77364C23.2809 4.76223 23.2671 4.75353 23.2519 4.74824C23.2366 4.74295 23.2202 4.7412 23.204 4.74313L23.0164 4.76417C22.4729 4.27744 21.9944 3.94956 21.5809 3.78054C20.3363 3.27206 18.9157 3.02203 17.3191 3.03045C17.2908 3.03072 17.2639 3.04193 17.244 3.06163C17.2242 3.08133 17.213 3.10793 17.213 3.13565C17.2109 10.6618 17.2113 18.1883 17.2141 25.7151C17.2141 26.5147 17.4357 27.5835 17.9848 28.2463C17.8979 28.477 17.9728 28.618 18.2096 28.6692C18.2284 28.6733 18.2459 28.6824 18.2605 28.6955C18.611 29.0223 18.9973 29.2377 19.4192 29.3415C19.9479 29.4712 20.5543 29.5582 21.2385 29.6024C21.2612 29.6037 21.2828 29.6126 21.3 29.6276C21.3756 29.6914 21.4251 29.7658 21.4484 29.8506L21.4304 30.0379C21.4278 30.0642 21.4154 30.0886 21.3958 30.1063C21.3762 30.124 21.3507 30.1337 21.3244 30.1336L6.47777 30.1357C6.53361 30.0312 6.55234 29.9211 6.53396 29.8054C6.53052 29.7841 6.53385 29.7621 6.5435 29.7423C6.65588 29.5164 6.80148 29.3958 6.98029 29.3804C7.79167 29.3137 8.45463 29.2156 8.96917 29.0858C9.14869 29.0402 9.38723 28.9284 9.68478 28.7502L9.65828 28.8512C9.29358 29.0244 8.91757 29.157 8.53026 29.2489C7.68778 29.4495 7.69485 29.4849 8.55146 29.3551C8.60235 29.3474 8.65394 29.3386 8.70625 29.3288C8.8893 29.2959 9.03525 29.2352 9.1441 29.1468C9.15682 29.1356 9.17166 29.1282 9.18862 29.1247C9.37451 29.0848 9.53106 28.9936 9.65828 28.8512C10.3135 28.5693 10.5774 27.7161 10.6103 27.0922C10.6796 26.5536 10.7057 26.0139 10.6888 25.4732C10.6612 24.5748 10.6474 24.1213 10.6474 24.1129C10.6658 17.6206 10.6669 11.1278 10.6506 4.63478C10.6499 4.36686 10.6616 4.09684 10.6856 3.82472C10.6872 3.80426 10.6828 3.78377 10.6731 3.76569C10.6633 3.7476 10.6485 3.73267 10.6305 3.72268C10.5697 3.68971 10.5032 3.67604 10.4311 3.68165L10.428 3.11882C10.428 3.10459 10.4251 3.09051 10.4194 3.07745C10.4137 3.06438 10.4054 3.05261 10.395 3.04285C10.3846 3.03309 10.3722 3.02555 10.3588 3.02071C10.3453 3.01586 10.331 3.01381 10.3166 3.01467C9.87561 3.03781 9.43564 3.06762 8.99673 3.10409C4.77726 3.45862 2.55621 5.98978 2.26254 10.0779C2.26063 10.1055 2.2479 10.1312 2.22707 10.1495C2.20625 10.1678 2.17901 10.1772 2.15123 10.1758L1.55859 10.1495L1.63386 2.69591C1.63669 2.42028 1.77557 2.28281 2.05051 2.28351C9.78833 2.30245 17.5258 2.30385 25.2629 2.28772C25.5951 2.28702 26.0365 2.30175 26.587 2.33191Z" fill="#E9483A"/>
<path d="M36.367 3.27979C35.7118 3.79107 34.9983 4.16033 34.3993 4.70527C34.3283 4.76945 34.2965 4.74314 34.2361 4.79575C33.3894 5.52865 32.6465 6.35414 32.0076 7.2722C31.8825 7.38722 31.768 7.51592 31.6641 7.65829C31.5634 7.79505 31.5708 7.9476 31.4139 8.07173C31.3998 8.08296 31.3892 8.09663 31.3821 8.11276L31.2538 8.41154C31.2455 8.43076 31.2319 8.44689 31.2146 8.45783C31.1701 8.48728 31.1467 8.52726 31.1446 8.57775C31.1437 8.59719 31.1374 8.61598 31.1266 8.63211C31.1158 8.64823 31.1007 8.66108 31.0831 8.66928C31.0057 8.704 30.8192 9.06694 30.7396 9.15531L30.623 9.30575C30.6209 9.13883 30.6789 8.99926 30.7969 8.88705C30.8066 8.87809 30.8145 8.86714 30.8199 8.85485C30.8254 8.84256 30.8284 8.82919 30.8287 8.81551C30.8351 8.68611 31.0301 8.53673 31.0672 8.35894C31.0714 8.34032 31.0802 8.32329 31.0927 8.30949L31.2856 8.09593L32.1189 6.8798C32.6815 6.10761 33.2947 5.45221 33.9583 4.91357C34.3039 4.63233 34.5478 4.42333 34.6898 4.28657C34.7071 4.27081 34.7286 4.26088 34.7513 4.25816C34.8213 4.24975 34.8588 4.21468 34.8637 4.15296C34.8653 4.13714 34.8704 4.12187 34.8787 4.10824C34.8869 4.0946 34.8981 4.08293 34.9114 4.07406L35.4775 3.70059C35.4968 3.68829 35.5195 3.6824 35.5422 3.68376C35.6235 3.68867 35.6829 3.6543 35.7203 3.58066C35.7319 3.55888 35.7506 3.5415 35.7733 3.53122L36.367 3.27979ZM10.4311 3.68166C10.5032 3.67605 10.5696 3.68972 10.6304 3.72269C10.6484 3.73268 10.6632 3.74761 10.673 3.7657C10.6828 3.78378 10.6871 3.80427 10.6855 3.82473C10.6615 4.09685 10.6498 4.36687 10.6505 4.63479C10.6668 11.1279 10.6657 17.6206 10.6473 24.1129C10.6473 24.1213 10.6611 24.5748 10.6887 25.4732C10.7056 26.0139 10.6795 26.5536 10.6102 27.0922C10.5841 26.8706 10.5947 26.6623 10.642 26.4673C10.6512 26.4295 10.6505 26.4291 10.6399 26.4663C10.5459 26.7987 10.4897 27.114 10.4713 27.4121C10.4512 27.7329 10.2084 28.3694 9.92748 28.544C9.90752 28.5563 9.89223 28.5748 9.88401 28.5966C9.8515 28.6864 9.78507 28.7376 9.6847 28.7502C9.38715 28.9284 9.14861 29.0402 8.96909 29.0858C8.45455 29.2156 7.79159 29.3138 6.98021 29.3804C6.8014 29.3958 6.6558 29.5164 6.54342 29.7423C6.53377 29.7621 6.53044 29.7841 6.53388 29.8054C6.55226 29.9211 6.53353 30.0312 6.47769 30.1357C6.43175 30.1505 6.39076 30.1484 6.35471 30.1294C6.33831 30.1205 6.32457 30.1073 6.31489 30.0913C6.30521 30.0752 6.29993 30.0568 6.29959 30.0379L6.29005 29.1752C6.28975 29.1479 6.30021 29.1215 6.31921 29.1016C6.33821 29.0818 6.36426 29.0701 6.39182 29.069C7.53362 29.0259 9.21717 28.9859 9.88826 27.9233C10.4321 27.0617 10.4279 25.6226 10.4279 24.5811C10.4243 17.6146 10.4254 10.6481 10.4311 3.68166ZM65.0615 8.15274C65.0636 6.95905 65.0106 5.76816 64.9025 4.58008C64.952 4.55273 65.0085 4.55168 65.0721 4.57693C65.09 4.58382 65.1055 4.59553 65.1171 4.61075C65.1287 4.62597 65.1359 4.64412 65.1379 4.66319C65.1654 4.92094 65.2661 5.1871 65.2693 5.43011C65.2792 6.2037 65.2817 6.97763 65.2767 7.75192C65.2746 7.93918 65.1813 8.0286 65.0615 8.15274ZM25.7993 10.1474L25.478 10.1411C25.4531 10.1404 25.4291 10.1311 25.4104 10.1148C25.3916 10.0984 25.3791 10.0761 25.3752 10.0516C25.0667 8.00125 24.4762 6.23386 23.0163 4.76418L23.204 4.74314C23.2201 4.74121 23.2365 4.74296 23.2518 4.74825C23.267 4.75354 23.2808 4.76223 23.292 4.77365C23.7895 5.28564 24.1984 5.86004 24.5186 6.49686C24.5259 6.51131 24.5364 6.52393 24.5492 6.53377C24.5621 6.54361 24.577 6.55041 24.5928 6.55367C24.6776 6.5698 24.719 6.62696 24.7168 6.72515C24.7168 6.74576 24.7227 6.76616 24.7338 6.78406C25.3946 7.80733 25.7498 8.92843 25.7993 10.1474ZM49.8163 6.60101C49.9831 6.63327 50.0764 6.73462 50.0962 6.90504C50.0979 6.91906 50.1023 6.93259 50.1092 6.94487C50.1161 6.95715 50.1254 6.96793 50.1365 6.97658C50.2022 7.02603 50.2584 7.07652 50.2807 7.16174C50.3966 7.59447 50.5485 8.01493 50.7365 8.42311C50.7462 8.44427 50.7488 8.46785 50.744 8.49044C50.7157 8.60897 50.7464 8.7054 50.8362 8.77974C50.8475 8.78903 50.8567 8.80069 50.8631 8.81395C50.8695 8.8272 50.873 8.84173 50.8733 8.85654C50.8881 9.23001 51.0503 9.63819 51.1023 9.89278C51.2825 10.7775 51.5698 12.0799 51.5921 13.0446C51.6133 14.2839 51.6356 15.5232 51.6589 16.7625C51.6695 17.339 51.608 17.9954 51.6144 18.6161C51.5868 19.2501 51.5246 19.8821 51.4278 20.5119C51.4207 20.5617 51.4338 20.5676 51.467 20.5297C51.4956 20.4971 51.4522 20.6539 51.4585 20.738C51.4783 21.0179 51.443 21.2851 51.3525 21.5397C51.2726 21.7641 51.2242 21.9419 51.2072 22.0731C51.1295 22.6713 51.0185 23.2636 50.8744 23.8499L50.6348 24.5316C50.5733 24.7063 50.545 24.701 50.5499 24.5159C50.5542 24.3784 50.6072 24.2588 50.709 24.1571C50.7229 24.1427 50.7324 24.1245 50.7365 24.1045C50.7832 23.8867 50.7948 23.7458 50.8892 23.5143C50.9846 23.2787 50.9337 23.0546 51.0037 22.8189C51.1405 22.3582 51.1246 21.91 51.2412 21.4429C51.2914 21.2395 51.3246 21.033 51.3408 20.8233C51.3557 20.6318 51.2571 20.4466 51.3133 20.2173C51.3719 19.9802 51.385 19.7418 51.3525 19.5019C51.3497 19.4834 51.3523 19.4641 51.3599 19.4462C51.4221 19.3003 51.4306 19.1523 51.3854 19.0022C51.3772 18.9759 51.3799 18.9475 51.3928 18.9233C51.4705 18.7725 51.5112 18.6074 51.5147 18.4278C51.515 18.4123 51.5118 18.3969 51.5054 18.3828C51.499 18.3686 51.4895 18.3559 51.4776 18.3458C51.3546 18.2416 51.4013 17.541 51.3981 17.3579C51.4617 13.7432 51.3281 9.96853 49.8163 6.60101Z" fill="#E9483A"/>
<path d="M32.1189 6.87988L31.2856 8.09602C31.3054 7.9796 31.3605 7.88141 31.451 7.80145C31.4644 7.78953 31.4743 7.77515 31.4807 7.75832C31.6107 7.40204 31.8235 7.10922 32.1189 6.87988ZM32.0076 7.27229C31.9504 7.4371 31.8422 7.61665 31.6832 7.81092C31.51 8.02203 31.3598 8.3187 31.2326 8.70093C31.0344 8.89029 31.0481 9.15014 30.8488 9.30689C30.8303 9.32118 30.8172 9.34121 30.8117 9.3637L30.6898 9.83185C30.6849 9.84868 30.6767 9.86341 30.6654 9.87604C30.4732 10.0864 30.3336 10.3295 30.2467 10.6051C30.2438 10.3793 30.3159 10.1482 30.4629 9.9118C30.5831 9.71893 30.6753 9.4668 30.7396 9.1554C30.8191 9.06703 31.0057 8.70409 31.0831 8.66937C31.1007 8.66117 31.1158 8.64832 31.1266 8.63219C31.1374 8.61607 31.1437 8.59728 31.1446 8.57784C31.1467 8.52735 31.1701 8.48737 31.2146 8.45791C31.2319 8.44698 31.2455 8.43085 31.2538 8.41162L31.3821 8.11285C31.3892 8.09672 31.3998 8.08304 31.4139 8.07182C31.5708 7.94768 31.5634 7.79514 31.6641 7.65838C31.768 7.516 31.8825 7.38731 32.0076 7.27229Z" fill="#E9483A"/>
<path d="M30.7395 9.15527C30.6752 9.46667 30.5829 9.71881 30.4628 9.91168C30.3158 10.148 30.2437 10.3791 30.2465 10.605C30.108 11.1913 29.9366 11.7706 29.7323 12.3429C29.6719 12.5123 29.7016 12.952 29.586 13.0982C29.5768 13.1095 29.5705 13.1221 29.5669 13.1361L29.3549 13.9388C29.3514 13.7018 29.3496 13.4643 29.3496 13.2266C29.3496 12.8573 29.5744 12.5775 29.5648 12.163C29.5645 12.1482 29.569 12.1336 29.5779 12.1216C29.5867 12.1096 29.5992 12.1009 29.6136 12.0967L29.6433 12.0883C29.6486 12.0871 29.6534 12.0843 29.657 12.0803C29.6606 12.0763 29.6629 12.0714 29.6634 12.0662C29.72 11.6678 29.8277 11.2846 29.9868 10.9164C30.003 10.8778 30.0119 10.7947 30.0133 10.667C30.0133 10.6413 30.0227 10.6165 30.0398 10.5976C30.2327 10.3872 30.2083 10.0863 30.3801 9.84434C30.3912 9.82849 30.3978 9.81033 30.3992 9.79174C30.4154 9.60238 30.49 9.44037 30.6229 9.30571L30.7395 9.15527ZM51.5919 13.0446C51.7036 13.6288 51.7662 14.3281 51.7796 15.1423C51.8064 16.7694 51.7792 18.1742 51.698 19.3567L51.7064 18.5603C51.7079 18.4271 51.6852 18.4232 51.6386 18.5488L51.6142 18.6161C51.6078 17.9954 51.6693 17.3389 51.6587 16.7624C51.6354 15.5231 51.6131 14.2839 51.5919 13.0446ZM51.3979 17.3579C51.4011 17.5409 51.3545 18.2416 51.4774 18.3457C51.4894 18.3559 51.4989 18.3685 51.5053 18.3827C51.5117 18.3969 51.5148 18.4123 51.5145 18.4278C51.511 18.6073 51.4704 18.7725 51.3926 18.9233C51.3797 18.9475 51.3771 18.9758 51.3852 19.0022C51.4304 19.1523 51.422 19.3002 51.3598 19.4461C51.3521 19.464 51.3496 19.4833 51.3523 19.5019C51.3849 19.7417 51.3718 19.9802 51.3131 20.2173C51.2569 20.4466 51.3555 20.6318 51.3407 20.8232C51.3244 21.0329 51.2912 21.2395 51.241 21.4429C51.1244 21.91 51.1403 22.3581 51.0035 22.8189C50.9336 23.0546 50.9845 23.2786 50.889 23.5143C50.7947 23.7457 50.783 23.8867 50.7364 24.1045C50.7322 24.1244 50.7227 24.1426 50.7088 24.1571C50.607 24.2588 50.554 24.3783 50.5498 24.5158C50.5448 24.701 50.5731 24.7062 50.6346 24.5316L50.8742 23.8499C50.8975 24.0456 50.8799 24.2328 50.8212 24.4117C50.8028 24.4678 50.8148 24.4755 50.8572 24.4348C50.889 24.4053 50.8997 24.1497 50.9474 24.0645C50.9622 24.4106 50.7671 24.7483 50.6972 24.9734C50.6236 25.2077 50.5233 25.456 50.3961 25.7183C49.9932 26.5483 49.7271 27.1616 49.1716 27.7466C48.8811 27.9296 48.6337 28.1576 48.4295 28.4304C47.4361 29.2646 46.1013 29.959 44.9351 29.9358C44.7623 29.9327 43.241 29.9221 43.2134 29.8601C43.209 29.8501 43.2017 29.8417 43.1925 29.8359C43.1832 29.8301 43.1724 29.8272 43.1615 29.8275C42.606 29.8453 42.2635 29.5666 41.8034 29.5623C41.7768 29.5623 41.7511 29.5522 41.7313 29.5339C41.585 29.3986 41.4182 29.3032 41.2309 29.2478C41.2081 29.2412 41.1882 29.227 41.1745 29.2077C41.1609 29.1884 41.1542 29.1651 41.1556 29.1415C41.1592 29.0735 41.1291 29.0132 41.0655 28.9606C41.7525 29.3014 42.5275 29.5041 43.3905 29.5687C50.1777 30.0799 51.2537 22.1645 51.3979 17.3579ZM50.1597 25.8266C50.1455 25.8982 50.1165 25.9613 50.0727 26.016C50.057 26.0349 50.0487 26.0592 50.0494 26.0844C50.0522 26.1973 50.1112 26.1261 50.2264 25.8708C50.2347 25.8516 50.2373 25.8308 50.2339 25.8108C50.2148 25.6965 50.2434 25.5966 50.3197 25.511C50.3342 25.4953 50.3431 25.475 50.3452 25.4532L50.3759 25.1765C50.378 25.156 50.3861 25.1365 50.3992 25.1207C50.4586 25.0506 50.501 24.9727 50.5265 24.8872C50.5547 24.796 50.5417 24.79 50.4872 24.8693L50.412 24.9787C50.4056 24.9878 50.401 24.9973 50.3982 25.0071C50.2763 25.3985 50.0621 25.7099 49.9148 26.0833C49.9105 26.0945 49.9063 26.1054 49.902 26.1159C49.7593 26.4666 49.7801 26.4768 49.9646 26.1464C50.019 26.049 50.0731 25.943 50.1268 25.8287C50.1649 25.7488 50.1759 25.7481 50.1597 25.8266Z" fill="#E9483A"/>
<path d="M51.6981 19.3568C51.6903 19.7629 51.6599 20.1669 51.6069 20.5687C51.5539 20.9664 51.5115 21.6597 51.3503 22.1973C51.2072 22.6728 51.3048 23.3303 51.0408 23.8332C51.004 23.9033 50.9729 23.9804 50.9475 24.0646C50.8998 24.1498 50.8892 24.4055 50.8574 24.4349C50.815 24.4756 50.8029 24.4679 50.8213 24.4118C50.88 24.2329 50.8977 24.0457 50.8743 23.85C51.0185 23.2637 51.1295 22.6714 51.2072 22.0731C51.2242 21.942 51.2726 21.7642 51.3525 21.5398C51.4429 21.2852 51.4783 21.018 51.4585 20.7381C51.4521 20.654 51.4956 20.4972 51.467 20.5298C51.4337 20.5677 51.4207 20.5617 51.4277 20.5119C51.5246 19.8821 51.5868 19.2502 51.6143 18.6162L51.6387 18.5489C51.6854 18.4233 51.708 18.4272 51.7066 18.5604L51.6981 19.3568ZM65.0679 21.0664C65.1392 21.5012 65.1675 21.9371 65.1527 22.374C65.1368 22.8148 65.1082 23.4755 65.2799 23.8637C65.4467 24.2382 65.5297 24.4998 65.529 24.6485C65.528 25.6416 65.7294 27.1954 65.2216 28.0623C65.2908 27.6955 65.3566 27.3262 65.4188 26.9545C65.4209 26.9398 65.422 26.9243 65.422 26.9082C65.4043 23.6273 65.3887 23.6424 65.3753 26.9535C65.3754 26.9687 65.3712 26.9836 65.3634 26.9966C65.3555 27.0096 65.3442 27.0201 65.3308 27.0271C65.2863 27.0502 65.2739 27.0888 65.2937 27.1428C65.2993 27.1582 65.3011 27.174 65.299 27.1902L65.2587 27.5447C65.2566 27.5653 65.2481 27.5851 65.2343 27.6015C65.1453 27.7032 65.0997 27.8214 65.0975 27.956C65.0968 27.9736 65.0922 27.99 65.0838 28.0055C64.9276 28.2853 64.7226 28.5234 64.4689 28.7198C64.519 28.6251 64.5904 28.5473 64.683 28.4862C64.6974 28.4769 64.7092 28.4642 64.7175 28.4494C64.7258 28.4345 64.7304 28.4179 64.7307 28.401C64.7336 28.3134 64.7749 28.2425 64.8548 28.1885C64.8714 28.1775 64.8843 28.1622 64.8919 28.1443C65.1428 27.5994 65.2693 27.2231 65.2714 27.0155C65.2799 26.2486 65.2237 25.4301 65.3 24.6716C65.3184 24.4893 65.2343 24.3651 65.0477 24.2992C65.0088 23.2226 65.0156 22.145 65.0679 21.0664Z" fill="#E9483A"/>
<path d="M65.0482 24.2988C65.2348 24.3648 65.3189 24.4889 65.3006 24.6712C65.2242 25.4297 65.2804 26.2482 65.2719 27.0151C65.2698 27.2227 65.1433 27.599 64.8924 28.144C64.8848 28.1618 64.8719 28.1772 64.8553 28.1881C64.7754 28.2421 64.7341 28.313 64.7313 28.4007C64.7309 28.4176 64.7264 28.4342 64.7181 28.449C64.7098 28.4638 64.6979 28.4765 64.6835 28.4859C64.591 28.5469 64.5196 28.6247 64.4694 28.7194C63.7393 29.2104 62.9293 29.4351 62.0395 29.3938C62.0126 29.3924 61.9875 29.3959 61.9642 29.4043C61.7592 29.4779 61.7681 29.5116 61.9907 29.5053C62.6841 29.4863 64.0633 29.3128 64.4694 28.7194C64.7231 28.523 64.9281 28.2849 65.0843 28.0051C65.0928 27.9897 65.0974 27.9732 65.0981 27.9556C65.1002 27.821 65.1458 27.7028 65.2348 27.6011C65.2486 27.5847 65.2571 27.5649 65.2592 27.5443L65.2995 27.1898C65.3016 27.1736 65.2999 27.1579 65.2942 27.1424C65.2744 27.0884 65.2868 27.0499 65.3313 27.0267C65.3448 27.0198 65.356 27.0092 65.3639 26.9962C65.3717 26.9832 65.3759 26.9683 65.3758 26.9531C65.3893 23.642 65.4048 23.6269 65.4225 26.9078C65.4225 26.924 65.4214 26.9394 65.4193 26.9541C65.3571 27.3258 65.2914 27.6951 65.2221 28.0619C65.0808 28.1531 64.9974 28.2804 64.9719 28.4438C64.9685 28.467 64.9573 28.4885 64.9401 28.5048C64.6782 28.7489 64.4047 29.1223 64.0644 29.2465C63.6446 29.399 63.2799 29.5737 62.8166 29.6147C62.4653 29.6455 62.1176 29.7023 61.7734 29.7851C61.7549 29.7893 61.7378 29.7983 61.7242 29.8113C61.7106 29.8243 61.7008 29.8407 61.696 29.8587C61.6698 29.9534 61.6755 30.0457 61.713 30.1354L61.2603 30.1302C61.2327 30.1299 61.2063 30.119 61.1867 30.0997C61.1671 30.0805 61.1559 30.0544 61.1553 30.0271L61.1341 29.1823C61.1335 29.1546 61.144 29.1277 61.1633 29.1077C61.1825 29.0876 61.209 29.0758 61.2369 29.075C61.6695 29.0631 62.0999 29.0312 62.5282 28.9793C65.2232 28.6531 65.0716 26.5396 65.0482 24.2988ZM50.1274 25.8285C50.0737 25.9428 50.0197 26.0487 49.9652 26.1462C49.7808 26.4765 49.7599 26.4663 49.9027 26.1157C49.9069 26.1051 49.9112 26.0943 49.9154 26.0831C50.0628 25.7096 50.2769 25.3982 50.3988 25.0068C50.4017 24.997 50.4063 24.9875 50.4126 24.9784L50.4879 24.869C50.5423 24.7898 50.5554 24.7957 50.5271 24.8869C50.5017 24.9725 50.4593 25.0503 50.3999 25.1205C50.3867 25.1363 50.3786 25.1557 50.3766 25.1762L50.3458 25.4529C50.3438 25.4747 50.3348 25.495 50.3204 25.5108C50.2441 25.5963 50.2154 25.6963 50.2345 25.8106C50.238 25.8305 50.2354 25.8513 50.2271 25.8705C50.1119 26.1258 50.0529 26.197 50.05 26.0841C50.0494 26.0589 50.0577 26.0346 50.0734 26.0157C50.1172 25.961 50.1462 25.8979 50.1603 25.8264C50.1766 25.7478 50.1656 25.7485 50.1274 25.8285ZM10.6107 27.0919C10.5779 27.7158 10.3139 28.569 9.65869 28.8509L9.6852 28.7499C9.78556 28.7373 9.852 28.6861 9.88451 28.5963C9.89273 28.5745 9.90802 28.556 9.92798 28.5437C10.2089 28.3691 10.4517 27.7326 10.4718 27.4118C10.4902 27.1137 10.5464 26.7984 10.6404 26.466C10.651 26.4288 10.6517 26.4292 10.6425 26.467C10.5952 26.662 10.5846 26.8703 10.6107 27.0919ZM49.1722 27.7463C48.898 28.1643 48.5474 28.5062 48.1205 28.772L48.4301 28.4301C48.6344 28.1573 48.8817 27.9293 49.1722 27.7463Z" fill="#E9483A"/>
<path d="M39.7184 28.0356C40.1284 28.4003 40.5775 28.7086 41.0659 28.9604C41.1295 29.013 41.1596 29.0733 41.156 29.1413C41.1546 29.1649 41.1613 29.1882 41.1749 29.2075C41.1886 29.2268 41.2085 29.2409 41.2313 29.2476C41.4186 29.303 41.5854 29.3984 41.7317 29.5337C41.7514 29.552 41.7772 29.5621 41.8038 29.5621C42.2639 29.5663 42.6063 29.8451 43.1619 29.8272C43.1728 29.8269 43.1836 29.8299 43.1928 29.8357C43.2021 29.8415 43.2094 29.8499 43.2138 29.8598C43.2414 29.9219 44.7627 29.9324 44.9355 29.9356C46.1017 29.9587 47.4365 29.2644 48.4298 28.4302L48.1203 28.7721C47.4524 29.519 46.6011 29.7683 45.6395 29.9198C44.1818 30.1492 42.7622 30.0513 41.3691 29.4169C41.1634 29.3233 40.9228 29.1329 40.6843 29.0161C40.3683 28.8625 40.0874 28.6006 39.8181 28.3765C39.6951 28.2734 39.6877 28.1829 39.7184 28.0356ZM72.5306 28.0619C72.7914 28.3656 73.0911 28.5767 73.4297 28.6953C74.1817 28.959 74.9962 29.0859 75.8734 29.0761C75.9009 29.0758 75.9275 29.0863 75.9475 29.1054C75.9675 29.1244 75.9793 29.1505 75.9804 29.1781L75.9995 29.6884C75.4489 29.586 74.8955 29.4958 74.3393 29.418C74.0774 29.3822 73.8845 29.2476 73.6131 29.1992C73.5987 29.1965 73.5851 29.1911 73.573 29.1831C73.561 29.1751 73.5508 29.1649 73.5431 29.1529C73.464 29.0316 73.3537 28.9565 73.2123 28.9278C73.194 28.9236 73.1777 28.9155 73.1636 28.9036C73.0116 28.7717 72.8522 28.6486 72.6854 28.5343C72.5172 28.42 72.4656 28.2625 72.5306 28.0619ZM17.985 28.246C18.7441 28.9604 20.2771 29.074 21.3076 29.0561C21.3351 29.0555 21.3619 29.0656 21.3821 29.0843C21.4023 29.103 21.4143 29.1287 21.4157 29.156L21.4486 29.8504C21.4252 29.7655 21.3758 29.6912 21.3001 29.6274C21.283 29.6123 21.2613 29.6035 21.2387 29.6021C20.5545 29.5579 19.9481 29.471 19.4194 29.3412C18.9975 29.2374 18.6112 29.0221 18.2606 28.6953C18.2461 28.6821 18.2285 28.6731 18.2097 28.669C17.973 28.6178 17.8981 28.4768 17.985 28.246ZM64.4691 28.7195C64.0631 29.3128 62.6838 29.4864 61.9905 29.5053C61.7678 29.5116 61.759 29.478 61.964 29.4043C61.9873 29.3959 62.0124 29.3924 62.0392 29.3938C62.9291 29.4352 63.739 29.2104 64.4691 28.7195ZM9.65843 28.851C9.53121 28.9933 9.37466 29.0845 9.18878 29.1245C9.17182 29.128 9.15697 29.1354 9.14425 29.1466C9.03541 29.2349 8.88946 29.2956 8.7064 29.3286C8.6541 29.3384 8.6025 29.3472 8.55162 29.3549C7.695 29.4846 7.68793 29.4492 8.53041 29.2486C8.91773 29.1567 9.29373 29.0242 9.65843 28.851Z" fill="#E9483A"/>
</svg>
