<svg width="77" height="32" viewBox="0 0 77 32" fill="none" xmlns="http://www.w3.org/2000/svg">
<path d="M30.9639 23.9853C33.1616 27.5748 36.6135 29.9976 40.7789 30.7193C43.136 31.1275 45.4295 31.09 47.6594 30.6068C53.2836 29.3896 57.7013 24.8564 58.6957 19.1776C59.2725 15.8806 59.0106 12.2806 57.5518 9.22656" stroke="black" stroke-width="2"/>
<path d="M57.5518 9.22668C56.4164 6.57033 54.0702 4.26957 51.5894 2.85881C49.7052 1.82713 47.6022 1.22502 45.2804 1.05249C34.9459 0.285569 27.8862 8.01581 28.9718 18.1268C29.2001 20.2483 29.8641 22.2012 30.9639 23.9855" stroke="black" stroke-width="2"/>
<path d="M51.5892 2.85865L50.9192 2.63351C50.9161 2.63257 50.9131 2.63105 50.9105 2.62909C50.9078 2.62714 50.9057 2.62482 50.9043 2.62237C50.9029 2.61992 50.9023 2.61743 50.9025 2.61514C50.9027 2.61285 50.9037 2.61084 50.9054 2.60932L50.9192 2.5967C50.9369 2.58056 50.9231 2.56934 50.8779 2.56303C50.5142 2.50938 50.2958 2.29266 49.8792 2.25058C49.7357 2.23655 49.5947 2.19938 49.4562 2.13907C48.7978 1.85186 48.1077 1.76665 47.3761 1.56572C47.104 1.49137 46.833 1.44964 46.563 1.44053C45.5664 1.40791 44.4925 1.24275 43.5044 1.33638C42.1431 1.46577 40.695 1.51837 39.3952 1.99284C38.9934 2.14012 38.2735 2.31265 37.7456 2.55672C37.5342 2.6542 37.3233 2.75239 37.1127 2.85128L36.3674 3.27945L35.7737 3.53089C35.7509 3.54117 35.7323 3.55855 35.7207 3.58033C35.6832 3.65397 35.6238 3.68834 35.5425 3.68343C35.5198 3.68207 35.4971 3.68796 35.4779 3.70026L34.9117 4.07373C34.8984 4.0826 34.8873 4.09427 34.879 4.10791C34.8708 4.12154 34.8657 4.13681 34.864 4.15263C34.8591 4.21435 34.8216 4.24942 34.7517 4.25783C34.7289 4.26055 34.7074 4.27048 34.6902 4.28624C34.5481 4.423 34.3043 4.632 33.9587 4.91324C33.295 5.45188 32.6819 6.10728 32.1193 6.87947C31.8238 7.10881 31.6111 7.40162 31.481 7.7579C31.4747 7.77473 31.4648 7.78911 31.4514 7.80104C31.3609 7.88099 31.3058 7.97918 31.286 8.0956L31.093 8.30916C31.0805 8.32296 31.0718 8.33999 31.0676 8.35861C31.0305 8.5364 30.8354 8.68578 30.829 8.81518C30.8287 8.82886 30.8257 8.84223 30.8203 8.85452C30.8148 8.86681 30.807 8.87776 30.7972 8.88672C30.6792 8.99893 30.6212 9.1385 30.6234 9.30542C30.4905 9.44008 30.4159 9.60209 30.3997 9.79145C30.3983 9.81004 30.3917 9.82821 30.3806 9.84406C30.2088 10.086 30.2332 10.3869 30.0403 10.5973C30.0232 10.6163 30.0138 10.641 30.0138 10.6667C30.0124 10.7944 30.0035 10.8775 29.9873 10.9161C29.8282 11.2843 29.7205 11.6676 29.6639 12.0659C29.6634 12.0711 29.6611 12.076 29.6575 12.08C29.6539 12.084 29.6491 12.0868 29.6438 12.088L29.6141 12.0964C29.5997 12.1006 29.5872 12.1094 29.5783 12.1213C29.5695 12.1333 29.5649 12.1479 29.5653 12.1627C29.5749 12.5772 29.3501 12.857 29.3501 13.2263C29.3501 13.4641 29.3519 13.7015 29.3554 13.9385" stroke="black" stroke-width="2"/>
<path d="M29.3555 13.9385C29.1626 15.3966 29.2145 16.5759 29.2909 18.298C29.2994 18.499 29.4287 18.6989 29.3322 18.9724C29.326 18.9896 29.3245 19.0085 29.328 19.0271C29.3817 19.2999 29.4414 19.5724 29.5071 19.8445C29.5442 20.0002 29.5283 20.2253 29.6556 20.4168C29.6699 20.4377 29.6756 20.4637 29.6715 20.4894C29.6517 20.6262 29.6941 20.7359 29.7987 20.8187C29.8113 20.8286 29.8214 20.8412 29.8284 20.8556C29.8354 20.8699 29.839 20.8858 29.839 20.9018C29.8369 21.148 29.9058 21.371 30.0457 21.5709C30.0588 21.5893 30.0655 21.6115 30.0648 21.634C30.0606 21.8374 30.1298 22.0131 30.2726 22.1611C30.291 22.18 30.3016 22.2052 30.3023 22.2315C30.3044 22.3101 30.3309 22.4041 30.3818 22.5135C30.5556 22.8859 31.0232 23.596 30.9638 23.9853" stroke="black" stroke-width="2"/>
<path d="M32.0081 7.27229C31.883 7.38731 31.7685 7.516 31.6646 7.65838C31.5639 7.79514 31.5713 7.94768 31.4144 8.07182C31.4003 8.08304 31.3897 8.09672 31.3826 8.11285L31.2543 8.41162C31.246 8.43085 31.2324 8.44698 31.2151 8.45791C31.1706 8.48737 31.1473 8.52735 31.1451 8.57784C31.1442 8.59728 31.1379 8.61607 31.1271 8.63219C31.1163 8.64832 31.1013 8.66117 31.0837 8.66937C31.0063 8.70409 30.8197 9.06703 30.7402 9.1554L30.6235 9.30584M31.2861 8.09602L32.1194 6.87988" stroke="black" stroke-width="2"/>
<path d="M31.2334 8.70072C31.3606 8.31849 31.5108 8.02182 31.684 7.81071C31.843 7.61644 31.9511 7.43689 32.0084 7.27208C32.6473 6.35402 33.3901 5.52853 34.2369 4.79562C34.2973 4.74302 34.3291 4.76932 34.4001 4.70515C34.9991 4.1602 35.7126 3.79094 36.3678 3.27966" stroke="black" stroke-width="2"/>
<path d="M57.5517 9.22688L57.5242 9.23319C57.5025 9.2381 57.4798 9.23607 57.4592 9.22738C57.4387 9.2187 57.4214 9.20381 57.4097 9.1848C57.221 8.87481 57.0411 8.5599 56.87 8.24009C56.6919 7.9066 56.4407 7.62466 56.235 7.29748C56.0537 7.01028 55.8003 6.77462 55.5756 6.46217C55.3565 6.15849 54.9455 5.70823 54.3426 5.11138C54.121 4.89151 53.7998 4.72634 53.5507 4.49805C53.5329 4.48176 53.51 4.4721 53.486 4.4707C53.3588 4.46299 53.275 4.39531 53.2347 4.26766C53.2285 4.24648 53.2155 4.22798 53.1976 4.21506L52.2753 3.52599C52.2717 3.52389 52.2371 3.51337 52.1714 3.49443C52.1318 3.48321 52.1056 3.45691 52.0929 3.41553C52.0886 3.40073 52.0811 3.38703 52.0708 3.3754C52.0606 3.36376 52.0479 3.35448 52.0336 3.3482C51.3402 3.05574 50.6497 2.75696 49.962 2.45188C49.9355 2.44031 49.8952 2.44451 49.8666 2.44662C49.8459 2.44868 49.8252 2.44465 49.8072 2.43504C49.5655 2.30459 49.3089 2.21903 49.0375 2.17835C49.0309 2.17737 49.0246 2.17487 49.0191 2.17104C49.0136 2.16721 49.009 2.16215 49.0057 2.15626L48.9919 2.13101C48.988 2.12383 48.9824 2.11764 48.9756 2.1129C48.9688 2.10816 48.961 2.105 48.9527 2.10366C48.7336 2.0707 48.5184 2.02371 48.3071 1.96269C47.8968 1.84381 47.4833 1.80383 47.0296 1.68601C46.6023 1.57555 46.1157 1.65445 45.6545 1.56608C45.4898 1.53452 45.3478 1.51593 45.2283 1.51032C43.66 1.43738 42.1054 1.55065 40.5647 1.85012C40.4449 1.87327 40.377 1.94586 40.2604 1.99109C40.0939 2.05632 39.9349 1.9669 39.7695 2.12996" stroke="black" stroke-width="2"/>
<path d="M39.7696 2.12977C39.4303 2.11294 39.1822 2.14871 39.0253 2.23708C38.8207 2.3528 38.65 2.35596 38.5027 2.41382C38.0913 2.57793 37.68 2.74801 37.2686 2.92405C37.2326 2.94018 37.2301 2.93632 37.2612 2.91247C37.3722 2.82901 37.499 2.77606 37.6418 2.75362C37.6469 2.75271 37.6517 2.75058 37.6556 2.74744C37.6595 2.7443 37.6624 2.74027 37.6641 2.73573L37.6736 2.70943C37.6828 2.68348 37.6736 2.67507 37.6461 2.68419L37.1128 2.85146" stroke="black" stroke-width="2"/>
<path d="M29.3555 13.9387L29.5675 13.136C29.571 13.122 29.5774 13.1093 29.5866 13.0981C29.7021 12.9519 29.6725 12.5121 29.7329 12.3428C29.9371 11.7705 30.1085 11.1912 30.2471 10.6048C30.334 10.3292 30.4736 10.0862 30.6658 9.87578C30.6772 9.86316 30.6853 9.84843 30.6902 9.83159L30.8121 9.36345C30.8176 9.34095 30.8307 9.32093 30.8492 9.30664C31.0486 9.14989 31.0348 8.89004 31.233 8.70067C31.5023 8.28057 31.7801 7.86642 32.0663 7.45824C32.237 7.21522 32.4278 6.88384 32.6833 6.6303C33.0957 6.22106 33.3406 5.78658 33.8114 5.39944C33.9471 5.28862 34.3199 4.9639 34.9298 4.42527C34.9324 4.42305 34.935 4.42124 34.9374 4.41996C34.9398 4.41868 34.9419 4.41798 34.9436 4.4179H34.9744C34.9958 4.41723 35.0168 4.41029 35.0348 4.39791C35.2595 4.23941 35.4931 4.09493 35.7356 3.96448C35.9423 3.85297 36.0695 3.66466 36.2975 3.5584C36.378 3.52123 36.4727 3.46442 36.5816 3.38798C36.7417 3.27751 36.9601 3.29329 37.0735 3.14601C37.0872 3.12701 37.1075 3.11355 37.1307 3.10814C37.306 3.06115 37.4534 2.96997 37.5728 2.83461C37.5834 2.82199 37.5969 2.81252 37.6131 2.80621C38.3164 2.52707 39.0352 2.30159 39.7695 2.12976" stroke="black" stroke-width="2"/>
<path d="M30.2476 10.6052C30.2448 10.3794 30.3169 10.1483 30.4639 9.91192C30.5841 9.71905 30.6763 9.46692 30.7406 9.15552" stroke="black" stroke-width="2"/>
<path d="M1.55908 10.1491L2.15172 10.1754C2.1795 10.1769 2.20674 10.1674 2.22756 10.1491C2.24838 10.1308 2.26112 10.1051 2.26303 10.0776C2.5567 5.98946 4.77775 3.4583 8.99722 3.10377C9.43613 3.0673 9.8761 3.0375 10.3171 3.01435C10.3314 3.01349 10.3458 3.01554 10.3593 3.02039C10.3727 3.02524 10.3851 3.03277 10.3955 3.04253C10.4059 3.05229 10.4142 3.06407 10.4199 3.07713C10.4256 3.0902 10.4285 3.10428 10.4284 3.1185L10.4316 3.68133" stroke="black" stroke-width="2"/>
<path d="M10.4316 3.6814C10.4259 10.6479 10.4248 17.6143 10.4284 24.5808C10.4284 25.6223 10.4326 27.0615 9.88874 27.9231C9.21766 28.9856 7.53411 29.0256 6.39231 29.0687C6.36475 29.0698 6.3387 29.0815 6.3197 29.1014C6.3007 29.1212 6.29024 29.1476 6.29053 29.175L6.30007 30.0376C6.30042 30.0565 6.3057 30.0749 6.31538 30.091C6.32506 30.1071 6.3388 30.1202 6.3552 30.1292C6.39125 30.1481 6.43224 30.1502 6.47818 30.1355" stroke="black" stroke-width="2"/>
<path d="M6.47852 30.1353L21.3251 30.1332C21.3515 30.1333 21.377 30.1236 21.3966 30.1059C21.4162 30.0882 21.4285 30.0638 21.4311 30.0375L21.4492 29.8502" stroke="black" stroke-width="2"/>
<path d="M21.4489 29.8507L21.4161 29.1563C21.4147 29.129 21.4026 29.1033 21.3824 29.0846C21.3622 29.0659 21.3355 29.0558 21.3079 29.0564C20.2774 29.0743 18.7444 28.9607 17.9854 28.2463" stroke="black" stroke-width="2"/>
<path d="M17.9856 28.246C17.4364 27.5832 17.2148 26.5143 17.2148 25.7148C17.212 18.188 17.2116 10.6615 17.2138 3.13531C17.2138 3.10759 17.2249 3.08099 17.2448 3.06129C17.2646 3.0416 17.2916 3.03039 17.3198 3.03011C18.9164 3.0217 20.337 3.27173 21.5817 3.7802C21.9951 3.94923 22.4736 4.27711 23.0171 4.76384" stroke="black" stroke-width="2"/>
<path d="M23.0171 4.76392C24.4769 6.23359 25.0675 8.00098 25.376 10.0514C25.3799 10.0758 25.3923 10.0982 25.4111 10.1145C25.4299 10.1308 25.4538 10.1401 25.4788 10.1408L25.8 10.1471" stroke="black" stroke-width="2"/>
<path d="M25.7998 10.1474L26.5112 10.1684C26.5255 10.1688 26.5397 10.1664 26.553 10.1612C26.5663 10.1561 26.5784 10.1483 26.5886 10.1384C26.5988 10.1284 26.6069 10.1166 26.6123 10.1035C26.6178 10.0904 26.6205 10.0763 26.6204 10.0621L26.5875 2.33191" stroke="black" stroke-width="2"/>
<path d="M26.5877 2.33195L26.5718 1.7323C26.5709 1.70494 26.5594 1.67899 26.5396 1.65994C26.5198 1.64089 26.4933 1.63024 26.4657 1.63025H1.14575C1.11781 1.63025 1.09101 1.6413 1.07115 1.661C1.0513 1.6807 1.04001 1.70746 1.03973 1.73545L1.0005 10.0264C1.00013 10.0479 1.00657 10.0689 1.01892 10.0866C1.03127 10.1044 1.04892 10.1179 1.06941 10.1253C1.18603 10.1681 1.3493 10.1762 1.55921 10.1495" stroke="black" stroke-width="2"/>
<path d="M26.5875 2.33196C26.037 2.30181 25.5956 2.28708 25.2634 2.28778C17.5263 2.30391 9.78881 2.30251 2.051 2.28357C1.77606 2.28287 1.63718 2.42033 1.63435 2.69596L1.55908 10.1495M25.7998 10.1474C25.7504 8.92848 25.3952 7.80738 24.7344 6.78411C24.7233 6.7662 24.7174 6.74581 24.7174 6.7252C24.7195 6.62701 24.6782 6.56985 24.5934 6.55372C24.5775 6.55046 24.5626 6.54365 24.5498 6.53382C24.5369 6.52398 24.5265 6.51136 24.5191 6.49691C24.199 5.86009 23.7901 5.28568 23.2925 4.7737C23.2814 4.76228 23.2676 4.75359 23.2523 4.7483C23.2371 4.743 23.2207 4.74126 23.2045 4.74319L23.0169 4.76423M17.9853 28.2464C17.8984 28.4771 17.9733 28.6181 18.2101 28.6693C18.2288 28.6734 18.2464 28.6825 18.261 28.6956C18.6115 29.0224 18.9978 29.2377 19.4197 29.3415C19.9484 29.4713 20.5548 29.5582 21.239 29.6024C21.2617 29.6038 21.2833 29.6126 21.3005 29.6277C21.3761 29.6915 21.4256 29.7658 21.4489 29.8507M6.47826 30.1358C6.5341 30.0313 6.55283 29.9212 6.53445 29.8054C6.53101 29.7842 6.53434 29.7622 6.54399 29.7423C6.65637 29.5165 6.80197 29.3959 6.98078 29.3804C7.79216 29.3138 8.45512 29.2156 8.96966 29.0859C9.14918 29.0403 9.38772 28.9284 9.68527 28.7503L9.65877 28.8513" stroke="black" stroke-width="2"/>
<path d="M9.65892 28.8511C9.29422 29.0243 8.91821 29.1569 8.5309 29.2487C7.68842 29.4493 7.69549 29.4848 8.5521 29.355C8.60299 29.3473 8.65459 29.3385 8.70689 29.3287C8.88994 29.2957 9.03589 29.2351 9.14474 29.1467C9.15746 29.1355 9.1723 29.1281 9.18927 29.1246C9.37515 29.0846 9.5317 28.9935 9.65892 28.8511ZM9.65892 28.8511C10.3141 28.5691 10.5781 27.716 10.611 27.0921C10.6802 26.5535 10.7064 26.0138 10.6894 25.4731C10.6618 24.5746 10.6481 24.1212 10.6481 24.1128C10.6664 17.6204 10.6675 11.1277 10.6512 4.63465C10.6505 4.36674 10.6622 4.09672 10.6862 3.8246C10.6878 3.80414 10.6835 3.78365 10.6737 3.76556C10.6639 3.74748 10.6492 3.73255 10.6311 3.72255C10.5703 3.68959 10.5039 3.67591 10.4318 3.68152" stroke="black" stroke-width="2"/>
<path d="M10.6111 27.0923C10.5849 26.8707 10.5955 26.6624 10.6429 26.4674C10.6521 26.4295 10.6514 26.4292 10.6408 26.4663C10.5468 26.7988 10.4906 27.114 10.4722 27.4121C10.452 27.733 10.2093 28.3694 9.92833 28.5441C9.90837 28.5563 9.89308 28.5749 9.88486 28.5967C9.85235 28.6864 9.78591 28.7377 9.68555 28.7503" stroke="black" stroke-width="2"/>
<path d="M61.7656 2.73035C63.1544 2.82398 64.4669 3.08382 64.9027 4.5798" stroke="black" stroke-width="2"/>
<path d="M64.9028 4.57971C65.011 5.76779 65.064 6.95868 65.0619 8.15237" stroke="black" stroke-width="2"/>
<path d="M65.062 8.15283L65.0683 21.0664" stroke="black" stroke-width="2"/>
<path d="M65.0681 21.0664C65.0158 22.1451 65.0091 23.2227 65.048 24.2993C65.0713 26.5401 65.2229 28.6536 62.5279 28.9797C62.0996 29.0316 61.6692 29.0635 61.2367 29.0754C61.2087 29.0763 61.1822 29.088 61.163 29.1081C61.1437 29.1282 61.1332 29.155 61.1338 29.1827L61.155 30.0275C61.1556 30.0549 61.1668 30.0809 61.1864 30.1002C61.206 30.1194 61.2324 30.1303 61.26 30.1306L61.7127 30.1359" stroke="black" stroke-width="2"/>
<path d="M61.7129 30.1351L75.8799 30.1393C75.9073 30.1393 75.9337 30.1288 75.9534 30.11C75.9732 30.0912 75.9848 30.0655 75.9859 30.0383L75.9997 29.688" stroke="black" stroke-width="2"/>
<path d="M75.9996 29.6886L75.9806 29.1783C75.9794 29.1507 75.9676 29.1246 75.9477 29.1055C75.9277 29.0865 75.9011 29.076 75.8735 29.0763C74.9964 29.0861 74.1818 28.9592 73.4298 28.6954C73.0912 28.5769 72.7916 28.3658 72.5308 28.0621" stroke="black" stroke-width="2"/>
<path d="M72.5307 28.0619C72.0059 27.2813 71.9974 26.4145 71.9974 25.5108C71.9953 18.9813 71.9971 12.4521 72.0027 5.92324C72.0049 3.20798 73.4213 2.73562 75.8936 2.70827C75.9075 2.70813 75.9212 2.70528 75.9341 2.69986C75.9469 2.69445 75.9585 2.68658 75.9682 2.67672C75.978 2.66685 75.9857 2.65518 75.9909 2.64236C75.9961 2.62954 75.9987 2.61583 75.9985 2.60202L75.9943 2.23486" stroke="black" stroke-width="2"/>
<path d="M75.9943 2.23516L75.9752 1.73124C75.9741 1.70408 75.9624 1.67839 75.9427 1.65956C75.9229 1.64073 75.8966 1.63023 75.8692 1.63025H61.2389C61.2247 1.63025 61.2108 1.63304 61.1978 1.63845C61.1848 1.64387 61.173 1.65181 61.1631 1.6618C61.1533 1.67179 61.1455 1.68364 61.1403 1.69665C61.1351 1.70966 61.1326 1.72356 61.1328 1.73756L61.1509 2.57602C61.1512 2.60182 61.1612 2.62659 61.1788 2.6456C61.1964 2.66461 61.2204 2.67653 61.2463 2.67911L61.7658 2.73066" stroke="black" stroke-width="2"/>
<path d="M75.9943 2.23512C71.3052 2.18042 66.5949 2.19514 61.9057 2.23828C61.883 2.23826 61.861 2.24566 61.8432 2.25932C61.6714 2.38766 61.6456 2.54477 61.7658 2.73062M72.5307 28.0622C72.4657 28.2628 72.5173 28.4202 72.6855 28.5346C72.8523 28.6489 73.0117 28.772 73.1637 28.9038C73.1778 28.9157 73.194 28.9238 73.2124 28.928C73.3538 28.9568 73.464 29.0318 73.5432 29.1531C73.5509 29.1651 73.5611 29.1754 73.5731 29.1834C73.5851 29.1913 73.5988 29.1968 73.6132 29.1994C73.8846 29.2478 74.0775 29.3825 74.3394 29.4183C74.8956 29.4961 75.449 29.5862 75.9996 29.6886M61.7128 30.1357C61.6753 30.046 61.6697 29.9537 61.6958 29.859C61.7006 29.841 61.7104 29.8246 61.724 29.8116C61.7377 29.7986 61.7547 29.7896 61.7732 29.7854C62.1174 29.7027 62.4651 29.6458 62.8164 29.615C63.2797 29.574 63.6444 29.3993 64.0642 29.2468C64.4045 29.1226 64.6781 28.7492 64.9399 28.5051C64.9571 28.4888 64.9683 28.4673 64.9717 28.4441C64.9972 28.2807 65.0806 28.1534 65.2219 28.0622C65.7297 27.1953 65.5283 25.6415 65.5294 24.6484C65.5301 24.4997 65.447 24.2381 65.2802 23.8636C65.1085 23.4754 65.1371 22.8147 65.153 22.3739C65.1679 21.937 65.1396 21.5011 65.0682 21.0663M65.0618 8.15273C65.1816 8.02859 65.2749 7.93917 65.2771 7.75191C65.282 6.97763 65.2795 6.20369 65.2696 5.4301C65.2665 5.18709 65.1657 4.92093 65.1382 4.66318C65.1362 4.64411 65.1291 4.62596 65.1175 4.61074C65.1059 4.59552 65.0903 4.58381 65.0724 4.57692C65.0088 4.55167 64.9523 4.55272 64.9028 4.58007" stroke="black" stroke-width="2"/>
<path d="M64.4694 28.7195C63.7393 29.2105 62.9294 29.4353 62.0395 29.3939C62.0127 29.3925 61.9876 29.396 61.9643 29.4044C61.7593 29.478 61.7681 29.5117 61.9908 29.5054C62.6841 29.4865 64.0634 29.3129 64.4694 28.7195ZM64.4694 28.7195C64.7232 28.5232 64.9281 28.285 65.0843 28.0052C65.0928 27.9898 65.0974 27.9733 65.0981 27.9558C65.1002 27.8211 65.1458 27.7029 65.2349 27.6012C65.2487 27.5848 65.2572 27.565 65.2593 27.5444L65.2996 27.1899C65.3017 27.1738 65.2999 27.158 65.2943 27.1426C65.2745 27.0886 65.2868 27.05 65.3314 27.0268C65.3448 27.0199 65.3561 27.0093 65.3639 26.9963C65.3718 26.9834 65.3759 26.9684 65.3759 26.9532C65.3893 23.6421 65.4049 23.6271 65.4225 26.908C65.4225 26.9241 65.4215 26.9395 65.4194 26.9542C65.3572 27.326 65.2914 27.6952 65.2222 28.062M64.4694 28.7195C64.5196 28.6249 64.591 28.547 64.6836 28.486C64.698 28.4766 64.7098 28.464 64.7181 28.4491C64.7264 28.4343 64.731 28.4177 64.7313 28.4008C64.7341 28.3131 64.7755 28.2423 64.8553 28.1883C64.872 28.1773 64.8849 28.1619 64.8925 28.1441C65.1434 27.5991 65.2699 27.2229 65.272 27.0153C65.2805 26.2483 65.2243 25.4299 65.3006 24.6714C65.319 24.489 65.2349 24.3649 65.0483 24.299" stroke="black" stroke-width="2"/>
<path d="M39.7189 28.0361C39.6882 28.1834 39.6956 28.2738 39.8186 28.3769C40.0878 28.601 40.3688 28.863 40.6847 29.0166C40.9233 29.1333 41.1639 29.3238 41.3696 29.4174C42.7626 30.0518 44.1822 30.1496 45.6399 29.9203C46.6015 29.7688 47.4528 29.5194 48.1207 28.7725C48.5476 28.5067 48.8982 28.1648 49.1724 27.7468C49.728 27.1619 49.9941 26.5485 50.3969 25.7185C50.5241 25.4562 50.6245 25.2079 50.698 24.9737C50.768 24.7485 50.963 24.4108 50.9482 24.0647C50.9736 23.9806 51.0047 23.9034 51.0415 23.8333C51.3055 23.3304 51.2079 22.6729 51.3511 22.1974C51.5122 21.6598 51.5546 20.9665 51.6076 20.5689C51.6606 20.167 51.691 19.763 51.6988 19.3569C51.7801 18.1745 51.8073 16.7697 51.7804 15.1425C51.767 14.3283 51.7045 13.629 51.5928 13.0448C51.5705 12.0801 51.2832 10.7777 51.103 9.89297C51.051 9.63838 50.8888 9.23019 50.874 8.85673C50.8737 8.84192 50.8702 8.82739 50.8638 8.81413C50.8574 8.80088 50.8482 8.78921 50.8369 8.77993C50.7471 8.70559 50.7164 8.60915 50.7446 8.49062C50.7495 8.46804 50.7469 8.44445 50.7372 8.42329C50.5492 8.01511 50.3973 7.59465 50.2814 7.16192C50.2591 7.07671 50.2029 7.02621 50.1372 6.97677C50.1261 6.96811 50.1168 6.95733 50.1099 6.94506C50.103 6.93278 50.0985 6.91925 50.0969 6.90523C50.0771 6.7348 49.9838 6.63346 49.817 6.6012" stroke="black" stroke-width="2"/>
<path d="M49.817 6.601C48.4769 3.76897 46.0417 1.88059 42.734 2.4834C36.8893 3.54699 36.4811 11.5308 36.4451 15.9377C36.4111 19.887 36.7408 25.005 39.7189 28.0359" stroke="black" stroke-width="2"/>
<path d="M49.8169 6.6012C51.3287 9.96871 51.4622 13.7434 51.3986 17.3581C51.2544 22.1648 50.1784 30.0802 43.3912 29.5689C42.5282 29.5044 41.7532 29.3017 41.0662 28.9608C40.5778 28.709 40.1287 28.4008 39.7188 28.0361" stroke="black" stroke-width="2"/>
<path d="M50.8746 23.8495C50.8979 24.0452 50.8803 24.2324 50.8216 24.4113C50.8032 24.4674 50.8152 24.4751 50.8576 24.4344C50.8894 24.4049 50.9 24.1493 50.9477 24.0641M49.172 27.7462C48.8815 27.9292 48.6341 28.1571 48.4298 28.43C47.4365 29.2642 46.1017 29.9586 44.9355 29.9354C44.7627 29.9323 43.2414 29.9217 43.2138 29.8597C43.2094 29.8497 43.2021 29.8413 43.1928 29.8355C43.1836 29.8297 43.1728 29.8268 43.1619 29.8271C42.6063 29.8449 42.2639 29.5662 41.8038 29.5619C41.7772 29.5619 41.7514 29.5518 41.7317 29.5335C41.5854 29.3982 41.4186 29.3028 41.2313 29.2474C41.2085 29.2408 41.1886 29.2266 41.1749 29.2073C41.1613 29.188 41.1546 29.1647 41.156 29.1411C41.1596 29.0731 41.1295 29.0128 41.0659 28.9602M51.5923 13.0442C51.6135 14.2835 51.6358 15.5227 51.6591 16.762C51.6697 17.3385 51.6082 17.995 51.6146 18.6157" stroke="black" stroke-width="2"/>
<path d="M51.615 18.6157C51.5874 19.2497 51.5252 19.8817 51.4284 20.5115C51.4213 20.5613 51.4344 20.5672 51.4676 20.5293C51.4963 20.4967 51.4528 20.6535 51.4592 20.7376C51.4789 21.0175 51.4436 21.2847 51.3531 21.5393C51.2733 21.7637 51.2249 21.9415 51.2079 22.0727C51.1301 22.6709 51.0192 23.2632 50.875 23.8495" stroke="black" stroke-width="2"/>
<path d="M50.8744 23.8498L50.6348 24.5315C50.5733 24.7061 50.5451 24.7009 50.55 24.5157C50.5543 24.3783 50.6073 24.2587 50.7091 24.157C50.7229 24.1426 50.7325 24.1243 50.7366 24.1044C50.7833 23.8866 50.7949 23.7456 50.8893 23.5142C50.9847 23.2786 50.9338 23.0545 51.0038 22.8188C51.1405 22.358 51.1246 21.9099 51.2413 21.4428C51.2914 21.2394 51.3247 21.0328 51.3409 20.8231C51.3558 20.6317 51.2572 20.4465 51.3133 20.2172C51.372 19.9801 51.3851 19.7417 51.3526 19.5018C51.3498 19.4833 51.3523 19.464 51.36 19.446C51.4222 19.3002 51.4307 19.1522 51.3854 19.0021C51.3773 18.9758 51.38 18.9474 51.3929 18.9232C51.4706 18.7724 51.5112 18.6072 51.5148 18.4277C51.5151 18.4122 51.5119 18.3968 51.5055 18.3826C51.4991 18.3685 51.4896 18.3558 51.4777 18.3456C51.3547 18.2415 51.4013 17.5408 51.3982 17.3578M48.1201 28.7722L48.4297 28.4303M51.6982 19.3566L51.7067 18.5602C51.7081 18.427 51.6855 18.4231 51.6388 18.5487L51.6144 18.616" stroke="black" stroke-width="2"/>
<path d="M50.1601 25.8265C50.146 25.898 50.117 25.9611 50.0732 26.0158C50.0575 26.0347 50.0492 26.059 50.0499 26.0842C50.0527 26.1971 50.1117 26.1259 50.2269 25.8706C50.2352 25.8514 50.2378 25.8306 50.2343 25.8107C50.2153 25.6964 50.2439 25.5964 50.3202 25.5109C50.3347 25.4952 50.3436 25.4748 50.3457 25.453L50.3764 25.1763C50.3785 25.1558 50.3866 25.1364 50.3997 25.1206C50.4591 25.0504 50.5015 24.9726 50.527 24.887C50.5552 24.7958 50.5421 24.7899 50.4877 24.8691L50.4125 24.9785C50.4061 24.9877 50.4015 24.9971 50.3987 25.0069C50.2768 25.3983 50.0626 25.7097 49.9152 26.0832C49.911 26.0944 49.9068 26.1052 49.9025 26.1158C49.7597 26.4664 49.7806 26.4766 49.9651 26.1463C50.0195 26.0488 50.0736 25.9429 50.1273 25.8286C50.1654 25.7486 50.1764 25.7479 50.1601 25.8265Z" stroke="black" stroke-width="2"/>
<path d="M51.5894 2.85881L50.9194 2.63368C50.9163 2.63273 50.9133 2.63121 50.9107 2.62925C50.908 2.6273 50.9059 2.62498 50.9045 2.62253C50.9031 2.62008 50.9025 2.61759 50.9027 2.6153C50.9029 2.61301 50.9039 2.611 50.9056 2.60948L50.9194 2.59686C50.9371 2.58073 50.9233 2.5695 50.8781 2.56319C50.5144 2.50954 50.296 2.29282 49.8794 2.25074C49.7359 2.23671 49.5949 2.19954 49.4564 2.13923C48.798 1.85203 48.1079 1.76681 47.3763 1.56588C47.1042 1.49153 46.8332 1.4498 46.5632 1.44069C45.5666 1.40807 44.4927 1.24291 43.5046 1.33654C42.1433 1.46594 40.6952 1.51854 39.3954 1.993C38.9936 2.14028 38.2737 2.31281 37.7458 2.55688C37.5344 2.65437 37.3235 2.75256 37.1129 2.85144L36.3676 3.27962L35.7739 3.53105C35.7511 3.54133 35.7325 3.55871 35.7209 3.58049C35.6834 3.65413 35.624 3.6885 35.5427 3.68359C35.52 3.68223 35.4973 3.68812 35.4781 3.70042L34.9119 4.07389C34.8986 4.08276 34.8875 4.09443 34.8792 4.10807C34.871 4.1217 34.8659 4.13697 34.8642 4.15279C34.8593 4.21451 34.8218 4.24958 34.7519 4.25799C34.7291 4.26071 34.7076 4.27065 34.6904 4.2864C34.5483 4.42316 34.3045 4.63216 33.9589 4.9134C33.2952 5.45204 32.6821 6.10744 32.1195 6.87963C31.824 7.10897 31.6113 7.40178 31.4812 7.75806C31.4749 7.7749 31.465 7.78927 31.4516 7.8012C31.3611 7.88115 31.306 7.97934 31.2862 8.09576L31.0932 8.30932C31.0807 8.32312 31.072 8.34015 31.0678 8.35877C31.0307 8.53656 30.8356 8.68595 30.8292 8.81534C30.8289 8.82902 30.8259 8.84239 30.8205 8.85468C30.815 8.86697 30.8072 8.87792 30.7974 8.88688C30.6794 8.9991 30.6214 9.13866 30.6236 9.30558C30.4907 9.44024 30.4161 9.60225 30.3999 9.79162C30.3985 9.8102 30.3919 9.82837 30.3808 9.84422C30.209 10.0862 30.2334 10.3871 30.0405 10.5975C30.0234 10.6164 30.014 10.6411 30.014 10.6669C30.0126 10.7945 30.0037 10.8777 29.9875 10.9162C29.8284 11.2844 29.7207 11.6677 29.6641 12.0661C29.6636 12.0713 29.6613 12.0762 29.6577 12.0802C29.6541 12.0841 29.6493 12.0869 29.644 12.0882L29.6143 12.0966C29.5999 12.1008 29.5874 12.1095 29.5785 12.1215C29.5697 12.1335 29.5651 12.148 29.5655 12.1629C29.5751 12.5774 29.3503 12.8572 29.3503 13.2265C29.3503 13.4642 29.3521 13.7016 29.3556 13.9387C29.1626 15.3968 29.2146 16.5761 29.2909 18.2982C29.2994 18.4992 29.4288 18.6991 29.3323 18.9726C29.326 18.9898 29.3246 19.0087 29.328 19.0273C29.3818 19.3001 29.4415 19.5726 29.5072 19.8447C29.5443 20.0004 29.5284 20.2255 29.6556 20.417C29.6699 20.4379 29.6756 20.4639 29.6715 20.4896C29.6517 20.6264 29.6941 20.7361 29.7987 20.8189C29.8113 20.8288 29.8215 20.8414 29.8285 20.8558C29.8354 20.8701 29.8391 20.886 29.839 20.902C29.8369 21.1482 29.9058 21.3712 30.0458 21.5711C30.0588 21.5895 30.0655 21.6117 30.0649 21.6342C30.0606 21.8376 30.1299 22.0133 30.2726 22.1613C30.2911 22.1802 30.3017 22.2054 30.3023 22.2317C30.3044 22.3103 30.331 22.4043 30.3818 22.5137C30.5557 22.8861 31.0232 23.5962 30.9639 23.9855C29.8641 22.2012 29.2001 20.2483 28.9718 18.1268C27.8862 8.01581 34.9459 0.285569 45.2804 1.05249C47.6022 1.22502 49.7052 1.82713 51.5894 2.85881Z" fill="black"/>
<path d="M51.5894 2.85865C54.0702 4.2694 56.4163 6.57017 57.5518 9.22652L57.5242 9.23283C57.5025 9.23774 57.4798 9.23571 57.4593 9.22702C57.4387 9.21834 57.4214 9.20344 57.4097 9.18444C57.221 8.87444 57.0411 8.55954 56.8701 8.23973C56.692 7.90624 56.4407 7.62429 56.235 7.29712C56.0538 7.00992 55.8004 6.77426 55.5756 6.46181C55.3565 6.15813 54.9455 5.70787 54.3426 5.11102C54.1211 4.89115 53.7998 4.72598 53.5507 4.49769C53.5329 4.4814 53.51 4.47174 53.486 4.47034C53.3588 4.46263 53.2751 4.39495 53.2348 4.2673C53.2286 4.24612 53.2155 4.22762 53.1977 4.2147L52.2753 3.52563C52.2718 3.52352 52.2372 3.513 52.1714 3.49407C52.1318 3.48285 52.1057 3.45655 52.093 3.41517C52.0887 3.40037 52.0811 3.38667 52.0709 3.37504C52.0606 3.3634 52.0479 3.35412 52.0336 3.34784C51.3402 3.05538 50.6497 2.7566 49.962 2.45152C49.9355 2.43994 49.8952 2.44415 49.8666 2.44626C49.8459 2.44832 49.8252 2.44429 49.8072 2.43468C49.5655 2.30423 49.309 2.21867 49.0376 2.17799C49.031 2.17701 49.0247 2.1745 49.0192 2.17067C49.0136 2.16684 49.0091 2.16179 49.0058 2.1559L48.992 2.13065C48.988 2.12347 48.9824 2.11727 48.9756 2.11253C48.9688 2.10779 48.961 2.10464 48.9528 2.1033C48.7336 2.07033 48.5184 2.02334 48.3071 1.96233C47.8968 1.84345 47.4834 1.80347 47.0296 1.68565C46.6024 1.57518 46.1157 1.65409 45.6546 1.56572C45.4899 1.53416 45.3478 1.51557 45.2284 1.50996C43.66 1.43702 42.1055 1.55029 40.5647 1.84976C40.4449 1.87291 40.3771 1.94549 40.2604 1.99073C40.094 2.05596 39.935 1.96654 39.7696 2.1296C39.4303 2.11277 39.1822 2.14853 39.0253 2.2369C38.8207 2.35263 38.65 2.35578 38.5027 2.41364C38.0913 2.57776 37.68 2.74784 37.2686 2.92387C37.2326 2.94 37.2301 2.93615 37.2612 2.9123C37.3722 2.82884 37.499 2.77589 37.6418 2.75344C37.6469 2.75254 37.6517 2.75041 37.6556 2.74727C37.6595 2.74413 37.6624 2.74009 37.6641 2.73556L37.6736 2.70926C37.6828 2.68331 37.6736 2.6749 37.6461 2.68401L37.1128 2.85128C37.3234 2.75239 37.5344 2.6542 37.7457 2.55672C38.2737 2.31265 38.9935 2.14012 39.3953 1.99284C40.6951 1.51837 42.1433 1.46577 43.5045 1.33638C44.4926 1.24275 45.5666 1.40791 46.5631 1.44053C46.8331 1.44964 47.1042 1.49137 47.3763 1.56572C48.1078 1.76665 48.798 1.85186 49.4563 2.13907C49.5949 2.19938 49.7359 2.23655 49.8793 2.25058C50.296 2.29266 50.5144 2.50938 50.878 2.56303C50.9232 2.56934 50.937 2.58056 50.9194 2.59669L50.9056 2.60932C50.9039 2.61084 50.9028 2.61285 50.9026 2.61514C50.9025 2.61743 50.9031 2.61992 50.9045 2.62237C50.9059 2.62482 50.908 2.62714 50.9106 2.62909C50.9132 2.63105 50.9162 2.63257 50.9194 2.63351L51.5894 2.85865Z" fill="black"/>
<path d="M57.5518 9.22688C59.0106 12.2809 59.2724 15.8809 58.6957 19.1779C57.7013 24.8567 53.2835 29.3899 47.6593 30.6071C45.4295 31.0903 43.136 31.1278 40.7789 30.7196C36.6135 29.998 33.1615 27.5752 30.9638 23.9857C31.0232 23.5964 30.5556 22.8863 30.3818 22.5139C30.3309 22.4045 30.3044 22.3105 30.3023 22.2319C30.3016 22.2056 30.291 22.1804 30.2726 22.1615C30.1298 22.0135 30.0606 21.8378 30.0648 21.6344C30.0655 21.6119 30.0588 21.5897 30.0457 21.5713C29.9058 21.3714 29.8369 21.1484 29.839 20.9022C29.839 20.8862 29.8354 20.8703 29.8284 20.856C29.8214 20.8416 29.8113 20.829 29.7987 20.8191C29.6941 20.7363 29.6517 20.6266 29.6715 20.4898C29.6756 20.4641 29.6699 20.4381 29.6556 20.4172C29.5283 20.2257 29.5442 20.0006 29.5071 19.8449C29.4414 19.5728 29.3817 19.3003 29.328 19.0275C29.3245 19.0089 29.326 18.99 29.3322 18.9728C29.4287 18.6993 29.2994 18.4994 29.2909 18.2984C29.2145 16.5763 29.1626 15.397 29.3555 13.9389L29.5676 13.1362C29.5711 13.1222 29.5775 13.1095 29.5867 13.0983C29.7022 12.9521 29.6725 12.5123 29.733 12.343C29.9372 11.7707 30.1086 11.1914 30.2471 10.605C30.3341 10.3294 30.4737 10.0864 30.6659 9.87598C30.6772 9.86335 30.6853 9.84863 30.6903 9.83179L30.8122 9.36364C30.8177 9.34115 30.8308 9.32113 30.8493 9.30684C31.0486 9.15008 31.0348 8.89024 31.2331 8.70087C31.5024 8.28077 31.7801 7.86662 32.0664 7.45844C32.2371 7.21542 32.4279 6.88404 32.6834 6.6305C33.0958 6.22126 33.3407 5.78678 33.8114 5.39964C33.9471 5.28882 34.32 4.9641 34.9299 4.42547C34.9325 4.42325 34.9351 4.42144 34.9375 4.42016C34.9398 4.41888 34.942 4.41818 34.9437 4.4181H34.9744C34.9959 4.41743 35.0169 4.41049 35.0349 4.39811C35.2596 4.23961 35.4932 4.09513 35.7356 3.96468C35.9424 3.85317 36.0696 3.66486 36.2975 3.5586C36.3781 3.52143 36.4728 3.46462 36.5817 3.38818C36.7417 3.27771 36.9601 3.29349 37.0736 3.14621C37.0872 3.12721 37.1076 3.11374 37.1308 3.10834C37.3061 3.06135 37.4535 2.97017 37.5729 2.83481C37.5835 2.82219 37.5969 2.81272 37.6132 2.80641C38.3164 2.52727 39.0352 2.30179 39.7696 2.12996C39.935 1.9669 40.094 2.05632 40.2604 1.99109C40.3771 1.94586 40.4449 1.87327 40.5647 1.85012C42.1055 1.55065 43.66 1.43738 45.2284 1.51032C45.3478 1.51593 45.4899 1.53452 45.6546 1.56608C46.1157 1.65445 46.6024 1.57555 47.0296 1.68601C47.4834 1.80383 47.8968 1.84381 48.3071 1.96269C48.5184 2.02371 48.7337 2.0707 48.9528 2.10366C48.961 2.105 48.9688 2.10816 48.9756 2.1129C48.9824 2.11764 48.988 2.12383 48.992 2.13101L49.0058 2.15626C49.0091 2.16215 49.0136 2.16721 49.0192 2.17104C49.0247 2.17487 49.031 2.17737 49.0376 2.17835C49.309 2.21903 49.5655 2.30459 49.8072 2.43504C49.8253 2.44465 49.8459 2.44868 49.8666 2.44662C49.8952 2.44451 49.9355 2.44031 49.962 2.45188C50.6497 2.75696 51.3403 3.05574 52.0336 3.3482C52.0479 3.35448 52.0606 3.36376 52.0709 3.3754C52.0811 3.38703 52.0887 3.40073 52.093 3.41553C52.1057 3.45691 52.1318 3.48321 52.1714 3.49443C52.2372 3.51337 52.2718 3.52389 52.2753 3.52599L53.1977 4.21506C53.2155 4.22798 53.2286 4.24648 53.2348 4.26766C53.2751 4.39531 53.3588 4.46299 53.486 4.4707C53.5101 4.4721 53.5329 4.48176 53.5507 4.49805C53.7998 4.72634 54.1211 4.89151 54.3426 5.11138C54.9455 5.70823 55.3565 6.15849 55.5756 6.46217C55.8004 6.77462 56.0538 7.01028 56.235 7.29748C56.4407 7.62466 56.692 7.9066 56.8701 8.24009C57.0411 8.5599 57.221 8.87481 57.4097 9.1848C57.4214 9.20381 57.4387 9.2187 57.4593 9.22739C57.4798 9.23607 57.5025 9.2381 57.5242 9.23319L57.5518 9.22688ZM39.7187 28.0359C39.6879 28.1832 39.6954 28.2737 39.8183 28.3768C40.0876 28.6009 40.3686 28.8628 40.6845 29.0164C40.923 29.1332 41.1637 29.3236 41.3694 29.4172C42.7624 30.0516 44.182 30.1494 45.6397 29.9201C46.6013 29.7686 47.4526 29.5193 48.1205 28.7724C48.5474 28.5065 48.898 28.1646 49.1722 27.7466C49.7277 27.1617 49.9938 26.5484 50.3967 25.7183C50.5239 25.456 50.6243 25.2078 50.6978 24.9735C50.7678 24.7484 50.9628 24.4107 50.948 24.0646C50.9734 23.9804 51.0045 23.9033 51.0413 23.8331C51.3053 23.3303 51.2077 22.6727 51.3509 22.1972C51.512 21.6596 51.5544 20.9664 51.6074 20.5687C51.6604 20.1668 51.6908 19.7629 51.6986 19.3568C51.7799 18.1743 51.8071 16.7695 51.7802 15.1424C51.7668 14.3281 51.7042 13.6289 51.5926 13.0447C51.5703 12.08 51.283 10.7776 51.1028 9.89281C51.0508 9.63822 50.8886 9.23004 50.8738 8.85657C50.8735 8.84176 50.87 8.82723 50.8636 8.81398C50.8572 8.80072 50.848 8.78906 50.8367 8.77977C50.7469 8.70543 50.7162 8.609 50.7444 8.49047C50.7492 8.46788 50.7466 8.4443 50.737 8.42314C50.549 8.01496 50.3971 7.5945 50.2811 7.16177C50.2589 7.07656 50.2027 7.02606 50.137 6.97661C50.1259 6.96796 50.1166 6.95718 50.1097 6.9449C50.1028 6.93263 50.0983 6.91909 50.0967 6.90508C50.0769 6.73465 49.9836 6.6333 49.8168 6.60104C48.4767 3.76901 46.0415 1.88063 42.7338 2.48344C36.8891 3.54703 36.4809 11.5308 36.4449 15.9377C36.411 19.887 36.7407 25.0051 39.7187 28.0359Z" fill="black"/>
<path d="M26.5877 2.33195C26.0371 2.30179 25.5957 2.28706 25.2635 2.28776C17.5264 2.30389 9.78895 2.30249 2.05113 2.28355C1.77619 2.28285 1.63731 2.42032 1.63448 2.69595L1.55921 10.1495C1.3493 10.1762 1.18603 10.1681 1.06941 10.1253C1.04892 10.1179 1.03127 10.1044 1.01892 10.0866C1.00657 10.0689 1.00013 10.0479 1.0005 10.0264L1.03973 1.73545C1.04001 1.70746 1.0513 1.6807 1.07115 1.661C1.09101 1.6413 1.11781 1.63025 1.14575 1.63025H26.4657C26.4933 1.63024 26.5198 1.64089 26.5396 1.65994C26.5594 1.67899 26.5709 1.70494 26.5718 1.7323L26.5877 2.33195ZM75.9947 2.23516C71.3056 2.18046 66.5952 2.19518 61.9061 2.23832C61.8834 2.2383 61.8614 2.2457 61.8436 2.25936C61.6718 2.3877 61.646 2.54481 61.7662 2.73066L61.2467 2.67911C61.2208 2.67653 61.1968 2.66461 61.1792 2.6456C61.1616 2.62659 61.1517 2.60182 61.1513 2.57601L61.1333 1.73756C61.133 1.72356 61.1355 1.70966 61.1407 1.69665C61.1459 1.68364 61.1537 1.67179 61.1635 1.6618C61.1734 1.65181 61.1852 1.64387 61.1982 1.63845C61.2112 1.63304 61.2252 1.63025 61.2393 1.63025H75.8696C75.897 1.63023 75.9233 1.64073 75.9431 1.65956C75.9629 1.67839 75.9745 1.70408 75.9756 1.73124L75.9947 2.23516ZM39.7698 2.12996C39.0355 2.30179 38.3167 2.52727 37.6134 2.80641C37.5972 2.81272 37.5837 2.82219 37.5731 2.83481C37.4537 2.97017 37.3063 3.06135 37.131 3.10834C37.1078 3.11374 37.0875 3.12721 37.0738 3.14621C36.9604 3.29349 36.742 3.27771 36.5819 3.38817C36.473 3.46462 36.3783 3.52143 36.2977 3.5586C36.0698 3.66485 35.9426 3.85317 35.7359 3.96468C35.4934 4.09513 35.2598 4.23961 35.0351 4.39811C35.0171 4.41049 34.9961 4.41743 34.9747 4.4181H34.9439C34.9422 4.41818 34.9401 4.41888 34.9377 4.42016C34.9353 4.42143 34.9327 4.42325 34.9301 4.42547C34.3202 4.9641 33.9473 5.28882 33.8116 5.39963C33.3409 5.78678 33.096 6.22126 32.6836 6.6305C32.4281 6.88403 32.2373 7.21542 32.0666 7.45844C31.7804 7.86662 31.5026 8.28077 31.2333 8.70087C31.3605 8.31864 31.5107 8.02197 31.6839 7.81086C31.8429 7.61659 31.9511 7.43705 32.0083 7.27223C32.6472 6.35417 33.3901 5.52868 34.2368 4.79577C34.2972 4.74317 34.329 4.76947 34.4 4.7053C34.999 4.16036 35.7125 3.7911 36.3677 3.27981L37.113 2.85164L37.6463 2.68437C37.6738 2.67526 37.683 2.68367 37.6738 2.70962L37.6643 2.73592C37.6626 2.74045 37.6597 2.74449 37.6558 2.74763C37.6519 2.75077 37.6471 2.7529 37.642 2.7538C37.4993 2.77625 37.3724 2.8292 37.2614 2.91266C37.2303 2.93651 37.2328 2.94036 37.2689 2.92423C37.6802 2.7482 38.0915 2.57812 38.5029 2.414C38.6503 2.35614 38.8209 2.35299 39.0256 2.23726C39.1825 2.1489 39.4305 2.11313 39.7698 2.12996Z" fill="black"/>
<path d="M75.9946 2.23512L75.9988 2.60228C75.9989 2.61609 75.9963 2.6298 75.9911 2.64262C75.9859 2.65543 75.9782 2.66711 75.9685 2.67697C75.9587 2.68684 75.9471 2.69471 75.9343 2.70012C75.9215 2.70553 75.9078 2.70839 75.8938 2.70853C73.4215 2.73588 72.0051 3.20824 72.003 5.9235C71.9974 12.4523 71.9956 18.9815 71.9977 25.511C71.9977 26.4147 72.0062 27.2816 72.531 28.0622C72.466 28.2628 72.5176 28.4202 72.6858 28.5346C72.8526 28.6489 73.0119 28.772 73.1639 28.9038C73.178 28.9157 73.1943 28.9238 73.2127 28.928C73.354 28.9568 73.4643 29.0318 73.5434 29.1531C73.5511 29.1651 73.5613 29.1754 73.5734 29.1834C73.5854 29.1913 73.599 29.1968 73.6134 29.1994C73.8848 29.2478 74.0778 29.3825 74.3396 29.4183C74.8959 29.4961 75.4493 29.5862 75.9999 29.6886L75.9861 30.0389C75.985 30.0661 75.9733 30.0918 75.9536 30.1106C75.9338 30.1295 75.9075 30.14 75.8801 30.1399L61.713 30.1357C61.6756 30.046 61.6699 29.9537 61.6961 29.859C61.7009 29.841 61.7106 29.8246 61.7243 29.8116C61.7379 29.7986 61.7549 29.7896 61.7735 29.7854C62.1177 29.7026 62.4654 29.6458 62.8167 29.615C63.2799 29.5739 63.6446 29.3993 64.0645 29.2468C64.4048 29.1226 64.6783 28.7492 64.9402 28.5051C64.9574 28.4888 64.9686 28.4673 64.972 28.4441C64.9974 28.2807 65.0808 28.1534 65.2222 28.0622C65.73 27.1953 65.5286 25.6415 65.5296 24.6484C65.5303 24.4997 65.4473 24.2381 65.2805 23.8636C65.1087 23.4754 65.1374 22.8147 65.1533 22.3739C65.1681 21.937 65.1399 21.5011 65.0685 21.0663L65.0621 8.15273C65.1819 8.02859 65.2752 7.93917 65.2773 7.75191C65.2823 6.97762 65.2798 6.20369 65.2699 5.4301C65.2667 5.18709 65.166 4.92093 65.1384 4.66318C65.1365 4.64411 65.1293 4.62596 65.1177 4.61074C65.1061 4.59552 65.0905 4.58381 65.0727 4.57692C65.0091 4.55167 64.9525 4.55272 64.9031 4.58007C64.4673 3.0841 63.1549 2.82425 61.766 2.73062C61.6459 2.54477 61.6717 2.38766 61.8434 2.25932C61.8613 2.24566 61.8833 2.23826 61.906 2.23828C66.5951 2.19514 71.3054 2.18042 75.9946 2.23512ZM26.5875 2.33191L26.6204 10.0621C26.6205 10.0763 26.6178 10.0904 26.6123 10.1035C26.6069 10.1166 26.5988 10.1284 26.5886 10.1384C26.5784 10.1483 26.5663 10.1561 26.553 10.1612C26.5397 10.1664 26.5255 10.1688 26.5112 10.1684L25.7998 10.1474C25.7504 8.92842 25.3952 7.80732 24.7344 6.78405C24.7233 6.76615 24.7174 6.74575 24.7174 6.72514C24.7195 6.62695 24.6782 6.56979 24.5934 6.55366C24.5775 6.5504 24.5626 6.5436 24.5498 6.53376C24.5369 6.52392 24.5265 6.5113 24.5191 6.49685C24.199 5.86003 23.7901 5.28563 23.2925 4.77364C23.2814 4.76223 23.2676 4.75353 23.2523 4.74824C23.2371 4.74295 23.2207 4.7412 23.2045 4.74313L23.0169 4.76417C22.4734 4.27744 21.9949 3.94956 21.5814 3.78054C20.3368 3.27206 18.9162 3.02203 17.3195 3.03045C17.2913 3.03072 17.2644 3.04193 17.2445 3.06163C17.2247 3.08133 17.2135 3.10793 17.2135 3.13565C17.2114 10.6618 17.2118 18.1883 17.2146 25.7151C17.2146 26.5147 17.4362 27.5835 17.9853 28.2463C17.8984 28.477 17.9733 28.618 18.2101 28.6692C18.2288 28.6733 18.2464 28.6824 18.261 28.6955C18.6115 29.0223 18.9978 29.2377 19.4197 29.3415C19.9484 29.4712 20.5548 29.5582 21.239 29.6024C21.2617 29.6037 21.2833 29.6126 21.3005 29.6276C21.3761 29.6914 21.4256 29.7658 21.4489 29.8506L21.4309 30.0379C21.4282 30.0642 21.4159 30.0886 21.3963 30.1063C21.3767 30.124 21.3512 30.1337 21.3249 30.1336L6.47826 30.1357C6.5341 30.0312 6.55283 29.9211 6.53445 29.8054C6.53101 29.7841 6.53434 29.7621 6.54399 29.7423C6.65637 29.5164 6.80197 29.3958 6.98078 29.3804C7.79216 29.3137 8.45512 29.2156 8.96966 29.0858C9.14918 29.0402 9.38772 28.9284 9.68527 28.7502L9.65877 28.8512C9.29407 29.0244 8.91806 29.157 8.53075 29.2489C7.68827 29.4495 7.69533 29.4849 8.55195 29.3551C8.60284 29.3474 8.65443 29.3386 8.70673 29.3288C8.88979 29.2959 9.03574 29.2352 9.14458 29.1468C9.15731 29.1356 9.17215 29.1282 9.18911 29.1247C9.375 29.0848 9.53155 28.9936 9.65877 28.8512C10.314 28.5693 10.5779 27.7161 10.6108 27.0922C10.6801 26.5536 10.7062 26.0139 10.6892 25.4732C10.6617 24.5748 10.6479 24.1213 10.6479 24.1129C10.6663 17.6206 10.6673 11.1278 10.6511 4.63478C10.6504 4.36686 10.662 4.09684 10.6861 3.82472C10.6877 3.80426 10.6833 3.78377 10.6736 3.76569C10.6638 3.7476 10.649 3.73267 10.6309 3.72268C10.5702 3.68971 10.5037 3.67604 10.4316 3.68165L10.4284 3.11882C10.4285 3.10459 10.4256 3.09051 10.4199 3.07745C10.4142 3.06438 10.4059 3.05261 10.3955 3.04285C10.3851 3.03309 10.3727 3.02555 10.3593 3.02071C10.3458 3.01586 10.3314 3.01381 10.3171 3.01467C9.8761 3.03781 9.43613 3.06762 8.99722 3.10409C4.77775 3.45862 2.5567 5.98978 2.26303 10.0779C2.26112 10.1055 2.24838 10.1312 2.22756 10.1495C2.20674 10.1678 2.1795 10.1772 2.15172 10.1758L1.55908 10.1495L1.63435 2.69591C1.63718 2.42028 1.77606 2.28281 2.051 2.28351C9.78881 2.30245 17.5263 2.30385 25.2634 2.28772C25.5956 2.28702 26.037 2.30175 26.5875 2.33191Z" fill="black"/>
<path d="M36.3675 3.27966C35.7123 3.79094 34.9988 4.1602 34.3998 4.70515C34.3288 4.76932 34.297 4.74302 34.2366 4.79562C33.3898 5.52853 32.647 6.35402 32.0081 7.27208C31.883 7.3871 31.7685 7.5158 31.6646 7.65817C31.5639 7.79493 31.5713 7.94747 31.4144 8.07161C31.4003 8.08283 31.3897 8.09651 31.3826 8.11264L31.2543 8.41142C31.246 8.43064 31.2323 8.44677 31.2151 8.4577C31.1706 8.48716 31.1472 8.52714 31.1451 8.57763C31.1441 8.59707 31.1379 8.61586 31.1271 8.63198C31.1162 8.64811 31.1012 8.66096 31.0836 8.66916C31.0062 8.70388 30.8196 9.06682 30.7401 9.15519L30.6235 9.30563C30.6214 9.13871 30.6793 8.99914 30.7974 8.88693C30.8071 8.87796 30.8149 8.86702 30.8204 8.85473C30.8259 8.84244 30.8289 8.82907 30.8292 8.81539C30.8355 8.68599 31.0306 8.53661 31.0677 8.35881C31.0719 8.3402 31.0807 8.32317 31.0932 8.30937L31.2861 8.09581L32.1194 6.87967C32.682 6.10749 33.2951 5.45208 33.9588 4.91345C34.3044 4.63221 34.5483 4.42321 34.6903 4.28645C34.7075 4.27069 34.7291 4.26075 34.7518 4.25804C34.8218 4.24963 34.8592 4.21456 34.8642 4.15284C34.8658 4.13702 34.8709 4.12175 34.8792 4.10811C34.8874 4.09448 34.8986 4.08281 34.9119 4.07394L35.478 3.70047C35.4973 3.68817 35.52 3.68228 35.5427 3.68364C35.624 3.68855 35.6833 3.65418 35.7208 3.58054C35.7324 3.55876 35.7511 3.54137 35.7738 3.5311L36.3675 3.27966ZM10.4316 3.68154C10.5036 3.67592 10.5701 3.6896 10.6309 3.72256C10.6489 3.73256 10.6637 3.74749 10.6735 3.76558C10.6833 3.78366 10.6876 3.80415 10.686 3.82461C10.662 4.09673 10.6503 4.36675 10.651 4.63466C10.6673 11.1277 10.6662 17.6204 10.6478 24.1128C10.6478 24.1212 10.6616 24.5746 10.6892 25.4731C10.7061 26.0138 10.68 26.5535 10.6107 27.0921C10.5846 26.8705 10.5952 26.6622 10.6425 26.4672C10.6517 26.4294 10.651 26.429 10.6404 26.4662C10.5464 26.7986 10.4902 27.1139 10.4718 27.4119C10.4517 27.7328 10.2089 28.3693 9.92797 28.5439C9.90801 28.5562 9.89272 28.5747 9.8845 28.5965C9.85199 28.6863 9.78555 28.7375 9.68519 28.7501C9.38764 28.9282 9.1491 29.0401 8.96958 29.0857C8.45504 29.2155 7.79208 29.3136 6.9807 29.3803C6.80189 29.3957 6.65629 29.5163 6.54391 29.7422C6.53426 29.762 6.53093 29.784 6.53437 29.8053C6.55275 29.921 6.53402 30.0311 6.47818 30.1356C6.43224 30.1503 6.39125 30.1482 6.3552 30.1293C6.3388 30.1204 6.32506 30.1072 6.31538 30.0911C6.3057 30.0751 6.30042 30.0567 6.30007 30.0378L6.29053 29.1751C6.29024 29.1478 6.3007 29.1213 6.3197 29.1015C6.3387 29.0817 6.36475 29.07 6.39231 29.0689C7.53411 29.0257 9.21766 28.9858 9.88874 27.9232C10.4326 27.0616 10.4284 25.6225 10.4284 24.581C10.4248 17.6145 10.4259 10.648 10.4316 3.68154ZM65.062 8.15262C65.0641 6.95893 65.0111 5.76804 64.903 4.57996C64.9525 4.55261 65.009 4.55155 65.0726 4.5768C65.0905 4.5837 65.106 4.59541 65.1176 4.61063C65.1292 4.62585 65.1364 4.644 65.1383 4.66307C65.1659 4.92081 65.2666 5.18697 65.2698 5.42999C65.2797 6.20358 65.2822 6.97751 65.2772 7.7518C65.2751 7.93906 65.1818 8.02848 65.062 8.15262ZM25.7997 10.1472L25.4785 10.1409C25.4536 10.1403 25.4296 10.131 25.4108 10.1146C25.3921 10.0983 25.3796 10.076 25.3757 10.0515C25.0672 8.00113 24.4767 6.23373 23.0168 4.76406L23.2045 4.74302C23.2206 4.74109 23.237 4.74283 23.2523 4.74813C23.2675 4.75342 23.2813 4.76211 23.2925 4.77353C23.79 5.28551 24.1989 5.85992 24.5191 6.49674C24.5264 6.51119 24.5368 6.52381 24.5497 6.53365C24.5625 6.54348 24.5774 6.55029 24.5933 6.55355C24.6781 6.56968 24.7194 6.62684 24.7173 6.72503C24.7173 6.74564 24.7232 6.76603 24.7343 6.78394C25.3951 7.80721 25.7503 8.92831 25.7997 10.1472ZM49.8168 6.60089C49.9836 6.63315 50.0769 6.7345 50.0967 6.90492C50.0983 6.91894 50.1028 6.93247 50.1097 6.94475C50.1166 6.95703 50.1259 6.9678 50.137 6.97646C50.2027 7.02591 50.2589 7.0764 50.2812 7.16162C50.3971 7.59435 50.549 8.0148 50.737 8.42299C50.7467 8.44415 50.7493 8.46773 50.7444 8.49032C50.7162 8.60884 50.7469 8.70528 50.8367 8.77962C50.848 8.7889 50.8572 8.80057 50.8636 8.81382C50.87 8.82708 50.8735 8.84161 50.8738 8.85642C50.8886 9.22989 51.0508 9.63807 51.1028 9.89266C51.283 10.7774 51.5703 12.0798 51.5926 13.0445C51.6138 14.2838 51.636 15.5231 51.6594 16.7623C51.67 17.3389 51.6085 17.9953 51.6148 18.616C51.5873 19.25 51.5251 19.8819 51.4283 20.5117C51.4212 20.5615 51.4343 20.5675 51.4675 20.5296C51.4961 20.497 51.4526 20.6538 51.459 20.7379C51.4788 21.0178 51.4435 21.285 51.353 21.5396C51.2731 21.764 51.2247 21.9418 51.2077 22.0729C51.13 22.6712 51.019 23.2635 50.8748 23.8498L50.6353 24.5315C50.5738 24.7061 50.5455 24.7009 50.5504 24.5157C50.5547 24.3783 50.6077 24.2587 50.7095 24.157C50.7233 24.1426 50.7329 24.1243 50.737 24.1044C50.7837 23.8866 50.7953 23.7456 50.8897 23.5142C50.9851 23.2786 50.9342 23.0545 51.0042 22.8188C51.1409 22.358 51.125 21.9099 51.2417 21.4428C51.2918 21.2394 51.3251 21.0328 51.3413 20.8231C51.3562 20.6317 51.2576 20.4465 51.3138 20.2172C51.3724 19.9801 51.3855 19.7417 51.353 19.5018C51.3502 19.4833 51.3528 19.464 51.3604 19.446C51.4226 19.3002 51.4311 19.1522 51.3859 19.0021C51.3777 18.9758 51.3804 18.9474 51.3933 18.9232C51.471 18.7724 51.5117 18.6072 51.5152 18.4277C51.5155 18.4122 51.5123 18.3968 51.5059 18.3826C51.4995 18.3685 51.49 18.3558 51.4781 18.3456C51.3551 18.2415 51.4018 17.5408 51.3986 17.3578C51.4622 13.743 51.3286 9.9684 49.8168 6.60089Z" fill="black"/>
<path d="M32.1194 6.87988L31.2861 8.09602C31.3059 7.9796 31.361 7.88141 31.4515 7.80145C31.4649 7.78953 31.4748 7.77515 31.4812 7.75832C31.6112 7.40204 31.824 7.10922 32.1194 6.87988ZM32.0081 7.27229C31.9508 7.4371 31.8427 7.61665 31.6837 7.81092C31.5105 8.02203 31.3603 8.3187 31.2331 8.70093C31.0349 8.89029 31.0486 9.15014 30.8493 9.30689C30.8308 9.32118 30.8177 9.34121 30.8122 9.3637L30.6903 9.83185C30.6854 9.84868 30.6772 9.86341 30.6659 9.87604C30.4737 10.0864 30.3341 10.3295 30.2472 10.6051C30.2443 10.3793 30.3164 10.1482 30.4634 9.9118C30.5836 9.71893 30.6758 9.4668 30.7401 9.1554C30.8196 9.06703 31.0062 8.70409 31.0836 8.66937C31.1012 8.66117 31.1162 8.64832 31.1271 8.63219C31.1379 8.61607 31.1441 8.59728 31.1451 8.57784C31.1472 8.52735 31.1706 8.48737 31.2151 8.45791C31.2323 8.44698 31.246 8.43085 31.2543 8.41162L31.3826 8.11285C31.3897 8.09672 31.4003 8.08304 31.4144 8.07182C31.5713 7.94768 31.5639 7.79514 31.6646 7.65838C31.7685 7.516 31.883 7.38731 32.0081 7.27229Z" fill="black"/>
<path d="M30.74 9.15552C30.6757 9.46692 30.5834 9.71905 30.4633 9.91192C30.3163 10.1483 30.2442 10.3794 30.247 10.6052C30.1085 11.1915 29.9371 11.7708 29.7328 12.3431C29.6724 12.5125 29.7021 12.9523 29.5865 13.0985C29.5773 13.1097 29.571 13.1223 29.5674 13.1364L29.3554 13.9391C29.3519 13.702 29.3501 13.4646 29.3501 13.2268C29.3501 12.8576 29.5749 12.5777 29.5653 12.1632C29.5649 12.1484 29.5695 12.1339 29.5783 12.1219C29.5872 12.1099 29.5997 12.1011 29.6141 12.097L29.6438 12.0885C29.6491 12.0873 29.6539 12.0845 29.6575 12.0805C29.6611 12.0766 29.6634 12.0717 29.6639 12.0665C29.7205 11.6681 29.8282 11.2848 29.9873 10.9166C30.0035 10.878 30.0124 10.7949 30.0138 10.6673C30.0138 10.6415 30.0232 10.6168 30.0403 10.5978C30.2332 10.3874 30.2088 10.0866 30.3806 9.84459C30.3917 9.82874 30.3983 9.81057 30.3997 9.79199C30.4159 9.60262 30.4905 9.44062 30.6234 9.30596L30.74 9.15552ZM51.5924 13.0448C51.7041 13.6291 51.7666 14.3283 51.7801 15.1426C51.8069 16.7697 51.7797 18.1745 51.6984 19.357L51.7069 18.5606C51.7083 18.4273 51.6857 18.4235 51.6391 18.549L51.6147 18.6163C51.6083 17.9956 51.6698 17.3392 51.6592 16.7627C51.6359 15.5234 51.6136 14.2841 51.5924 13.0448ZM51.3984 17.3581C51.4016 17.5412 51.355 18.2418 51.4779 18.346C51.4898 18.3562 51.4993 18.3688 51.5058 18.383C51.5122 18.3972 51.5153 18.4125 51.515 18.428C51.5115 18.6076 51.4709 18.7727 51.3931 18.9235C51.3802 18.9477 51.3775 18.9761 51.3857 19.0024C51.4309 19.1525 51.4224 19.3005 51.3602 19.4464C51.3526 19.4643 51.35 19.4836 51.3528 19.5021C51.3853 19.742 51.3723 19.9804 51.3136 20.2175C51.2574 20.4468 51.356 20.632 51.3412 20.8235C51.3249 21.0332 51.2917 21.2397 51.2415 21.4431C51.1249 21.9102 51.1408 22.3584 51.004 22.8191C50.9341 23.0548 50.9849 23.2789 50.8895 23.5145C50.7952 23.746 50.7835 23.8869 50.7369 24.1047C50.7327 24.1247 50.7232 24.1429 50.7093 24.1573C50.6075 24.259 50.5545 24.3786 50.5503 24.5161C50.5453 24.7012 50.5736 24.7065 50.6351 24.5318L50.8747 23.8501C50.898 24.0458 50.8804 24.2331 50.8217 24.4119C50.8033 24.468 50.8153 24.4757 50.8577 24.435C50.8895 24.4056 50.9001 24.15 50.9478 24.0647C50.9627 24.4109 50.7676 24.7486 50.6976 24.9737C50.6241 25.2079 50.5238 25.4562 50.3966 25.7185C49.9937 26.5486 49.7276 27.1619 49.1721 27.7468C48.8816 27.9299 48.6342 28.1578 48.4299 28.4306C47.4366 29.2649 46.1018 29.9592 44.9356 29.9361C44.7628 29.9329 43.2415 29.9224 43.2139 29.8603C43.2095 29.8504 43.2022 29.842 43.1929 29.8362C43.1837 29.8303 43.1729 29.8274 43.162 29.8277C42.6064 29.8456 42.264 29.5668 41.8039 29.5626C41.7773 29.5626 41.7515 29.5524 41.7318 29.5342C41.5855 29.3988 41.4187 29.3034 41.2314 29.248C41.2086 29.2414 41.1887 29.2273 41.175 29.208C41.1614 29.1887 41.1547 29.1653 41.1561 29.1418C41.1597 29.0738 41.1296 29.0134 41.066 28.9608C41.753 29.3017 42.528 29.5044 43.391 29.5689C50.1782 30.0802 51.2542 22.1648 51.3984 17.3581ZM50.1601 25.8269C50.146 25.8984 50.117 25.9615 50.0732 26.0162C50.0575 26.0352 50.0492 26.0594 50.0499 26.0846C50.0527 26.1975 50.1117 26.1263 50.2269 25.8711C50.2352 25.8519 50.2378 25.831 50.2344 25.8111C50.2153 25.6968 50.2439 25.5968 50.3202 25.5113C50.3347 25.4956 50.3436 25.4753 50.3457 25.4534L50.3764 25.1767C50.3785 25.1562 50.3866 25.1368 50.3997 25.121C50.4591 25.0508 50.5015 24.973 50.527 24.8874C50.5552 24.7962 50.5422 24.7903 50.4877 24.8695L50.4125 24.9789C50.4061 24.9881 50.4015 24.9975 50.3987 25.0073C50.2768 25.3987 50.0626 25.7101 49.9152 26.0836C49.911 26.0948 49.9068 26.1057 49.9025 26.1162C49.7597 26.4668 49.7806 26.477 49.9651 26.1467C50.0195 26.0492 50.0736 25.9433 50.1273 25.829C50.1654 25.749 50.1764 25.7483 50.1601 25.8269Z" fill="black"/>
<path d="M51.6986 19.3568C51.6908 19.7629 51.6604 20.1669 51.6074 20.5687C51.5544 20.9664 51.512 21.6597 51.3508 22.1973C51.2077 22.6728 51.3052 23.3303 51.0413 23.8332C51.0045 23.9033 50.9734 23.9804 50.948 24.0646C50.9003 24.1498 50.8897 24.4055 50.8579 24.4349C50.8154 24.4756 50.8034 24.4679 50.8218 24.4118C50.8805 24.2329 50.8981 24.0457 50.8748 23.85C51.019 23.2637 51.13 22.6714 51.2077 22.0731C51.2247 21.942 51.2731 21.7642 51.353 21.5398C51.4434 21.2852 51.4788 21.018 51.459 20.7381C51.4526 20.654 51.4961 20.4972 51.4674 20.5298C51.4342 20.5677 51.4212 20.5617 51.4282 20.5119C51.5251 19.8821 51.5873 19.2502 51.6148 18.6162L51.6392 18.5489C51.6858 18.4233 51.7085 18.4272 51.707 18.5604L51.6986 19.3568ZM65.0684 21.0664C65.1397 21.5012 65.168 21.9371 65.1532 22.374C65.1373 22.8148 65.1086 23.4755 65.2804 23.8637C65.4472 24.2382 65.5302 24.4998 65.5295 24.6485C65.5285 25.6416 65.7299 27.1954 65.2221 28.0623C65.2913 27.6955 65.3571 27.3262 65.4193 26.9545C65.4214 26.9398 65.4224 26.9243 65.4224 26.9082C65.4048 23.6273 65.3892 23.6424 65.3758 26.9535C65.3758 26.9687 65.3717 26.9836 65.3639 26.9966C65.356 27.0096 65.3447 27.0201 65.3313 27.0271C65.2867 27.0502 65.2744 27.0888 65.2942 27.1428C65.2998 27.1582 65.3016 27.174 65.2995 27.1902L65.2592 27.5447C65.2571 27.5653 65.2486 27.5851 65.2348 27.6015C65.1457 27.7032 65.1002 27.8214 65.098 27.956C65.0973 27.9736 65.0927 27.99 65.0843 28.0055C64.9281 28.2853 64.7231 28.5234 64.4694 28.7198C64.5195 28.6251 64.5909 28.5473 64.6835 28.4862C64.6979 28.4769 64.7097 28.4642 64.718 28.4494C64.7263 28.4345 64.7309 28.4179 64.7312 28.401C64.734 28.3134 64.7754 28.2425 64.8553 28.1885C64.8719 28.1775 64.8848 28.1622 64.8924 28.1443C65.1433 27.5994 65.2698 27.2231 65.2719 27.0155C65.2804 26.2486 65.2242 25.4301 65.3005 24.6716C65.3189 24.4893 65.2348 24.3651 65.0482 24.2992C65.0093 23.2226 65.0161 22.145 65.0684 21.0664Z" fill="black"/>
<path d="M65.0487 24.299C65.2353 24.3649 65.3194 24.489 65.3011 24.6714C65.2247 25.4299 65.2809 26.2483 65.2724 27.0153C65.2703 27.2229 65.1438 27.5991 64.8929 28.1441C64.8853 28.1619 64.8724 28.1773 64.8558 28.1883C64.7759 28.2423 64.7346 28.3131 64.7317 28.4008C64.7314 28.4177 64.7269 28.4343 64.7186 28.4491C64.7102 28.464 64.6984 28.4766 64.684 28.486C64.5914 28.547 64.5201 28.6249 64.4699 28.7195C63.7398 29.2105 62.9298 29.4353 62.04 29.3939C62.0131 29.3925 61.988 29.396 61.9647 29.4044C61.7597 29.478 61.7686 29.5117 61.9912 29.5054C62.6846 29.4865 64.0638 29.3129 64.4699 28.7195C64.7236 28.5232 64.9286 28.285 65.0848 28.0052C65.0933 27.9898 65.0979 27.9733 65.0986 27.9558C65.1007 27.8211 65.1463 27.7029 65.2353 27.6012C65.2491 27.5848 65.2576 27.565 65.2597 27.5444L65.3 27.1899C65.3021 27.1738 65.3004 27.158 65.2947 27.1426C65.2749 27.0886 65.2873 27.05 65.3318 27.0268C65.3453 27.0199 65.3565 27.0093 65.3644 26.9963C65.3722 26.9834 65.3764 26.9684 65.3763 26.9532C65.3898 23.6421 65.4053 23.6271 65.423 26.908C65.423 26.9241 65.4219 26.9395 65.4198 26.9542C65.3576 27.326 65.2919 27.6952 65.2226 28.062C65.0812 28.1532 64.9978 28.2805 64.9724 28.4439C64.969 28.4671 64.9578 28.4886 64.9406 28.5049C64.6787 28.749 64.4052 29.1225 64.0649 29.2466C63.6451 29.3991 63.2804 29.5738 62.8171 29.6148C62.4658 29.6457 62.1181 29.7025 61.7739 29.7852C61.7553 29.7894 61.7383 29.7984 61.7247 29.8114C61.711 29.8244 61.7013 29.8408 61.6965 29.8589C61.6703 29.9536 61.676 30.0458 61.7134 30.1356L61.2607 30.1303C61.2332 30.13 61.2068 30.1191 61.1872 30.0999C61.1676 30.0806 61.1563 30.0545 61.1558 30.0272L61.1346 29.1824C61.134 29.1547 61.1445 29.1279 61.1638 29.1078C61.183 29.0877 61.2095 29.0759 61.2374 29.0751C61.67 29.0632 62.1004 29.0313 62.5287 28.9794C65.2237 28.6533 65.0721 26.5398 65.0487 24.299ZM50.1279 25.8286C50.0742 25.9429 50.0201 26.0488 49.9657 26.1463C49.7812 26.4766 49.7604 26.4665 49.9032 26.1158C49.9074 26.1053 49.9116 26.0944 49.9159 26.0832C50.0633 25.7097 50.2774 25.3983 50.3993 25.007C50.4022 24.9971 50.4067 24.9877 50.4131 24.9786L50.4884 24.8691C50.5428 24.7899 50.5559 24.7959 50.5276 24.887C50.5022 24.9726 50.4598 25.0504 50.4004 25.1206C50.3872 25.1364 50.3791 25.1558 50.3771 25.1763L50.3463 25.453C50.3442 25.4749 50.3353 25.4952 50.3209 25.5109C50.2445 25.5964 50.2159 25.6964 50.235 25.8107C50.2385 25.8306 50.2359 25.8515 50.2276 25.8707C50.1124 26.126 50.0534 26.1971 50.0505 26.0842C50.0499 26.0591 50.0582 26.0348 50.0739 26.0158C50.1177 25.9611 50.1467 25.898 50.1608 25.8265C50.177 25.7479 50.1661 25.7486 50.1279 25.8286ZM10.6112 27.0921C10.5783 27.7159 10.3144 28.5691 9.65918 28.851L9.68568 28.75C9.78605 28.7374 9.85248 28.6862 9.885 28.5964C9.89322 28.5746 9.9085 28.5561 9.92846 28.5438C10.2094 28.3692 10.4522 27.7327 10.4723 27.4119C10.4907 27.1138 10.5469 26.7985 10.6409 26.4661C10.6515 26.4289 10.6522 26.4293 10.643 26.4672C10.5957 26.6621 10.5851 26.8704 10.6112 27.0921ZM49.1727 27.7464C48.8985 28.1644 48.5479 28.5063 48.121 28.7721L48.4306 28.4302C48.6349 28.1574 48.8822 27.9295 49.1727 27.7464Z" fill="black"/>
<path d="M39.7189 28.0358C40.1289 28.4005 40.578 28.7087 41.0664 28.9605C41.13 29.0131 41.16 29.0734 41.1565 29.1414C41.1551 29.165 41.1617 29.1883 41.1754 29.2076C41.1891 29.2269 41.209 29.2411 41.2318 29.2477C41.4191 29.3031 41.5859 29.3985 41.7322 29.5338C41.7519 29.5521 41.7777 29.5622 41.8043 29.5622C42.2644 29.5665 42.6068 29.8452 43.1624 29.8274C43.1733 29.8271 43.1841 29.83 43.1933 29.8358C43.2026 29.8416 43.2099 29.85 43.2143 29.86C43.2419 29.922 44.7632 29.9326 44.936 29.9357C46.1022 29.9589 47.437 29.2645 48.4303 28.4303L48.1208 28.7722C47.4529 29.5191 46.6015 29.7684 45.64 29.9199C44.1822 30.1493 42.7627 30.0514 41.3696 29.4171C41.1639 29.3234 40.9233 29.133 40.6847 29.0162C40.3688 28.8627 40.0879 28.6007 39.8186 28.3766C39.6956 28.2735 39.6882 28.183 39.7189 28.0358ZM72.5311 28.0621C72.7919 28.3658 73.0916 28.5769 73.4302 28.6954C74.1822 28.9591 74.9967 29.086 75.8738 29.0762C75.9014 29.0759 75.928 29.0864 75.948 29.1055C75.968 29.1245 75.9798 29.1506 75.9809 29.1783L76 29.6885C75.4494 29.5861 74.896 29.496 74.3398 29.4181C74.0779 29.3824 73.885 29.2477 73.6136 29.1993C73.5992 29.1967 73.5855 29.1912 73.5735 29.1832C73.5615 29.1753 73.5513 29.165 73.5436 29.153C73.4644 29.0317 73.3542 28.9566 73.2128 28.9279C73.1944 28.9237 73.1782 28.9156 73.1641 28.9037C73.0121 28.7718 72.8527 28.6487 72.6859 28.5344C72.5177 28.4201 72.4661 28.2627 72.5311 28.0621ZM17.9855 28.2462C18.7446 28.9605 20.2776 29.0741 21.308 29.0562C21.3356 29.0556 21.3624 29.0658 21.3826 29.0844C21.4027 29.1031 21.4148 29.1288 21.4162 29.1562L21.449 29.8505C21.4257 29.7656 21.3763 29.6913 21.3006 29.6275C21.2835 29.6125 21.2618 29.6036 21.2391 29.6022C20.555 29.558 19.9486 29.4711 19.4199 29.3413C18.9979 29.2375 18.6117 29.0222 18.2611 28.6954C18.2465 28.6823 18.229 28.6732 18.2102 28.6691C17.9735 28.6179 17.8985 28.4769 17.9855 28.2462ZM64.4696 28.7196C64.0636 29.3129 62.6843 29.4865 61.9909 29.5054C61.7683 29.5117 61.7595 29.4781 61.9644 29.4044C61.9878 29.396 62.0129 29.3925 62.0397 29.3939C62.9295 29.4353 63.7395 29.2105 64.4696 28.7196ZM9.65892 28.8511C9.5317 28.9935 9.37515 29.0846 9.18927 29.1246C9.1723 29.1281 9.15746 29.1355 9.14474 29.1467C9.03589 29.2351 8.88994 29.2957 8.70689 29.3287C8.65459 29.3385 8.60299 29.3473 8.5521 29.355C7.69549 29.4847 7.68842 29.4493 8.5309 29.2487C8.91821 29.1569 9.29422 29.0243 9.65892 28.8511Z" fill="black"/>
</svg>
