<svg width="100" height="40" viewBox="0 0 100 40" fill="none" xmlns="http://www.w3.org/2000/svg">
<path d="M19.8856 23.9896H22.2318V17.465L25.0644 8.66995H22.7826L21.1875 14.2982H21.1445L19.5423 8.66995H17.053L19.8856 17.465V23.9896ZM29.1274 24.21C30.1073 24.2761 31.073 23.9087 31.774 23.2034C32.4249 22.4098 32.754 21.3959 32.6896 20.3599V12.307C32.754 11.271 32.4249 10.2497 31.774 9.44879C31.073 8.74343 30.1073 8.37605 29.1274 8.44218C28.1474 8.37605 27.1889 8.74343 26.4879 9.44879C25.837 10.2423 25.5008 11.2636 25.5651 12.2996V20.3599C25.5008 21.3959 25.8298 22.4098 26.4879 23.2034C27.1889 23.9087 28.1474 24.2761 29.1274 24.21ZM27.9042 12.1453C27.9042 11.1461 28.3119 10.6391 29.1345 10.6391C29.9571 10.6391 30.3649 11.1461 30.3649 12.1453V20.5068C30.3649 21.5134 29.9571 22.0204 29.1345 22.0204C28.3191 22.0204 27.9042 21.5134 27.9042 20.5068V12.1453ZM37.6753 24.21C38.641 24.2761 39.5852 23.9161 40.279 23.2107C40.9156 22.4098 41.2375 21.3885 41.166 20.3525V8.66995H38.9056V20.5289C38.9414 20.933 38.8341 21.3445 38.598 21.6677C38.3691 21.9102 38.0473 22.0425 37.7111 22.0204C37.3749 22.0498 37.0387 21.9176 36.8026 21.6677C36.5666 21.3371 36.4521 20.933 36.4879 20.5289V8.66995H34.1703V20.3599C34.1059 21.3959 34.4278 22.4172 35.0644 23.2181C35.7583 23.9161 36.7096 24.2761 37.6753 24.21ZM45.1717 17.4209H46.0158C46.4378 17.3768 46.8598 17.5311 47.1603 17.8397C47.4249 18.2805 47.5394 18.7949 47.4893 19.3092V22.1086C47.4679 22.5127 47.475 22.9168 47.5036 23.3209C47.5322 23.5634 47.5895 23.7912 47.6753 24.019H50.0644C49.95 23.7691 49.8784 23.4973 49.8498 23.2181C49.8141 22.8654 49.7998 22.5127 49.8069 22.16V19.4414C49.8355 18.6993 49.7139 17.9646 49.4564 17.2739C49.2275 16.7449 48.7769 16.3481 48.2261 16.2012V16.1571C49.249 15.7383 49.7568 14.7317 49.7568 13.1373V12.1894C49.8355 11.2269 49.5351 10.2717 48.9271 9.52961C48.1903 8.89038 47.239 8.58178 46.2804 8.6626H42.8255V23.9822H45.1717V17.4209ZM45.1717 10.8595H46.2375C46.5809 10.8301 46.9171 10.9697 47.146 11.2342C47.3606 11.5943 47.4607 12.0131 47.4249 12.4392V13.6222C47.4679 14.0704 47.3463 14.5259 47.0744 14.886C46.7883 15.1505 46.4092 15.2901 46.0158 15.2607H45.1646V10.8595H45.1717ZM54.4636 24.21C55.4364 24.2761 56.3949 23.9087 57.0887 23.2034C57.7397 22.3952 58.0687 21.3665 57.9972 20.3158C58.0186 19.4414 57.8255 18.5744 57.4464 17.7956C56.9099 16.8845 56.2232 16.0836 55.4221 15.415C54.8141 14.908 54.2847 14.3202 53.8341 13.6663C53.5408 13.2034 53.3835 12.6597 53.3763 12.1086C53.3763 11.1314 53.7697 10.6464 54.5494 10.6464C54.8784 10.6244 55.2003 10.7567 55.4221 11.0065C55.651 11.3371 55.7583 11.7486 55.7225 12.1527V12.9389H57.94V12.307C58.0115 11.2783 57.7111 10.2644 57.0959 9.44879C56.4307 8.75077 55.5008 8.3834 54.5494 8.44952C53.5837 8.3834 52.6395 8.74343 51.9528 9.44879C51.3162 10.235 50.9943 11.2416 51.0587 12.2629C51.0444 13.1005 51.2447 13.9234 51.6381 14.6582C52.1817 15.5472 52.8684 16.3481 53.6624 17.0094C54.2633 17.5237 54.7855 18.1189 55.2218 18.7875C55.5079 19.3018 55.6581 19.8896 55.6438 20.4848C55.6796 20.9036 55.5723 21.3151 55.3362 21.6604C55.1002 21.9176 54.7711 22.0498 54.4278 22.0278C53.6124 22.0278 53.1975 21.5281 53.1975 20.5362V19.4929H51.0158V20.3672C50.9514 21.3959 51.259 22.4172 51.8885 23.2254C52.5608 23.9161 53.5051 24.2835 54.4636 24.21ZM61.1732 23.9896H63.5194V10.8595H65.9729V8.66995H58.7268V10.8595H61.1732V23.9896ZM70.4006 24.21C71.3806 24.2761 72.3462 23.9087 73.0473 23.2034C73.6982 22.4098 74.0272 21.3959 73.9628 20.3599V12.307C74.0272 11.271 73.6982 10.2497 73.0473 9.44879C71.5308 8.10419 69.2847 8.10419 67.7683 9.44879C67.1174 10.2423 66.7812 11.2636 66.8455 12.2996V20.3599C66.7812 21.3959 67.1102 22.4098 67.7683 23.2034C68.4621 23.9087 69.4206 24.2761 70.4006 24.21ZM69.1703 12.1453C69.1703 11.1461 69.578 10.6391 70.4006 10.6391C71.2232 10.6391 71.6309 11.1461 71.6309 12.1453V20.5068C71.6309 21.5134 71.2232 22.0204 70.4006 22.0204C69.5852 22.0204 69.1703 21.5134 69.1703 20.5068V12.1453ZM77.8756 17.4209H78.6839C79.1059 17.3768 79.5279 17.5311 79.8284 17.8397C80.093 18.2805 80.2075 18.7949 80.1574 19.3092V22.1086C80.1503 22.5054 80.1646 22.9021 80.2003 23.2916C80.2289 23.534 80.2862 23.7618 80.372 23.9896H82.754C82.6467 23.7324 82.5751 23.4679 82.5465 23.1887C82.5108 22.836 82.4965 22.4833 82.5036 22.1306V19.4414C82.5322 18.6993 82.4106 17.9646 82.1531 17.2739C81.9242 16.7449 81.4736 16.3481 80.9228 16.2012V16.1571C81.9528 15.7383 82.4607 14.7317 82.4535 13.1373V12.1894C82.5322 11.2269 82.2318 10.2717 81.6238 9.52961C80.887 8.89038 79.9357 8.58178 78.9772 8.6626H75.5079V23.9822H77.8541L77.8756 17.4209ZM77.8756 10.8595H78.9414C79.2847 10.8301 79.6138 10.9697 79.8427 11.2342C80.0644 11.5943 80.1717 12.0131 80.1288 12.4392V13.6222C80.1717 14.0704 80.0501 14.5259 79.7783 14.886C79.4922 15.1505 79.1131 15.2901 78.7196 15.2607H77.8684V10.8595H77.8756ZM85.9299 23.9896H88.2762V17.465L91.1088 8.66995H88.8269L87.2318 14.2982H87.1889L85.5866 8.66995H83.0973L85.9299 17.465V23.9896Z" fill="#EA3323"/>
<path d="M97.5465 0H8.03296V32.4761H100V0H97.5465ZM97.5465 29.9559H10.4292V2.52021H97.5465V29.9559Z" fill="#EA3323"/>
<path d="M90.5651 32.0716C90.2074 32.0642 89.8569 31.976 89.5422 31.8144V37.4867H2.45351V10.0436H9.27754C8.93419 9.21337 9.04149 8.25819 9.55651 7.52344H0V39.9996H91.9886V31.8071C91.5308 31.9834 91.0515 32.0716 90.5651 32.0716Z" fill="#EA3323"/>
<path d="M10.9299 30.889L1.917 39.4563L0.185958 37.6782L9.19883 29.1109L10.9299 30.889ZM9.75677 1.77811L1.78109 9.31668L0.0500488 7.53857L8.02573 0C8.02573 0.00734754 9.75677 1.77811 9.75677 1.77811Z" fill="#EA3323"/>
</svg>
