<svg width="142" height="34" viewBox="0 0 142 34" fill="none" xmlns="http://www.w3.org/2000/svg">
<path d="M95.917 25.4101V24.9388H96.1014L97.3919 24.965C98.147 24.9737 98.8976 24.9737 99.6439 24.965L100.948 24.9388H101.119V25.4101V25.8815H100.368H99.6175V29.4294V32.9774H100.368H101.119V33.4487V33.9201H100.934L99.6439 33.8939C98.8976 33.8852 98.147 33.8852 97.3919 33.8939L96.0882 33.9201H95.917V33.4487V32.9774H96.6676H97.4183V29.4294V25.8815H96.6676H95.917V25.4101Z" fill="black"/>
<path d="M101.903 25.4101V24.9388H103.72H105.551L105.604 24.965C105.63 24.9737 106.407 25.912 107.935 27.7798C109.489 29.6826 110.252 30.6208 110.226 30.5946L110.265 30.6339V28.2642V25.8815H109.554H108.843V25.4101V24.9388H108.975L109.936 24.965C110.498 24.9737 111.06 24.9737 111.622 24.965C112.254 24.9475 112.575 24.9388 112.583 24.9388H112.715V25.4101V25.8815H112.004H111.293V29.8091C111.293 32.4188 111.284 33.7411 111.266 33.7761C111.249 33.8284 111.214 33.8677 111.161 33.8939C111.126 33.9113 110.999 33.9201 110.779 33.9201C110.56 33.9201 110.432 33.9113 110.397 33.8939C110.38 33.8852 109.374 32.6676 107.381 30.2412C105.371 27.7536 104.374 26.5273 104.392 26.5622L104.353 26.523V29.7437V32.9774H105.064H105.775V33.4487V33.9201H105.643C105.652 33.9201 105.331 33.9113 104.682 33.8939C104.12 33.8852 103.558 33.8852 102.996 33.8939C102.346 33.9113 102.026 33.9201 102.035 33.9201H101.903V33.4487V32.9774H102.614H103.325V29.4294V25.8815H102.614H101.903V25.4101Z" fill="black"/>
<path d="M113.76 25.4101V24.9388H116.671C118.664 24.9388 119.7 24.9432 119.779 24.9519C120.508 25.0043 121.157 25.1745 121.728 25.4625C122.852 26.0298 123.563 26.955 123.861 28.2381C123.879 28.3341 123.896 28.4301 123.914 28.5261C124.063 29.3727 124.028 30.1713 123.809 30.922C123.475 32.0566 122.799 32.8771 121.781 33.3833C121.298 33.6364 120.714 33.8066 120.029 33.8939C119.932 33.9026 118.857 33.9113 116.803 33.9201H113.76V33.4487V32.9774H114.472H115.183V29.4294V25.8815H114.472H113.76V25.4101ZM119.16 25.8945C119.098 25.8858 118.76 25.8815 118.146 25.8815H117.303V29.4294V32.9774H118.264C118.958 32.9687 119.335 32.96 119.397 32.9512C120.161 32.8552 120.74 32.589 121.135 32.1526C121.469 31.7773 121.662 31.2013 121.715 30.4244C121.75 29.7262 121.75 29.076 121.715 28.4737C121.706 28.4301 121.702 28.3952 121.702 28.369C121.614 27.3914 121.267 26.7106 120.661 26.3266C120.582 26.2829 120.499 26.2393 120.411 26.1957C120.077 26.0386 119.66 25.9382 119.16 25.8945Z" fill="black"/>
<path d="M125.123 25.4101V24.9388H125.308L126.598 24.965C127.353 24.9737 128.104 24.9737 128.85 24.965L130.154 24.9388H130.325V25.4101V25.8815H129.575H128.824V29.4294V32.9774H129.575H130.325V33.4487V33.9201H130.141L128.85 33.8939C128.104 33.8852 127.353 33.8852 126.598 33.8939L125.295 33.9201H125.123V33.4487V32.9774H125.874H126.625V29.4294V25.8815H125.874H125.123V25.4101Z" fill="black"/>
<path d="M135.903 24.7948H136.693H136.706C136.82 24.8384 136.886 24.8864 136.904 24.9388L140.065 32.912L140.091 32.9774H140.802H141.5V33.4487V33.9201H141.342L140.209 33.8939C139.568 33.8852 138.875 33.8852 138.129 33.8939L136.851 33.9201H136.68V33.4487V32.9774H137.246L137.813 32.9643L137.576 32.3752L137.338 31.786H135.719C134.639 31.786 134.099 31.7904 134.099 31.7991L133.862 32.3883L133.638 32.9643C133.638 32.9731 133.827 32.9774 134.204 32.9774H134.757V33.4487V33.9201H134.626L133.651 33.8939C133.08 33.8852 132.554 33.8852 132.071 33.8939L131.241 33.9201H131.123V33.4487V32.9774H131.821H132.532L132.558 32.912L135.719 24.9388C135.745 24.8952 135.806 24.8472 135.903 24.7948ZM136.351 29.2723L135.732 27.7013H135.719L134.481 30.8434H135.732L136.97 30.8303L136.351 29.2723Z" fill="black"/>
<path d="M0.693392 18.5586L2.47035 18.2925V2.0571L0.500244 1.82897L0.616134 0.0799561H13.0549L12.7458 4.98479L10.2735 4.90875L10.119 1.82897H6.25606V9.12919H7.95576L8.34206 7.45622L10.0418 7.49424V12.5131H8.34206L7.91713 10.8022H6.21743V18.5206H10.119L10.4667 15.1747L13.0935 15.2507L13.2866 20.3457H0.616134L0.693392 18.5586Z" fill="black"/>
<path d="M14.4446 20.4185L14.5218 18.9356L15.9125 18.6695V8.44158L14.29 8.2895V6.76862L18.3848 6.19829L18.6938 7.07279V7.64312C19.6596 6.61653 20.8571 6.00818 22.4023 6.00818C24.6428 6.00818 26.2652 7.33895 26.2652 9.96246V18.6695L27.7331 18.9356L27.6559 20.4185H22.8272V10.6469C22.8272 9.24004 22.325 8.44158 21.0116 8.44158C20.5867 8.44158 20.2776 8.51763 19.93 8.63169C19.7368 8.8218 19.505 9.04993 19.3505 9.27806V18.6315L20.8184 18.8976L20.7026 20.3805L14.4446 20.4185Z" fill="black"/>
<path d="M92.5159 20.4185L92.5931 18.9356L93.9838 18.6695V8.44158L92.3613 8.2895V6.76862L96.4561 6.19829L96.7651 7.07279V7.64312C97.7309 6.61653 98.9284 6.00818 100.474 6.00818C102.714 6.00818 104.337 7.33895 104.337 9.96246V18.6695L105.804 18.9356L105.727 20.4185H100.898V10.6469C100.898 9.24004 100.396 8.44158 99.0829 8.44158C98.658 8.44158 98.3489 8.51763 98.0013 8.63169C97.8081 8.8218 97.5763 9.04993 97.4218 9.27806V18.6315L98.8897 18.8976L98.7738 20.3805L92.5159 20.4185Z" fill="black"/>
<path d="M35.4215 20.1167C34.842 20.3449 33.8376 20.611 32.5242 20.611C30.7859 20.611 29.2021 19.8506 29.2021 17.3411V8.36796L27.541 8.10181L27.6183 6.31478L29.4725 6.23873L30.2837 3.50115L32.6788 3.38708V6.31478H35.2283L35.0352 8.10181L32.6788 8.36796V17.3031C32.6788 18.0255 33.1037 18.5198 33.8763 18.5198H35.2669L35.4215 20.1167Z" fill="black"/>
<path d="M132.114 20.415L132.191 18.9321L133.504 18.6279V8.40004L131.959 8.24795V6.72707L136.208 6.15674L136.479 7.14531V7.48751C137.599 6.68905 139.105 6.15674 140.882 6.15674L141.501 6.68905L141.076 10.5293L138.758 10.4532L138.526 8.40004C137.985 8.47608 137.483 8.62817 137.019 8.93234V18.6279L138.487 18.9321L138.372 20.415H132.114Z" fill="black"/>
<path d="M71.2712 20.415L71.3485 18.9321L72.6619 18.6279V8.40004L71.1167 8.24795V6.72707L75.366 6.15674L75.6364 7.14531V7.48751C76.7566 6.68905 78.2632 6.15674 80.0401 6.15674L80.6582 6.68905L80.2333 10.5293L77.9155 10.4532L77.6837 8.40004C77.1429 8.47608 76.6407 8.62817 76.1772 8.93234V18.6279L77.6451 18.9321L77.5292 20.415H71.2712Z" fill="black"/>
<path d="M36.4663 20.415L36.5435 18.9321L37.857 18.6279V8.40004L36.3118 8.24795V6.72707L40.561 6.15674L40.8314 7.14531V7.48751C41.9517 6.68905 43.4582 6.15674 45.2352 6.15674L45.8533 6.68905L45.4284 10.5293L43.1106 10.4532L42.8788 8.40004C42.338 8.47608 41.8358 8.62817 41.3722 8.93234V18.6279L42.8402 18.9321L42.7243 20.415H36.4663Z" fill="black"/>
<path d="M49.8683 14.1852C49.8683 16.6186 50.9499 18.5197 53.1132 18.5197C54.2334 18.5197 55.0833 18.2916 56.1263 17.7973L56.7057 19.1281C55.6627 19.9645 54.0789 20.6109 52.1474 20.6109C48.3617 20.6109 46.1985 17.4171 46.1985 13.2727C46.1985 9.77466 47.7823 5.93445 52.0702 5.93445C55.8559 5.93445 57.2466 9.35642 57.2466 13.1966L56.8989 14.1092L49.8683 14.1852ZM49.791 12.5503L54.1176 12.3602C54.0403 10.6492 53.6926 7.94961 51.9929 7.94961C51.568 7.94961 51.2976 8.02565 50.7954 8.29181C50.0614 9.43247 49.791 11.5617 49.791 12.5503Z" fill="black"/>
<path d="M109.9 14.1852C109.9 16.6186 110.981 18.5197 113.145 18.5197C114.265 18.5197 115.115 18.2916 116.158 17.7973L116.737 19.1281C115.694 19.9645 114.11 20.6109 112.179 20.6109C108.393 20.6109 106.23 17.4171 106.23 13.2727C106.23 9.77466 107.814 5.93445 112.102 5.93445C115.887 5.93445 117.278 9.35642 117.278 13.1966L116.93 14.1092L109.9 14.1852ZM109.823 12.5503L114.149 12.3602C114.072 10.6492 113.724 7.94961 112.024 7.94961C111.599 7.94961 111.329 8.02565 110.827 8.29181C110.093 9.43247 109.823 11.5617 109.823 12.5503Z" fill="black"/>
<path d="M84.6356 14.1852C84.6356 16.6186 85.7173 18.5197 87.8805 18.5197C89.0008 18.5197 89.8506 18.2916 90.8936 17.7973L91.4731 19.1281C90.4301 19.9645 88.8463 20.6109 86.9148 20.6109C83.1291 20.6109 80.9658 17.4171 80.9658 13.2727C80.9658 9.77466 82.5496 5.93445 86.8375 5.93445C90.6232 5.93445 92.0139 9.35642 92.0139 13.1966L91.6662 14.1092L84.6356 14.1852ZM84.597 12.5503L88.9235 12.3602C88.8463 10.6492 88.4986 7.94961 86.7989 7.94961C86.374 7.94961 86.1036 8.02565 85.6014 8.29181C84.8674 9.43247 84.5584 11.5617 84.597 12.5503Z" fill="black"/>
<path d="M84.6359 14.1852C84.6359 16.6186 85.7175 18.5197 87.8808 18.5197C89.001 18.5197 89.8509 18.2916 90.8939 17.7973L91.4733 19.1281C90.4303 19.9645 88.8465 20.6109 86.915 20.6109C83.1293 20.6109 80.9661 17.4171 80.9661 13.2727C80.9661 9.77466 82.5499 5.93445 86.8378 5.93445C90.6235 5.93445 92.0141 9.35642 92.0141 13.1966L91.6665 14.1092L84.6359 14.1852ZM84.5973 12.5503L88.9238 12.3602C88.8465 10.6492 88.4988 7.94961 86.7991 7.94961C86.3742 7.94961 86.1038 8.02565 85.6016 8.29181C84.8677 9.43247 84.5586 11.5617 84.5973 12.5503Z" fill="black"/>
<path d="M127.049 20.4185L126.701 19.2018C125.736 20.0763 124.809 20.6086 123.379 20.6086C121.139 20.6086 119.169 19.506 119.169 16.5022V8.02334L117.546 7.87125V6.54048L122.259 6.00818L122.607 7.22488V16.084C122.607 17.6429 123.263 18.4414 124.499 18.4414C124.847 18.4414 125.311 18.4033 125.736 18.2513C125.967 18.0231 126.199 17.757 126.392 17.4528V8.06136L124.731 7.90928V6.57851L129.483 6.0462L129.83 7.26291V18.6695L131.298 18.9356L131.105 20.4185H127.049Z" fill="black"/>
<path d="M64.3153 18.5577C63.5813 18.5577 62.9632 18.4437 62.4997 18.1775V9.20433C62.6928 8.90016 62.9246 8.63401 63.1564 8.36785C63.5813 8.21576 63.9676 8.17774 64.4312 8.17774C66.3627 8.17774 66.7103 10.1169 66.7103 13.5769C66.7103 16.9228 66.2081 17.8353 66.0536 18.2155C65.5514 18.4437 65.0106 18.5577 64.3153 18.5577ZM70.1097 12.9305C70.1097 8.63401 68.8349 5.93445 65.5901 5.93445C63.4654 5.93445 62.4224 7.15115 62.0361 7.64544V7.22719L61.6885 6.01049L57.4392 6.58082V8.06368L59.0617 8.25379V25.5918L57.671 25.858L57.5937 27.3028H63.8131L63.929 25.858L62.4611 25.5918V20.1166C63.0405 20.4588 63.8904 20.6489 64.7788 20.6489C70.0711 20.6109 70.1097 15.3259 70.1097 12.9305Z" fill="black"/>
<path d="M140.376 19.0887C140.801 19.0887 141.071 19.3549 141.071 19.7731C141.071 20.1914 140.801 20.4575 140.376 20.4575C139.951 20.4575 139.681 20.1914 139.681 19.7731C139.681 19.3929 139.951 19.0887 140.376 19.0887ZM140.376 20.2674C140.646 20.2674 140.878 20.0773 140.878 19.7731C140.878 19.469 140.685 19.2789 140.376 19.2789C140.106 19.2789 139.874 19.469 139.874 19.7731C139.874 20.0773 140.106 20.2674 140.376 20.2674ZM140.067 20.0773V19.9632L140.144 19.9252V19.507H140.067V19.3929H140.415C140.569 19.3929 140.685 19.4309 140.685 19.583C140.685 19.6971 140.646 19.7351 140.569 19.7731C140.608 19.8492 140.646 19.8872 140.685 19.9252H140.724V20.0393H140.531C140.492 20.0013 140.415 19.9252 140.376 19.8112H140.337V19.9252L140.415 19.9632V20.0773H140.067ZM140.337 19.545V19.7351H140.376C140.453 19.7351 140.492 19.6971 140.492 19.621C140.492 19.545 140.453 19.545 140.337 19.545Z" fill="black"/>
</svg>
