<svg width="52" height="32" viewBox="0 0 52 32" fill="none" xmlns="http://www.w3.org/2000/svg">
<path d="M3.08012 30.3077H1V31H26.6549V23.2308H25.8844C25.1448 28.2154 19.9779 29.4615 17.4869 29.4615H11.8629C10.1371 29.4615 9.80842 28.5385 9.85978 28.0769V16.2308C11.1181 16.1282 14.3282 15.9846 17.1017 16.2308C19.8752 16.4769 19.9522 19.6154 19.6441 21.1538H20.8767V9.38462H19.6441C20.3837 13.2615 18.2573 14.4359 17.1017 14.5385H9.85978V3.92308C9.85978 2.69231 11.1952 2.38462 11.8629 2.38462C14.2255 2.15385 19.6595 1.93846 22.4946 2.92308C25.3297 3.90769 25.6276 7.48718 25.4222 9.15385H26.3467C26.5932 2.44615 32.6641 1.84615 35.6687 2.38462V28.2308C35.6687 29.7077 34.7956 30.1282 34.359 30.1538L30.9692 30.3077V31H45.1448V30.3077C44.5799 30.3077 43.1418 30.2615 41.9091 30.0769C40.6764 29.8923 40.5223 28.6667 40.5994 28.0769V2.38462H42.6795C49.3975 2.2 50.6148 6.97436 50.3837 9.38462H51V1H1.07704V1.69231H2.77196C4.68259 1.87692 5.10889 2.58974 5.08321 2.92308C5.10889 11.1282 5.14484 27.8154 5.08321 28.9231C5.02157 30.0308 3.72214 30.3077 3.08012 30.3077Z" fill="#DC3843" stroke="#DC3843"/>
</svg>
