<svg width="52" height="32" viewBox="0 0 52 32" fill="none" xmlns="http://www.w3.org/2000/svg">
<path d="M3.33012 30.3077H1.25V31H26.9049V23.2308H26.1344C25.3948 28.2154 20.2279 29.4615 17.7369 29.4615H12.1129C10.3871 29.4615 10.0584 28.5385 10.1098 28.0769V16.2308C11.3681 16.1282 14.5782 15.9846 17.3517 16.2308C20.1252 16.4769 20.2022 19.6154 19.8941 21.1538H21.1267V9.38462H19.8941C20.6337 13.2615 18.5073 14.4359 17.3517 14.5385H10.1098V3.92308C10.1098 2.69231 11.4452 2.38462 12.1129 2.38462C14.4755 2.15385 19.9095 1.93846 22.7446 2.92308C25.5797 3.90769 25.8776 7.48718 25.6722 9.15385H26.5967C26.8432 2.44615 32.9141 1.84615 35.9187 2.38462V28.2308C35.9187 29.7077 35.0456 30.1282 34.609 30.1538L31.2192 30.3077V31H45.3948V30.3077C44.8299 30.3077 43.3918 30.2615 42.1591 30.0769C40.9264 29.8923 40.7723 28.6667 40.8494 28.0769V2.38462H42.9295C49.6475 2.2 50.8648 6.97436 50.6337 9.38462H51.25V1H1.32704V1.69231H3.02196C4.93259 1.87692 5.35889 2.58974 5.33321 2.92308C5.35889 11.1282 5.39484 27.8154 5.33321 28.9231C5.27157 30.0308 3.97214 30.3077 3.33012 30.3077Z" fill="black" stroke="black"/>
</svg>
