<svg width="101" height="100" viewBox="0 0 101 100" fill="none" xmlns="http://www.w3.org/2000/svg">
<circle cx="50.5" cy="50" r="50" fill="#E8F3FF"/>
<path d="M48.4958 24.6255C45.882 25.5224 43.6001 26.3349 43.4237 26.4405C42.8325 26.7887 42.5628 27.6328 42.8325 28.3293C42.8844 28.4981 43.4341 29.1418 44.0461 29.7643L45.1455 30.9145L35.5407 40.6962C30.2612 46.0777 25.8633 50.6256 25.77 50.8156C25.3343 51.7125 25.8737 52.831 26.8383 53.021C27.7303 53.2109 27.1599 53.7279 37.6567 43.0599L47.386 33.1832L48.5062 34.3017C49.1182 34.9243 49.7509 35.4835 49.9168 35.5363C50.6325 35.8212 51.5038 35.4941 51.8357 34.8293C52.1365 34.2067 55.1653 24.8577 55.1653 24.5306C55.1653 23.7919 54.3355 22.9794 53.599 23.0005C53.402 23.0005 51.1097 23.7392 48.4958 24.6255ZM51.0889 27.2319C51.0682 27.3057 50.7674 28.2132 50.4355 29.2473L49.8235 31.115L48.5062 29.7749L47.1785 28.4242L49.0663 27.77C51.1823 27.0525 51.1615 27.0525 51.0889 27.2319Z" fill="#007BFF"/>
<path d="M57.6023 28.3082C57.1874 28.4981 56.8451 28.8991 56.7206 29.3317C56.6584 29.5533 56.6169 33.4576 56.6169 39.5566V49.4333L55.9531 49.7182C55.6004 49.8765 54.9366 50.2247 54.4906 50.4779C54.0445 50.7417 53.6608 50.9528 53.6504 50.9528C53.6296 50.9528 53.6089 49.5599 53.5882 47.8505C53.557 44.9065 53.5467 44.7271 53.3392 44.4527C53.2251 44.2945 52.9969 44.0623 52.8413 43.9462C52.5613 43.7247 52.4472 43.7247 47.3336 43.7247C42.22 43.7247 42.1059 43.7247 41.8259 43.9462C41.6703 44.0623 41.4421 44.2945 41.328 44.4527C41.1102 44.7376 41.1102 44.801 41.0791 56.9885C41.0583 69.0811 41.0583 69.2499 41.2658 69.6826C41.4006 69.9569 41.6184 70.1996 41.8778 70.3473C42.2719 70.5795 42.3653 70.5795 46.0578 70.5795H49.8437L50.2483 71.1809C50.8187 72.0357 52.2605 73.5024 53.2977 74.2727C54.3661 75.0746 56.3576 76.0771 57.6023 76.4358C64.9252 78.5779 72.5385 74.4415 74.8619 67.0762C75.7124 64.3433 75.7124 61.1988 74.8619 58.4658C73.9906 55.7117 72.1443 53.0737 69.9246 51.3854L69.1675 50.8156V40.1581C69.1675 29.6061 69.1675 29.49 68.9496 29.0468C68.7941 28.7197 68.6177 28.5403 68.2962 28.382C67.8709 28.171 67.6946 28.1605 62.8818 28.1605C58.9714 28.171 57.8512 28.2027 57.6023 28.3082ZM66.0557 40.3058C66.0557 48.8213 66.0454 49.2856 65.8794 49.2117C64.8111 48.8002 62.3632 48.473 60.8488 48.5575L59.7286 48.6208V39.9681V31.3261H62.8922H66.0557V40.3058ZM50.4972 50.4146V53.9917L49.9371 54.8254C48.8584 56.4187 48.0804 58.3708 47.7381 60.344C47.3959 62.2645 47.5514 64.9764 48.1012 66.7597L48.2983 67.4139H46.2342H44.17V57.1257V46.8375H47.3336H50.4972V50.4146ZM64.2095 52.0502C66.5744 52.6622 68.7422 54.1289 70.2254 56.1232C70.8996 57.0202 71.7917 58.8984 72.0925 60.0275C72.4036 61.2304 72.4348 64.2166 72.1443 65.3035C71.0137 69.4926 68.1613 72.4366 64.1991 73.5024C63.3278 73.7451 62.9959 73.7767 61.5438 73.7767C60.0709 73.7873 59.7701 73.7556 58.847 73.5024C52.8725 71.8668 49.3977 65.7045 51.078 59.732C52.2294 55.6379 55.4967 52.6727 59.7493 51.8391C60.8903 51.6175 62.944 51.7125 64.2095 52.0502Z" fill="#007BFF"/>
<path d="M57.7066 57.7798C56.4411 58.1069 56.2233 59.9535 57.3643 60.6605C58.3393 61.262 59.6254 60.4811 59.6254 59.2993C59.6254 58.2652 58.6919 57.5371 57.7066 57.7798Z" fill="#007BFF"/>
<path d="M64.1367 57.9803C63.9708 58.0648 62.2905 59.6898 60.4131 61.5891C56.7827 65.2718 56.5338 65.5883 56.6686 66.3375C56.8761 67.4455 58.1104 68.0153 59.0232 67.4244C59.2099 67.3083 60.8694 65.6833 62.7053 63.8051C66.5846 59.8481 66.6572 59.7425 66.149 58.6873C65.7859 57.9276 64.8628 57.6005 64.1367 57.9803Z" fill="#007BFF"/>
<path d="M63.951 64.6915C63.422 65.008 63.1108 65.6728 63.2042 66.2743C63.3079 66.8546 63.8784 67.4667 64.4281 67.5722C64.9571 67.6777 65.6728 67.3928 65.9632 66.9707C66.4404 66.2954 66.2744 65.2296 65.621 64.7442C65.1957 64.4277 64.4281 64.396 63.951 64.6915Z" fill="#007BFF"/>
<path d="M26.3298 59.6792C26.1327 59.7847 25.863 60.0274 25.7386 60.2279L25.5 60.5867V65.0396V69.4925L25.7386 69.8513C26.2261 70.6005 26.0912 70.59 31.8479 70.5583C36.8681 70.5266 37.003 70.5161 37.283 70.305C37.4386 70.189 37.6668 69.9568 37.7809 69.7986C37.9883 69.5136 37.9987 69.387 37.9987 65.0396C37.9987 60.6922 37.9883 60.5656 37.7809 60.2806C37.6668 60.1224 37.4386 59.8902 37.283 59.7742C37.003 59.5631 36.8681 59.5526 31.8479 59.5209C27.0973 59.4998 26.6617 59.5104 26.3298 59.6792ZM34.9389 65.0396V67.4138H31.7753H28.6117V65.0396V62.6654H31.7753H34.9389V65.0396Z" fill="#007BFF"/>
</svg>
