<svg width="130" height="100" viewBox="0 0 130 100" fill="none" xmlns="http://www.w3.org/2000/svg">
<path d="M37.39 100C29.5866 100 22.8889 98.0299 17.297 94.0898C11.7367 90.1182 7.45588 84.3972 4.45457 76.9267C1.48486 69.4247 0 60.394 0 49.8345C0.0315927 39.275 1.53225 30.2916 4.50196 22.8842C7.50327 15.4452 11.7841 9.77148 17.3444 5.86289C22.9363 1.9543 29.6182 0 37.39 0C45.1618 0 51.8436 1.9543 57.4355 5.86289C63.0274 9.77148 67.3082 15.4452 70.278 22.8842C73.2793 30.3231 74.7799 39.3065 74.7799 49.8345C74.7799 60.4255 73.2793 69.472 70.278 76.974C67.3082 84.4444 63.0274 90.1497 57.4355 94.0898C51.8752 98.0299 45.1934 100 37.39 100ZM37.39 85.201C43.4558 85.201 48.2421 82.2222 51.7488 76.2648C55.2872 70.2758 57.0564 61.4657 57.0564 49.8345C57.0564 42.1434 56.2508 35.6816 54.6396 30.4492C53.0283 25.2167 50.7537 21.2766 47.8156 18.6288C44.8774 15.9496 41.4022 14.6099 37.39 14.6099C31.3558 14.6099 26.5853 17.6044 23.0785 23.5934C19.5717 29.5508 17.8025 38.2979 17.7709 49.8345C17.7393 57.5571 18.5133 64.0504 20.093 69.3144C21.7042 74.5784 23.9789 78.55 26.917 81.2293C29.8551 83.8771 33.3461 85.201 37.39 85.201Z" fill="#E8E8E8"/>
<path d="M130 1.32388V98.156H112.419V18.3924H111.85L89.1506 32.8605V16.7849L113.272 1.32388H130Z" fill="#E8E8E8"/>
</svg>
