<svg width="160" height="100" viewBox="0 0 160 100" fill="none" xmlns="http://www.w3.org/2000/svg">
<path d="M38.0901 100C30.1406 100 23.3175 98.0299 17.6209 94.0898C11.9565 90.1182 7.59548 84.3972 4.53798 76.9267C1.51266 69.4247 0 60.394 0 49.8345C0.0321842 39.275 1.56094 30.2916 4.58626 22.8842C7.64376 15.4452 12.0047 9.77148 17.6692 5.86289C23.3658 1.9543 30.1727 0 38.0901 0C46.0074 0 52.8144 1.9543 58.511 5.86289C64.2076 9.77148 68.5686 15.4452 71.5939 22.8842C74.6514 30.3231 76.1801 39.3065 76.1801 49.8345C76.1801 60.4255 74.6514 69.472 71.5939 76.974C68.5686 84.4444 64.2076 90.1497 58.511 94.0898C52.8465 98.0299 46.0396 100 38.0901 100ZM38.0901 85.201C44.2694 85.201 49.1454 82.2222 52.7178 76.2648C56.3224 70.2758 58.1248 61.4657 58.1248 49.8345C58.1248 42.1434 57.3041 35.6816 55.6627 30.4492C54.0213 25.2167 51.704 21.2766 48.7109 18.6288C45.7177 15.9496 42.1775 14.6099 38.0901 14.6099C31.9429 14.6099 27.083 17.6044 23.5106 23.5934C19.9381 29.5508 18.1358 38.2979 18.1036 49.8345C18.0715 57.5571 18.86 64.0504 20.4692 69.3144C22.1106 74.5784 24.4278 78.55 27.421 81.2293C30.4141 83.8771 33.9705 85.201 38.0901 85.201Z" fill="#E8E8E8"/>
<path d="M92.22 98.156V85.4846L126.544 52.5296C129.827 49.2829 132.563 46.3987 134.751 43.8771C136.94 41.3554 138.581 38.9125 139.676 36.5485C140.77 34.1844 141.317 31.6627 141.317 28.9835C141.317 25.9259 140.609 23.3097 139.193 21.1348C137.777 18.9283 135.83 17.2262 133.351 16.0284C130.873 14.8306 128.057 14.2317 124.903 14.2317C121.652 14.2317 118.804 14.8936 116.358 16.2175C113.912 17.5099 112.013 19.3538 110.662 21.7494C109.342 24.145 108.682 26.9976 108.682 30.3073H91.6406C91.6406 24.1608 93.0728 18.818 95.9372 14.279C98.8016 9.73995 102.744 6.22537 107.765 3.73523C112.818 1.24508 118.611 0 125.144 0C131.774 0 137.6 1.21355 142.62 3.64066C147.641 6.06777 151.536 9.39322 154.303 13.617C157.103 17.8408 158.503 22.6635 158.503 28.0851C158.503 31.71 157.795 35.2719 156.379 38.7707C154.963 42.2695 152.469 46.1466 148.896 50.4019C145.356 54.6572 140.384 59.8109 133.979 65.8629L116.937 82.8369V83.4988H160V98.156H92.22Z" fill="#E8E8E8"/>
</svg>
