<svg width="101" height="100" viewBox="0 0 101 100" fill="none" xmlns="http://www.w3.org/2000/svg">
<circle cx="50.5" cy="50" r="50" fill="#E8F3FF"/>
<path d="M52.4471 23.1157C52.1538 23.2038 51.704 23.3798 51.44 23.5265C50.3449 24.1232 50.2765 24.2308 44.4001 34.9021C41.3886 40.36 38.8464 45.0941 38.7291 45.4169C38.5726 45.8864 38.5433 46.1896 38.5726 46.933C38.6019 47.7253 38.6508 47.96 38.9148 48.5273C39.521 49.8087 40.7628 50.7966 42.0632 51.0411C42.8259 51.1878 64.4834 51.178 65.1679 51.0313C66.8105 50.689 68.1696 49.3294 68.5705 47.6274C68.7269 46.9721 68.6487 45.8668 68.414 45.2702C68.1012 44.4779 57.3164 24.9839 56.9351 24.534C56.456 23.9569 55.8009 23.4972 55.1066 23.2429C54.3733 22.9788 53.1511 22.9201 52.4471 23.1157ZM54.1778 26.0403C54.3244 26.1186 54.5395 26.2848 54.6569 26.412C54.8329 26.5978 64.7474 44.4877 65.4905 45.9451C65.6274 46.219 65.735 46.5711 65.735 46.7471C65.735 47.2264 65.3634 47.7839 64.9039 48.0089C64.503 48.2045 64.2976 48.2045 53.552 48.2045C43.3343 48.2045 42.5912 48.1948 42.2686 48.0285C41.5255 47.6568 41.2712 46.7569 41.6917 45.9255C42.2588 44.8202 52.3884 26.5196 52.5253 26.3533C52.8871 25.9327 53.6791 25.786 54.1778 26.0403Z" fill="#007BFF"/>
<path d="M52.9267 31.2634C52.741 31.3515 52.4867 31.5764 52.3694 31.7623C52.1445 32.0948 52.1445 32.1144 52.1445 35.6748C52.1445 39.7144 52.1445 39.7242 52.8876 40.1643C53.5525 40.5556 54.3054 40.3502 54.8236 39.6557C55.0192 39.4014 55.0289 39.2449 55.0583 35.8606C55.0876 32.4861 55.0778 32.3198 54.8823 31.9285C54.5303 31.1852 53.6601 30.8917 52.9267 31.2634Z" fill="#007BFF"/>
<path d="M52.9264 42.512C51.9095 43.0206 51.89 44.4683 52.8873 45.0551C54.0899 45.7594 55.4979 44.4487 54.8917 43.1869C54.5299 42.4338 53.6695 42.1403 52.9264 42.512Z" fill="#007BFF"/>
<path d="M70.6532 50.9434C69.6853 51.139 69.2844 51.4618 64.7866 55.521L60.4062 59.4824L60.328 59.1498C59.8294 57.1838 58.6169 55.922 56.857 55.5503C56.5245 55.4818 54.9405 55.4427 52.4961 55.4427H48.6437L47.8322 55.0026C47.3726 54.7678 46.7077 54.4548 46.3362 54.3179C43.8038 53.3593 40.802 53.418 38.2696 54.4646L37.5559 54.758L37.067 54.3179C36.7052 53.9951 36.3923 53.819 35.923 53.6723C35.2972 53.4865 35.0528 53.4767 31.6501 53.506L28.0422 53.5354L27.4946 53.7897C26.7222 54.1516 26.1942 54.67 25.8227 55.4232L25.5 56.0785V63.2677V70.4569L25.8227 71.1122C26.1942 71.8654 26.7222 72.3838 27.4946 72.7457L28.0422 73H31.9044C35.6883 73 35.7763 73 36.2359 72.7848C36.7541 72.5403 37.6243 71.7773 37.8296 71.3665L37.9665 71.1024L48.6535 71.0731L59.3307 71.0438L60.1031 70.8188C61.6773 70.3786 62.9289 69.7135 63.9947 68.7647C64.8649 67.9822 74.7012 57.3305 74.9652 56.8903C75.1021 56.6556 75.2879 56.1763 75.3759 55.834C76.0994 53.0072 73.5474 50.3761 70.6532 50.9434ZM72.0514 53.9658C72.423 54.1907 72.6185 54.6504 72.5403 55.0808C72.4914 55.3351 71.4061 56.5676 67.2604 61.0278C61.5502 67.1802 61.4036 67.3073 59.8391 67.8355L59.0374 68.1094L48.7024 68.1387L38.3576 68.1681V62.9351C38.3576 58.6901 38.3772 57.6924 38.4847 57.6044C38.739 57.399 40.01 56.9295 40.7532 56.7632C41.3496 56.6262 41.7896 56.6067 42.8456 56.6458C44.6349 56.7143 45.4758 56.9882 47.1966 58.025L47.7833 58.3771H52.017C56.0747 58.3771 56.2801 58.3869 56.6419 58.5727C57.0818 58.7977 57.4241 59.3552 57.4241 59.8443C57.4241 60.3333 57.0818 60.8909 56.6419 61.1158C56.2703 61.3017 56.0747 61.3115 51.5477 61.3115C46.9326 61.3115 46.8349 61.3115 46.4731 61.5169C46.0429 61.7614 45.6909 62.3287 45.6909 62.7786C45.6909 63.2286 46.0429 63.7959 46.4829 64.0404C46.8544 64.2556 46.874 64.2556 52.4081 64.2263C58.6169 64.1871 58.4214 64.2067 59.9174 63.4633C60.3476 63.2579 60.944 62.8862 61.2374 62.6515C61.5307 62.4069 63.7795 60.4018 66.224 58.1815C68.6684 55.9611 70.8097 54.0636 70.9661 53.9658C71.3377 53.731 71.6701 53.731 72.0514 53.9658ZM35.2972 56.7143C35.4732 57.0664 35.4732 69.469 35.2972 69.8211L35.1701 70.0656L31.9337 70.095C29.0884 70.1145 28.6777 70.095 28.5409 69.958C28.404 69.8211 28.3844 69.1071 28.3844 63.2677C28.3844 57.4283 28.404 56.7143 28.5409 56.5773C28.6777 56.4404 29.0884 56.4208 31.9337 56.4404L35.1701 56.4698L35.2972 56.7143Z" fill="#007BFF"/>
</svg>
