<svg width="101" height="100" viewBox="0 0 101 100" fill="none" xmlns="http://www.w3.org/2000/svg">
<rect width="101" height="100" fill="#3F3F3F"/>
<g clip-path="url(#clip0_309_4263)">
<rect width="1280" height="7484" transform="translate(-988 -1210)" fill="white"/>
<circle cx="50.5" cy="50" r="50" fill="#E8F3FF"/>
<path d="M53.1042 22.9698C50.6643 23.2722 48.8604 23.8248 46.5873 24.9614C42.5938 26.9529 39.6221 29.9246 37.6305 33.9182C36.7442 35.6908 36.3063 36.9212 35.9413 38.6104C34.7422 44.314 36.0143 50.174 39.4657 54.7723C39.8098 55.2206 40.1122 55.6482 40.133 55.7107C40.1539 55.7629 39.6846 56.3051 39.0799 56.9098L37.985 58.0047L37.2864 57.3061C36.8902 56.9307 36.4627 56.5657 36.3376 56.4927C35.9935 56.3259 35.2531 56.3363 34.8986 56.524C34.7318 56.6179 32.7298 58.5573 30.4567 60.8408C26.776 64.532 26.2859 65.0638 26.0044 65.6477C23.9711 69.9853 28.4651 74.4377 32.709 72.3001C33.3763 71.9665 33.8872 71.4868 37.6409 67.7748C41.426 64.0315 41.843 63.5936 41.9473 63.1661C42.135 62.4466 41.9577 62.0087 41.0819 61.1119L40.3415 60.3403L41.426 59.2559C42.0307 58.6511 42.5417 58.1611 42.5729 58.1611C42.6042 58.1611 43.0839 58.5052 43.6469 58.9222C48.2244 62.3319 54.2095 63.6144 59.7671 62.3736C61.5502 61.9774 62.6867 61.5707 64.4176 60.7053C67.4831 59.1934 69.8397 57.1705 71.8938 54.2926C72.7279 53.1352 74.0313 50.5702 74.4693 49.2355C77.3471 40.4142 74.0626 31.0508 66.3153 25.9936C62.5199 23.5224 57.6504 22.4067 53.1042 22.9698ZM58.6619 26.4629C65.356 27.7767 70.5487 32.9798 71.8938 39.7365C72.1962 41.2693 72.2274 44.2514 71.9459 45.7008C70.7051 52.0508 66.3779 56.9203 60.3198 58.7867C58.5367 59.3289 57.6192 59.454 55.5025 59.454C53.8759 59.454 53.3858 59.4227 52.3744 59.2142C45.5551 57.817 40.4667 52.7182 39.1112 45.9302C38.7775 44.2514 38.7775 41.4152 39.1112 39.7365C40.06 35.013 42.7502 31.1446 46.9002 28.5483C48.6936 27.4326 51.2587 26.5463 53.563 26.2543C54.7621 26.1083 57.3793 26.2126 58.6619 26.4629ZM34.7839 65.9084C31.2804 69.4223 31.0511 69.5995 30.1856 69.4744C29.5808 69.3806 28.9656 68.8175 28.8614 68.244C28.6841 67.316 28.6633 67.3473 32.2814 63.7083L35.639 60.3508L36.8068 61.5186L37.985 62.6968L34.7839 65.9084Z" fill="#007BFF"/>
<path d="M58.1617 31.3009C57.1815 31.7284 56.8687 33.0631 57.5569 33.8764C57.9323 34.3144 58.3911 34.4916 59.1731 34.4916H59.83L57.6716 36.65L55.5028 38.8084L54.2307 37.5467C52.8543 36.1912 52.6145 36.0557 51.7699 36.2121C51.4362 36.2642 50.9045 36.7543 47.6617 39.9971C43.6368 44.0219 43.6994 43.9489 43.8766 44.8874C43.9705 45.3983 44.5961 46.0239 45.107 46.1178C46.0246 46.295 46.0455 46.2846 49.2153 43.1148L52.1661 40.1848L53.4382 41.4465C54.8146 42.802 55.0649 42.9375 55.899 42.7811C56.2327 42.7186 56.6915 42.3119 59.2148 39.7886L62.1552 36.869L62.1969 37.651C62.2387 38.4956 62.3846 38.8084 62.9477 39.2255C63.1562 39.3923 63.3856 39.4445 63.8444 39.4445C64.5013 39.4445 64.835 39.2776 65.2416 38.725C65.4502 38.4539 65.4606 38.3079 65.4606 35.3258C65.4606 32.3436 65.4502 32.1977 65.2416 31.9266C65.1269 31.7702 64.8976 31.5408 64.7411 31.4261C64.47 31.2175 64.3032 31.2071 61.4671 31.1862C59.1418 31.1654 58.4015 31.1862 58.1617 31.3009Z" fill="#007BFF"/>
<path d="M61.4979 41.3113C61.1121 41.4885 60.768 41.8535 60.622 42.2393C60.549 42.427 60.5073 44.0432 60.5073 46.8585V51.1753H58.8494H57.1811L57.1498 49.2045C57.1185 47.0461 57.0872 46.9523 56.399 46.4414C55.9924 46.139 55.0123 46.139 54.6056 46.4414C53.9174 46.9523 53.8861 47.0461 53.8548 49.2045L53.8236 51.1753H52.1657H50.5078L50.4765 49.2045C50.4452 47.0461 50.4139 46.9523 49.7257 46.4414C49.3191 46.139 48.3389 46.139 47.9323 46.4414C47.2441 46.9523 47.2128 47.0461 47.1815 49.1837L47.1503 51.1335L46.7019 51.2587C45.2317 51.6445 45.0961 53.782 46.5038 54.3659C47.0043 54.5849 64.0004 54.5849 64.5009 54.3659C65.9085 53.782 65.773 51.6445 64.3027 51.2587L63.8544 51.1335L63.8231 46.6812C63.7918 42.3644 63.7814 42.2184 63.5729 41.9369C63.4582 41.7805 63.2392 41.5511 63.0932 41.4468C62.7387 41.1861 61.915 41.1132 61.4979 41.3113Z" fill="#007BFF"/>
</g>
<defs>
<clipPath id="clip0_309_4263">
<rect width="1280" height="7484" fill="white" transform="translate(-988 -1210)"/>
</clipPath>
</defs>
</svg>
